<svg width="48" height="48" viewBox="0 0 48 48" fill="none" xmlns="http://www.w3.org/2000/svg">
<circle cx="24" cy="24" r="24" fill="url(#paint0_linear_178_982)"/>
<path d="M39.0449 24.3799C39.0449 22.7532 37.7407 21.4136 36.1153 21.4136C35.7562 19.9591 35.1514 18.5621 34.282 17.2799L35.6239 15.9211C36.5122 15.0217 36.5122 13.5672 35.6239 12.6678C34.7356 11.7683 33.2991 11.7683 32.4108 12.6678L31.0689 14.0265C29.7836 13.1271 28.385 12.5147 26.9108 12.151C26.9108 12.0745 26.9297 11.9979 26.9297 11.9214C26.9297 10.2947 25.6066 8.95508 24.0001 8.95508C22.3936 8.95508 21.0705 10.2947 21.0705 11.9214C21.0705 11.9979 21.0705 12.0745 21.0894 12.151C19.6341 12.5147 18.2166 13.1271 16.9313 14.0265L15.5894 12.6486C14.7011 11.7492 13.2646 11.7492 12.3763 12.6486C11.488 13.5481 11.488 15.0025 12.3763 15.902L13.7182 17.2608C12.8488 18.543 12.244 19.94 11.8849 21.3945C10.2784 21.3945 8.95532 22.7341 8.95532 24.3608C8.95532 25.9875 10.2595 27.3079 11.8471 27.3271C12.1873 28.8198 12.811 30.2743 13.6993 31.5756L12.3574 32.9344C11.4691 33.8338 11.4691 35.2883 12.3574 36.1877C13.2457 37.0872 14.6822 37.0872 15.5705 36.1877L16.9124 34.829C18.1977 35.7284 19.5963 36.3408 21.0705 36.7045C21.2028 38.2163 22.4692 39.4028 23.9812 39.4028C25.4932 39.4028 26.7596 38.2163 26.8919 36.7045C28.3472 36.36 29.7647 35.7284 31.05 34.829L32.3919 36.1877C33.2802 37.0872 34.7167 37.0872 35.605 36.1877C36.4933 35.2883 36.4933 33.8338 35.605 32.9344L34.2631 31.5756C35.1514 30.2743 35.7751 28.8198 36.1153 27.3271C37.7407 27.3079 39.0449 25.9875 39.0449 24.3799ZM11.9227 26.5807C10.732 26.5807 9.74914 25.5856 9.74914 24.3799C9.74914 23.1742 10.732 22.1791 11.9227 22.1791C13.1134 22.1791 14.0963 23.1742 14.0963 24.3799C14.0963 25.5856 13.1134 26.5807 11.9227 26.5807ZM24.019 9.73972C25.2097 9.73972 26.1926 10.7349 26.1926 11.9405C26.1926 13.1462 25.2097 14.1413 24.019 14.1413C22.8283 14.1413 21.8454 13.1462 21.8454 11.9405C21.8454 10.7349 22.8094 9.73972 24.019 9.73972ZM24.019 38.6373C22.8283 38.6373 21.8454 37.6422 21.8454 36.4365C21.8454 35.2309 22.8283 34.2357 24.019 34.2357C25.2097 34.2357 26.1926 35.2309 26.1926 36.4365C26.1926 37.6422 25.2097 38.6373 24.019 38.6373ZM24.019 28.5902C21.6186 28.5902 19.6719 26.619 19.6719 24.1885C19.6719 21.7581 21.6186 19.7869 24.019 19.7869C26.4194 19.7869 28.3661 21.7581 28.3661 24.1885C28.3661 26.619 26.4194 28.5902 24.019 28.5902ZM33.9417 24.3799C33.9417 23.1742 34.9246 22.1791 36.1153 22.1791C37.306 22.1791 38.2889 23.1742 38.2889 24.3799C38.2889 25.5856 37.306 26.5807 36.1153 26.5807C34.9246 26.5807 33.9417 25.5856 33.9417 24.3799Z" fill="#161420"/>
<defs>
<linearGradient id="paint0_linear_178_982" x1="0" y1="28.44" x2="48" y2="28.44" gradientUnits="userSpaceOnUse">
<stop stop-color="#BB6CE6"/>
<stop offset="1" stop-color="#FFCD1D"/>
</linearGradient>
</defs>
</svg>
