<svg width="48" height="48" viewBox="0 0 48 48" fill="none" xmlns="http://www.w3.org/2000/svg">
<g clip-path="url(#clip0_209_164)">
<path d="M24 48C37.2548 48 48 37.2548 48 24C48 10.7452 37.2548 0 24 0C10.7452 0 0 10.7452 0 24C0 37.2548 10.7452 48 24 48Z" fill="#59D89D"/>
<path d="M39.0447 24.3799C39.0447 22.7532 37.7405 21.4136 36.1151 21.4136C35.756 19.9591 35.1512 18.5621 34.2818 17.2799L35.6237 15.9211C36.512 15.0217 36.512 13.5672 35.6237 12.6678C34.7354 11.7683 33.2989 11.7683 32.4106 12.6678L31.0687 14.0265C29.7834 13.1271 28.3848 12.5147 26.9106 12.151C26.9106 12.0745 26.9295 11.9979 26.9295 11.9214C26.9295 10.2947 25.6064 8.95508 23.9999 8.95508C22.3934 8.95508 21.0703 10.2947 21.0703 11.9214C21.0703 11.9979 21.0703 12.0745 21.0892 12.151C19.6339 12.5147 18.2164 13.1271 16.9311 14.0265L15.5892 12.6486C14.7009 11.7492 13.2644 11.7492 12.3761 12.6486C11.4878 13.5481 11.4878 15.0025 12.3761 15.902L13.718 17.2608C12.8486 18.543 12.2438 19.94 11.8847 21.3945C10.2782 21.3945 8.95508 22.7341 8.95508 24.3608C8.95508 25.9875 10.2593 27.3079 11.8469 27.3271C12.1871 28.8198 12.8108 30.2743 13.6991 31.5756L12.3572 32.9344C11.4689 33.8338 11.4689 35.2883 12.3572 36.1877C13.2455 37.0872 14.682 37.0872 15.5703 36.1877L16.9122 34.829C18.1975 35.7284 19.5961 36.3408 21.0703 36.7045C21.2026 38.2163 22.469 39.4028 23.981 39.4028C25.493 39.4028 26.7594 38.2163 26.8917 36.7045C28.347 36.36 29.7645 35.7284 31.0498 34.829L32.3917 36.1877C33.28 37.0872 34.7165 37.0872 35.6048 36.1877C36.4931 35.2883 36.4931 33.8338 35.6048 32.9344L34.2629 31.5756C35.1512 30.2743 35.7749 28.8198 36.1151 27.3271C37.7405 27.3079 39.0447 25.9875 39.0447 24.3799ZM11.9225 26.5807C10.7318 26.5807 9.7489 25.5856 9.7489 24.3799C9.7489 23.1742 10.7318 22.1791 11.9225 22.1791C13.1132 22.1791 14.0961 23.1742 14.0961 24.3799C14.0961 25.5856 13.1132 26.5807 11.9225 26.5807ZM24.0188 9.73972C25.2095 9.73972 26.1924 10.7349 26.1924 11.9405C26.1924 13.1462 25.2095 14.1413 24.0188 14.1413C22.8281 14.1413 21.8452 13.1462 21.8452 11.9405C21.8452 10.7349 22.8092 9.73972 24.0188 9.73972ZM24.0188 38.6373C22.8281 38.6373 21.8452 37.6422 21.8452 36.4365C21.8452 35.2309 22.8281 34.2357 24.0188 34.2357C25.2095 34.2357 26.1924 35.2309 26.1924 36.4365C26.1924 37.6422 25.2095 38.6373 24.0188 38.6373ZM24.0188 28.5902C21.6184 28.5902 19.6717 26.619 19.6717 24.1885C19.6717 21.7581 21.6184 19.7869 24.0188 19.7869C26.4192 19.7869 28.3659 21.7581 28.3659 24.1885C28.3659 26.619 26.4192 28.5902 24.0188 28.5902ZM33.9415 24.3799C33.9415 23.1742 34.9244 22.1791 36.1151 22.1791C37.3058 22.1791 38.2887 23.1742 38.2887 24.3799C38.2887 25.5856 37.3058 26.5807 36.1151 26.5807C34.9244 26.5807 33.9415 25.5856 33.9415 24.3799Z" fill="#161420"/>
</g>
<defs>
<clipPath id="clip0_209_164">
<rect width="48" height="48" fill="white"/>
</clipPath>
</defs>
</svg>
