<svg width="48" height="48" viewBox="0 0 48 48" fill="none" xmlns="http://www.w3.org/2000/svg">
<g clip-path="url(#clip0_209_167)">
<path d="M24 48C37.2548 48 48 37.2548 48 24C48 10.7452 37.2548 0 24 0C10.7452 0 0 10.7452 0 24C0 37.2548 10.7452 48 24 48Z" fill="#59D89D"/>
<path d="M33.9846 36H25.38V27.3207H36V34.0308C36 35.1139 35.0931 36 33.9846 36ZM25.38 17.1713C25.0115 17.0739 24.4033 16.9173 24.1428 16.6804C24.1242 16.6633 24.1112 16.6425 24.0926 16.6245C24.0752 16.6426 24.0611 16.6633 24.0425 16.6804C23.782 16.9173 23.5466 17.0738 23.1781 17.1713V25.1695H12V18.2778C12 17.1947 12.9069 16.3087 14.0154 16.3087H18.6949C18.1673 16.0196 17.6746 15.6846 17.2626 15.3092C15.3911 13.6053 15.0531 11.1496 16.5083 9.8232C17.1176 9.26888 17.945 9 18.8388 9C20.0792 9 21.4471 9.51808 22.535 10.5085C23.1672 11.0846 23.7068 11.8258 24.0926 12.6043C24.4796 11.8258 25.018 11.0846 25.6514 10.5085C26.7392 9.51808 28.1072 9 29.3476 9C30.2403 9 31.0687 9.26891 31.678 9.8232C33.1343 11.1496 32.7953 13.6053 30.9238 15.3092C30.5117 15.6846 30.019 16.0196 29.4915 16.3087H33.9846C35.0931 16.3087 35.9999 17.1947 35.9999 18.2778V25.1695H25.38V17.1713ZM21.1333 11.9781C20.4662 11.3721 19.6083 11.0095 18.8388 11.0095C18.6088 11.0095 18.1826 11.0463 17.9112 11.2944C17.849 11.3498 17.6605 11.5202 17.6605 11.943C17.6605 12.4179 17.9243 13.1645 18.6644 13.8391C19.5691 14.6623 21.0625 15.2837 22.1361 15.2837C22.5143 15.2837 22.6495 15.2017 22.6495 15.2017C22.8249 14.8588 22.3944 13.1261 21.1333 11.9781ZM25.5664 15.2304L25.5685 15.2294C25.5936 15.2294 25.7396 15.2837 26.0503 15.2837C27.1239 15.2837 28.6173 14.6623 29.522 13.8391C30.2621 13.1644 30.5248 12.4185 30.5248 11.944C30.5248 11.5213 30.3374 11.3503 30.2752 11.2944C30.0027 11.0463 29.5776 11.0096 29.3476 11.0096C28.577 11.0096 27.7202 11.3722 27.0531 11.9781C25.8007 13.1187 25.3669 14.8343 25.5664 15.2304ZM23.1781 36H14.0154C12.9069 36 12 35.1139 12 34.0309V27.3207H23.1781V36Z" fill="#161420"/>
</g>
<defs>
<clipPath id="clip0_209_167">
<rect width="48" height="48" fill="white"/>
</clipPath>
</defs>
</svg>
