<svg width="48" height="48" viewBox="0 0 48 48" fill="none" xmlns="http://www.w3.org/2000/svg">
<circle cx="24" cy="24" r="24" fill="url(#paint0_linear_566_47)"/>
<path d="M16.9969 13.1241C15.5823 13.6218 14.8226 15.1151 14.7964 17.3418C14.7964 18.5207 15.6347 19.8043 16.5516 20.0401C17.7304 20.3545 29.5715 21.5333 31.4053 21.5333C33.894 21.5333 35.0205 18.8612 33.2653 17.1584C32.7413 16.6607 31.5101 16.2939 24.3059 14.4863C18.0448 12.8883 17.7828 12.8621 16.9969 13.1241ZM21.3718 15.5604C24.3321 16.2677 27.9997 17.2108 30.6456 17.9181C32.3746 18.3897 32.7413 18.7826 32.1126 19.5424L31.8506 19.8567L31.0123 19.8043C24.7512 19.3328 17.2327 18.4683 16.9445 18.1801C16.2634 17.5514 16.604 15.2199 17.4161 14.8793C17.7828 14.6697 17.6257 14.6435 21.3718 15.5604Z" fill="url(#paint1_linear_566_47)"/>
<path d="M16.9969 13.1241C15.5823 13.6218 14.8226 15.1151 14.7964 17.3418C14.7964 18.5207 15.6347 19.8043 16.5516 20.0401C17.7304 20.3545 29.5715 21.5333 31.4053 21.5333C33.894 21.5333 35.0205 18.8612 33.2653 17.1584C32.7413 16.6607 31.5101 16.2939 24.3059 14.4863C18.0448 12.8883 17.7828 12.8621 16.9969 13.1241ZM21.3718 15.5604C24.3321 16.2677 27.9997 17.2108 30.6456 17.9181C32.3746 18.3897 32.7413 18.7826 32.1126 19.5424L31.8506 19.8567L31.0123 19.8043C24.7512 19.3328 17.2327 18.4683 16.9445 18.1801C16.2634 17.5514 16.604 15.2199 17.4161 14.8793C17.7828 14.6697 17.6257 14.6435 21.3718 15.5604Z" fill="url(#paint2_linear_566_47)"/>
<path d="M16.9969 13.1241C15.5823 13.6218 14.8226 15.1151 14.7964 17.3418C14.7964 18.5207 15.6347 19.8043 16.5516 20.0401C17.7304 20.3545 29.5715 21.5333 31.4053 21.5333C33.894 21.5333 35.0205 18.8612 33.2653 17.1584C32.7413 16.6607 31.5101 16.2939 24.3059 14.4863C18.0448 12.8883 17.7828 12.8621 16.9969 13.1241ZM21.3718 15.5604C24.3321 16.2677 27.9997 17.2108 30.6456 17.9181C32.3746 18.3897 32.7413 18.7826 32.1126 19.5424L31.8506 19.8567L31.0123 19.8043C24.7512 19.3328 17.2327 18.4683 16.9445 18.1801C16.2634 17.5514 16.604 15.2199 17.4161 14.8793C17.7828 14.6697 17.6257 14.6435 21.3718 15.5604Z" fill="black"/>
<path d="M11.8884 21.5334C9.79263 21.7953 8.3518 24.5198 9.29489 26.3798C9.71404 27.2181 16.7086 34.1079 17.5993 34.5533C18.4114 34.9724 18.7782 34.9986 25.668 34.9986C33.9201 34.9986 33.3437 35.1296 35.0727 32.8766C38.5045 28.397 38.9499 27.4277 38.3212 25.7511C37.5614 23.7339 37.0899 23.5767 30.5668 23.0004C24.7511 22.5026 14.4033 21.6119 13.696 21.5595C13.2506 21.5334 12.8053 21.481 12.7005 21.481C12.5957 21.481 12.229 21.481 11.8884 21.5334ZM16.6824 23.6029C18.621 23.7601 20.7954 23.9435 21.5551 23.9959C28.6283 24.546 35.5443 25.2533 36.042 25.4891C36.6445 25.7773 36.9589 26.9823 36.6183 27.6896C36.1206 28.6851 32.8984 32.9028 32.4792 33.1124C32.1387 33.2696 21.817 33.3744 19.7999 33.2172L18.4376 33.1124L17.7303 32.4313C17.3636 32.0383 15.7917 30.5713 14.2723 29.1305C11.0763 26.0916 10.7619 25.7249 10.7619 25.1485C10.7619 23.8911 11.5478 23.1576 12.7267 23.2624C12.9887 23.2885 14.7701 23.4195 16.6824 23.6029Z" fill="url(#paint3_linear_566_47)"/>
<path d="M11.8884 21.5334C9.79263 21.7953 8.3518 24.5198 9.29489 26.3798C9.71404 27.2181 16.7086 34.1079 17.5993 34.5533C18.4114 34.9724 18.7782 34.9986 25.668 34.9986C33.9201 34.9986 33.3437 35.1296 35.0727 32.8766C38.5045 28.397 38.9499 27.4277 38.3212 25.7511C37.5614 23.7339 37.0899 23.5767 30.5668 23.0004C24.7511 22.5026 14.4033 21.6119 13.696 21.5595C13.2506 21.5334 12.8053 21.481 12.7005 21.481C12.5957 21.481 12.229 21.481 11.8884 21.5334ZM16.6824 23.6029C18.621 23.7601 20.7954 23.9435 21.5551 23.9959C28.6283 24.546 35.5443 25.2533 36.042 25.4891C36.6445 25.7773 36.9589 26.9823 36.6183 27.6896C36.1206 28.6851 32.8984 32.9028 32.4792 33.1124C32.1387 33.2696 21.817 33.3744 19.7999 33.2172L18.4376 33.1124L17.7303 32.4313C17.3636 32.0383 15.7917 30.5713 14.2723 29.1305C11.0763 26.0916 10.7619 25.7249 10.7619 25.1485C10.7619 23.8911 11.5478 23.1576 12.7267 23.2624C12.9887 23.2885 14.7701 23.4195 16.6824 23.6029Z" fill="url(#paint4_linear_566_47)"/>
<path d="M11.8884 21.5334C9.79263 21.7953 8.3518 24.5198 9.29489 26.3798C9.71404 27.2181 16.7086 34.1079 17.5993 34.5533C18.4114 34.9724 18.7782 34.9986 25.668 34.9986C33.9201 34.9986 33.3437 35.1296 35.0727 32.8766C38.5045 28.397 38.9499 27.4277 38.3212 25.7511C37.5614 23.7339 37.0899 23.5767 30.5668 23.0004C24.7511 22.5026 14.4033 21.6119 13.696 21.5595C13.2506 21.5334 12.8053 21.481 12.7005 21.481C12.5957 21.481 12.229 21.481 11.8884 21.5334ZM16.6824 23.6029C18.621 23.7601 20.7954 23.9435 21.5551 23.9959C28.6283 24.546 35.5443 25.2533 36.042 25.4891C36.6445 25.7773 36.9589 26.9823 36.6183 27.6896C36.1206 28.6851 32.8984 32.9028 32.4792 33.1124C32.1387 33.2696 21.817 33.3744 19.7999 33.2172L18.4376 33.1124L17.7303 32.4313C17.3636 32.0383 15.7917 30.5713 14.2723 29.1305C11.0763 26.0916 10.7619 25.7249 10.7619 25.1485C10.7619 23.8911 11.5478 23.1576 12.7267 23.2624C12.9887 23.2885 14.7701 23.4195 16.6824 23.6029Z" fill="black"/>
<defs>
<linearGradient id="paint0_linear_566_47" x1="0" y1="28.44" x2="48" y2="28.44" gradientUnits="userSpaceOnUse">
<stop stop-color="#BB6CE6"/>
<stop offset="1" stop-color="#FFCD1D"/>
</linearGradient>
<linearGradient id="paint1_linear_566_47" x1="24.6817" y1="18.9199" x2="23.2269" y2="13.6451" gradientUnits="userSpaceOnUse">
<stop stop-color="#1E3197"/>
<stop offset="1" stop-color="#7B61FF" stop-opacity="0"/>
</linearGradient>
<linearGradient id="paint2_linear_566_47" x1="24.7582" y1="12.9801" x2="24.1767" y2="23.8121" gradientUnits="userSpaceOnUse">
<stop stop-color="#9644B4"/>
<stop offset="1" stop-color="white" stop-opacity="0"/>
</linearGradient>
<linearGradient id="paint3_linear_566_47" x1="25.068" y1="30.5879" x2="22.689" y2="22.2688" gradientUnits="userSpaceOnUse">
<stop stop-color="#1E3197"/>
<stop offset="1" stop-color="#7B61FF" stop-opacity="0"/>
</linearGradient>
<linearGradient id="paint4_linear_566_47" x1="24.0174" y1="21.447" x2="23.0619" y2="38.6178" gradientUnits="userSpaceOnUse">
<stop stop-color="#9644B4"/>
<stop offset="1" stop-color="white" stop-opacity="0"/>
</linearGradient>
</defs>
</svg>
