<svg width="48" height="48" viewBox="0 0 48 48" fill="none" xmlns="http://www.w3.org/2000/svg">
<g clip-path="url(#clip0_209_170)">
<path d="M24 48C37.2548 48 48 37.2548 48 24C48 10.7452 37.2548 0 24 0C10.7452 0 0 10.7452 0 24C0 37.2548 10.7452 48 24 48Z" fill="#59D89D"/>
<path d="M16.9974 13.1241C15.5828 13.6218 14.8231 15.1151 14.7969 17.3418C14.7969 18.5207 15.6352 19.8043 16.5521 20.0401C17.7309 20.3545 29.572 21.5333 31.4058 21.5333C33.8945 21.5333 35.021 18.8612 33.2658 17.1584C32.7418 16.6607 31.5106 16.2939 24.3064 14.4863C18.0453 12.8883 17.7833 12.8621 16.9974 13.1241ZM21.3723 15.5604C24.3326 16.2677 28.0002 17.2108 30.6461 17.9181C32.3751 18.3897 32.7418 18.7826 32.1131 19.5424L31.8511 19.8567L31.0128 19.8043C24.7517 19.3328 17.2332 18.4683 16.945 18.1801C16.2639 17.5514 16.6045 15.2199 17.4166 14.8793C17.7833 14.6697 17.6262 14.6435 21.3723 15.5604Z" fill="url(#paint0_linear_209_170)"/>
<path d="M16.9974 13.1241C15.5828 13.6218 14.8231 15.1151 14.7969 17.3418C14.7969 18.5207 15.6352 19.8043 16.5521 20.0401C17.7309 20.3545 29.572 21.5333 31.4058 21.5333C33.8945 21.5333 35.021 18.8612 33.2658 17.1584C32.7418 16.6607 31.5106 16.2939 24.3064 14.4863C18.0453 12.8883 17.7833 12.8621 16.9974 13.1241ZM21.3723 15.5604C24.3326 16.2677 28.0002 17.2108 30.6461 17.9181C32.3751 18.3897 32.7418 18.7826 32.1131 19.5424L31.8511 19.8567L31.0128 19.8043C24.7517 19.3328 17.2332 18.4683 16.945 18.1801C16.2639 17.5514 16.6045 15.2199 17.4166 14.8793C17.7833 14.6697 17.6262 14.6435 21.3723 15.5604Z" fill="url(#paint1_linear_209_170)"/>
<path d="M16.9974 13.1241C15.5828 13.6218 14.8231 15.1151 14.7969 17.3418C14.7969 18.5207 15.6352 19.8043 16.5521 20.0401C17.7309 20.3545 29.572 21.5333 31.4058 21.5333C33.8945 21.5333 35.021 18.8612 33.2658 17.1584C32.7418 16.6607 31.5106 16.2939 24.3064 14.4863C18.0453 12.8883 17.7833 12.8621 16.9974 13.1241ZM21.3723 15.5604C24.3326 16.2677 28.0002 17.2108 30.6461 17.9181C32.3751 18.3897 32.7418 18.7826 32.1131 19.5424L31.8511 19.8567L31.0128 19.8043C24.7517 19.3328 17.2332 18.4683 16.945 18.1801C16.2639 17.5514 16.6045 15.2199 17.4166 14.8793C17.7833 14.6697 17.6262 14.6435 21.3723 15.5604Z" fill="black"/>
<path d="M11.8884 21.5334C9.79263 21.7953 8.3518 24.5198 9.29489 26.3798C9.71404 27.2181 16.7086 34.1079 17.5993 34.5533C18.4114 34.9724 18.7782 34.9986 25.668 34.9986C33.9201 34.9986 33.3437 35.1296 35.0727 32.8766C38.5045 28.397 38.9499 27.4277 38.3212 25.7511C37.5614 23.7339 37.0899 23.5767 30.5668 23.0004C24.7511 22.5026 14.4033 21.6119 13.696 21.5595C13.2506 21.5334 12.8053 21.481 12.7005 21.481C12.5957 21.481 12.229 21.481 11.8884 21.5334ZM16.6824 23.6029C18.621 23.7601 20.7954 23.9435 21.5551 23.9959C28.6283 24.546 35.5443 25.2533 36.042 25.4891C36.6445 25.7773 36.9589 26.9823 36.6183 27.6896C36.1206 28.6851 32.8984 32.9028 32.4792 33.1124C32.1387 33.2696 21.817 33.3744 19.7999 33.2172L18.4376 33.1124L17.7303 32.4313C17.3636 32.0383 15.7917 30.5713 14.2723 29.1305C11.0763 26.0916 10.7619 25.7249 10.7619 25.1485C10.7619 23.8911 11.5478 23.1576 12.7267 23.2624C12.9887 23.2885 14.7701 23.4195 16.6824 23.6029Z" fill="url(#paint2_linear_209_170)"/>
<path d="M11.8884 21.5334C9.79263 21.7953 8.3518 24.5198 9.29489 26.3798C9.71404 27.2181 16.7086 34.1079 17.5993 34.5533C18.4114 34.9724 18.7782 34.9986 25.668 34.9986C33.9201 34.9986 33.3437 35.1296 35.0727 32.8766C38.5045 28.397 38.9499 27.4277 38.3212 25.7511C37.5614 23.7339 37.0899 23.5767 30.5668 23.0004C24.7511 22.5026 14.4033 21.6119 13.696 21.5595C13.2506 21.5334 12.8053 21.481 12.7005 21.481C12.5957 21.481 12.229 21.481 11.8884 21.5334ZM16.6824 23.6029C18.621 23.7601 20.7954 23.9435 21.5551 23.9959C28.6283 24.546 35.5443 25.2533 36.042 25.4891C36.6445 25.7773 36.9589 26.9823 36.6183 27.6896C36.1206 28.6851 32.8984 32.9028 32.4792 33.1124C32.1387 33.2696 21.817 33.3744 19.7999 33.2172L18.4376 33.1124L17.7303 32.4313C17.3636 32.0383 15.7917 30.5713 14.2723 29.1305C11.0763 26.0916 10.7619 25.7249 10.7619 25.1485C10.7619 23.8911 11.5478 23.1576 12.7267 23.2624C12.9887 23.2885 14.7701 23.4195 16.6824 23.6029Z" fill="url(#paint3_linear_209_170)"/>
<path d="M11.8884 21.5334C9.79263 21.7953 8.3518 24.5198 9.29489 26.3798C9.71404 27.2181 16.7086 34.1079 17.5993 34.5533C18.4114 34.9724 18.7782 34.9986 25.668 34.9986C33.9201 34.9986 33.3437 35.1296 35.0727 32.8766C38.5045 28.397 38.9499 27.4277 38.3212 25.7511C37.5614 23.7339 37.0899 23.5767 30.5668 23.0004C24.7511 22.5026 14.4033 21.6119 13.696 21.5595C13.2506 21.5334 12.8053 21.481 12.7005 21.481C12.5957 21.481 12.229 21.481 11.8884 21.5334ZM16.6824 23.6029C18.621 23.7601 20.7954 23.9435 21.5551 23.9959C28.6283 24.546 35.5443 25.2533 36.042 25.4891C36.6445 25.7773 36.9589 26.9823 36.6183 27.6896C36.1206 28.6851 32.8984 32.9028 32.4792 33.1124C32.1387 33.2696 21.817 33.3744 19.7999 33.2172L18.4376 33.1124L17.7303 32.4313C17.3636 32.0383 15.7917 30.5713 14.2723 29.1305C11.0763 26.0916 10.7619 25.7249 10.7619 25.1485C10.7619 23.8911 11.5478 23.1576 12.7267 23.2624C12.9887 23.2885 14.7701 23.4195 16.6824 23.6029Z" fill="black"/>
</g>
<defs>
<linearGradient id="paint0_linear_209_170" x1="24.6822" y1="18.9199" x2="23.2274" y2="13.6451" gradientUnits="userSpaceOnUse">
<stop stop-color="#1E3197"/>
<stop offset="1" stop-color="#7B61FF" stop-opacity="0"/>
</linearGradient>
<linearGradient id="paint1_linear_209_170" x1="24.7587" y1="12.9801" x2="24.1772" y2="23.8121" gradientUnits="userSpaceOnUse">
<stop stop-color="#9644B4"/>
<stop offset="1" stop-color="white" stop-opacity="0"/>
</linearGradient>
<linearGradient id="paint2_linear_209_170" x1="25.068" y1="30.5879" x2="22.689" y2="22.2688" gradientUnits="userSpaceOnUse">
<stop stop-color="#1E3197"/>
<stop offset="1" stop-color="#7B61FF" stop-opacity="0"/>
</linearGradient>
<linearGradient id="paint3_linear_209_170" x1="24.0174" y1="21.447" x2="23.0619" y2="38.6178" gradientUnits="userSpaceOnUse">
<stop stop-color="#9644B4"/>
<stop offset="1" stop-color="white" stop-opacity="0"/>
</linearGradient>
<clipPath id="clip0_209_170">
<rect width="48" height="48" fill="white"/>
</clipPath>
</defs>
</svg>
