<svg id="Gradient" height="512" viewBox="0 0 16 16" width="512" xmlns="http://www.w3.org/2000/svg" xmlns:xlink="http://www.w3.org/1999/xlink"><linearGradient id="linear-gradient" gradientUnits="userSpaceOnUse" x1="2.698" x2="13.303" y1="2.698" y2="13.303"><stop offset="0" stop-color="#87f1fc"/><stop offset=".2557" stop-color="#7fd4fb"/><stop offset=".5295" stop-color="#78bcfb"/><stop offset=".7844" stop-color="#74aefa"/><stop offset="1" stop-color="#73a9fa"/></linearGradient><path d="m8 15.5a7.5 7.5 0 1 0 -7.5-7.5 7.5027 7.5027 0 0 0 7.5 7.5zm-3.26-9.42a.845.845 0 0 1 1.18 0l1.73 1.72a.4833.4833 0 0 0 .7 0l1.73-1.72a.83.83 0 0 1 1.42.59.8671.8671 0 0 1 -.24.59l-2.67 2.66a.8268.8268 0 0 1 -1.18 0l-2.67-2.66a.8671.8671 0 0 1 -.24-.59.8305.8305 0 0 1 .24-.59z" fill="url(#linear-gradient)"/></svg>