<svg width="322" height="240" viewBox="0 0 322 240" fill="none" xmlns="http://www.w3.org/2000/svg">
<g filter="url(#filter0_i_3557_42962)">
<path d="M88.0324 1.49167C72.7077 6.80135 64.2952 22.9986 64.2416 47.1871C64.2416 59.8982 73.4043 74.0037 83.3171 76.5781C96.0698 79.9033 224.829 92.8289 244.762 92.7753C271.714 92.668 284.092 63.7598 265.016 45.3636C259.283 39.893 245.887 35.8705 167.656 16.2408C99.3919 -0.868185 96.4985 -1.40452 88.0324 1.49167ZM135.507 28.0401C167.603 35.8169 207.415 45.9535 236.242 53.7304C254.943 58.7719 258.961 63.2234 252.156 71.322L249.317 74.7009L240.1 74.0037C171.997 68.8549 90.5508 59.4155 87.2822 56.3047C79.9414 49.4397 83.5314 24.2321 92.319 20.3705C96.6056 18.4934 94.8374 18.1716 135.507 28.0401Z" fill="url(#paint0_linear_3557_42962)"/>
<path d="M88.0324 1.49167C72.7077 6.80135 64.2952 22.9986 64.2416 47.1871C64.2416 59.8982 73.4043 74.0037 83.3171 76.5781C96.0698 79.9033 224.829 92.8289 244.762 92.7753C271.714 92.668 284.092 63.7598 265.016 45.3636C259.283 39.893 245.887 35.8705 167.656 16.2408C99.3919 -0.868185 96.4985 -1.40452 88.0324 1.49167ZM135.507 28.0401C167.603 35.8169 207.415 45.9535 236.242 53.7304C254.943 58.7719 258.961 63.2234 252.156 71.322L249.317 74.7009L240.1 74.0037C171.997 68.8549 90.5508 59.4155 87.2822 56.3047C79.9414 49.4397 83.5314 24.2321 92.319 20.3705C96.6056 18.4934 94.8374 18.1716 135.507 28.0401Z" fill="url(#paint1_linear_3557_42962)"/>
<path d="M88.0324 1.49167C72.7077 6.80135 64.2952 22.9986 64.2416 47.1871C64.2416 59.8982 73.4043 74.0037 83.3171 76.5781C96.0698 79.9033 224.829 92.8289 244.762 92.7753C271.714 92.668 284.092 63.7598 265.016 45.3636C259.283 39.893 245.887 35.8705 167.656 16.2408C99.3919 -0.868185 96.4985 -1.40452 88.0324 1.49167ZM135.507 28.0401C167.603 35.8169 207.415 45.9535 236.242 53.7304C254.943 58.7719 258.961 63.2234 252.156 71.322L249.317 74.7009L240.1 74.0037C171.997 68.8549 90.5508 59.4155 87.2822 56.3047C79.9414 49.4397 83.5314 24.2321 92.319 20.3705C96.6056 18.4934 94.8374 18.1716 135.507 28.0401Z" fill="url(#paint2_radial_3557_42962)"/>
<path d="M32.3075 92.8833C9.64198 95.7259 -6.21853 125.278 4.06937 145.444C8.73107 154.508 84.7115 229.433 94.2492 234.314C103.305 238.98 107.27 239.195 182.125 239.141C271.662 239.087 265.446 240.482 284.147 216.132C321.44 167.541 326.209 157.082 319.35 138.74C311.206 116.965 305.955 115.087 235.172 108.92C171.998 103.395 59.6883 93.8487 51.9188 93.2587C47.2035 92.9369 42.3811 92.5079 41.2022 92.347C40.0234 92.1861 36.0047 92.4006 32.3075 92.8833ZM84.6043 115.248C105.555 117.018 129.4 118.949 137.651 119.593C214.382 125.6 289.558 133.323 294.863 135.736C301.454 138.74 304.937 151.88 301.186 159.496C295.881 170.222 260.785 216.132 256.23 218.331C252.586 220.101 140.545 221.12 118.576 219.565L103.787 218.546L96.071 211.144C91.838 207.122 74.9058 190.978 58.4559 175.371C23.7343 142.387 20.305 138.525 20.305 132.089C20.305 118.359 28.7174 110.368 41.7381 111.655C44.4172 111.923 63.707 113.532 84.6043 115.248Z" fill="url(#paint3_linear_3557_42962)"/>
<path d="M32.3075 92.8833C9.64198 95.7259 -6.21853 125.278 4.06937 145.444C8.73107 154.508 84.7115 229.433 94.2492 234.314C103.305 238.98 107.27 239.195 182.125 239.141C271.662 239.087 265.446 240.482 284.147 216.132C321.44 167.541 326.209 157.082 319.35 138.74C311.206 116.965 305.955 115.087 235.172 108.92C171.998 103.395 59.6883 93.8487 51.9188 93.2587C47.2035 92.9369 42.3811 92.5079 41.2022 92.347C40.0234 92.1861 36.0047 92.4006 32.3075 92.8833ZM84.6043 115.248C105.555 117.018 129.4 118.949 137.651 119.593C214.382 125.6 289.558 133.323 294.863 135.736C301.454 138.74 304.937 151.88 301.186 159.496C295.881 170.222 260.785 216.132 256.23 218.331C252.586 220.101 140.545 221.12 118.576 219.565L103.787 218.546L96.071 211.144C91.838 207.122 74.9058 190.978 58.4559 175.371C23.7343 142.387 20.305 138.525 20.305 132.089C20.305 118.359 28.7174 110.368 41.7381 111.655C44.4172 111.923 63.707 113.532 84.6043 115.248Z" fill="url(#paint4_linear_3557_42962)"/>
<path d="M32.3075 92.8833C9.64198 95.7259 -6.21853 125.278 4.06937 145.444C8.73107 154.508 84.7115 229.433 94.2492 234.314C103.305 238.98 107.27 239.195 182.125 239.141C271.662 239.087 265.446 240.482 284.147 216.132C321.44 167.541 326.209 157.082 319.35 138.74C311.206 116.965 305.955 115.087 235.172 108.92C171.998 103.395 59.6883 93.8487 51.9188 93.2587C47.2035 92.9369 42.3811 92.5079 41.2022 92.347C40.0234 92.1861 36.0047 92.4006 32.3075 92.8833ZM84.6043 115.248C105.555 117.018 129.4 118.949 137.651 119.593C214.382 125.6 289.558 133.323 294.863 135.736C301.454 138.74 304.937 151.88 301.186 159.496C295.881 170.222 260.785 216.132 256.23 218.331C252.586 220.101 140.545 221.12 118.576 219.565L103.787 218.546L96.071 211.144C91.838 207.122 74.9058 190.978 58.4559 175.371C23.7343 142.387 20.305 138.525 20.305 132.089C20.305 118.359 28.7174 110.368 41.7381 111.655C44.4172 111.923 63.707 113.532 84.6043 115.248Z" fill="url(#paint5_radial_3557_42962)"/>
</g>
<defs>
<filter id="filter0_i_3557_42962" x="0.867432" y="0.154297" width="327.473" height="245.343" filterUnits="userSpaceOnUse" color-interpolation-filters="sRGB">
<feFlood flood-opacity="0" result="BackgroundImageFix"/>
<feBlend mode="normal" in="SourceGraphic" in2="BackgroundImageFix" result="shape"/>
<feColorMatrix in="SourceAlpha" type="matrix" values="0 0 0 0 0 0 0 0 0 0 0 0 0 0 0 0 0 0 127 0" result="hardAlpha"/>
<feOffset dx="6.35008" dy="6.35008"/>
<feGaussianBlur stdDeviation="6.35008"/>
<feComposite in2="hardAlpha" operator="arithmetic" k2="-1" k3="1"/>
<feColorMatrix type="matrix" values="0 0 0 0 0.470833 0 0 0 0 0.470833 0 0 0 0 0.470833 0 0 0 0.38 0"/>
<feBlend mode="normal" in2="shape" result="effect1_innerShadow_3557_42962"/>
</filter>
<linearGradient id="paint0_linear_3557_42962" x1="197.273" y1="57.3836" x2="181.472" y2="0.0965391" gradientUnits="userSpaceOnUse">
<stop stop-color="#1E3197"/>
<stop offset="1" stop-color="#7B61FF" stop-opacity="0"/>
</linearGradient>
<linearGradient id="paint1_linear_3557_42962" x1="174.859" y1="0.154204" x2="168.544" y2="117.797" gradientUnits="userSpaceOnUse">
<stop stop-color="#9644B4"/>
<stop offset="1" stop-color="white" stop-opacity="0"/>
</linearGradient>
<radialGradient id="paint2_radial_3557_42962" cx="0" cy="0" r="1" gradientUnits="userSpaceOnUse" gradientTransform="translate(85.2031 25.5895) rotate(13.404) scale(164.583 110.937)">
<stop stop-color="#1DD2D2"/>
<stop offset="1" stop-color="white" stop-opacity="0"/>
</radialGradient>
<linearGradient id="paint3_linear_3557_42962" x1="204.302" y1="183.032" x2="178.464" y2="92.6815" gradientUnits="userSpaceOnUse">
<stop stop-color="#1E3197"/>
<stop offset="1" stop-color="#7B61FF" stop-opacity="0"/>
</linearGradient>
<linearGradient id="paint4_linear_3557_42962" x1="170.026" y1="92.294" x2="159.648" y2="278.779" gradientUnits="userSpaceOnUse">
<stop stop-color="#9644B4"/>
<stop offset="1" stop-color="white" stop-opacity="0"/>
</linearGradient>
<radialGradient id="paint5_radial_3557_42962" cx="0" cy="0" r="1" gradientUnits="userSpaceOnUse" gradientTransform="translate(32.9222 132.622) rotate(13.8787) scale(252.19 175.539)">
<stop stop-color="#1DD2D2"/>
<stop offset="1" stop-color="white" stop-opacity="0"/>
</radialGradient>
</defs>
</svg>
