<svg width="54" height="40" viewBox="0 0 54 40" fill="none" xmlns="http://www.w3.org/2000/svg">
<path d="M14.5401 0.225635C11.968 1.13062 10.5867 3.84558 10.5391 7.89421C10.5391 10.0376 12.0632 12.3715 13.7303 12.8002C15.8737 13.3718 37.4029 15.5151 40.737 15.5151C45.262 15.5151 47.3101 10.6568 44.1188 7.56079C43.1662 6.6558 40.9276 5.98897 27.8291 2.70244C16.4453 -0.203043 15.969 -0.250674 14.5401 0.225635ZM22.4944 4.65531C27.8767 5.94134 34.545 7.65605 39.3557 8.94208C42.4994 9.79944 43.1662 10.5139 42.0231 11.8952L41.5468 12.4668L40.0226 12.3715C28.6388 11.5142 14.9687 9.94233 14.4448 9.41839C13.2064 8.27525 13.8256 4.0361 15.3022 3.4169C15.969 3.03586 15.6832 2.98823 22.4944 4.65531Z" fill="#59D89D"/>
<path d="M14.5401 0.225635C11.968 1.13062 10.5867 3.84558 10.5391 7.89421C10.5391 10.0376 12.0632 12.3715 13.7303 12.8002C15.8737 13.3718 37.4029 15.5151 40.737 15.5151C45.262 15.5151 47.3101 10.6568 44.1188 7.56079C43.1662 6.6558 40.9276 5.98897 27.8291 2.70244C16.4453 -0.203043 15.969 -0.250674 14.5401 0.225635ZM22.4944 4.65531C27.8767 5.94134 34.545 7.65605 39.3557 8.94208C42.4994 9.79944 43.1662 10.5139 42.0231 11.8952L41.5468 12.4668L40.0226 12.3715C28.6388 11.5142 14.9687 9.94233 14.4448 9.41839C13.2064 8.27525 13.8256 4.0361 15.3022 3.4169C15.969 3.03586 15.6832 2.98823 22.4944 4.65531Z" fill="#59D89D"/>
<path d="M14.5401 0.225635C11.968 1.13062 10.5867 3.84558 10.5391 7.89421C10.5391 10.0376 12.0632 12.3715 13.7303 12.8002C15.8737 13.3718 37.4029 15.5151 40.737 15.5151C45.262 15.5151 47.3101 10.6568 44.1188 7.56079C43.1662 6.6558 40.9276 5.98897 27.8291 2.70244C16.4453 -0.203043 15.969 -0.250674 14.5401 0.225635ZM22.4944 4.65531C27.8767 5.94134 34.545 7.65605 39.3557 8.94208C42.4994 9.79944 43.1662 10.5139 42.0231 11.8952L41.5468 12.4668L40.0226 12.3715C28.6388 11.5142 14.9687 9.94233 14.4448 9.41839C13.2064 8.27525 13.8256 4.0361 15.3022 3.4169C15.969 3.03586 15.6832 2.98823 22.4944 4.65531Z" fill="#59D89D"/>
<path d="M5.25162 15.5152C1.44115 15.9915 -1.17855 20.9451 0.53616 24.3269C1.29825 25.8511 14.0157 38.378 15.6351 39.1877C17.1117 39.9498 17.7785 39.9975 30.3055 39.9975C45.3092 39.9975 44.2613 40.2356 47.4049 36.1394C53.6446 27.9945 54.4543 26.2321 53.3112 23.1838C51.9299 19.5162 51.0725 19.2304 39.2124 18.1825C28.6384 17.2775 9.82418 15.6581 8.53815 15.5628C7.72842 15.5152 6.9187 15.4199 6.72817 15.4199C6.53765 15.4199 5.87082 15.4199 5.25162 15.5152ZM13.9681 19.278C17.4928 19.5638 21.4461 19.8972 22.8274 19.9925C35.6877 20.9927 48.2623 22.2788 49.1673 22.7074C50.2628 23.2314 50.8344 25.4224 50.2152 26.7084C49.3102 28.5184 43.4516 36.187 42.6895 36.568C42.0703 36.8538 23.3037 37.0443 19.6361 36.7586L17.1593 36.568L15.8733 35.3296C15.2065 34.6152 12.3486 31.9478 9.58603 29.3281C3.77506 23.803 3.20349 23.1361 3.20349 22.0882C3.20349 19.802 4.63242 18.4683 6.7758 18.6588C7.25211 18.7065 10.491 18.9446 13.9681 19.278Z" fill="#59D89D"/>
<path d="M5.25162 15.5152C1.44115 15.9915 -1.17855 20.9451 0.53616 24.3269C1.29825 25.8511 14.0157 38.378 15.6351 39.1877C17.1117 39.9498 17.7785 39.9975 30.3055 39.9975C45.3092 39.9975 44.2613 40.2356 47.4049 36.1394C53.6446 27.9945 54.4543 26.2321 53.3112 23.1838C51.9299 19.5162 51.0725 19.2304 39.2124 18.1825C28.6384 17.2775 9.82418 15.6581 8.53815 15.5628C7.72842 15.5152 6.9187 15.4199 6.72817 15.4199C6.53765 15.4199 5.87082 15.4199 5.25162 15.5152ZM13.9681 19.278C17.4928 19.5638 21.4461 19.8972 22.8274 19.9925C35.6877 20.9927 48.2623 22.2788 49.1673 22.7074C50.2628 23.2314 50.8344 25.4224 50.2152 26.7084C49.3102 28.5184 43.4516 36.187 42.6895 36.568C42.0703 36.8538 23.3037 37.0443 19.6361 36.7586L17.1593 36.568L15.8733 35.3296C15.2065 34.6152 12.3486 31.9478 9.58603 29.3281C3.77506 23.803 3.20349 23.1361 3.20349 22.0882C3.20349 19.802 4.63242 18.4683 6.7758 18.6588C7.25211 18.7065 10.491 18.9446 13.9681 19.278Z" fill="#59D89D"/>
<path d="M5.25162 15.5152C1.44115 15.9915 -1.17855 20.9451 0.53616 24.3269C1.29825 25.8511 14.0157 38.378 15.6351 39.1877C17.1117 39.9498 17.7785 39.9975 30.3055 39.9975C45.3092 39.9975 44.2613 40.2356 47.4049 36.1394C53.6446 27.9945 54.4543 26.2321 53.3112 23.1838C51.9299 19.5162 51.0725 19.2304 39.2124 18.1825C28.6384 17.2775 9.82418 15.6581 8.53815 15.5628C7.72842 15.5152 6.9187 15.4199 6.72817 15.4199C6.53765 15.4199 5.87082 15.4199 5.25162 15.5152ZM13.9681 19.278C17.4928 19.5638 21.4461 19.8972 22.8274 19.9925C35.6877 20.9927 48.2623 22.2788 49.1673 22.7074C50.2628 23.2314 50.8344 25.4224 50.2152 26.7084C49.3102 28.5184 43.4516 36.187 42.6895 36.568C42.0703 36.8538 23.3037 37.0443 19.6361 36.7586L17.1593 36.568L15.8733 35.3296C15.2065 34.6152 12.3486 31.9478 9.58603 29.3281C3.77506 23.803 3.20349 23.1361 3.20349 22.0882C3.20349 19.802 4.63242 18.4683 6.7758 18.6588C7.25211 18.7065 10.491 18.9446 13.9681 19.278Z" fill="#59D89D"/>
</svg>
