<svg width="37" height="30" viewBox="0 0 37 30" fill="none" xmlns="http://www.w3.org/2000/svg">
<path opacity="0.5" d="M36.3932 18.827C36.3932 16.0059 32.4286 13.796 27.5708 13.796C27.2475 13.796 26.8588 13.8072 26.5453 13.8263V5.59428C26.5905 5.38576 26.5736 5.17409 26.5736 4.95778C26.5736 2.17776 22.8875 0 18.0297 0C13.1717 0 9.3669 2.1778 9.3669 4.95778C9.3669 5.17409 9.39762 5.38579 9.44266 5.59428V7.85158C9.16853 7.83736 8.89075 7.82841 8.60831 7.82841C3.75052 7.82841 0.0164491 10.0058 0.0164491 12.7856C0.0164491 13.0025 -0.0237396 13.2142 0.0215192 13.4227V24.9525H0.0805719C0.233013 27.5806 3.91817 29.6177 8.60831 29.6177C13.2949 29.6177 17.2153 27.5839 17.3731 24.9525H17.432V24.4722C17.7094 24.4879 17.7442 24.513 18.0297 24.513C18.3539 24.513 18.6705 24.4997 18.9838 24.4799V24.6155H19.047L19.0286 24.9297C19.0286 27.6397 22.8365 30 27.6976 30C32.5594 30 36.3671 27.8452 36.3671 25.089L36.3576 24.7762H36.4121V19.4733C36.4581 19.2617 36.3932 19.0472 36.3932 18.827ZM27.6976 15.3954C31.9714 15.3954 34.9495 17.2039 34.9495 18.827C34.9495 20.45 31.9713 22.2585 27.6976 22.2585C23.4242 22.2585 20.4459 20.45 20.4459 18.827C20.4459 17.2039 23.4242 15.3954 27.6976 15.3954ZM35.0266 21.6399V22.508C34.618 24.246 31.3698 25.699 27.6975 25.699C24.028 25.699 20.7801 24.247 20.3689 22.5108V21.6399C21.9305 22.9867 24.603 23.858 27.6975 23.858C30.7926 23.858 33.465 22.9867 35.0266 21.6399ZM18.0297 14.6403C17.7478 14.6403 17.707 14.6285 17.432 14.6114V13.4227C17.46 13.2936 17.479 13.1631 17.4921 13.0313C17.7465 13.0461 17.7672 13.0551 18.0297 13.0551C21.1076 13.0551 23.632 12.1756 25.133 10.8284V11.4962C24.7301 13.208 21.6476 14.6403 18.0297 14.6403ZM25.2516 13.9746C25.1262 13.994 24.9999 14.0114 24.8768 14.0337C25.0039 13.9368 25.1374 13.8427 25.2516 13.7403V13.9746ZM18.0297 1.57637C22.2407 1.57637 25.0566 3.35831 25.0566 4.95774C25.0566 6.55681 22.2407 8.33871 18.0296 8.33871C13.8184 8.33871 10.8839 6.55678 10.8839 4.95774C10.8839 3.35831 13.8184 1.57637 18.0297 1.57637ZM10.8078 7.72909C10.9386 7.84205 11.0879 7.94657 11.2343 8.05238C11.095 8.02766 10.9502 8.01026 10.8078 7.98955V7.72909ZM8.60831 9.40424C12.8195 9.40424 15.8727 11.1866 15.8727 12.7856C15.8727 14.3852 12.8195 16.1666 8.60831 16.1666C4.39727 16.1666 1.46275 14.3852 1.46275 12.7856C1.46275 11.1866 4.39727 9.40424 8.60831 9.40424ZM1.38644 15.5575C2.92569 16.8845 5.55882 17.7431 8.60831 17.7431C11.6578 17.7431 14.4098 16.8845 15.9484 15.5575V16.4128C15.546 18.1252 12.2265 19.5571 8.60831 19.5571C4.99208 19.5571 1.79194 18.1261 1.38644 16.4151V15.5575ZM1.38644 18.6584C2.8874 20.004 5.53008 20.8835 8.60831 20.8835C11.6862 20.8835 14.448 20.004 15.9484 18.6569V19.3241C15.546 21.0365 12.2265 22.4683 8.60831 22.4683C4.99208 22.4683 1.79194 21.038 1.38644 19.3269V18.6584ZM1.38644 21.5699C2.8874 22.9159 5.53008 23.7951 8.60831 23.7951C11.6862 23.7951 14.448 22.9159 15.9484 21.5684V22.2357C15.546 23.9482 12.2265 25.3799 8.60831 25.3799C4.99208 25.3799 1.79194 23.9497 1.38644 22.2381V21.5699ZM8.60831 28.2911C4.85455 28.2911 1.55704 26.749 1.36072 24.9525H1.38644V24.4813C2.8874 25.8265 5.53008 26.706 8.60831 26.706C11.6862 26.706 14.448 25.8265 15.9484 24.4799V24.9525H15.9737C15.7775 26.7489 12.3618 28.2911 8.60831 28.2911ZM17.2991 11.6928C17.0132 10.9399 16.2015 10.2572 15.4032 9.68155C16.2303 9.8276 17.1075 9.91458 18.0297 9.91458C21.0792 9.91458 23.5937 9.05609 25.133 7.72909V8.58444C24.7302 10.2968 21.6477 11.7287 18.0297 11.7287C17.7026 11.7287 17.6171 11.7148 17.2991 11.6928ZM18.9837 23.1483C18.67 23.1709 18.3524 23.1866 18.0297 23.1866C17.7478 23.1866 17.707 23.1753 17.432 23.1577V21.7609C17.7063 21.778 17.7465 21.7893 18.0297 21.7893C18.3548 21.7893 18.6708 21.7736 18.9837 21.7514V23.1483ZM18.9837 20.424C18.67 20.4469 18.3524 20.4629 18.0297 20.4629C17.7478 20.4629 17.707 20.4509 17.432 20.4341V18.8491C17.7063 18.8662 17.7465 18.8779 18.0297 18.8779C18.3309 18.8779 18.6241 18.8642 18.9141 18.8454C18.9216 19.0301 18.9455 19.2116 18.9838 19.3903L18.9837 20.424ZM19.1878 17.4997C18.8083 17.5326 18.4224 17.5517 18.0297 17.5517C17.7479 17.5517 17.7071 17.5402 17.432 17.5226V15.9385C17.7064 15.9549 17.7465 15.9666 18.0297 15.9666C18.9591 15.9666 19.8417 15.8778 20.6728 15.7286C19.9854 16.2455 19.4764 16.8443 19.1878 17.4997ZM27.6976 28.6538C23.7922 28.6538 20.3629 27.0098 20.3242 25.1277L20.3365 24.7762H20.3571C21.8777 26.148 24.5656 27.0452 27.6976 27.0452C30.8285 27.0452 33.5156 26.1484 35.0367 24.7762H35.0601L35.0715 25.0951C35.0714 26.9907 31.626 28.6538 27.6976 28.6538ZM7.92194 13.8182C7.85841 13.7444 7.80872 13.5994 7.77319 13.3834H6.74357C6.73581 13.8582 6.94928 14.1943 7.38394 14.3914C7.63059 14.501 8.0044 14.5747 8.50546 14.6124V15.1242H8.87521V14.6072C9.26949 14.587 9.60986 14.5165 9.89711 14.3967C10.3675 14.2014 10.603 13.8876 10.603 13.4556C10.603 13.1282 10.432 12.8745 10.0903 12.6946C9.88283 12.5869 9.47777 12.4625 8.87524 12.3216V11.3421C9.12655 11.3543 9.29965 11.421 9.39527 11.543C9.45034 11.6133 9.48818 11.7244 9.50805 11.877H10.5114C10.4961 11.4659 10.2746 11.1682 9.84711 10.9848C9.61184 10.8699 9.28749 10.8015 8.87524 10.7792V10.432H8.50549V10.7741C8.24628 10.7879 8.04865 10.809 7.91441 10.8384C7.69281 10.8848 7.49213 10.969 7.31188 11.0903C7.17207 11.1847 7.06329 11.2967 6.98578 11.427C6.90813 11.5576 6.86928 11.7021 6.86928 11.8615C6.86928 12.1033 6.96901 12.3099 7.16834 12.4814C7.36806 12.6525 7.71097 12.7862 8.19662 12.8825L8.50549 12.9441V14.0418C8.21564 14.0077 8.02122 13.933 7.92194 13.8182ZM8.87528 13.0291C9.0864 13.082 9.23616 13.1334 9.32399 13.183C9.47237 13.269 9.54633 13.3853 9.54633 13.5327C9.54633 13.7264 9.46756 13.8625 9.30878 13.9415C9.21852 13.9859 9.07384 14.017 8.87528 14.034V13.0291ZM8.09332 12.1212C7.93335 12.0372 7.85301 11.9234 7.85301 11.7791C7.85301 11.6473 7.90669 11.5434 8.01354 11.4668C8.11994 11.3907 8.28419 11.3511 8.50557 11.3474V12.2498C8.31972 12.2106 8.18219 12.1676 8.09332 12.1212ZM26.8976 19.59C26.8339 19.5163 26.7844 19.3718 26.7486 19.1558H25.719C25.7116 19.6307 25.9248 19.9666 26.3595 20.1637C26.6061 20.2733 26.9801 20.347 27.481 20.385V20.8962H27.851V20.3797C28.245 20.359 28.5856 20.2885 28.8729 20.169C29.3432 19.9734 29.5786 19.6596 29.5786 19.2276C29.5786 18.9001 29.4075 18.6469 29.0658 18.4669C28.8583 18.3586 28.4535 18.2344 27.851 18.094V17.1144C28.102 17.1262 28.2752 17.1934 28.3707 17.315C28.4264 17.3853 28.4637 17.4967 28.4839 17.6493H29.4869C29.4716 17.2379 29.2502 16.9405 28.8228 16.7573C28.5873 16.6425 28.2636 16.5734 27.8509 16.5512V16.2044H27.481V16.546C27.2217 16.5602 27.0247 16.5816 26.8898 16.6104C26.6685 16.6567 26.4678 16.7407 26.2874 16.8626C26.1475 16.9567 26.039 17.0693 25.9613 17.1991C25.8839 17.3296 25.8451 17.4747 25.8451 17.6339C25.8451 17.8753 25.9447 18.0819 26.1445 18.2534C26.3439 18.4249 26.6866 18.5586 27.1721 18.6545L27.481 18.7164V19.8141C27.191 19.7797 26.9967 19.7048 26.8976 19.59ZM27.851 18.801C28.0619 18.8544 28.2116 18.9055 28.2997 18.9549C28.448 19.0409 28.5219 19.1577 28.5219 19.3052C28.5219 19.4983 28.443 19.6349 28.2846 19.7138C28.194 19.7583 28.0494 19.789 27.851 19.806L27.851 18.801ZM27.0689 17.8932C26.9088 17.8095 26.829 17.6957 26.829 17.5517C26.829 17.4197 26.8821 17.3153 26.989 17.2392C27.096 17.1627 27.2596 17.123 27.4809 17.1197V18.0218C27.2953 17.9825 27.1582 17.9395 27.0689 17.8932ZM17.2829 6.0691C17.2193 5.99541 17.1697 5.8503 17.134 5.63452H16.1045C16.0968 6.10934 16.3106 6.44537 16.7453 6.64227C16.9916 6.75205 17.3654 6.82571 17.8665 6.8635V7.3751H18.2362V6.85823C18.6303 6.83748 18.9709 6.76754 19.2581 6.64747C19.7285 6.45186 19.9638 6.13865 19.9638 5.7063C19.9638 5.37919 19.7931 5.12548 19.4511 4.94536C19.2436 4.83767 18.8387 4.71295 18.2362 4.57271V3.59303C18.4873 3.60534 18.6611 3.67192 18.7563 3.79383C18.8117 3.86377 18.849 3.97539 18.8694 4.12805H19.8722C19.8569 3.71649 19.6355 3.41915 19.208 3.23589C18.9726 3.12106 18.6488 3.05245 18.2362 3.03037V2.6829H17.8665V3.02513C17.6071 3.03874 17.41 3.0601 17.2751 3.08944C17.0542 3.1356 16.8531 3.21922 16.6727 3.34116C16.5328 3.43529 16.4242 3.54781 16.3466 3.67813C16.2691 3.80816 16.2303 3.95324 16.2303 4.11239C16.2303 4.3544 16.33 4.5608 16.5297 4.73189C16.729 4.90335 17.0717 5.03728 17.5574 5.13299L17.8665 5.1951V6.2926C17.5763 6.25814 17.382 6.18387 17.2829 6.0691ZM18.2362 5.27958C18.4471 5.33289 18.5969 5.38446 18.685 5.43404C18.8333 5.5195 18.9073 5.63639 18.9073 5.78371C18.9073 5.97747 18.8283 6.11357 18.6701 6.19253C18.5793 6.23685 18.4346 6.26767 18.2362 6.28506L18.2362 5.27958ZM17.4542 4.37223C17.2941 4.28807 17.2143 4.17417 17.2143 4.03018C17.2143 3.89834 17.2674 3.79379 17.3745 3.71772C17.4813 3.64179 17.6449 3.60158 17.8664 3.59819V4.50085C17.6806 4.46105 17.5435 4.41864 17.4542 4.37223Z" fill="black"/>
</svg>
