<svg width="24" height="23" viewBox="0 0 24 23" fill="none" xmlns="http://www.w3.org/2000/svg">
<path d="M4.9674 15.1289L7.4682 16.7124L6.5532 21.9172C6.53015 22.0521 6.46213 22.1744 6.36103 22.2626C6.25992 22.3508 6.13215 22.3995 6 22.4H2.0622C1.97923 22.3993 1.89742 22.3797 1.82254 22.3427C1.74767 22.3056 1.68154 22.252 1.62885 22.1855C1.57615 22.119 1.53815 22.0414 1.51755 21.958C1.49695 21.8747 1.49423 21.7877 1.5096 21.7031L2.676 15.1289H4.9674ZM14.4312 0.000622419C14.7744 0.0279995 14.9628 0.230838 15 0.586739V19.0588C15 19.5173 14.5218 19.8004 14.1468 19.5627L6 14.4059V5.23959L14.1468 0.081509C14.2338 0.0342214 14.2158 0.0404435 14.274 0.0255105L14.364 0.000622419L14.4312 0V0.000622419ZM20.4702 13.164C20.598 13.1677 20.7126 13.2138 20.8236 13.276L22.6986 14.4551C23.0532 14.6784 23.1684 15.1613 22.9554 15.5333C22.9053 15.6216 22.8389 15.6986 22.7599 15.76C22.6809 15.8214 22.5909 15.8659 22.4952 15.891C22.3995 15.9161 22.2999 15.9212 22.2023 15.906C22.1046 15.8909 22.0109 15.8558 21.9264 15.8028L20.0514 14.6237C19.8805 14.515 19.7578 14.341 19.7097 14.1392C19.6617 13.9374 19.6922 13.7241 19.7946 13.5454C19.9752 13.2617 20.1558 13.182 20.4702 13.164ZM4.875 5.69566V13.9505H2.4372C1.092 13.9498 0 12.805 0 11.3951V8.25044C0 6.84052 1.092 5.69566 2.4378 5.69566H4.875ZM16.125 6.0161C17.8122 6.5232 18.8928 7.98227 18.9378 9.82275C18.93 11.3204 18.1044 12.7141 16.8138 13.3656C16.518 13.5149 16.4376 13.5274 16.125 13.6294V6.0161ZM23.25 9.0369C23.664 9.0369 24 9.38845 24 9.82275C24 10.257 23.664 10.6086 23.25 10.6086H21.1872C20.7732 10.6086 20.4372 10.257 20.4372 9.82275C20.4372 9.38845 20.7732 9.0369 21.1872 9.0369H23.25ZM22.2798 3.73136C22.5648 3.72701 22.7982 3.86638 22.9554 4.11277C23.0578 4.29144 23.0883 4.50474 23.0403 4.70653C22.9922 4.90833 22.8695 5.08239 22.6986 5.19106L20.8236 6.37013C20.7391 6.42312 20.6453 6.45819 20.5476 6.47329C20.45 6.48839 20.3504 6.48324 20.2547 6.45812C20.159 6.43299 20.069 6.38841 19.99 6.32695C19.911 6.2655 19.8446 6.18839 19.7946 6.1001C19.6923 5.92139 19.6619 5.70814 19.71 5.5064C19.758 5.30465 19.8807 5.1306 20.0514 5.02182L21.9264 3.84274C22.0398 3.76621 22.1502 3.75065 22.2798 3.73074V3.73136Z" fill="#FFCD1D"/>
</svg>
