<svg width="40" height="40" viewBox="0 0 40 40" fill="none" xmlns="http://www.w3.org/2000/svg">
<circle cx="20" cy="20" r="20" fill="#FFC933"/>
<path d="M23.1444 14.116C22.9301 13.9019 22.7845 13.6289 22.7262 13.3317C22.6678 13.0345 22.6993 12.7266 22.8167 12.4475C22.8871 12.2687 22.9022 12.0729 22.8601 11.8855C22.818 11.6981 22.7206 11.5276 22.5806 11.3961C22.3906 11.2062 22.133 11.0996 21.8644 11.0996C21.5958 11.0996 21.3382 11.2062 21.1482 11.3961L11.3961 21.1482C11.2062 21.3382 11.0996 21.5958 11.0996 21.8644C11.0996 22.133 11.2062 22.3906 11.3961 22.5806C11.5276 22.7206 11.6981 22.818 11.8855 22.8601C12.0729 22.9022 12.2687 22.8871 12.4475 22.8167C12.7267 22.699 13.0347 22.6672 13.3321 22.7253C13.6295 22.7835 13.9028 22.929 14.1171 23.1433C14.3313 23.3576 14.4769 23.6309 14.535 23.9283C14.5932 24.2257 14.5614 24.5337 14.4436 24.8129C14.3747 24.9931 14.3603 25.1896 14.4023 25.3779C14.4443 25.5663 14.5408 25.7381 14.6798 25.8719L17.4302 28.6528C17.6202 28.8426 17.8778 28.9492 18.1464 28.9492C18.415 28.9492 18.6725 28.8426 18.8625 28.6528L28.6528 18.893C28.8426 18.703 28.9492 18.4454 28.9492 18.1769C28.9492 17.9083 28.8426 17.6507 28.6528 17.4607L25.8719 14.6798C25.7381 14.5408 25.5663 14.4443 25.3779 14.4023C25.1896 14.3603 24.9931 14.3747 24.8129 14.4436C24.5337 14.561 24.2259 14.5925 23.9287 14.5342C23.6315 14.4758 23.3584 14.3302 23.1444 14.116V14.116Z" fill="#FF7B4F"/>
<path d="M33.4299 16.4245L28.7976 11.7846C28.487 11.4901 28.0956 11.295 27.6734 11.2244C27.2512 11.1538 26.8176 11.211 26.4281 11.3885C26.1341 11.5073 25.8116 11.537 25.5009 11.4738C25.1902 11.4106 24.9049 11.2573 24.6807 11.0331C24.4564 10.8089 24.3032 10.5236 24.24 10.2129C24.1768 9.90212 24.2065 9.57965 24.3253 9.28565C24.5029 8.89565 24.5593 8.46134 24.4873 8.0389C24.4153 7.61647 24.2182 7.22537 23.9215 6.91619L23.6167 6.61143C23.4248 6.4177 23.1963 6.26392 22.9446 6.15898C22.6929 6.05403 22.4228 6 22.1501 6C21.8774 6 21.6074 6.05403 21.3556 6.15898C21.1039 6.26392 20.8755 6.4177 20.6835 6.61143L6.61143 20.6835C6.4177 20.8755 6.26392 21.1039 6.15898 21.3556C6.05403 21.6074 6 21.8774 6 22.1501C6 22.4228 6.05403 22.6929 6.15898 22.9446C6.26392 23.1963 6.4177 23.4248 6.61143 23.6167L6.91619 23.9215C7.22537 24.2182 7.61647 24.4153 8.0389 24.4873C8.46133 24.5593 8.89565 24.5029 9.28565 24.3253C9.57965 24.2065 9.90212 24.1768 10.2129 24.24C10.5236 24.3032 10.8089 24.4564 11.0331 24.6807C11.2573 24.9049 11.4106 25.1902 11.4738 25.5009C11.537 25.8116 11.5073 26.1341 11.3885 26.4281C11.212 26.8178 11.1554 27.2512 11.226 27.6731C11.2965 28.0951 11.491 28.4865 11.7846 28.7976L16.4245 33.4299C16.8152 33.8156 17.3421 34.0318 17.8912 34.0318C18.4402 34.0318 18.9671 33.8156 19.3578 33.4299L33.4299 19.3654C33.816 18.9734 34.0325 18.4452 34.0325 17.895C34.0325 17.3447 33.816 16.8165 33.4299 16.4245V16.4245ZM32.348 18.2835L18.2835 32.3556C18.1813 32.4543 18.0447 32.5094 17.9026 32.5094C17.7605 32.5094 17.6239 32.4543 17.5217 32.3556L12.8589 27.7233C12.774 27.6171 12.7222 27.4882 12.71 27.3527C12.6978 27.2172 12.7258 27.0812 12.7903 26.9614C12.9722 26.5113 13.0469 26.0251 13.0085 25.5411C12.9702 25.0572 12.8198 24.5888 12.5694 24.1729L13.1789 23.5634C13.2763 23.4146 13.3186 23.2364 13.2985 23.0597C13.2783 22.8829 13.1969 22.7188 13.0685 22.5958C12.94 22.4728 12.7726 22.3986 12.5951 22.386C12.4177 22.3735 12.2415 22.4235 12.097 22.5273L11.4799 23.1368C10.995 22.8423 10.4396 22.6843 9.87231 22.6796C9.46687 22.679 9.06539 22.7593 8.69138 22.9158C8.5776 22.9727 8.45009 22.9965 8.32345 22.9843C8.19681 22.9722 8.07613 22.9247 7.97521 22.8472L7.67045 22.5425C7.57515 22.4385 7.52229 22.3026 7.52229 22.1615C7.52229 22.0205 7.57515 21.8846 7.67045 21.7806L21.7577 7.68569C21.8617 7.59039 21.9976 7.53753 22.1387 7.53753C22.2797 7.53753 22.4157 7.59039 22.5196 7.68569L22.8244 7.99045C22.9018 8.09137 22.9494 8.21205 22.9615 8.33869C22.9736 8.46533 22.9499 8.59283 22.893 8.70662C22.6571 9.27801 22.5957 9.90641 22.7164 10.5126C22.8371 11.1189 23.1346 11.6758 23.5712 12.1133C24.0079 12.5508 24.5643 12.8493 25.1703 12.9711C25.7763 13.0929 26.4048 13.0327 26.9767 12.798C27.0964 12.7334 27.2325 12.7055 27.3679 12.7177C27.5034 12.7298 27.6323 12.7816 27.7386 12.8665L32.3708 17.4988C32.4661 17.6028 32.519 17.7387 32.519 17.8797C32.519 18.0208 32.4661 18.1567 32.3708 18.2607L32.348 18.2835Z" fill="white"/>
<path d="M15.7694 18.8624L14.6951 19.9366C14.6237 20.0075 14.567 20.0917 14.5283 20.1846C14.4896 20.2774 14.4697 20.377 14.4697 20.4776C14.4697 20.5782 14.4896 20.6777 14.5283 20.7706C14.567 20.8634 14.6237 20.9477 14.6951 21.0185C14.7663 21.0891 14.8507 21.145 14.9435 21.1829C15.0364 21.2208 15.1358 21.24 15.236 21.2395C15.4359 21.2386 15.6274 21.1593 15.7694 21.0185L16.8512 19.9366C16.9931 19.7939 17.0728 19.6008 17.0728 19.3995C17.0728 19.1982 16.9931 19.0051 16.8512 18.8624C16.7804 18.791 16.6961 18.7343 16.6033 18.6956C16.5105 18.6569 16.4109 18.637 16.3103 18.637C16.2097 18.637 16.1101 18.6569 16.0173 18.6956C15.9244 18.7343 15.8402 18.791 15.7694 18.8624V18.8624ZM19.434 15.1977L18.3598 16.2796C18.2179 16.4223 18.1382 16.6154 18.1382 16.8167C18.1382 17.018 18.2179 17.2111 18.3598 17.3538C18.5025 17.4957 18.6956 17.5754 18.8969 17.5754C19.0982 17.5754 19.2913 17.4957 19.434 17.3538L20.5159 16.2796C20.5869 16.2085 20.6433 16.1242 20.6817 16.0314C20.7202 15.9386 20.74 15.8391 20.74 15.7386C20.74 15.6382 20.7202 15.5387 20.6817 15.4459C20.6433 15.3531 20.5869 15.2687 20.5159 15.1977C20.4449 15.1267 20.3605 15.0703 20.2677 15.0319C20.1749 14.9934 20.0754 14.9736 19.975 14.9736C19.8745 14.9736 19.775 14.9934 19.6822 15.0319C19.5894 15.0703 19.5051 15.1267 19.434 15.1977V15.1977Z" fill="white"/>
</svg>
