<svg width="21" height="21" viewBox="0 0 21 21" fill="none" xmlns="http://www.w3.org/2000/svg">
<path d="M10.042 0.499512C11.4275 0.499512 12.7273 0.763944 13.9415 1.29281C15.1556 1.82167 16.2171 2.53676 17.1258 3.43806C18.0346 4.33936 18.7497 5.39709 19.2711 6.61124C19.7925 7.8254 20.0532 9.12521 20.0532 10.5107C20.0532 11.8962 19.7925 13.1922 19.2711 14.399C18.7497 15.6057 18.0346 16.6634 17.1258 17.5721C16.2171 18.4809 15.1556 19.196 13.9415 19.7174C12.7273 20.2388 11.4275 20.4995 10.042 20.4995C8.65657 20.4995 7.36048 20.2388 6.15378 19.7174C4.94708 19.196 3.88935 18.4809 2.9806 17.5721C2.07184 16.6634 1.35676 15.6057 0.835346 14.399C0.31393 13.1922 0.0532227 11.8962 0.0532227 10.5107C0.0532227 9.12521 0.31393 7.8254 0.835346 6.61124C1.35676 5.39709 2.07184 4.33936 2.9806 3.43806C3.88935 2.53676 4.94708 1.82167 6.15378 1.29281C7.36048 0.763944 8.65657 0.499512 10.042 0.499512ZM10.0644 17.3487C10.4517 17.3487 10.7758 17.2183 11.0365 16.9576C11.2972 16.6969 11.4275 16.3803 11.4275 16.0079C11.4275 15.6206 11.2972 15.2965 11.0365 15.0358C10.7758 14.7751 10.4517 14.6448 10.0644 14.6448C9.67706 14.6448 9.35304 14.7751 9.09233 15.0358C8.83162 15.2965 8.70127 15.6206 8.70127 16.0079C8.70127 16.3803 8.83162 16.6969 9.09233 16.9576C9.35304 17.2183 9.67706 17.3487 10.0644 17.3487ZM11.2041 11.8515C11.1892 11.6131 11.3381 11.3598 11.651 11.0917C11.9638 10.8235 12.3139 10.5256 12.7013 10.1978C13.0886 9.87009 13.4461 9.50137 13.7739 9.09169C14.1016 8.68201 14.2804 8.20901 14.3102 7.6727C14.34 7.09169 14.2804 6.54793 14.1314 6.04141C13.9825 5.53489 13.7366 5.09914 13.394 4.73415C13.0514 4.36916 12.6082 4.07865 12.0644 3.86264C11.5206 3.64663 10.8838 3.53862 10.1538 3.53862C9.24503 3.53862 8.48898 3.69877 7.88562 4.01906C7.28227 4.33936 6.79438 4.7267 6.42194 5.18108C6.0495 5.63545 5.78879 6.10473 5.63981 6.5889C5.49084 7.07307 5.4238 7.47903 5.4387 7.80677C5.45359 8.19411 5.5765 8.47716 5.80741 8.65594C6.03832 8.83471 6.28786 8.92782 6.55602 8.93527C6.82417 8.94271 7.06998 8.86823 7.29345 8.7118C7.51691 8.55538 7.62864 8.32819 7.62864 8.03024C7.62864 7.85147 7.68451 7.63173 7.79624 7.37102C7.90797 7.11031 8.06067 6.86078 8.25434 6.62242C8.44801 6.38405 8.68264 6.18294 8.95825 6.01906C9.23386 5.85519 9.54298 5.77325 9.88562 5.77325C10.556 5.77325 11.0923 5.94085 11.4946 6.27605C11.8968 6.61124 12.083 7.0321 12.0532 7.53862C12.0532 7.79188 11.9787 8.02651 11.8298 8.24253C11.6808 8.45854 11.4908 8.66711 11.2599 8.86823C11.029 9.06934 10.7832 9.27046 10.5225 9.47158C10.2618 9.6727 10.016 9.88126 9.78507 10.0973C9.55415 10.3133 9.36048 10.5479 9.20406 10.8012C9.04764 11.0544 8.96197 11.3301 8.94708 11.628L8.96942 12.4772C8.96942 12.7006 9.07371 12.9129 9.28227 13.114C9.49084 13.3152 9.76644 13.4232 10.1091 13.4381C10.4517 13.4232 10.7236 13.3114 10.9247 13.1029C11.1258 12.8943 11.219 12.6559 11.2041 12.3878V11.8515Z" fill="#FFCD1D"/>
</svg>
