<svg width="20" height="20" viewBox="0 0 20 20" fill="none" xmlns="http://www.w3.org/2000/svg">
<path d="M10 0V1.57895H2.36842C1.95804 1.57895 1.62082 1.89202 1.58255 2.29239L1.57895 2.36842V17.6316C1.57895 18.042 1.89202 18.3792 2.29239 18.4174L2.36842 18.4211H17.6316C18.042 18.4211 18.3792 18.108 18.4174 17.7076L18.4211 17.6316V10H20V17.6316C20 18.9023 18.9993 19.9392 17.7431 19.9974L17.6316 20H2.36842C1.09774 20 0.0607896 18.9993 0.00256589 17.7431L0 17.6316V2.36842C0 1.09774 1.00066 0.0607896 2.25691 0.00256589L2.36842 0H10ZM20 0V7.36841H18.4211V2.69472L10.5582 10.5582L9.44177 9.44177L17.3042 1.57895H12.6316V0H20Z" fill="#59D89D"/>
</svg>
