<svg width="120" height="88" viewBox="0 0 120 88" fill="none" xmlns="http://www.w3.org/2000/svg">
<path d="M98.3523 0H21.6477L0 32.7273V87.2727H120V32.7273L98.3523 0ZM113.659 32.7273H98.1818V9.54546L113.659 32.7273ZM27.2727 5.45455H92.7273V32.7273H76.3636C76.3636 41.7614 69.0341 49.0909 60 49.0909C50.9659 49.0909 43.6364 41.7614 43.6364 32.7273H27.2727V5.45455ZM21.8182 9.54546V32.7273H6.34091L21.8182 9.54546ZM114.545 81.8182H5.45454V38.1818H38.8636C41.2841 47.5909 49.8409 54.5455 60 54.5455C70.1591 54.5455 78.7159 47.5909 81.1364 38.1818H114.545V81.8182Z" fill="#3E44CF"/>
</svg>
