<svg width="20" height="20" viewBox="0 0 20 20" fill="none" xmlns="http://www.w3.org/2000/svg">
<path d="M9.98882 0C11.3743 0 12.6741 0.264432 13.8883 0.793296C15.1024 1.32216 16.1639 2.03724 17.0726 2.93855C17.9814 3.83985 18.6965 4.89758 19.2179 6.11173C19.7393 7.32588 20 8.6257 20 10.0112C20 11.3966 19.7393 12.6927 19.2179 13.8994C18.6965 15.1061 17.9814 16.1639 17.0726 17.0726C16.1639 17.9814 15.1024 18.6965 13.8883 19.2179C12.6741 19.7393 11.3743 20 9.98882 20C8.60335 20 7.30726 19.7393 6.10056 19.2179C4.89385 18.6965 3.83613 17.9814 2.92737 17.0726C2.01862 16.1639 1.30354 15.1061 0.782123 13.8994C0.260708 12.6927 0 11.3966 0 10.0112C0 8.6257 0.260708 7.32588 0.782123 6.11173C1.30354 4.89758 2.01862 3.83985 2.92737 2.93855C3.83613 2.03724 4.89385 1.32216 6.10056 0.793296C7.30726 0.264432 8.60335 0 9.98882 0ZM10.0112 16.8492C10.3985 16.8492 10.7225 16.7188 10.9832 16.4581C11.2439 16.1974 11.3743 15.8808 11.3743 15.5084C11.3743 15.121 11.2439 14.797 10.9832 14.5363C10.7225 14.2756 10.3985 14.1453 10.0112 14.1453C9.62384 14.1453 9.29981 14.2756 9.03911 14.5363C8.7784 14.797 8.64804 15.121 8.64804 15.5084C8.64804 15.8808 8.7784 16.1974 9.03911 16.4581C9.29981 16.7188 9.62384 16.8492 10.0112 16.8492ZM11.1508 11.352C11.1359 11.1136 11.2849 10.8603 11.5978 10.5922C11.9106 10.324 12.2607 10.0261 12.648 9.69832C13.0354 9.37058 13.3929 9.00186 13.7207 8.59218C14.0484 8.18249 14.2272 7.7095 14.257 7.17318C14.2868 6.59218 14.2272 6.04842 14.0782 5.5419C13.9292 5.03538 13.6834 4.59963 13.3408 4.23464C12.9981 3.86965 12.5549 3.57914 12.0112 3.36313C11.4674 3.14711 10.8305 3.03911 10.1006 3.03911C9.19181 3.03911 8.43575 3.19925 7.8324 3.51955C7.22905 3.83985 6.74115 4.22719 6.36871 4.68156C5.99627 5.13594 5.73557 5.60521 5.58659 6.08939C5.43762 6.57356 5.37058 6.97952 5.38547 7.30726C5.40037 7.6946 5.52328 7.97765 5.75419 8.15642C5.9851 8.3352 6.23464 8.4283 6.50279 8.43575C6.77095 8.4432 7.01676 8.36871 7.24022 8.21229C7.46369 8.05587 7.57542 7.82868 7.57542 7.53073C7.57542 7.35195 7.63128 7.13222 7.74302 6.87151C7.85475 6.6108 8.00745 6.36127 8.20112 6.1229C8.39478 5.88454 8.62942 5.68343 8.90503 5.51955C9.18063 5.35568 9.48976 5.27374 9.8324 5.27374C10.5028 5.27374 11.0391 5.44134 11.4413 5.77654C11.8436 6.11173 12.0298 6.53259 12 7.03911C12 7.29236 11.9255 7.527 11.7765 7.74302C11.6276 7.95903 11.4376 8.1676 11.2067 8.36871C10.9758 8.56983 10.73 8.77095 10.4693 8.97207C10.2086 9.17318 9.96276 9.38175 9.73184 9.59776C9.50093 9.81378 9.30726 10.0484 9.15084 10.3017C8.99441 10.5549 8.90875 10.8305 8.89385 11.1285L8.9162 11.9777C8.9162 12.2011 9.02048 12.4134 9.22905 12.6145C9.43762 12.8156 9.71322 12.9236 10.0559 12.9385C10.3985 12.9236 10.6704 12.8119 10.8715 12.6034C11.0726 12.3948 11.1657 12.1564 11.1508 11.8883V11.352Z" fill="#59D89D"/>
</svg>
