<svg width="1536" height="444" viewBox="0 0 1536 444" fill="none" xmlns="http://www.w3.org/2000/svg">
<mask id="path-1-outside-1_101_9" maskUnits="userSpaceOnUse" x="38" y="15" width="1461" height="413" fill="black">
<rect fill="white" x="38" y="15" width="1461" height="413"/>
<path d="M256.009 36.1337C256.009 35.8503 255.868 35.6141 255.585 35.4252C255.396 35.1417 255.114 35 254.736 35H63.2331C62.9502 35 62.6674 35.1417 62.3845 35.4252C62.1959 35.6141 62.1016 35.8503 62.1016 36.1337V58.0999C62.1016 58.3834 62.1959 58.6668 62.3845 58.9502C62.6674 59.1392 62.9502 59.2337 63.2331 59.2337H227.722V67.3116C227.722 70.2404 226.827 72.7913 225.035 74.9643C223.244 77.1373 220.933 78.5545 218.105 79.2158L86.7114 107.418C78.2252 109.402 71.2949 113.7 65.9204 120.314C60.6401 126.927 58 134.533 58 143.13V175.442C58 175.82 58.0943 176.15 58.2829 176.434C58.5657 176.623 58.8958 176.717 59.2729 176.717H250.776C251.059 176.717 251.295 176.623 251.483 176.434C251.766 176.15 251.908 175.82 251.908 175.442V153.617C251.908 153.239 251.766 152.956 251.483 152.767C251.295 152.484 251.059 152.342 250.776 152.342H86.2871V144.264C86.2871 141.43 87.1828 138.926 88.9743 136.753C90.7658 134.58 93.0759 133.163 95.9046 132.502L227.298 104.3C235.784 102.316 242.667 98.017 247.948 91.4035C253.322 84.79 256.009 77.1845 256.009 68.587V36.1337Z"/>
<path d="M326.727 71.4214C326.727 68.1146 327.906 65.2803 330.263 62.9183C332.62 60.4619 335.496 59.2337 338.89 59.2337H499.278C499.655 59.2337 499.938 59.1392 500.127 58.9502C500.409 58.6668 500.551 58.3834 500.551 58.0999V36.2755C500.551 35.8975 500.409 35.6141 500.127 35.4252C499.938 35.1417 499.655 35 499.278 35H338.89C327.67 35 318.099 38.9681 310.179 46.9043C302.353 54.7459 298.44 64.2882 298.44 75.5312V136.186C298.44 147.429 302.353 157.019 310.179 164.955C318.099 172.796 327.67 176.717 338.89 176.717H499.278C499.655 176.717 499.938 176.623 500.127 176.434C500.409 176.15 500.551 175.82 500.551 175.442V153.617C500.551 153.334 500.409 153.098 500.127 152.909C499.938 152.625 499.655 152.484 499.278 152.484H338.89C335.496 152.484 332.62 151.303 330.263 148.941C327.906 146.484 326.727 143.603 326.727 140.296V118.046H479.053C479.43 118.046 479.713 117.952 479.901 117.763C480.184 117.479 480.326 117.149 480.326 116.771V94.9464C480.326 94.5685 480.184 94.2851 479.901 94.0961C479.713 93.8127 479.43 93.671 479.053 93.671H326.727V71.4214Z"/>
<path d="M543.123 36.1337C543.123 35.8503 543.217 35.6141 543.406 35.4252C543.689 35.1417 543.972 35 544.254 35H704.783C715.91 35 725.386 38.9681 733.212 46.9043C741.132 54.7459 745.092 64.241 745.092 75.3894V89.5612C745.092 100.804 741.132 110.394 733.212 118.33C725.386 126.171 715.91 130.092 704.783 130.092H571.41V175.442C571.41 175.82 571.269 176.15 570.986 176.434C570.797 176.623 570.514 176.717 570.137 176.717H544.254C543.972 176.717 543.689 176.623 543.406 176.434C543.217 176.15 543.123 175.82 543.123 175.442V36.1337ZM704.783 105.859C708.084 105.859 710.912 104.678 713.27 102.316C715.627 99.8593 716.805 96.9777 716.805 93.671V71.4214C716.805 68.0201 715.627 65.1386 713.27 62.7766C710.912 60.4146 708.084 59.2337 704.783 59.2337H571.41V105.859H704.783Z"/>
<path d="M949.184 35C960.404 35 969.927 38.9681 977.753 46.9043C985.674 54.7459 989.634 64.2882 989.634 75.5312V136.186C989.634 147.429 985.674 157.019 977.753 164.955C969.927 172.796 960.404 176.717 949.184 176.717H827.974C816.847 176.717 807.324 172.796 799.404 164.955C791.483 157.019 787.523 147.429 787.523 136.186V75.5312C787.523 64.2882 791.483 54.7459 799.404 46.9043C807.324 38.9681 816.847 35 827.974 35H949.184ZM961.347 71.4214C961.347 68.1146 960.168 65.2803 957.811 62.9183C955.454 60.4619 952.578 59.2337 949.184 59.2337H827.974C824.673 59.2337 821.797 60.4619 819.346 62.9183C816.989 65.2803 815.81 68.1146 815.81 71.4214V140.296C815.81 143.603 816.989 146.484 819.346 148.941C821.797 151.303 824.673 152.484 827.974 152.484H949.184C952.578 152.484 955.454 151.303 957.811 148.941C960.168 146.484 961.347 143.603 961.347 140.296V71.4214Z"/>
<path d="M1072.66 152.484C1069.26 152.484 1066.39 151.303 1064.03 148.941C1061.67 146.484 1060.49 143.603 1060.49 140.296V71.4214C1060.49 68.1146 1061.67 65.2803 1064.03 62.9183C1066.39 60.4619 1069.26 59.2337 1072.66 59.2337H1233.04C1233.42 59.2337 1233.7 59.1392 1233.89 58.9502C1234.18 58.6668 1234.32 58.3834 1234.32 58.0999V36.2755C1234.32 35.8975 1234.18 35.6141 1233.89 35.4252C1233.7 35.1417 1233.42 35 1233.04 35H1072.66C1061.44 35 1051.87 38.9681 1043.95 46.9043C1036.12 54.7459 1032.21 64.2882 1032.21 75.5312V136.186C1032.21 147.429 1036.12 157.019 1043.95 164.955C1051.87 172.796 1061.44 176.717 1072.66 176.717H1233.04C1233.42 176.717 1233.7 176.623 1233.89 176.434C1234.18 176.15 1234.32 175.82 1234.32 175.442V153.617C1234.32 153.334 1234.18 153.098 1233.89 152.909C1233.7 152.625 1233.42 152.484 1233.04 152.484H1072.66Z"/>
<path d="M1479 36.2755C1479 35.8975 1478.86 35.6141 1478.58 35.4252C1478.39 35.1417 1478.1 35 1477.73 35H1451.99C1451.61 35 1451.28 35.1417 1451 35.4252C1450.81 35.6141 1450.71 35.8975 1450.71 36.2755V93.671H1305.18V36.2755C1305.18 35.8975 1305.03 35.6141 1304.75 35.4252C1304.56 35.1417 1304.33 35 1304.04 35H1278.16C1277.78 35 1277.45 35.1417 1277.17 35.4252C1276.98 35.6141 1276.89 35.8975 1276.89 36.2755V175.584C1276.89 175.867 1276.98 176.15 1277.17 176.434C1277.45 176.623 1277.78 176.717 1278.16 176.717H1304.04C1304.33 176.717 1304.56 176.623 1304.75 176.434C1305.03 176.15 1305.18 175.867 1305.18 175.584V118.046H1450.71V175.584C1450.71 175.867 1450.81 176.15 1451 176.434C1451.28 176.623 1451.61 176.717 1451.99 176.717H1477.73C1478.1 176.717 1478.39 176.623 1478.58 176.434C1478.86 176.15 1479 175.867 1479 175.584V36.2755Z"/>
<path d="M231.682 267.558C231.682 267.18 231.777 266.897 231.965 266.708C232.248 266.424 232.578 266.283 232.955 266.283H258.838C259.121 266.283 259.357 266.424 259.545 266.708C259.828 266.897 259.97 267.18 259.97 267.558V406.866C259.97 407.15 259.828 407.433 259.545 407.717C259.357 407.906 259.121 408 258.838 408H205.941C195.098 407.717 186.565 403.134 180.341 394.253L114.574 296.043C111.84 292.453 108.445 290.658 104.391 290.658H86.2871V406.866C86.2871 407.15 86.1456 407.433 85.8627 407.717C85.6742 407.906 85.3913 408 85.0141 408H59.1315C58.8486 408 58.5657 407.906 58.2829 407.717C58.0943 407.433 58 407.15 58 406.866V267.558C58 267.18 58.0943 266.897 58.2829 266.708C58.5657 266.424 58.8486 266.283 59.1315 266.283H112.028C122.872 266.661 131.405 271.29 137.628 280.171L203.395 378.239C206.036 381.924 209.43 383.766 213.579 383.766H231.682V267.558Z"/>
<path d="M464.061 266.283C475.281 266.283 484.804 270.251 492.631 278.187C500.551 286.029 504.511 295.571 504.511 306.814V367.469C504.511 378.712 500.551 388.301 492.631 396.237C484.804 404.079 475.281 408 464.061 408H342.851C331.724 408 322.201 404.079 314.281 396.237C306.36 388.301 302.4 378.712 302.4 367.469V306.814C302.4 295.571 306.36 286.029 314.281 278.187C322.201 270.251 331.724 266.283 342.851 266.283H464.061ZM476.224 302.704C476.224 299.397 475.045 296.563 472.688 294.201C470.331 291.745 467.455 290.516 464.061 290.516H342.851C339.55 290.516 336.675 291.745 334.223 294.201C331.866 296.563 330.687 299.397 330.687 302.704V371.579C330.687 374.885 331.866 377.767 334.223 380.223C336.675 382.585 339.55 383.766 342.851 383.766H464.061C467.455 383.766 470.331 382.585 472.688 380.223C475.045 377.767 476.224 374.885 476.224 371.579V302.704Z"/>
<path d="M708.602 266.283C719.823 266.283 729.346 270.251 737.172 278.187C745.092 286.029 749.053 295.571 749.053 306.814V367.469C749.053 378.712 745.092 388.301 737.172 396.237C729.346 404.079 719.823 408 708.602 408H548.215C547.932 408 547.649 407.906 547.366 407.717C547.177 407.433 547.083 407.102 547.083 406.725V267.558C547.083 267.18 547.177 266.897 547.366 266.708C547.649 266.424 547.932 266.283 548.215 266.283H708.602ZM720.766 302.704C720.766 299.397 719.587 296.563 717.23 294.201C714.872 291.745 711.997 290.516 708.602 290.516H575.37V383.766H708.602C711.997 383.766 714.872 382.585 717.23 380.223C719.587 377.767 720.766 374.885 720.766 371.579V302.704Z"/>
<path d="M819.77 302.704C819.77 299.397 820.949 296.563 823.306 294.201C825.663 291.745 828.539 290.516 831.934 290.516H992.321C992.698 290.516 992.981 290.422 993.17 290.233C993.453 289.949 993.594 289.666 993.594 289.383V267.558C993.594 267.18 993.453 266.897 993.17 266.708C992.981 266.424 992.698 266.283 992.321 266.283H831.934C820.713 266.283 811.143 270.251 803.222 278.187C795.396 286.029 791.483 295.571 791.483 306.814V367.469C791.483 378.712 795.396 388.301 803.222 396.237C811.143 404.079 820.713 408 831.934 408H992.321C992.698 408 992.981 407.906 993.17 407.717C993.453 407.433 993.594 407.102 993.594 406.725V384.9C993.594 384.617 993.453 384.38 993.17 384.192C992.981 383.908 992.698 383.766 992.321 383.766H831.934C828.539 383.766 825.663 382.585 823.306 380.223C820.949 377.767 819.77 374.885 819.77 371.579V349.329H972.096C972.473 349.329 972.756 349.235 972.945 349.046C973.228 348.762 973.369 348.431 973.369 348.054V326.229C973.369 325.851 973.228 325.568 972.945 325.379C972.756 325.095 972.473 324.954 972.096 324.954H819.77V302.704Z"/>
</mask>
<path d="M256.009 36.1337C256.009 35.8503 255.868 35.6141 255.585 35.4252C255.396 35.1417 255.114 35 254.736 35H63.2331C62.9502 35 62.6674 35.1417 62.3845 35.4252C62.1959 35.6141 62.1016 35.8503 62.1016 36.1337V58.0999C62.1016 58.3834 62.1959 58.6668 62.3845 58.9502C62.6674 59.1392 62.9502 59.2337 63.2331 59.2337H227.722V67.3116C227.722 70.2404 226.827 72.7913 225.035 74.9643C223.244 77.1373 220.933 78.5545 218.105 79.2158L86.7114 107.418C78.2252 109.402 71.2949 113.7 65.9204 120.314C60.6401 126.927 58 134.533 58 143.13V175.442C58 175.82 58.0943 176.15 58.2829 176.434C58.5657 176.623 58.8958 176.717 59.2729 176.717H250.776C251.059 176.717 251.295 176.623 251.483 176.434C251.766 176.15 251.908 175.82 251.908 175.442V153.617C251.908 153.239 251.766 152.956 251.483 152.767C251.295 152.484 251.059 152.342 250.776 152.342H86.2871V144.264C86.2871 141.43 87.1828 138.926 88.9743 136.753C90.7658 134.58 93.0759 133.163 95.9046 132.502L227.298 104.3C235.784 102.316 242.667 98.017 247.948 91.4035C253.322 84.79 256.009 77.1845 256.009 68.587V36.1337Z" stroke="white" stroke-opacity="0.3" stroke-width="40" mask="url(#path-1-outside-1_101_9)"/>
<path d="M326.727 71.4214C326.727 68.1146 327.906 65.2803 330.263 62.9183C332.62 60.4619 335.496 59.2337 338.89 59.2337H499.278C499.655 59.2337 499.938 59.1392 500.127 58.9502C500.409 58.6668 500.551 58.3834 500.551 58.0999V36.2755C500.551 35.8975 500.409 35.6141 500.127 35.4252C499.938 35.1417 499.655 35 499.278 35H338.89C327.67 35 318.099 38.9681 310.179 46.9043C302.353 54.7459 298.44 64.2882 298.44 75.5312V136.186C298.44 147.429 302.353 157.019 310.179 164.955C318.099 172.796 327.67 176.717 338.89 176.717H499.278C499.655 176.717 499.938 176.623 500.127 176.434C500.409 176.15 500.551 175.82 500.551 175.442V153.617C500.551 153.334 500.409 153.098 500.127 152.909C499.938 152.625 499.655 152.484 499.278 152.484H338.89C335.496 152.484 332.62 151.303 330.263 148.941C327.906 146.484 326.727 143.603 326.727 140.296V118.046H479.053C479.43 118.046 479.713 117.952 479.901 117.763C480.184 117.479 480.326 117.149 480.326 116.771V94.9464C480.326 94.5685 480.184 94.2851 479.901 94.0961C479.713 93.8127 479.43 93.671 479.053 93.671H326.727V71.4214Z" stroke="white" stroke-opacity="0.3" stroke-width="40" mask="url(#path-1-outside-1_101_9)"/>
<path d="M543.123 36.1337C543.123 35.8503 543.217 35.6141 543.406 35.4252C543.689 35.1417 543.972 35 544.254 35H704.783C715.91 35 725.386 38.9681 733.212 46.9043C741.132 54.7459 745.092 64.241 745.092 75.3894V89.5612C745.092 100.804 741.132 110.394 733.212 118.33C725.386 126.171 715.91 130.092 704.783 130.092H571.41V175.442C571.41 175.82 571.269 176.15 570.986 176.434C570.797 176.623 570.514 176.717 570.137 176.717H544.254C543.972 176.717 543.689 176.623 543.406 176.434C543.217 176.15 543.123 175.82 543.123 175.442V36.1337ZM704.783 105.859C708.084 105.859 710.912 104.678 713.27 102.316C715.627 99.8593 716.805 96.9777 716.805 93.671V71.4214C716.805 68.0201 715.627 65.1386 713.27 62.7766C710.912 60.4146 708.084 59.2337 704.783 59.2337H571.41V105.859H704.783Z" stroke="white" stroke-opacity="0.3" stroke-width="40" mask="url(#path-1-outside-1_101_9)"/>
<path d="M949.184 35C960.404 35 969.927 38.9681 977.753 46.9043C985.674 54.7459 989.634 64.2882 989.634 75.5312V136.186C989.634 147.429 985.674 157.019 977.753 164.955C969.927 172.796 960.404 176.717 949.184 176.717H827.974C816.847 176.717 807.324 172.796 799.404 164.955C791.483 157.019 787.523 147.429 787.523 136.186V75.5312C787.523 64.2882 791.483 54.7459 799.404 46.9043C807.324 38.9681 816.847 35 827.974 35H949.184ZM961.347 71.4214C961.347 68.1146 960.168 65.2803 957.811 62.9183C955.454 60.4619 952.578 59.2337 949.184 59.2337H827.974C824.673 59.2337 821.797 60.4619 819.346 62.9183C816.989 65.2803 815.81 68.1146 815.81 71.4214V140.296C815.81 143.603 816.989 146.484 819.346 148.941C821.797 151.303 824.673 152.484 827.974 152.484H949.184C952.578 152.484 955.454 151.303 957.811 148.941C960.168 146.484 961.347 143.603 961.347 140.296V71.4214Z" stroke="white" stroke-opacity="0.3" stroke-width="40" mask="url(#path-1-outside-1_101_9)"/>
<path d="M1072.66 152.484C1069.26 152.484 1066.39 151.303 1064.03 148.941C1061.67 146.484 1060.49 143.603 1060.49 140.296V71.4214C1060.49 68.1146 1061.67 65.2803 1064.03 62.9183C1066.39 60.4619 1069.26 59.2337 1072.66 59.2337H1233.04C1233.42 59.2337 1233.7 59.1392 1233.89 58.9502C1234.18 58.6668 1234.32 58.3834 1234.32 58.0999V36.2755C1234.32 35.8975 1234.18 35.6141 1233.89 35.4252C1233.7 35.1417 1233.42 35 1233.04 35H1072.66C1061.44 35 1051.87 38.9681 1043.95 46.9043C1036.12 54.7459 1032.21 64.2882 1032.21 75.5312V136.186C1032.21 147.429 1036.12 157.019 1043.95 164.955C1051.87 172.796 1061.44 176.717 1072.66 176.717H1233.04C1233.42 176.717 1233.7 176.623 1233.89 176.434C1234.18 176.15 1234.32 175.82 1234.32 175.442V153.617C1234.32 153.334 1234.18 153.098 1233.89 152.909C1233.7 152.625 1233.42 152.484 1233.04 152.484H1072.66Z" stroke="white" stroke-opacity="0.3" stroke-width="40" mask="url(#path-1-outside-1_101_9)"/>
<path d="M1479 36.2755C1479 35.8975 1478.86 35.6141 1478.58 35.4252C1478.39 35.1417 1478.1 35 1477.73 35H1451.99C1451.61 35 1451.28 35.1417 1451 35.4252C1450.81 35.6141 1450.71 35.8975 1450.71 36.2755V93.671H1305.18V36.2755C1305.18 35.8975 1305.03 35.6141 1304.75 35.4252C1304.56 35.1417 1304.33 35 1304.04 35H1278.16C1277.78 35 1277.45 35.1417 1277.17 35.4252C1276.98 35.6141 1276.89 35.8975 1276.89 36.2755V175.584C1276.89 175.867 1276.98 176.15 1277.17 176.434C1277.45 176.623 1277.78 176.717 1278.16 176.717H1304.04C1304.33 176.717 1304.56 176.623 1304.75 176.434C1305.03 176.15 1305.18 175.867 1305.18 175.584V118.046H1450.71V175.584C1450.71 175.867 1450.81 176.15 1451 176.434C1451.28 176.623 1451.61 176.717 1451.99 176.717H1477.73C1478.1 176.717 1478.39 176.623 1478.58 176.434C1478.86 176.15 1479 175.867 1479 175.584V36.2755Z" stroke="white" stroke-opacity="0.3" stroke-width="40" mask="url(#path-1-outside-1_101_9)"/>
<path d="M231.682 267.558C231.682 267.18 231.777 266.897 231.965 266.708C232.248 266.424 232.578 266.283 232.955 266.283H258.838C259.121 266.283 259.357 266.424 259.545 266.708C259.828 266.897 259.97 267.18 259.97 267.558V406.866C259.97 407.15 259.828 407.433 259.545 407.717C259.357 407.906 259.121 408 258.838 408H205.941C195.098 407.717 186.565 403.134 180.341 394.253L114.574 296.043C111.84 292.453 108.445 290.658 104.391 290.658H86.2871V406.866C86.2871 407.15 86.1456 407.433 85.8627 407.717C85.6742 407.906 85.3913 408 85.0141 408H59.1315C58.8486 408 58.5657 407.906 58.2829 407.717C58.0943 407.433 58 407.15 58 406.866V267.558C58 267.18 58.0943 266.897 58.2829 266.708C58.5657 266.424 58.8486 266.283 59.1315 266.283H112.028C122.872 266.661 131.405 271.29 137.628 280.171L203.395 378.239C206.036 381.924 209.43 383.766 213.579 383.766H231.682V267.558Z" stroke="white" stroke-opacity="0.3" stroke-width="40" mask="url(#path-1-outside-1_101_9)"/>
<path d="M464.061 266.283C475.281 266.283 484.804 270.251 492.631 278.187C500.551 286.029 504.511 295.571 504.511 306.814V367.469C504.511 378.712 500.551 388.301 492.631 396.237C484.804 404.079 475.281 408 464.061 408H342.851C331.724 408 322.201 404.079 314.281 396.237C306.36 388.301 302.4 378.712 302.4 367.469V306.814C302.4 295.571 306.36 286.029 314.281 278.187C322.201 270.251 331.724 266.283 342.851 266.283H464.061ZM476.224 302.704C476.224 299.397 475.045 296.563 472.688 294.201C470.331 291.745 467.455 290.516 464.061 290.516H342.851C339.55 290.516 336.675 291.745 334.223 294.201C331.866 296.563 330.687 299.397 330.687 302.704V371.579C330.687 374.885 331.866 377.767 334.223 380.223C336.675 382.585 339.55 383.766 342.851 383.766H464.061C467.455 383.766 470.331 382.585 472.688 380.223C475.045 377.767 476.224 374.885 476.224 371.579V302.704Z" stroke="white" stroke-opacity="0.3" stroke-width="40" mask="url(#path-1-outside-1_101_9)"/>
<path d="M708.602 266.283C719.823 266.283 729.346 270.251 737.172 278.187C745.092 286.029 749.053 295.571 749.053 306.814V367.469C749.053 378.712 745.092 388.301 737.172 396.237C729.346 404.079 719.823 408 708.602 408H548.215C547.932 408 547.649 407.906 547.366 407.717C547.177 407.433 547.083 407.102 547.083 406.725V267.558C547.083 267.18 547.177 266.897 547.366 266.708C547.649 266.424 547.932 266.283 548.215 266.283H708.602ZM720.766 302.704C720.766 299.397 719.587 296.563 717.23 294.201C714.872 291.745 711.997 290.516 708.602 290.516H575.37V383.766H708.602C711.997 383.766 714.872 382.585 717.23 380.223C719.587 377.767 720.766 374.885 720.766 371.579V302.704Z" stroke="white" stroke-opacity="0.3" stroke-width="40" mask="url(#path-1-outside-1_101_9)"/>
<path d="M819.77 302.704C819.77 299.397 820.949 296.563 823.306 294.201C825.663 291.745 828.539 290.516 831.934 290.516H992.321C992.698 290.516 992.981 290.422 993.17 290.233C993.453 289.949 993.594 289.666 993.594 289.383V267.558C993.594 267.18 993.453 266.897 993.17 266.708C992.981 266.424 992.698 266.283 992.321 266.283H831.934C820.713 266.283 811.143 270.251 803.222 278.187C795.396 286.029 791.483 295.571 791.483 306.814V367.469C791.483 378.712 795.396 388.301 803.222 396.237C811.143 404.079 820.713 408 831.934 408H992.321C992.698 408 992.981 407.906 993.17 407.717C993.453 407.433 993.594 407.102 993.594 406.725V384.9C993.594 384.617 993.453 384.38 993.17 384.192C992.981 383.908 992.698 383.766 992.321 383.766H831.934C828.539 383.766 825.663 382.585 823.306 380.223C820.949 377.767 819.77 374.885 819.77 371.579V349.329H972.096C972.473 349.329 972.756 349.235 972.945 349.046C973.228 348.762 973.369 348.431 973.369 348.054V326.229C973.369 325.851 973.228 325.568 972.945 325.379C972.756 325.095 972.473 324.954 972.096 324.954H819.77V302.704Z" stroke="white" stroke-opacity="0.3" stroke-width="40" mask="url(#path-1-outside-1_101_9)"/>
</svg>
