<svg width="261" height="112" viewBox="0 0 261 112" fill="none" xmlns="http://www.w3.org/2000/svg">
<path d="M45.4364 0.187291C45.4364 0.140468 45.4128 0.101449 45.3657 0.0702341C45.3343 0.0234114 45.2871 0 45.2243 0H13.3151C13.268 0 13.2209 0.0234114 13.1737 0.0702341C13.1423 0.101449 13.1266 0.140468 13.1266 0.187291V3.81605C13.1266 3.86288 13.1423 3.9097 13.1737 3.95652C13.2209 3.98774 13.268 4.00334 13.3151 4.00334H40.7231V5.33779C40.7231 5.82163 40.5738 6.24303 40.2753 6.60201C39.9768 6.96098 39.5919 7.19509 39.1205 7.30435L17.2272 11.9632C15.8132 12.291 14.6584 13.0011 13.7629 14.0936C12.8831 15.1862 12.4432 16.4426 12.4432 17.8629V23.2007C12.4432 23.2631 12.4589 23.3177 12.4903 23.3645C12.5374 23.3958 12.5924 23.4114 12.6553 23.4114H44.5644C44.6116 23.4114 44.6508 23.3958 44.6823 23.3645C44.7294 23.3177 44.753 23.2631 44.753 23.2007V19.5953C44.753 19.5329 44.7294 19.4861 44.6823 19.4548C44.6508 19.408 44.6116 19.3846 44.5644 19.3846H17.1565V18.0502C17.1565 17.5819 17.3057 17.1683 17.6042 16.8094C17.9028 16.4504 18.2877 16.2163 18.759 16.107L40.6524 11.4482C42.0664 11.1204 43.2133 10.4103 44.0931 9.31773C44.9886 8.22519 45.4364 6.96878 45.4364 5.54849V0.187291Z" fill="white"/>
<path d="M57.2197 6.01672C57.2197 5.47046 57.4161 5.00223 57.8088 4.61204C58.2016 4.20624 58.6808 4.00334 59.2464 4.00334H85.9709C86.0338 4.00334 86.0809 3.98774 86.1123 3.95652C86.1595 3.9097 86.183 3.86288 86.183 3.81605V0.210702C86.183 0.148272 86.1595 0.101449 86.1123 0.0702341C86.0809 0.0234114 86.0338 0 85.9709 0H59.2464C57.3768 0 55.7821 0.655518 54.4624 1.96656C53.1584 3.26198 52.5064 4.83835 52.5064 6.69565V16.7157C52.5064 18.573 53.1584 20.1572 54.4624 21.4682C55.7821 22.7637 57.3768 23.4114 59.2464 23.4114H85.9709C86.0338 23.4114 86.0809 23.3958 86.1123 23.3645C86.1595 23.3177 86.183 23.2631 86.183 23.2007V19.5953C86.183 19.5485 86.1595 19.5095 86.1123 19.4783C86.0809 19.4314 86.0338 19.408 85.9709 19.408H59.2464C58.6808 19.408 58.2016 19.2129 57.8088 18.8227C57.4161 18.4169 57.2197 17.9409 57.2197 17.3946V13.7191H82.6009C82.6637 13.7191 82.7109 13.7035 82.7423 13.6722C82.7894 13.6254 82.813 13.5708 82.813 13.5084V9.90301C82.813 9.84058 82.7894 9.79376 82.7423 9.76254C82.7109 9.71572 82.6637 9.69231 82.6009 9.69231H57.2197V6.01672Z" fill="white"/>
<path d="M93.2766 0.187291C93.2766 0.140468 93.2923 0.101449 93.3237 0.0702341C93.3708 0.0234114 93.418 0 93.4651 0H120.213C122.067 0 123.646 0.655518 124.95 1.96656C126.27 3.26198 126.93 4.83055 126.93 6.67224V9.01338C126.93 10.8707 126.27 12.4548 124.95 13.7659C123.646 15.0613 122.067 15.709 120.213 15.709H97.9899V23.2007C97.9899 23.2631 97.9663 23.3177 97.9192 23.3645C97.8878 23.3958 97.8406 23.4114 97.7778 23.4114H93.4651C93.418 23.4114 93.3708 23.3958 93.3237 23.3645C93.2923 23.3177 93.2766 23.2631 93.2766 23.2007V0.187291ZM120.213 11.7057C120.763 11.7057 121.234 11.5106 121.627 11.1204C122.02 10.7146 122.216 10.2386 122.216 9.69231V6.01672C122.216 5.45485 122.02 4.97882 121.627 4.58863C121.234 4.19844 120.763 4.00334 120.213 4.00334H97.9899V11.7057H120.213Z" fill="white"/>
<path d="M160.936 0C162.806 0 164.393 0.655518 165.697 1.96656C167.016 3.26198 167.676 4.83835 167.676 6.69565V16.7157C167.676 18.573 167.016 20.1572 165.697 21.4682C164.393 22.7637 162.806 23.4114 160.936 23.4114H140.74C138.886 23.4114 137.299 22.7637 135.979 21.4682C134.66 20.1572 134 18.573 134 16.7157V6.69565C134 4.83835 134.66 3.26198 135.979 1.96656C137.299 0.655518 138.886 0 140.74 0H160.936ZM162.963 6.01672C162.963 5.47046 162.767 5.00223 162.374 4.61204C161.981 4.20624 161.502 4.00334 160.936 4.00334H140.74C140.19 4.00334 139.711 4.20624 139.302 4.61204C138.909 5.00223 138.713 5.47046 138.713 6.01672V17.3946C138.713 17.9409 138.909 18.4169 139.302 18.8227C139.711 19.2129 140.19 19.408 140.74 19.408H160.936C161.502 19.408 161.981 19.2129 162.374 18.8227C162.767 18.4169 162.963 17.9409 162.963 17.3946V6.01672Z" fill="white"/>
<path d="M181.51 19.408C180.944 19.408 180.465 19.2129 180.072 18.8227C179.68 18.4169 179.483 17.9409 179.483 17.3946V6.01672C179.483 5.47046 179.68 5.00223 180.072 4.61204C180.465 4.20624 180.944 4.00334 181.51 4.00334H208.234C208.297 4.00334 208.344 3.98774 208.376 3.95652C208.423 3.9097 208.446 3.86288 208.446 3.81605V0.210702C208.446 0.148272 208.423 0.101449 208.376 0.0702341C208.344 0.0234114 208.297 0 208.234 0H181.51C179.64 0 178.046 0.655518 176.726 1.96656C175.422 3.26198 174.77 4.83835 174.77 6.69565V16.7157C174.77 18.573 175.422 20.1572 176.726 21.4682C178.046 22.7637 179.64 23.4114 181.51 23.4114H208.234C208.297 23.4114 208.344 23.3958 208.376 23.3645C208.423 23.3177 208.446 23.2631 208.446 23.2007V19.5953C208.446 19.5485 208.423 19.5095 208.376 19.4783C208.344 19.4314 208.297 19.408 208.234 19.408H181.51Z" fill="white"/>
<path d="M249.217 0.210702C249.217 0.148272 249.193 0.101449 249.146 0.0702341C249.115 0.0234114 249.067 0 249.005 0H244.715C244.653 0 244.598 0.0234114 244.551 0.0702341C244.519 0.101449 244.503 0.148272 244.503 0.210702V9.69231H220.253V0.210702C220.253 0.148272 220.23 0.101449 220.183 0.0702341C220.151 0.0234114 220.112 0 220.065 0H215.752C215.689 0 215.634 0.0234114 215.587 0.0702341C215.556 0.101449 215.54 0.148272 215.54 0.210702V23.2241C215.54 23.2709 215.556 23.3177 215.587 23.3645C215.634 23.3958 215.689 23.4114 215.752 23.4114H220.065C220.112 23.4114 220.151 23.3958 220.183 23.3645C220.23 23.3177 220.253 23.2709 220.253 23.2241V13.7191H244.503V23.2241C244.503 23.2709 244.519 23.3177 244.551 23.3645C244.598 23.3958 244.653 23.4114 244.715 23.4114H249.005C249.067 23.4114 249.115 23.3958 249.146 23.3645C249.193 23.3177 249.217 23.2709 249.217 23.2241V0.210702Z" fill="white"/>
<path d="M84.1327 43.1003C84.1327 43.0379 84.1484 42.9911 84.1799 42.9599C84.227 42.913 84.282 42.8896 84.3448 42.8896H88.6575C88.7047 42.8896 88.7439 42.913 88.7753 42.9599C88.8225 42.9911 88.846 43.0379 88.846 43.1003V66.1137C88.846 66.1605 88.8225 66.2074 88.7753 66.2542C88.7439 66.2854 88.7047 66.301 88.6575 66.301H79.8436C78.0368 66.2542 76.615 65.4972 75.5781 64.0301L64.6196 47.806C64.164 47.2129 63.5984 46.9164 62.9228 46.9164H59.9063V66.1137C59.9063 66.1605 59.8827 66.2074 59.8356 66.2542C59.8041 66.2854 59.757 66.301 59.6942 66.301H55.3815C55.3344 66.301 55.2872 66.2854 55.2401 66.2542C55.2087 66.2074 55.193 66.1605 55.193 66.1137V43.1003C55.193 43.0379 55.2087 42.9911 55.2401 42.9599C55.2872 42.913 55.3344 42.8896 55.3815 42.8896H64.1954C66.0022 42.9521 67.424 43.7168 68.4609 45.1839L79.4194 61.3846C79.8593 61.9933 80.4249 62.2977 81.1162 62.2977H84.1327V43.1003Z" fill="white"/>
<path d="M122.853 42.8896C124.722 42.8896 126.309 43.5452 127.613 44.8562C128.933 46.1516 129.593 47.728 129.593 49.5853V59.6054C129.593 61.4627 128.933 63.0468 127.613 64.3579C126.309 65.6533 124.722 66.301 122.853 66.301H102.656C100.802 66.301 99.2153 65.6533 97.8956 64.3579C96.5759 63.0468 95.916 61.4627 95.916 59.6054V49.5853C95.916 47.728 96.5759 46.1516 97.8956 44.8562C99.2153 43.5452 100.802 42.8896 102.656 42.8896H122.853ZM124.879 48.9064C124.879 48.3601 124.683 47.8919 124.29 47.5017C123.897 47.0959 123.418 46.893 122.853 46.893H102.656C102.106 46.893 101.627 47.0959 101.219 47.5017C100.826 47.8919 100.629 48.3601 100.629 48.9064V60.2843C100.629 60.8305 100.826 61.3066 101.219 61.7124C101.627 62.1026 102.106 62.2977 102.656 62.2977H122.853C123.418 62.2977 123.897 62.1026 124.29 61.7124C124.683 61.3066 124.879 60.8305 124.879 60.2843V48.9064Z" fill="white"/>
<path d="M163.599 42.8896C165.469 42.8896 167.056 43.5452 168.36 44.8562C169.679 46.1516 170.339 47.728 170.339 49.5853V59.6054C170.339 61.4627 169.679 63.0468 168.36 64.3579C167.056 65.6533 165.469 66.301 163.599 66.301H136.875C136.828 66.301 136.78 66.2854 136.733 66.2542C136.702 66.2074 136.686 66.1527 136.686 66.0903V43.1003C136.686 43.0379 136.702 42.9911 136.733 42.9599C136.78 42.913 136.828 42.8896 136.875 42.8896H163.599ZM165.626 48.9064C165.626 48.3601 165.43 47.8919 165.037 47.5017C164.644 47.0959 164.165 46.893 163.599 46.893H141.4V62.2977H163.599C164.165 62.2977 164.644 62.1026 165.037 61.7124C165.43 61.3066 165.626 60.8305 165.626 60.2843V48.9064Z" fill="white"/>
<path d="M182.123 48.9064C182.123 48.3601 182.319 47.8919 182.712 47.5017C183.105 47.0959 183.584 46.893 184.149 46.893H210.874C210.937 46.893 210.984 46.8774 211.015 46.8462C211.062 46.7993 211.086 46.7525 211.086 46.7057V43.1003C211.086 43.0379 211.062 42.9911 211.015 42.9599C210.984 42.913 210.937 42.8896 210.874 42.8896H184.149C182.28 42.8896 180.685 43.5452 179.365 44.8562C178.061 46.1516 177.409 47.728 177.409 49.5853V59.6054C177.409 61.4627 178.061 63.0468 179.365 64.3579C180.685 65.6533 182.28 66.301 184.149 66.301H210.874C210.937 66.301 210.984 66.2854 211.015 66.2542C211.062 66.2074 211.086 66.1527 211.086 66.0903V62.4849C211.086 62.4381 211.062 62.3991 211.015 62.3679C210.984 62.3211 210.937 62.2977 210.874 62.2977H184.149C183.584 62.2977 183.105 62.1026 182.712 61.7124C182.319 61.3066 182.123 60.8305 182.123 60.2843V56.6087H207.504C207.567 56.6087 207.614 56.5931 207.645 56.5619C207.692 56.515 207.716 56.4604 207.716 56.398V52.7926C207.716 52.7302 207.692 52.6834 207.645 52.6522C207.614 52.6054 207.567 52.5819 207.504 52.5819H182.123V48.9064Z" fill="white"/>
<path d="M26.9366 88.5886C28.8062 88.5886 30.393 89.2441 31.6971 90.5552C33.0168 91.8506 33.6767 93.427 33.6767 95.2843V105.304C33.6767 107.162 33.0168 108.746 31.6971 110.057C30.393 111.352 28.8062 112 26.9366 112H6.74005C4.88614 112 3.29932 111.352 1.97959 110.057C0.659865 108.746 0 107.162 0 105.304V95.2843C0 93.427 0.659865 91.8506 1.97959 90.5552C3.29932 89.2441 4.88614 88.5886 6.74005 88.5886H26.9366ZM28.9633 94.6053C28.9633 94.0591 28.767 93.5909 28.3742 93.2007C27.9814 92.7949 27.5022 92.592 26.9366 92.592H6.74005C6.19016 92.592 5.71097 92.7949 5.30248 93.2007C4.90971 93.5909 4.71332 94.0591 4.71332 94.6053V105.983C4.71332 106.53 4.90971 107.006 5.30248 107.411C5.71097 107.802 6.19016 107.997 6.74005 107.997H26.9366C27.5022 107.997 27.9814 107.802 28.3742 107.411C28.767 107.006 28.9633 106.53 28.9633 105.983V94.6053Z" fill="white"/>
<path d="M40.7702 111.813C40.7702 111.86 40.7859 111.906 40.8173 111.953C40.8645 111.984 40.9195 112 40.9823 112H45.295C45.3421 112 45.3814 111.984 45.4128 111.953C45.46 111.906 45.4835 111.86 45.4835 111.813V94.6288C45.4835 94.0669 45.6799 93.5909 46.0727 93.2007C46.4812 92.8105 46.9604 92.6154 47.5102 92.6154H67.7068C68.2724 92.6154 68.7516 92.8105 69.1444 93.2007C69.5372 93.5909 69.7335 94.0669 69.7335 94.6288V111.813C69.7335 111.86 69.7493 111.906 69.7807 111.953C69.8278 111.984 69.8828 112 69.9456 112H74.2348C74.2976 112 74.3447 111.984 74.3762 111.953C74.4233 111.906 74.4469 111.86 74.4469 111.813V95.2843C74.4469 93.4426 73.787 91.8662 72.4673 90.5552C71.1632 89.2441 69.5764 88.5886 67.7068 88.5886H47.5102C45.6563 88.5886 44.0695 89.2441 42.7498 90.5552C41.4301 91.8662 40.7702 93.4426 40.7702 95.2843V111.813Z" fill="white"/>
<path d="M109.82 94.6053C109.82 94.0435 110.017 93.5674 110.409 93.1773C110.802 92.7871 111.274 92.592 111.823 92.592H137.228C137.275 92.592 137.315 92.5764 137.346 92.5452C137.393 92.4983 137.417 92.4515 137.417 92.4047V88.7759C137.417 88.7291 137.393 88.6901 137.346 88.6589C137.315 88.612 137.275 88.5886 137.228 88.5886H111.823C109.97 88.5886 108.383 89.2441 107.063 90.5552C105.759 91.8506 105.107 93.4192 105.107 95.2609V95.612C105.107 97.4537 105.759 99.0301 107.063 100.341C108.383 101.637 109.97 102.284 111.823 102.284H132.044C132.593 102.284 133.065 102.487 133.458 102.893C133.85 103.283 134.047 103.751 134.047 104.298V105.983C134.047 106.53 133.85 106.998 133.458 107.388C133.065 107.778 132.593 107.973 132.044 107.973H106.639C106.592 107.973 106.545 107.997 106.497 108.043C106.466 108.075 106.45 108.122 106.45 108.184V111.789C106.45 111.852 106.466 111.906 106.497 111.953C106.545 111.984 106.592 112 106.639 112H132.044C133.898 112 135.476 111.344 136.78 110.033C138.1 108.722 138.76 107.146 138.76 105.304V104.977C138.76 103.119 138.1 101.543 136.78 100.247C135.476 98.9365 133.898 98.2809 132.044 98.2809H111.823C111.274 98.2809 110.802 98.0858 110.409 97.6956C110.017 97.3055 109.82 96.8294 109.82 96.2676V94.6053Z" fill="white"/>
<path d="M145.83 95.2609C145.83 93.4192 146.482 91.8506 147.786 90.5552C149.106 89.2441 150.7 88.5886 152.57 88.5886H172.767C174.621 88.5886 176.207 89.2441 177.527 90.5552C178.847 91.8506 179.507 93.4192 179.507 95.2609V111.789C179.507 111.852 179.483 111.906 179.436 111.953C179.405 111.984 179.357 112 179.295 112H174.982C174.935 112 174.888 111.984 174.841 111.953C174.809 111.906 174.793 111.852 174.793 111.789V104.298H150.543V111.789C150.543 111.852 150.52 111.906 150.473 111.953C150.441 111.984 150.402 112 150.355 112H146.042C145.979 112 145.924 111.984 145.877 111.953C145.846 111.906 145.83 111.852 145.83 111.789V95.2609ZM174.793 100.294V94.6053C174.793 94.0435 174.589 93.5674 174.181 93.1773C173.788 92.7871 173.317 92.592 172.767 92.592H152.57C152.005 92.592 151.525 92.7871 151.133 93.1773C150.74 93.5674 150.543 94.0435 150.543 94.6053V100.294H174.793Z" fill="white"/>
<path d="M220.253 108.184C220.253 108.137 220.23 108.098 220.183 108.067C220.151 108.02 220.112 107.997 220.065 107.997H193.34C192.775 107.997 192.296 107.802 191.903 107.411C191.51 107.006 191.314 106.53 191.314 105.983V88.7993C191.314 88.7369 191.29 88.6901 191.243 88.6589C191.211 88.612 191.164 88.5886 191.101 88.5886H186.789C186.742 88.5886 186.695 88.612 186.647 88.6589C186.616 88.6901 186.6 88.7369 186.6 88.7993V105.304C186.6 107.162 187.252 108.746 188.556 110.057C189.876 111.352 191.471 112 193.34 112H220.065C220.112 112 220.151 111.984 220.183 111.953C220.23 111.906 220.253 111.86 220.253 111.813V108.184Z" fill="white"/>
<path d="M232.037 94.6053C232.037 94.0591 232.233 93.5909 232.626 93.2007C233.019 92.7949 233.498 92.592 234.063 92.592H260.788C260.851 92.592 260.898 92.5764 260.929 92.5452C260.976 92.4983 261 92.4515 261 92.4047V88.7993C261 88.7369 260.976 88.6901 260.929 88.6589C260.898 88.612 260.851 88.5886 260.788 88.5886H234.063C232.194 88.5886 230.599 89.2441 229.279 90.5552C227.975 91.8506 227.323 93.427 227.323 95.2843V105.304C227.323 107.162 227.975 108.746 229.279 110.057C230.599 111.352 232.194 112 234.063 112H260.788C260.851 112 260.898 111.984 260.929 111.953C260.976 111.906 261 111.852 261 111.789V108.184C261 108.137 260.976 108.098 260.929 108.067C260.898 108.02 260.851 107.997 260.788 107.997H234.063C233.498 107.997 233.019 107.802 232.626 107.411C232.233 107.006 232.037 106.53 232.037 105.983V102.308H257.418C257.481 102.308 257.528 102.292 257.559 102.261C257.606 102.214 257.63 102.159 257.63 102.097V98.4916C257.63 98.4292 257.606 98.3824 257.559 98.3512C257.528 98.3043 257.481 98.2809 257.418 98.2809H232.037V94.6053Z" fill="white"/>
</svg>
