<svg width="562" height="83" viewBox="0 0 562 83" fill="none" xmlns="http://www.w3.org/2000/svg">
<path d="M43.75 1C43.75 0.9375 43.7188 0.885417 43.6562 0.84375C43.6146 0.78125 43.5521 0.75 43.4688 0.75H1.15625C1.09375 0.75 1.03125 0.78125 0.96875 0.84375C0.927083 0.885417 0.90625 0.9375 0.90625 1V5.84375C0.90625 5.90625 0.927083 5.96875 0.96875 6.03125C1.03125 6.07292 1.09375 6.09375 1.15625 6.09375H37.5V7.875C37.5 8.52083 37.3021 9.08333 36.9062 9.5625C36.5104 10.0417 36 10.3542 35.375 10.5L6.34375 16.7188C4.46875 17.1562 2.9375 18.1042 1.75 19.5625C0.583333 21.0208 0 22.6979 0 24.5938V31.7188C0 31.8021 0.0208333 31.875 0.0625 31.9375C0.125 31.9792 0.197917 32 0.28125 32H42.5938C42.6562 32 42.7083 31.9792 42.75 31.9375C42.8125 31.875 42.8438 31.8021 42.8438 31.7188V26.9062C42.8438 26.8229 42.8125 26.7604 42.75 26.7188C42.7083 26.6562 42.6562 26.625 42.5938 26.625H6.25V24.8438C6.25 24.2188 6.44792 23.6667 6.84375 23.1875C7.23958 22.7083 7.75 22.3958 8.375 22.25L37.4062 16.0312C39.2812 15.5938 40.8021 14.6458 41.9688 13.1875C43.1562 11.7292 43.75 10.0521 43.75 8.15625V1Z" fill="black"/>
<path d="M59.375 8.78125C59.375 8.05208 59.6354 7.42708 60.1562 6.90625C60.6771 6.36458 61.3125 6.09375 62.0625 6.09375H97.5C97.5833 6.09375 97.6458 6.07292 97.6875 6.03125C97.75 5.96875 97.7812 5.90625 97.7812 5.84375V1.03125C97.7812 0.947917 97.75 0.885417 97.6875 0.84375C97.6458 0.78125 97.5833 0.75 97.5 0.75H62.0625C59.5833 0.75 57.4688 1.625 55.7188 3.375C53.9896 5.10417 53.125 7.20833 53.125 9.6875V23.0625C53.125 25.5417 53.9896 27.6562 55.7188 29.4062C57.4688 31.1354 59.5833 32 62.0625 32H97.5C97.5833 32 97.6458 31.9792 97.6875 31.9375C97.75 31.875 97.7812 31.8021 97.7812 31.7188V26.9062C97.7812 26.8438 97.75 26.7917 97.6875 26.75C97.6458 26.6875 97.5833 26.6562 97.5 26.6562H62.0625C61.3125 26.6562 60.6771 26.3958 60.1562 25.875C59.6354 25.3333 59.375 24.6979 59.375 23.9688V19.0625H93.0312C93.1146 19.0625 93.1771 19.0417 93.2188 19C93.2812 18.9375 93.3125 18.8646 93.3125 18.7812V13.9688C93.3125 13.8854 93.2812 13.8229 93.2188 13.7812C93.1771 13.7188 93.1146 13.6875 93.0312 13.6875H59.375V8.78125Z" fill="black"/>
<path d="M107.188 1C107.188 0.9375 107.208 0.885417 107.25 0.84375C107.312 0.78125 107.375 0.75 107.438 0.75H142.906C145.365 0.75 147.458 1.625 149.188 3.375C150.938 5.10417 151.812 7.19792 151.812 9.65625V12.7812C151.812 15.2604 150.938 17.375 149.188 19.125C147.458 20.8542 145.365 21.7188 142.906 21.7188H113.438V31.7188C113.438 31.8021 113.406 31.875 113.344 31.9375C113.302 31.9792 113.24 32 113.156 32H107.438C107.375 32 107.312 31.9792 107.25 31.9375C107.208 31.875 107.188 31.8021 107.188 31.7188V1ZM142.906 16.375C143.635 16.375 144.26 16.1146 144.781 15.5938C145.302 15.0521 145.562 14.4167 145.562 13.6875V8.78125C145.562 8.03125 145.302 7.39583 144.781 6.875C144.26 6.35417 143.635 6.09375 142.906 6.09375H113.438V16.375H142.906Z" fill="black"/>
<path d="M196.906 0.75C199.385 0.75 201.49 1.625 203.219 3.375C204.969 5.10417 205.844 7.20833 205.844 9.6875V23.0625C205.844 25.5417 204.969 27.6562 203.219 29.4062C201.49 31.1354 199.385 32 196.906 32H170.125C167.667 32 165.562 31.1354 163.812 29.4062C162.062 27.6562 161.188 25.5417 161.188 23.0625V9.6875C161.188 7.20833 162.062 5.10417 163.812 3.375C165.562 1.625 167.667 0.75 170.125 0.75H196.906ZM199.594 8.78125C199.594 8.05208 199.333 7.42708 198.812 6.90625C198.292 6.36458 197.656 6.09375 196.906 6.09375H170.125C169.396 6.09375 168.76 6.36458 168.219 6.90625C167.698 7.42708 167.438 8.05208 167.438 8.78125V23.9688C167.438 24.6979 167.698 25.3333 168.219 25.875C168.76 26.3958 169.396 26.6562 170.125 26.6562H196.906C197.656 26.6562 198.292 26.3958 198.812 25.875C199.333 25.3333 199.594 24.6979 199.594 23.9688V8.78125Z" fill="black"/>
<path d="M224.188 26.6562C223.438 26.6562 222.802 26.3958 222.281 25.875C221.76 25.3333 221.5 24.6979 221.5 23.9688V8.78125C221.5 8.05208 221.76 7.42708 222.281 6.90625C222.802 6.36458 223.438 6.09375 224.188 6.09375H259.625C259.708 6.09375 259.771 6.07292 259.812 6.03125C259.875 5.96875 259.906 5.90625 259.906 5.84375V1.03125C259.906 0.947917 259.875 0.885417 259.812 0.84375C259.771 0.78125 259.708 0.75 259.625 0.75H224.188C221.708 0.75 219.594 1.625 217.844 3.375C216.115 5.10417 215.25 7.20833 215.25 9.6875V23.0625C215.25 25.5417 216.115 27.6562 217.844 29.4062C219.594 31.1354 221.708 32 224.188 32H259.625C259.708 32 259.771 31.9792 259.812 31.9375C259.875 31.875 259.906 31.8021 259.906 31.7188V26.9062C259.906 26.8438 259.875 26.7917 259.812 26.75C259.771 26.6875 259.708 26.6562 259.625 26.6562H224.188Z" fill="black"/>
<path d="M313.969 1.03125C313.969 0.947917 313.938 0.885417 313.875 0.84375C313.833 0.78125 313.771 0.75 313.688 0.75H308C307.917 0.75 307.844 0.78125 307.781 0.84375C307.74 0.885417 307.719 0.947917 307.719 1.03125V13.6875H275.562V1.03125C275.562 0.947917 275.531 0.885417 275.469 0.84375C275.427 0.78125 275.375 0.75 275.312 0.75H269.594C269.51 0.75 269.438 0.78125 269.375 0.84375C269.333 0.885417 269.312 0.947917 269.312 1.03125V31.75C269.312 31.8125 269.333 31.875 269.375 31.9375C269.438 31.9792 269.51 32 269.594 32H275.312C275.375 32 275.427 31.9792 275.469 31.9375C275.531 31.875 275.562 31.8125 275.562 31.75V19.0625H307.719V31.75C307.719 31.8125 307.74 31.875 307.781 31.9375C307.844 31.9792 307.917 32 308 32H313.688C313.771 32 313.833 31.9792 313.875 31.9375C313.938 31.875 313.969 31.8125 313.969 31.75V1.03125Z" fill="black"/>
<path d="M393 1.03125C393 0.947917 393.021 0.885417 393.062 0.84375C393.125 0.78125 393.198 0.75 393.281 0.75H399C399.062 0.75 399.115 0.78125 399.156 0.84375C399.219 0.885417 399.25 0.947917 399.25 1.03125V31.75C399.25 31.8125 399.219 31.875 399.156 31.9375C399.115 31.9792 399.062 32 399 32H387.312C384.917 31.9375 383.031 30.9271 381.656 28.9688L367.125 7.3125C366.521 6.52083 365.771 6.125 364.875 6.125H360.875V31.75C360.875 31.8125 360.844 31.875 360.781 31.9375C360.74 31.9792 360.677 32 360.594 32H354.875C354.812 32 354.75 31.9792 354.688 31.9375C354.646 31.875 354.625 31.8125 354.625 31.75V1.03125C354.625 0.947917 354.646 0.885417 354.688 0.84375C354.75 0.78125 354.812 0.75 354.875 0.75H366.562C368.958 0.833333 370.844 1.85417 372.219 3.8125L386.75 25.4375C387.333 26.25 388.083 26.6562 389 26.6562H393V1.03125Z" fill="black"/>
<path d="M444.344 0.75C446.823 0.75 448.927 1.625 450.656 3.375C452.406 5.10417 453.281 7.20833 453.281 9.6875V23.0625C453.281 25.5417 452.406 27.6562 450.656 29.4062C448.927 31.1354 446.823 32 444.344 32H417.562C415.104 32 413 31.1354 411.25 29.4062C409.5 27.6562 408.625 25.5417 408.625 23.0625V9.6875C408.625 7.20833 409.5 5.10417 411.25 3.375C413 1.625 415.104 0.75 417.562 0.75H444.344ZM447.031 8.78125C447.031 8.05208 446.771 7.42708 446.25 6.90625C445.729 6.36458 445.094 6.09375 444.344 6.09375H417.562C416.833 6.09375 416.198 6.36458 415.656 6.90625C415.135 7.42708 414.875 8.05208 414.875 8.78125V23.9688C414.875 24.6979 415.135 25.3333 415.656 25.875C416.198 26.3958 416.833 26.6562 417.562 26.6562H444.344C445.094 26.6562 445.729 26.3958 446.25 25.875C446.771 25.3333 447.031 24.6979 447.031 23.9688V8.78125Z" fill="black"/>
<path d="M498.375 0.75C500.854 0.75 502.958 1.625 504.688 3.375C506.438 5.10417 507.312 7.20833 507.312 9.6875V23.0625C507.312 25.5417 506.438 27.6562 504.688 29.4062C502.958 31.1354 500.854 32 498.375 32H462.938C462.875 32 462.812 31.9792 462.75 31.9375C462.708 31.875 462.688 31.8021 462.688 31.7188V1.03125C462.688 0.947917 462.708 0.885417 462.75 0.84375C462.812 0.78125 462.875 0.75 462.938 0.75H498.375ZM501.062 8.78125C501.062 8.05208 500.802 7.42708 500.281 6.90625C499.76 6.36458 499.125 6.09375 498.375 6.09375H468.938V26.6562H498.375C499.125 26.6562 499.76 26.3958 500.281 25.875C500.802 25.3333 501.062 24.6979 501.062 23.9688V8.78125Z" fill="black"/>
<path d="M522.938 8.78125C522.938 8.05208 523.198 7.42708 523.719 6.90625C524.24 6.36458 524.875 6.09375 525.625 6.09375H561.062C561.146 6.09375 561.208 6.07292 561.25 6.03125C561.312 5.96875 561.344 5.90625 561.344 5.84375V1.03125C561.344 0.947917 561.312 0.885417 561.25 0.84375C561.208 0.78125 561.146 0.75 561.062 0.75H525.625C523.146 0.75 521.031 1.625 519.281 3.375C517.552 5.10417 516.688 7.20833 516.688 9.6875V23.0625C516.688 25.5417 517.552 27.6562 519.281 29.4062C521.031 31.1354 523.146 32 525.625 32H561.062C561.146 32 561.208 31.9792 561.25 31.9375C561.312 31.875 561.344 31.8021 561.344 31.7188V26.9062C561.344 26.8438 561.312 26.7917 561.25 26.75C561.208 26.6875 561.146 26.6562 561.062 26.6562H525.625C524.875 26.6562 524.24 26.3958 523.719 25.875C523.198 25.3333 522.938 24.6979 522.938 23.9688V19.0625H556.594C556.677 19.0625 556.74 19.0417 556.781 19C556.844 18.9375 556.875 18.8646 556.875 18.7812V13.9688C556.875 13.8854 556.844 13.8229 556.781 13.7812C556.74 13.7188 556.677 13.6875 556.594 13.6875H522.938V8.78125Z" fill="black"/>
<path d="M35.7188 51.75C38.1979 51.75 40.3021 52.625 42.0312 54.375C43.7812 56.1042 44.6562 58.2083 44.6562 60.6875V74.0625C44.6562 76.5417 43.7812 78.6562 42.0312 80.4062C40.3021 82.1354 38.1979 83 35.7188 83H8.9375C6.47917 83 4.375 82.1354 2.625 80.4062C0.875 78.6562 0 76.5417 0 74.0625V60.6875C0 58.2083 0.875 56.1042 2.625 54.375C4.375 52.625 6.47917 51.75 8.9375 51.75H35.7188ZM38.4062 59.7812C38.4062 59.0521 38.1458 58.4271 37.625 57.9062C37.1042 57.3646 36.4688 57.0938 35.7188 57.0938H8.9375C8.20833 57.0938 7.57292 57.3646 7.03125 57.9062C6.51042 58.4271 6.25 59.0521 6.25 59.7812V74.9688C6.25 75.6979 6.51042 76.3333 7.03125 76.875C7.57292 77.3958 8.20833 77.6562 8.9375 77.6562H35.7188C36.4688 77.6562 37.1042 77.3958 37.625 76.875C38.1458 76.3333 38.4062 75.6979 38.4062 74.9688V59.7812Z" fill="black"/>
<path d="M54.0625 82.75C54.0625 82.8125 54.0833 82.875 54.125 82.9375C54.1875 82.9792 54.2604 83 54.3438 83H60.0625C60.125 83 60.1771 82.9792 60.2188 82.9375C60.2812 82.875 60.3125 82.8125 60.3125 82.75V59.8125C60.3125 59.0625 60.5729 58.4271 61.0938 57.9062C61.6354 57.3854 62.2708 57.125 63 57.125H89.7812C90.5312 57.125 91.1667 57.3854 91.6875 57.9062C92.2083 58.4271 92.4688 59.0625 92.4688 59.8125V82.75C92.4688 82.8125 92.4896 82.875 92.5312 82.9375C92.5938 82.9792 92.6667 83 92.75 83H98.4375C98.5208 83 98.5833 82.9792 98.625 82.9375C98.6875 82.875 98.7188 82.8125 98.7188 82.75V60.6875C98.7188 58.2292 97.8438 56.125 96.0938 54.375C94.3646 52.625 92.2604 51.75 89.7812 51.75H63C60.5417 51.75 58.4375 52.625 56.6875 54.375C54.9375 56.125 54.0625 58.2292 54.0625 60.6875V82.75Z" fill="black"/>
<path d="M145.625 59.7812C145.625 59.0312 145.885 58.3958 146.406 57.875C146.927 57.3542 147.552 57.0938 148.281 57.0938H181.969C182.031 57.0938 182.083 57.0729 182.125 57.0312C182.188 56.9688 182.219 56.9062 182.219 56.8438V52C182.219 51.9375 182.188 51.8854 182.125 51.8438C182.083 51.7812 182.031 51.75 181.969 51.75H148.281C145.823 51.75 143.719 52.625 141.969 54.375C140.24 56.1042 139.375 58.1979 139.375 60.6562V61.125C139.375 63.5833 140.24 65.6875 141.969 67.4375C143.719 69.1667 145.823 70.0312 148.281 70.0312H175.094C175.823 70.0312 176.448 70.3021 176.969 70.8438C177.49 71.3646 177.75 71.9896 177.75 72.7188V74.9688C177.75 75.6979 177.49 76.3229 176.969 76.8438C176.448 77.3646 175.823 77.625 175.094 77.625H141.406C141.344 77.625 141.281 77.6562 141.219 77.7188C141.177 77.7604 141.156 77.8229 141.156 77.9062V82.7188C141.156 82.8021 141.177 82.875 141.219 82.9375C141.281 82.9792 141.344 83 141.406 83H175.094C177.552 83 179.646 82.125 181.375 80.375C183.125 78.625 184 76.5208 184 74.0625V73.625C184 71.1458 183.125 69.0417 181.375 67.3125C179.646 65.5625 177.552 64.6875 175.094 64.6875H148.281C147.552 64.6875 146.927 64.4271 146.406 63.9062C145.885 63.3854 145.625 62.75 145.625 62V59.7812Z" fill="black"/>
<path d="M193.375 60.6562C193.375 58.1979 194.24 56.1042 195.969 54.375C197.719 52.625 199.833 51.75 202.312 51.75H229.094C231.552 51.75 233.656 52.625 235.406 54.375C237.156 56.1042 238.031 58.1979 238.031 60.6562V82.7188C238.031 82.8021 238 82.875 237.938 82.9375C237.896 82.9792 237.833 83 237.75 83H232.031C231.969 83 231.906 82.9792 231.844 82.9375C231.802 82.875 231.781 82.8021 231.781 82.7188V72.7188H199.625V82.7188C199.625 82.8021 199.594 82.875 199.531 82.9375C199.49 82.9792 199.438 83 199.375 83H193.656C193.573 83 193.5 82.9792 193.438 82.9375C193.396 82.875 193.375 82.8021 193.375 82.7188V60.6562ZM231.781 67.375V59.7812C231.781 59.0312 231.51 58.3958 230.969 57.875C230.448 57.3542 229.823 57.0938 229.094 57.0938H202.312C201.562 57.0938 200.927 57.3542 200.406 57.875C199.885 58.3958 199.625 59.0312 199.625 59.7812V67.375H231.781Z" fill="black"/>
<path d="M292.062 77.9062C292.062 77.8438 292.031 77.7917 291.969 77.75C291.927 77.6875 291.875 77.6562 291.812 77.6562H256.375C255.625 77.6562 254.99 77.3958 254.469 76.875C253.948 76.3333 253.688 75.6979 253.688 74.9688V52.0312C253.688 51.9479 253.656 51.8854 253.594 51.8438C253.552 51.7812 253.49 51.75 253.406 51.75H247.688C247.625 51.75 247.562 51.7812 247.5 51.8438C247.458 51.8854 247.438 51.9479 247.438 52.0312V74.0625C247.438 76.5417 248.302 78.6562 250.031 80.4062C251.781 82.1354 253.896 83 256.375 83H291.812C291.875 83 291.927 82.9792 291.969 82.9375C292.031 82.875 292.062 82.8125 292.062 82.75V77.9062Z" fill="black"/>
<path d="M307.688 59.7812C307.688 59.0521 307.948 58.4271 308.469 57.9062C308.99 57.3646 309.625 57.0938 310.375 57.0938H345.812C345.896 57.0938 345.958 57.0729 346 57.0312C346.062 56.9688 346.094 56.9062 346.094 56.8438V52.0312C346.094 51.9479 346.062 51.8854 346 51.8438C345.958 51.7812 345.896 51.75 345.812 51.75H310.375C307.896 51.75 305.781 52.625 304.031 54.375C302.302 56.1042 301.438 58.2083 301.438 60.6875V74.0625C301.438 76.5417 302.302 78.6562 304.031 80.4062C305.781 82.1354 307.896 83 310.375 83H345.812C345.896 83 345.958 82.9792 346 82.9375C346.062 82.875 346.094 82.8021 346.094 82.7188V77.9062C346.094 77.8438 346.062 77.7917 346 77.75C345.958 77.6875 345.896 77.6562 345.812 77.6562H310.375C309.625 77.6562 308.99 77.3958 308.469 76.875C307.948 76.3333 307.688 75.6979 307.688 74.9688V70.0625H341.344C341.427 70.0625 341.49 70.0417 341.531 70C341.594 69.9375 341.625 69.8646 341.625 69.7812V64.9688C341.625 64.8854 341.594 64.8229 341.531 64.7812C341.49 64.7188 341.427 64.6875 341.344 64.6875H307.688V59.7812Z" fill="black"/>
</svg>
