<svg width="277" height="100" viewBox="0 0 277 100" fill="none" xmlns="http://www.w3.org/2000/svg">
<path d="M33.4922 0.210938C33.4922 0.148438 33.4688 0.101562 33.4219 0.0703125C33.3906 0.0234375 33.3438 0 33.2812 0H29.0156C28.9531 0 28.8984 0.0234375 28.8516 0.0703125C28.8203 0.101562 28.8047 0.148438 28.8047 0.210938V17.4141C28.8047 17.9766 28.6094 18.4531 28.2188 18.8438C27.8281 19.2344 27.3516 19.4297 26.7891 19.4297H6.70312C6.15625 19.4297 5.67969 19.2344 5.27344 18.8438C4.88281 18.4531 4.6875 17.9766 4.6875 17.4141V9.58594C4.6875 9.52344 4.66406 9.47656 4.61719 9.44531C4.58594 9.39844 4.54688 9.375 4.5 9.375H0.210938C0.148438 9.375 0.09375 9.39844 0.046875 9.44531C0.015625 9.47656 0 9.52344 0 9.58594V16.7578C0 18.6016 0.65625 20.1797 1.96875 21.4922C3.28125 22.7891 4.85938 23.4375 6.70312 23.4375H26.7891C28.6484 23.4375 30.2266 22.7891 31.5234 21.4922C32.8359 20.1797 33.4922 18.6016 33.4922 16.7578V0.210938Z" fill="url(#paint0_linear_294_22)"/>
<path d="M45.2344 6.02344C45.2344 5.47656 45.4297 5.00781 45.8203 4.61719C46.2109 4.21094 46.6875 4.00781 47.25 4.00781H73.8281C73.8906 4.00781 73.9375 3.99219 73.9688 3.96094C74.0156 3.91406 74.0391 3.86719 74.0391 3.82031V0.210938C74.0391 0.148438 74.0156 0.101562 73.9688 0.0703125C73.9375 0.0234375 73.8906 0 73.8281 0H47.25C45.3906 0 43.8047 0.65625 42.4922 1.96875C41.1953 3.26562 40.5469 4.84375 40.5469 6.70312V16.7344C40.5469 18.5938 41.1953 20.1797 42.4922 21.4922C43.8047 22.7891 45.3906 23.4375 47.25 23.4375H73.8281C73.8906 23.4375 73.9375 23.4219 73.9688 23.3906C74.0156 23.3438 74.0391 23.2891 74.0391 23.2266V19.6172C74.0391 19.5703 74.0156 19.5312 73.9688 19.5C73.9375 19.4531 73.8906 19.4297 73.8281 19.4297H47.25C46.6875 19.4297 46.2109 19.2344 45.8203 18.8438C45.4297 18.4375 45.2344 17.9609 45.2344 17.4141V13.7344H70.4766C70.5391 13.7344 70.5859 13.7188 70.6172 13.6875C70.6641 13.6406 70.6875 13.5859 70.6875 13.5234V9.91406C70.6875 9.85156 70.6641 9.80469 70.6172 9.77344C70.5859 9.72656 70.5391 9.70312 70.4766 9.70312H45.2344V6.02344Z" fill="url(#paint1_linear_294_22)"/>
<path d="M114.586 0.210938C114.586 0.148438 114.562 0.101562 114.516 0.0703125C114.484 0.0234375 114.438 0 114.375 0H110.109C110.047 0 109.992 0.0234375 109.945 0.0703125C109.914 0.101562 109.898 0.148438 109.898 0.210938V9.70312H85.7812V0.210938C85.7812 0.148438 85.7578 0.101562 85.7109 0.0703125C85.6797 0.0234375 85.6406 0 85.5938 0H81.3047C81.2422 0 81.1875 0.0234375 81.1406 0.0703125C81.1094 0.101562 81.0938 0.148438 81.0938 0.210938V23.25C81.0938 23.2969 81.1094 23.3438 81.1406 23.3906C81.1875 23.4219 81.2422 23.4375 81.3047 23.4375H85.5938C85.6406 23.4375 85.6797 23.4219 85.7109 23.3906C85.7578 23.3438 85.7812 23.2969 85.7812 23.25V13.7344H109.898V23.25C109.898 23.2969 109.914 23.3438 109.945 23.3906C109.992 23.4219 110.047 23.4375 110.109 23.4375H114.375C114.438 23.4375 114.484 23.4219 114.516 23.3906C114.562 23.3438 114.586 23.2969 114.586 23.25V0.210938Z" fill="url(#paint2_linear_294_22)"/>
<path d="M148.43 0C150.289 0 151.867 0.65625 153.164 1.96875C154.477 3.26562 155.133 4.84375 155.133 6.70312V16.7344C155.133 18.5938 154.477 20.1797 153.164 21.4922C151.867 22.7891 150.289 23.4375 148.43 23.4375H128.344C126.5 23.4375 124.922 22.7891 123.609 21.4922C122.297 20.1797 121.641 18.5938 121.641 16.7344V6.70312C121.641 4.84375 122.297 3.26562 123.609 1.96875C124.922 0.65625 126.5 0 128.344 0H148.43ZM150.445 6.02344C150.445 5.47656 150.25 5.00781 149.859 4.61719C149.469 4.21094 148.992 4.00781 148.43 4.00781H128.344C127.797 4.00781 127.32 4.21094 126.914 4.61719C126.523 5.00781 126.328 5.47656 126.328 6.02344V17.4141C126.328 17.9609 126.523 18.4375 126.914 18.8438C127.32 19.2344 127.797 19.4297 128.344 19.4297H148.43C148.992 19.4297 149.469 19.2344 149.859 18.8438C150.25 18.4375 150.445 17.9609 150.445 17.4141V6.02344Z" fill="url(#paint3_linear_294_22)"/>
<path d="M191.016 0.210938C191.016 0.164062 191.031 0.117188 191.062 0.0703125C191.109 0.0234375 191.164 0 191.227 0H195.516C195.578 0 195.625 0.0234375 195.656 0.0703125C195.703 0.117188 195.727 0.164062 195.727 0.210938V11.1562C195.727 12.7812 194.984 14.1094 193.5 15.1406L181.078 22.8516C179.656 23.6484 178.242 23.6484 176.836 22.8516L164.391 15.1406C162.922 14.1094 162.188 12.7812 162.188 11.1562V0.210938C162.188 0.164062 162.203 0.117188 162.234 0.0703125C162.281 0.0234375 162.328 0 162.375 0H166.664C166.727 0 166.773 0.0234375 166.805 0.0703125C166.852 0.117188 166.875 0.164062 166.875 0.210938V10.0312C166.875 10.7344 167.195 11.3047 167.836 11.7422L178.242 18.2109C178.711 18.4766 179.18 18.4766 179.648 18.2109L190.078 11.7422C190.703 11.3047 191.016 10.7344 191.016 10.0312V0.210938Z" fill="url(#paint4_linear_294_22)"/>
<path d="M202.781 6.67969C202.781 4.83594 203.43 3.26562 204.727 1.96875C206.039 0.65625 207.625 0 209.484 0H229.57C231.414 0 232.992 0.65625 234.305 1.96875C235.617 3.26562 236.273 4.83594 236.273 6.67969V23.2266C236.273 23.2891 236.25 23.3438 236.203 23.3906C236.172 23.4219 236.125 23.4375 236.062 23.4375H231.773C231.727 23.4375 231.68 23.4219 231.633 23.3906C231.602 23.3438 231.586 23.2891 231.586 23.2266V15.7266H207.469V23.2266C207.469 23.2891 207.445 23.3438 207.398 23.3906C207.367 23.4219 207.328 23.4375 207.281 23.4375H202.992C202.93 23.4375 202.875 23.4219 202.828 23.3906C202.797 23.3438 202.781 23.2891 202.781 23.2266V6.67969ZM231.586 11.7188V6.02344C231.586 5.46094 231.383 4.98438 230.977 4.59375C230.586 4.20312 230.117 4.00781 229.57 4.00781H209.484C208.922 4.00781 208.445 4.20312 208.055 4.59375C207.664 4.98438 207.469 5.46094 207.469 6.02344V11.7188H231.586Z" fill="url(#paint5_linear_294_22)"/>
<path d="M276.82 0.210938C276.82 0.148438 276.797 0.101562 276.75 0.0703125C276.719 0.0234375 276.672 0 276.609 0H272.344C272.281 0 272.227 0.0234375 272.18 0.0703125C272.148 0.101562 272.133 0.148438 272.133 0.210938V9.70312H248.016V0.210938C248.016 0.148438 247.992 0.101562 247.945 0.0703125C247.914 0.0234375 247.875 0 247.828 0H243.539C243.477 0 243.422 0.0234375 243.375 0.0703125C243.344 0.101562 243.328 0.148438 243.328 0.210938V23.25C243.328 23.2969 243.344 23.3438 243.375 23.3906C243.422 23.4219 243.477 23.4375 243.539 23.4375H247.828C247.875 23.4375 247.914 23.4219 247.945 23.3906C247.992 23.3438 248.016 23.2969 248.016 23.25V13.7344H272.133V23.25C272.133 23.2969 272.148 23.3438 272.18 23.3906C272.227 23.4219 272.281 23.4375 272.344 23.4375H276.609C276.672 23.4375 276.719 23.4219 276.75 23.3906C276.797 23.3438 276.82 23.2969 276.82 23.25V0.210938Z" fill="url(#paint6_linear_294_22)"/>
<path d="M77.9531 38.2109C77.9531 38.1484 77.9688 38.1016 78 38.0703C78.0469 38.0234 78.1016 38 78.1641 38H82.4531C82.5 38 82.5391 38.0234 82.5703 38.0703C82.6172 38.1016 82.6406 38.1484 82.6406 38.2109V61.25C82.6406 61.2969 82.6172 61.3438 82.5703 61.3906C82.5391 61.4219 82.5 61.4375 82.4531 61.4375H73.7344H73.6875C71.8906 61.3906 70.4766 60.6328 69.4453 59.1641L58.5469 42.9219C58.0938 42.3281 57.5312 42.0312 56.8594 42.0312H53.8594V61.25C53.8594 61.2969 53.8359 61.3438 53.7891 61.3906C53.7578 61.4219 53.7109 61.4375 53.6484 61.4375H49.3594C49.3125 61.4375 49.2656 61.4219 49.2188 61.3906C49.1875 61.3438 49.1719 61.2969 49.1719 61.25V38.2109C49.1719 38.1484 49.1875 38.1016 49.2188 38.0703C49.2656 38.0234 49.3125 38 49.3594 38H58.0781H58.125C59.9219 38.0625 61.3359 38.8281 62.3672 40.2969L73.2656 56.5156C73.7031 57.125 74.2656 57.4297 74.9531 57.4297H77.9531V38.2109Z" fill="url(#paint7_linear_294_22)"/>
<path d="M116.461 38C118.32 38 119.898 38.6562 121.195 39.9688C122.508 41.2656 123.164 42.8438 123.164 44.7031V54.7344C123.164 56.5938 122.508 58.1797 121.195 59.4922C119.898 60.7891 118.32 61.4375 116.461 61.4375H96.375C94.5312 61.4375 92.9531 60.7891 91.6406 59.4922C90.3281 58.1797 89.6719 56.5938 89.6719 54.7344V44.7031C89.6719 42.8438 90.3281 41.2656 91.6406 39.9688C92.9531 38.6562 94.5312 38 96.375 38H116.461ZM118.477 44.0234C118.477 43.4766 118.281 43.0078 117.891 42.6172C117.5 42.2109 117.023 42.0078 116.461 42.0078H96.375C95.8281 42.0078 95.3516 42.2109 94.9453 42.6172C94.5547 43.0078 94.3594 43.4766 94.3594 44.0234V55.4141C94.3594 55.9609 94.5547 56.4375 94.9453 56.8438C95.3516 57.2344 95.8281 57.4297 96.375 57.4297H116.461C117.023 57.4297 117.5 57.2344 117.891 56.8438C118.281 56.4375 118.477 55.9609 118.477 55.4141V44.0234Z" fill="url(#paint8_linear_294_22)"/>
<path d="M156.984 38C158.844 38 160.422 38.6562 161.719 39.9688C163.031 41.2656 163.688 42.8438 163.688 44.7031V54.7344C163.688 56.5938 163.031 58.1797 161.719 59.4922C160.422 60.7891 158.844 61.4375 156.984 61.4375H130.406C130.359 61.4375 130.312 61.4219 130.266 61.3906C130.234 61.3438 130.219 61.2891 130.219 61.2266V38.2109C130.219 38.1484 130.234 38.1016 130.266 38.0703C130.312 38.0234 130.359 38 130.406 38H156.984ZM159 44.0234C159 43.4766 158.805 43.0078 158.414 42.6172C158.023 42.2109 157.547 42.0078 156.984 42.0078H134.906V57.4297H156.984C157.547 57.4297 158.023 57.2344 158.414 56.8438C158.805 56.4375 159 55.9609 159 55.4141V44.0234Z" fill="url(#paint9_linear_294_22)"/>
<path d="M175.406 44.0234C175.406 43.4766 175.602 43.0078 175.992 42.6172C176.383 42.2109 176.859 42.0078 177.422 42.0078H204C204.062 42.0078 204.109 41.9922 204.141 41.9609C204.188 41.9141 204.211 41.8672 204.211 41.8203V38.2109C204.211 38.1484 204.188 38.1016 204.141 38.0703C204.109 38.0234 204.062 38 204 38H177.422C175.562 38 173.977 38.6562 172.664 39.9688C171.367 41.2656 170.719 42.8438 170.719 44.7031V54.7344C170.719 56.5938 171.367 58.1797 172.664 59.4922C173.977 60.7891 175.562 61.4375 177.422 61.4375H204C204.062 61.4375 204.109 61.4219 204.141 61.3906C204.188 61.3438 204.211 61.2891 204.211 61.2266V57.6172C204.211 57.5703 204.188 57.5312 204.141 57.5C204.109 57.4531 204.062 57.4297 204 57.4297H177.422C176.859 57.4297 176.383 57.2344 175.992 56.8438C175.602 56.4375 175.406 55.9609 175.406 55.4141V51.7344H200.648C200.711 51.7344 200.758 51.7188 200.789 51.6875C200.836 51.6406 200.859 51.5859 200.859 51.5234V47.9141C200.859 47.8516 200.836 47.8047 200.789 47.7734C200.758 47.7266 200.711 47.7031 200.648 47.7031H175.406V44.0234Z" fill="url(#paint10_linear_294_22)"/>
<path d="M35.4141 76C37.2734 76 38.8516 76.6562 40.1484 77.9688C41.4609 79.2656 42.1172 80.8438 42.1172 82.7031V92.7344C42.1172 94.5938 41.4609 96.1797 40.1484 97.4922C38.8516 98.7891 37.2734 99.4375 35.4141 99.4375H15.3281C13.4844 99.4375 11.9062 98.7891 10.5938 97.4922C9.28125 96.1797 8.625 94.5938 8.625 92.7344V82.7031C8.625 80.8438 9.28125 79.2656 10.5938 77.9688C11.9062 76.6562 13.4844 76 15.3281 76H35.4141ZM37.4297 82.0234C37.4297 81.4766 37.2344 81.0078 36.8438 80.6172C36.4531 80.2109 35.9766 80.0078 35.4141 80.0078H15.3281C14.7812 80.0078 14.3047 80.2109 13.8984 80.6172C13.5078 81.0078 13.3125 81.4766 13.3125 82.0234V93.4141C13.3125 93.9609 13.5078 94.4375 13.8984 94.8438C14.3047 95.2344 14.7812 95.4297 15.3281 95.4297H35.4141C35.9766 95.4297 36.4531 95.2344 36.8438 94.8438C37.2344 94.4375 37.4297 93.9609 37.4297 93.4141V82.0234Z" fill="url(#paint11_linear_294_22)"/>
<path d="M49.1719 99.25C49.1719 99.2969 49.1875 99.3438 49.2188 99.3906C49.2656 99.4219 49.3203 99.4375 49.3828 99.4375H53.6719C53.7188 99.4375 53.7578 99.4219 53.7891 99.3906C53.8359 99.3438 53.8594 99.2969 53.8594 99.25V82.0469C53.8594 81.4844 54.0547 81.0078 54.4453 80.6172C54.8516 80.2266 55.3281 80.0312 55.875 80.0312H75.9609C76.5234 80.0312 77 80.2266 77.3906 80.6172C77.7812 81.0078 77.9766 81.4844 77.9766 82.0469V99.25C77.9766 99.2969 77.9922 99.3438 78.0234 99.3906C78.0703 99.4219 78.125 99.4375 78.1875 99.4375H82.4531C82.5156 99.4375 82.5625 99.4219 82.5938 99.3906C82.6406 99.3438 82.6641 99.2969 82.6641 99.25V82.7031C82.6641 80.8594 82.0078 79.2812 80.6953 77.9688C79.3984 76.6562 77.8203 76 75.9609 76H55.875C54.0312 76 52.4531 76.6562 51.1406 77.9688C49.8281 79.2812 49.1719 80.8594 49.1719 82.7031V99.25Z" fill="url(#paint12_linear_294_22)"/>
<path d="M117.844 82.0234C117.844 81.4609 118.039 80.9844 118.43 80.5938C118.82 80.2031 119.289 80.0078 119.836 80.0078H145.102C145.148 80.0078 145.188 79.9922 145.219 79.9609C145.266 79.9141 145.289 79.8672 145.289 79.8203V76.1875C145.289 76.1406 145.266 76.1016 145.219 76.0703C145.188 76.0234 145.148 76 145.102 76H119.836C117.992 76 116.414 76.6562 115.102 77.9688C113.805 79.2656 113.156 80.8359 113.156 82.6797V83.0312C113.156 84.875 113.805 86.4531 115.102 87.7656C116.414 89.0625 117.992 89.7109 119.836 89.7109H139.945C140.492 89.7109 140.961 89.9141 141.352 90.3203C141.742 90.7109 141.938 91.1797 141.938 91.7266V93.4141C141.938 93.9609 141.742 94.4297 141.352 94.8203C140.961 95.2109 140.492 95.4062 139.945 95.4062H114.68C114.633 95.4062 114.586 95.4297 114.539 95.4766C114.508 95.5078 114.492 95.5547 114.492 95.6172V99.2266C114.492 99.2891 114.508 99.3438 114.539 99.3906C114.586 99.4219 114.633 99.4375 114.68 99.4375H139.945C141.789 99.4375 143.359 98.7812 144.656 97.4688C145.969 96.1562 146.625 94.5781 146.625 92.7344V92.4062C146.625 90.5469 145.969 88.9688 144.656 87.6719C143.359 86.3594 141.789 85.7031 139.945 85.7031H119.836C119.289 85.7031 118.82 85.5078 118.43 85.1172C118.039 84.7266 117.844 84.25 117.844 83.6875V82.0234Z" fill="url(#paint13_linear_294_22)"/>
<path d="M153.656 82.6797C153.656 80.8359 154.305 79.2656 155.602 77.9688C156.914 76.6562 158.5 76 160.359 76H180.445C182.289 76 183.867 76.6562 185.18 77.9688C186.492 79.2656 187.148 80.8359 187.148 82.6797V99.2266C187.148 99.2891 187.125 99.3438 187.078 99.3906C187.047 99.4219 187 99.4375 186.938 99.4375H182.648C182.602 99.4375 182.555 99.4219 182.508 99.3906C182.477 99.3438 182.461 99.2891 182.461 99.2266V91.7266H158.344V99.2266C158.344 99.2891 158.32 99.3438 158.273 99.3906C158.242 99.4219 158.203 99.4375 158.156 99.4375H153.867C153.805 99.4375 153.75 99.4219 153.703 99.3906C153.672 99.3438 153.656 99.2891 153.656 99.2266V82.6797ZM182.461 87.7188V82.0234C182.461 81.4609 182.258 80.9844 181.852 80.5938C181.461 80.2031 180.992 80.0078 180.445 80.0078H160.359C159.797 80.0078 159.32 80.2031 158.93 80.5938C158.539 80.9844 158.344 81.4609 158.344 82.0234V87.7188H182.461Z" fill="url(#paint14_linear_294_22)"/>
<path d="M227.672 95.6172C227.672 95.5703 227.648 95.5312 227.602 95.5C227.57 95.4531 227.531 95.4297 227.484 95.4297H200.906C200.344 95.4297 199.867 95.2344 199.477 94.8438C199.086 94.4375 198.891 93.9609 198.891 93.4141V76.2109C198.891 76.1484 198.867 76.1016 198.82 76.0703C198.789 76.0234 198.742 76 198.68 76H194.391C194.344 76 194.297 76.0234 194.25 76.0703C194.219 76.1016 194.203 76.1484 194.203 76.2109V92.7344C194.203 94.5938 194.852 96.1797 196.148 97.4922C197.461 98.7891 199.047 99.4375 200.906 99.4375H227.484C227.531 99.4375 227.57 99.4219 227.602 99.3906C227.648 99.3438 227.672 99.2969 227.672 99.25V95.6172Z" fill="url(#paint15_linear_294_22)"/>
<path d="M239.391 82.0234C239.391 81.4766 239.586 81.0078 239.977 80.6172C240.367 80.2109 240.844 80.0078 241.406 80.0078H267.984C268.047 80.0078 268.094 79.9922 268.125 79.9609C268.172 79.9141 268.195 79.8672 268.195 79.8203V76.2109C268.195 76.1484 268.172 76.1016 268.125 76.0703C268.094 76.0234 268.047 76 267.984 76H241.406C239.547 76 237.961 76.6562 236.648 77.9688C235.352 79.2656 234.703 80.8438 234.703 82.7031V92.7344C234.703 94.5938 235.352 96.1797 236.648 97.4922C237.961 98.7891 239.547 99.4375 241.406 99.4375H267.984C268.047 99.4375 268.094 99.4219 268.125 99.3906C268.172 99.3438 268.195 99.2891 268.195 99.2266V95.6172C268.195 95.5703 268.172 95.5312 268.125 95.5C268.094 95.4531 268.047 95.4297 267.984 95.4297H241.406C240.844 95.4297 240.367 95.2344 239.977 94.8438C239.586 94.4375 239.391 93.9609 239.391 93.4141V89.7344H264.633C264.695 89.7344 264.742 89.7188 264.773 89.6875C264.82 89.6406 264.844 89.5859 264.844 89.5234V85.9141C264.844 85.8516 264.82 85.8047 264.773 85.7734C264.742 85.7266 264.695 85.7031 264.633 85.7031H239.391V82.0234Z" fill="url(#paint16_linear_294_22)"/>
<defs>
<linearGradient id="paint0_linear_294_22" x1="0" y1="58.9168" x2="276.82" y2="58.9168" gradientUnits="userSpaceOnUse">
<stop stop-color="#BB6CE6"/>
<stop offset="1" stop-color="#FFCD1D"/>
</linearGradient>
<linearGradient id="paint1_linear_294_22" x1="0" y1="58.9168" x2="276.82" y2="58.9168" gradientUnits="userSpaceOnUse">
<stop stop-color="#BB6CE6"/>
<stop offset="1" stop-color="#FFCD1D"/>
</linearGradient>
<linearGradient id="paint2_linear_294_22" x1="0" y1="58.9168" x2="276.82" y2="58.9168" gradientUnits="userSpaceOnUse">
<stop stop-color="#BB6CE6"/>
<stop offset="1" stop-color="#FFCD1D"/>
</linearGradient>
<linearGradient id="paint3_linear_294_22" x1="0" y1="58.9168" x2="276.82" y2="58.9168" gradientUnits="userSpaceOnUse">
<stop stop-color="#BB6CE6"/>
<stop offset="1" stop-color="#FFCD1D"/>
</linearGradient>
<linearGradient id="paint4_linear_294_22" x1="0" y1="58.9168" x2="276.82" y2="58.9168" gradientUnits="userSpaceOnUse">
<stop stop-color="#BB6CE6"/>
<stop offset="1" stop-color="#FFCD1D"/>
</linearGradient>
<linearGradient id="paint5_linear_294_22" x1="0" y1="58.9168" x2="276.82" y2="58.9168" gradientUnits="userSpaceOnUse">
<stop stop-color="#BB6CE6"/>
<stop offset="1" stop-color="#FFCD1D"/>
</linearGradient>
<linearGradient id="paint6_linear_294_22" x1="0" y1="58.9168" x2="276.82" y2="58.9168" gradientUnits="userSpaceOnUse">
<stop stop-color="#BB6CE6"/>
<stop offset="1" stop-color="#FFCD1D"/>
</linearGradient>
<linearGradient id="paint7_linear_294_22" x1="0" y1="58.9168" x2="276.82" y2="58.9168" gradientUnits="userSpaceOnUse">
<stop stop-color="#BB6CE6"/>
<stop offset="1" stop-color="#FFCD1D"/>
</linearGradient>
<linearGradient id="paint8_linear_294_22" x1="0" y1="58.9168" x2="276.82" y2="58.9168" gradientUnits="userSpaceOnUse">
<stop stop-color="#BB6CE6"/>
<stop offset="1" stop-color="#FFCD1D"/>
</linearGradient>
<linearGradient id="paint9_linear_294_22" x1="0" y1="58.9168" x2="276.82" y2="58.9168" gradientUnits="userSpaceOnUse">
<stop stop-color="#BB6CE6"/>
<stop offset="1" stop-color="#FFCD1D"/>
</linearGradient>
<linearGradient id="paint10_linear_294_22" x1="0" y1="58.9168" x2="276.82" y2="58.9168" gradientUnits="userSpaceOnUse">
<stop stop-color="#BB6CE6"/>
<stop offset="1" stop-color="#FFCD1D"/>
</linearGradient>
<linearGradient id="paint11_linear_294_22" x1="0" y1="58.9168" x2="276.82" y2="58.9168" gradientUnits="userSpaceOnUse">
<stop stop-color="#BB6CE6"/>
<stop offset="1" stop-color="#FFCD1D"/>
</linearGradient>
<linearGradient id="paint12_linear_294_22" x1="0" y1="58.9168" x2="276.82" y2="58.9168" gradientUnits="userSpaceOnUse">
<stop stop-color="#BB6CE6"/>
<stop offset="1" stop-color="#FFCD1D"/>
</linearGradient>
<linearGradient id="paint13_linear_294_22" x1="0" y1="58.9168" x2="276.82" y2="58.9168" gradientUnits="userSpaceOnUse">
<stop stop-color="#BB6CE6"/>
<stop offset="1" stop-color="#FFCD1D"/>
</linearGradient>
<linearGradient id="paint14_linear_294_22" x1="0" y1="58.9168" x2="276.82" y2="58.9168" gradientUnits="userSpaceOnUse">
<stop stop-color="#BB6CE6"/>
<stop offset="1" stop-color="#FFCD1D"/>
</linearGradient>
<linearGradient id="paint15_linear_294_22" x1="0" y1="58.9168" x2="276.82" y2="58.9168" gradientUnits="userSpaceOnUse">
<stop stop-color="#BB6CE6"/>
<stop offset="1" stop-color="#FFCD1D"/>
</linearGradient>
<linearGradient id="paint16_linear_294_22" x1="0" y1="58.9168" x2="276.82" y2="58.9168" gradientUnits="userSpaceOnUse">
<stop stop-color="#BB6CE6"/>
<stop offset="1" stop-color="#FFCD1D"/>
</linearGradient>
</defs>
</svg>
