<svg width="617" height="83" viewBox="0 0 617 83" fill="none" xmlns="http://www.w3.org/2000/svg">
<path d="M44.6562 1.03125C44.6562 0.947917 44.625 0.885417 44.5625 0.84375C44.5208 0.78125 44.4583 0.75 44.375 0.75H38.6875C38.6042 0.75 38.5312 0.78125 38.4688 0.84375C38.4271 0.885417 38.4062 0.947917 38.4062 1.03125V23.9688C38.4062 24.7188 38.1458 25.3542 37.625 25.875C37.1042 26.3958 36.4688 26.6562 35.7188 26.6562H8.9375C8.20833 26.6562 7.57292 26.3958 7.03125 25.875C6.51042 25.3542 6.25 24.7188 6.25 23.9688V13.5312C6.25 13.4479 6.21875 13.3854 6.15625 13.3438C6.11458 13.2812 6.0625 13.25 6 13.25H0.28125C0.197917 13.25 0.125 13.2812 0.0625 13.3438C0.0208333 13.3854 0 13.4479 0 13.5312V23.0938C0 25.5521 0.875 27.6562 2.625 29.4062C4.375 31.1354 6.47917 32 8.9375 32H35.7188C38.1979 32 40.3021 31.1354 42.0312 29.4062C43.7812 27.6562 44.6562 25.5521 44.6562 23.0938V1.03125Z" fill="url(#paint0_linear_294_20)"/>
<path d="M60.3125 8.78125C60.3125 8.05208 60.5729 7.42708 61.0938 6.90625C61.6146 6.36458 62.25 6.09375 63 6.09375H98.4375C98.5208 6.09375 98.5833 6.07292 98.625 6.03125C98.6875 5.96875 98.7188 5.90625 98.7188 5.84375V1.03125C98.7188 0.947917 98.6875 0.885417 98.625 0.84375C98.5833 0.78125 98.5208 0.75 98.4375 0.75H63C60.5208 0.75 58.4062 1.625 56.6562 3.375C54.9271 5.10417 54.0625 7.20833 54.0625 9.6875V23.0625C54.0625 25.5417 54.9271 27.6562 56.6562 29.4062C58.4062 31.1354 60.5208 32 63 32H98.4375C98.5208 32 98.5833 31.9792 98.625 31.9375C98.6875 31.875 98.7188 31.8021 98.7188 31.7188V26.9062C98.7188 26.8438 98.6875 26.7917 98.625 26.75C98.5833 26.6875 98.5208 26.6562 98.4375 26.6562H63C62.25 26.6562 61.6146 26.3958 61.0938 25.875C60.5729 25.3333 60.3125 24.6979 60.3125 23.9688V19.0625H93.9688C94.0521 19.0625 94.1146 19.0417 94.1562 19C94.2188 18.9375 94.25 18.8646 94.25 18.7812V13.9688C94.25 13.8854 94.2188 13.8229 94.1562 13.7812C94.1146 13.7188 94.0521 13.6875 93.9688 13.6875H60.3125V8.78125Z" fill="url(#paint1_linear_294_20)"/>
<path d="M152.781 1.03125C152.781 0.947917 152.75 0.885417 152.688 0.84375C152.646 0.78125 152.583 0.75 152.5 0.75H146.812C146.729 0.75 146.656 0.78125 146.594 0.84375C146.552 0.885417 146.531 0.947917 146.531 1.03125V13.6875H114.375V1.03125C114.375 0.947917 114.344 0.885417 114.281 0.84375C114.24 0.78125 114.188 0.75 114.125 0.75H108.406C108.323 0.75 108.25 0.78125 108.188 0.84375C108.146 0.885417 108.125 0.947917 108.125 1.03125V31.75C108.125 31.8125 108.146 31.875 108.188 31.9375C108.25 31.9792 108.323 32 108.406 32H114.125C114.188 32 114.24 31.9792 114.281 31.9375C114.344 31.875 114.375 31.8125 114.375 31.75V19.0625H146.531V31.75C146.531 31.8125 146.552 31.875 146.594 31.9375C146.656 31.9792 146.729 32 146.812 32H152.5C152.583 32 152.646 31.9792 152.688 31.9375C152.75 31.875 152.781 31.8125 152.781 31.75V1.03125Z" fill="url(#paint2_linear_294_20)"/>
<path d="M197.906 0.75C200.385 0.75 202.49 1.625 204.219 3.375C205.969 5.10417 206.844 7.20833 206.844 9.6875V23.0625C206.844 25.5417 205.969 27.6562 204.219 29.4062C202.49 31.1354 200.385 32 197.906 32H171.125C168.667 32 166.562 31.1354 164.812 29.4062C163.062 27.6562 162.188 25.5417 162.188 23.0625V9.6875C162.188 7.20833 163.062 5.10417 164.812 3.375C166.562 1.625 168.667 0.75 171.125 0.75H197.906ZM200.594 8.78125C200.594 8.05208 200.333 7.42708 199.812 6.90625C199.292 6.36458 198.656 6.09375 197.906 6.09375H171.125C170.396 6.09375 169.76 6.36458 169.219 6.90625C168.698 7.42708 168.438 8.05208 168.438 8.78125V23.9688C168.438 24.6979 168.698 25.3333 169.219 25.875C169.76 26.3958 170.396 26.6562 171.125 26.6562H197.906C198.656 26.6562 199.292 26.3958 199.812 25.875C200.333 25.3333 200.594 24.6979 200.594 23.9688V8.78125Z" fill="url(#paint3_linear_294_20)"/>
<path d="M254.688 1.03125C254.688 0.96875 254.708 0.90625 254.75 0.84375C254.812 0.78125 254.885 0.75 254.969 0.75H260.688C260.771 0.75 260.833 0.78125 260.875 0.84375C260.938 0.90625 260.969 0.96875 260.969 1.03125V15.625C260.969 17.7917 259.979 19.5625 258 20.9375L241.438 31.2188C239.542 32.2812 237.656 32.2812 235.781 31.2188L219.188 20.9375C217.229 19.5625 216.25 17.7917 216.25 15.625V1.03125C216.25 0.96875 216.271 0.90625 216.312 0.84375C216.375 0.78125 216.438 0.75 216.5 0.75H222.219C222.302 0.75 222.365 0.78125 222.406 0.84375C222.469 0.90625 222.5 0.96875 222.5 1.03125V14.125C222.5 15.0625 222.927 15.8229 223.781 16.4062L237.656 25.0312C238.281 25.3854 238.906 25.3854 239.531 25.0312L253.438 16.4062C254.271 15.8229 254.688 15.0625 254.688 14.125V1.03125Z" fill="url(#paint4_linear_294_20)"/>
<path d="M270.375 9.65625C270.375 7.19792 271.24 5.10417 272.969 3.375C274.719 1.625 276.833 0.75 279.312 0.75H306.094C308.552 0.75 310.656 1.625 312.406 3.375C314.156 5.10417 315.031 7.19792 315.031 9.65625V31.7188C315.031 31.8021 315 31.875 314.938 31.9375C314.896 31.9792 314.833 32 314.75 32H309.031C308.969 32 308.906 31.9792 308.844 31.9375C308.802 31.875 308.781 31.8021 308.781 31.7188V21.7188H276.625V31.7188C276.625 31.8021 276.594 31.875 276.531 31.9375C276.49 31.9792 276.438 32 276.375 32H270.656C270.573 32 270.5 31.9792 270.438 31.9375C270.396 31.875 270.375 31.8021 270.375 31.7188V9.65625ZM308.781 16.375V8.78125C308.781 8.03125 308.51 7.39583 307.969 6.875C307.448 6.35417 306.823 6.09375 306.094 6.09375H279.312C278.562 6.09375 277.927 6.35417 277.406 6.875C276.885 7.39583 276.625 8.03125 276.625 8.78125V16.375H308.781Z" fill="url(#paint5_linear_294_20)"/>
<path d="M369.094 1.03125C369.094 0.947917 369.062 0.885417 369 0.84375C368.958 0.78125 368.896 0.75 368.812 0.75H363.125C363.042 0.75 362.969 0.78125 362.906 0.84375C362.865 0.885417 362.844 0.947917 362.844 1.03125V13.6875H330.688V1.03125C330.688 0.947917 330.656 0.885417 330.594 0.84375C330.552 0.78125 330.5 0.75 330.438 0.75H324.719C324.635 0.75 324.562 0.78125 324.5 0.84375C324.458 0.885417 324.438 0.947917 324.438 1.03125V31.75C324.438 31.8125 324.458 31.875 324.5 31.9375C324.562 31.9792 324.635 32 324.719 32H330.438C330.5 32 330.552 31.9792 330.594 31.9375C330.656 31.875 330.688 31.8125 330.688 31.75V19.0625H362.844V31.75C362.844 31.8125 362.865 31.875 362.906 31.9375C362.969 31.9792 363.042 32 363.125 32H368.812C368.896 32 368.958 31.9792 369 31.9375C369.062 31.875 369.094 31.8125 369.094 31.75V1.03125Z" fill="url(#paint6_linear_294_20)"/>
<path d="M448.125 1.03125C448.125 0.947917 448.146 0.885417 448.188 0.84375C448.25 0.78125 448.323 0.75 448.406 0.75H454.125C454.188 0.75 454.24 0.78125 454.281 0.84375C454.344 0.885417 454.375 0.947917 454.375 1.03125V31.75C454.375 31.8125 454.344 31.875 454.281 31.9375C454.24 31.9792 454.188 32 454.125 32H442.5H442.438C440.042 31.9375 438.156 30.9271 436.781 28.9688L422.25 7.3125C421.646 6.52083 420.896 6.125 420 6.125H416V31.75C416 31.8125 415.969 31.875 415.906 31.9375C415.865 31.9792 415.802 32 415.719 32H410C409.938 32 409.875 31.9792 409.812 31.9375C409.771 31.875 409.75 31.8125 409.75 31.75V1.03125C409.75 0.947917 409.771 0.885417 409.812 0.84375C409.875 0.78125 409.938 0.75 410 0.75H421.625H421.688C424.083 0.833333 425.969 1.85417 427.344 3.8125L441.875 25.4375C442.458 26.25 443.208 26.6562 444.125 26.6562H448.125V1.03125Z" fill="url(#paint7_linear_294_20)"/>
<path d="M499.469 0.75C501.948 0.75 504.052 1.625 505.781 3.375C507.531 5.10417 508.406 7.20833 508.406 9.6875V23.0625C508.406 25.5417 507.531 27.6562 505.781 29.4062C504.052 31.1354 501.948 32 499.469 32H472.688C470.229 32 468.125 31.1354 466.375 29.4062C464.625 27.6562 463.75 25.5417 463.75 23.0625V9.6875C463.75 7.20833 464.625 5.10417 466.375 3.375C468.125 1.625 470.229 0.75 472.688 0.75H499.469ZM502.156 8.78125C502.156 8.05208 501.896 7.42708 501.375 6.90625C500.854 6.36458 500.219 6.09375 499.469 6.09375H472.688C471.958 6.09375 471.323 6.36458 470.781 6.90625C470.26 7.42708 470 8.05208 470 8.78125V23.9688C470 24.6979 470.26 25.3333 470.781 25.875C471.323 26.3958 471.958 26.6562 472.688 26.6562H499.469C500.219 26.6562 500.854 26.3958 501.375 25.875C501.896 25.3333 502.156 24.6979 502.156 23.9688V8.78125Z" fill="url(#paint8_linear_294_20)"/>
<path d="M553.5 0.75C555.979 0.75 558.083 1.625 559.812 3.375C561.562 5.10417 562.438 7.20833 562.438 9.6875V23.0625C562.438 25.5417 561.562 27.6562 559.812 29.4062C558.083 31.1354 555.979 32 553.5 32H518.062C518 32 517.938 31.9792 517.875 31.9375C517.833 31.875 517.812 31.8021 517.812 31.7188V1.03125C517.812 0.947917 517.833 0.885417 517.875 0.84375C517.938 0.78125 518 0.75 518.062 0.75H553.5ZM556.188 8.78125C556.188 8.05208 555.927 7.42708 555.406 6.90625C554.885 6.36458 554.25 6.09375 553.5 6.09375H524.062V26.6562H553.5C554.25 26.6562 554.885 26.3958 555.406 25.875C555.927 25.3333 556.188 24.6979 556.188 23.9688V8.78125Z" fill="url(#paint9_linear_294_20)"/>
<path d="M578.062 8.78125C578.062 8.05208 578.323 7.42708 578.844 6.90625C579.365 6.36458 580 6.09375 580.75 6.09375H616.188C616.271 6.09375 616.333 6.07292 616.375 6.03125C616.438 5.96875 616.469 5.90625 616.469 5.84375V1.03125C616.469 0.947917 616.438 0.885417 616.375 0.84375C616.333 0.78125 616.271 0.75 616.188 0.75H580.75C578.271 0.75 576.156 1.625 574.406 3.375C572.677 5.10417 571.812 7.20833 571.812 9.6875V23.0625C571.812 25.5417 572.677 27.6562 574.406 29.4062C576.156 31.1354 578.271 32 580.75 32H616.188C616.271 32 616.333 31.9792 616.375 31.9375C616.438 31.875 616.469 31.8021 616.469 31.7188V26.9062C616.469 26.8438 616.438 26.7917 616.375 26.75C616.333 26.6875 616.271 26.6562 616.188 26.6562H580.75C580 26.6562 579.365 26.3958 578.844 25.875C578.323 25.3333 578.062 24.6979 578.062 23.9688V19.0625H611.719C611.802 19.0625 611.865 19.0417 611.906 19C611.969 18.9375 612 18.8646 612 18.7812V13.9688C612 13.8854 611.969 13.8229 611.906 13.7812C611.865 13.7188 611.802 13.6875 611.719 13.6875H578.062V8.78125Z" fill="url(#paint10_linear_294_20)"/>
<path d="M35.7188 51.75C38.1979 51.75 40.3021 52.625 42.0312 54.375C43.7812 56.1042 44.6562 58.2083 44.6562 60.6875V74.0625C44.6562 76.5417 43.7812 78.6562 42.0312 80.4062C40.3021 82.1354 38.1979 83 35.7188 83H8.9375C6.47917 83 4.375 82.1354 2.625 80.4062C0.875 78.6562 0 76.5417 0 74.0625V60.6875C0 58.2083 0.875 56.1042 2.625 54.375C4.375 52.625 6.47917 51.75 8.9375 51.75H35.7188ZM38.4062 59.7812C38.4062 59.0521 38.1458 58.4271 37.625 57.9062C37.1042 57.3646 36.4688 57.0938 35.7188 57.0938H8.9375C8.20833 57.0938 7.57292 57.3646 7.03125 57.9062C6.51042 58.4271 6.25 59.0521 6.25 59.7812V74.9688C6.25 75.6979 6.51042 76.3333 7.03125 76.875C7.57292 77.3958 8.20833 77.6562 8.9375 77.6562H35.7188C36.4688 77.6562 37.1042 77.3958 37.625 76.875C38.1458 76.3333 38.4062 75.6979 38.4062 74.9688V59.7812Z" fill="url(#paint11_linear_294_20)"/>
<path d="M54.0625 82.75C54.0625 82.8125 54.0833 82.875 54.125 82.9375C54.1875 82.9792 54.2604 83 54.3438 83H60.0625C60.125 83 60.1771 82.9792 60.2188 82.9375C60.2812 82.875 60.3125 82.8125 60.3125 82.75V59.8125C60.3125 59.0625 60.5729 58.4271 61.0938 57.9062C61.6354 57.3854 62.2708 57.125 63 57.125H89.7812C90.5312 57.125 91.1667 57.3854 91.6875 57.9062C92.2083 58.4271 92.4688 59.0625 92.4688 59.8125V82.75C92.4688 82.8125 92.4896 82.875 92.5312 82.9375C92.5938 82.9792 92.6667 83 92.75 83H98.4375C98.5208 83 98.5833 82.9792 98.625 82.9375C98.6875 82.875 98.7188 82.8125 98.7188 82.75V60.6875C98.7188 58.2292 97.8438 56.125 96.0938 54.375C94.3646 52.625 92.2604 51.75 89.7812 51.75H63C60.5417 51.75 58.4375 52.625 56.6875 54.375C54.9375 56.125 54.0625 58.2292 54.0625 60.6875V82.75Z" fill="url(#paint12_linear_294_20)"/>
<path d="M145.625 59.7812C145.625 59.0312 145.885 58.3958 146.406 57.875C146.927 57.3542 147.552 57.0938 148.281 57.0938H181.969C182.031 57.0938 182.083 57.0729 182.125 57.0312C182.188 56.9688 182.219 56.9062 182.219 56.8438V52C182.219 51.9375 182.188 51.8854 182.125 51.8438C182.083 51.7812 182.031 51.75 181.969 51.75H148.281C145.823 51.75 143.719 52.625 141.969 54.375C140.24 56.1042 139.375 58.1979 139.375 60.6562V61.125C139.375 63.5833 140.24 65.6875 141.969 67.4375C143.719 69.1667 145.823 70.0312 148.281 70.0312H175.094C175.823 70.0312 176.448 70.3021 176.969 70.8438C177.49 71.3646 177.75 71.9896 177.75 72.7188V74.9688C177.75 75.6979 177.49 76.3229 176.969 76.8438C176.448 77.3646 175.823 77.625 175.094 77.625H141.406C141.344 77.625 141.281 77.6562 141.219 77.7188C141.177 77.7604 141.156 77.8229 141.156 77.9062V82.7188C141.156 82.8021 141.177 82.875 141.219 82.9375C141.281 82.9792 141.344 83 141.406 83H175.094C177.552 83 179.646 82.125 181.375 80.375C183.125 78.625 184 76.5208 184 74.0625V73.625C184 71.1458 183.125 69.0417 181.375 67.3125C179.646 65.5625 177.552 64.6875 175.094 64.6875H148.281C147.552 64.6875 146.927 64.4271 146.406 63.9062C145.885 63.3854 145.625 62.75 145.625 62V59.7812Z" fill="url(#paint13_linear_294_20)"/>
<path d="M193.375 60.6562C193.375 58.1979 194.24 56.1042 195.969 54.375C197.719 52.625 199.833 51.75 202.312 51.75H229.094C231.552 51.75 233.656 52.625 235.406 54.375C237.156 56.1042 238.031 58.1979 238.031 60.6562V82.7188C238.031 82.8021 238 82.875 237.938 82.9375C237.896 82.9792 237.833 83 237.75 83H232.031C231.969 83 231.906 82.9792 231.844 82.9375C231.802 82.875 231.781 82.8021 231.781 82.7188V72.7188H199.625V82.7188C199.625 82.8021 199.594 82.875 199.531 82.9375C199.49 82.9792 199.438 83 199.375 83H193.656C193.573 83 193.5 82.9792 193.438 82.9375C193.396 82.875 193.375 82.8021 193.375 82.7188V60.6562ZM231.781 67.375V59.7812C231.781 59.0312 231.51 58.3958 230.969 57.875C230.448 57.3542 229.823 57.0938 229.094 57.0938H202.312C201.562 57.0938 200.927 57.3542 200.406 57.875C199.885 58.3958 199.625 59.0312 199.625 59.7812V67.375H231.781Z" fill="url(#paint14_linear_294_20)"/>
<path d="M292.062 77.9062C292.062 77.8438 292.031 77.7917 291.969 77.75C291.927 77.6875 291.875 77.6562 291.812 77.6562H256.375C255.625 77.6562 254.99 77.3958 254.469 76.875C253.948 76.3333 253.688 75.6979 253.688 74.9688V52.0312C253.688 51.9479 253.656 51.8854 253.594 51.8438C253.552 51.7812 253.49 51.75 253.406 51.75H247.688C247.625 51.75 247.562 51.7812 247.5 51.8438C247.458 51.8854 247.438 51.9479 247.438 52.0312V74.0625C247.438 76.5417 248.302 78.6562 250.031 80.4062C251.781 82.1354 253.896 83 256.375 83H291.812C291.875 83 291.927 82.9792 291.969 82.9375C292.031 82.875 292.062 82.8125 292.062 82.75V77.9062Z" fill="url(#paint15_linear_294_20)"/>
<path d="M307.688 59.7812C307.688 59.0521 307.948 58.4271 308.469 57.9062C308.99 57.3646 309.625 57.0938 310.375 57.0938H345.812C345.896 57.0938 345.958 57.0729 346 57.0312C346.062 56.9688 346.094 56.9062 346.094 56.8438V52.0312C346.094 51.9479 346.062 51.8854 346 51.8438C345.958 51.7812 345.896 51.75 345.812 51.75H310.375C307.896 51.75 305.781 52.625 304.031 54.375C302.302 56.1042 301.438 58.2083 301.438 60.6875V74.0625C301.438 76.5417 302.302 78.6562 304.031 80.4062C305.781 82.1354 307.896 83 310.375 83H345.812C345.896 83 345.958 82.9792 346 82.9375C346.062 82.875 346.094 82.8021 346.094 82.7188V77.9062C346.094 77.8438 346.062 77.7917 346 77.75C345.958 77.6875 345.896 77.6562 345.812 77.6562H310.375C309.625 77.6562 308.99 77.3958 308.469 76.875C307.948 76.3333 307.688 75.6979 307.688 74.9688V70.0625H341.344C341.427 70.0625 341.49 70.0417 341.531 70C341.594 69.9375 341.625 69.8646 341.625 69.7812V64.9688C341.625 64.8854 341.594 64.8229 341.531 64.7812C341.49 64.7188 341.427 64.6875 341.344 64.6875H307.688V59.7812Z" fill="url(#paint16_linear_294_20)"/>
<defs>
<linearGradient id="paint0_linear_294_20" x1="0" y1="49.4832" x2="616.469" y2="49.4832" gradientUnits="userSpaceOnUse">
<stop stop-color="#BB6CE6"/>
<stop offset="1" stop-color="#FFCD1D"/>
</linearGradient>
<linearGradient id="paint1_linear_294_20" x1="0" y1="49.4832" x2="616.469" y2="49.4832" gradientUnits="userSpaceOnUse">
<stop stop-color="#BB6CE6"/>
<stop offset="1" stop-color="#FFCD1D"/>
</linearGradient>
<linearGradient id="paint2_linear_294_20" x1="0" y1="49.4832" x2="616.469" y2="49.4832" gradientUnits="userSpaceOnUse">
<stop stop-color="#BB6CE6"/>
<stop offset="1" stop-color="#FFCD1D"/>
</linearGradient>
<linearGradient id="paint3_linear_294_20" x1="0" y1="49.4832" x2="616.469" y2="49.4832" gradientUnits="userSpaceOnUse">
<stop stop-color="#BB6CE6"/>
<stop offset="1" stop-color="#FFCD1D"/>
</linearGradient>
<linearGradient id="paint4_linear_294_20" x1="0" y1="49.4832" x2="616.469" y2="49.4832" gradientUnits="userSpaceOnUse">
<stop stop-color="#BB6CE6"/>
<stop offset="1" stop-color="#FFCD1D"/>
</linearGradient>
<linearGradient id="paint5_linear_294_20" x1="0" y1="49.4832" x2="616.469" y2="49.4832" gradientUnits="userSpaceOnUse">
<stop stop-color="#BB6CE6"/>
<stop offset="1" stop-color="#FFCD1D"/>
</linearGradient>
<linearGradient id="paint6_linear_294_20" x1="0" y1="49.4832" x2="616.469" y2="49.4832" gradientUnits="userSpaceOnUse">
<stop stop-color="#BB6CE6"/>
<stop offset="1" stop-color="#FFCD1D"/>
</linearGradient>
<linearGradient id="paint7_linear_294_20" x1="0" y1="49.4832" x2="616.469" y2="49.4832" gradientUnits="userSpaceOnUse">
<stop stop-color="#BB6CE6"/>
<stop offset="1" stop-color="#FFCD1D"/>
</linearGradient>
<linearGradient id="paint8_linear_294_20" x1="0" y1="49.4832" x2="616.469" y2="49.4832" gradientUnits="userSpaceOnUse">
<stop stop-color="#BB6CE6"/>
<stop offset="1" stop-color="#FFCD1D"/>
</linearGradient>
<linearGradient id="paint9_linear_294_20" x1="0" y1="49.4832" x2="616.469" y2="49.4832" gradientUnits="userSpaceOnUse">
<stop stop-color="#BB6CE6"/>
<stop offset="1" stop-color="#FFCD1D"/>
</linearGradient>
<linearGradient id="paint10_linear_294_20" x1="0" y1="49.4832" x2="616.469" y2="49.4832" gradientUnits="userSpaceOnUse">
<stop stop-color="#BB6CE6"/>
<stop offset="1" stop-color="#FFCD1D"/>
</linearGradient>
<linearGradient id="paint11_linear_294_20" x1="0" y1="49.4832" x2="616.469" y2="49.4832" gradientUnits="userSpaceOnUse">
<stop stop-color="#BB6CE6"/>
<stop offset="1" stop-color="#FFCD1D"/>
</linearGradient>
<linearGradient id="paint12_linear_294_20" x1="0" y1="49.4832" x2="616.469" y2="49.4832" gradientUnits="userSpaceOnUse">
<stop stop-color="#BB6CE6"/>
<stop offset="1" stop-color="#FFCD1D"/>
</linearGradient>
<linearGradient id="paint13_linear_294_20" x1="0" y1="49.4832" x2="616.469" y2="49.4832" gradientUnits="userSpaceOnUse">
<stop stop-color="#BB6CE6"/>
<stop offset="1" stop-color="#FFCD1D"/>
</linearGradient>
<linearGradient id="paint14_linear_294_20" x1="0" y1="49.4832" x2="616.469" y2="49.4832" gradientUnits="userSpaceOnUse">
<stop stop-color="#BB6CE6"/>
<stop offset="1" stop-color="#FFCD1D"/>
</linearGradient>
<linearGradient id="paint15_linear_294_20" x1="0" y1="49.4832" x2="616.469" y2="49.4832" gradientUnits="userSpaceOnUse">
<stop stop-color="#BB6CE6"/>
<stop offset="1" stop-color="#FFCD1D"/>
</linearGradient>
<linearGradient id="paint16_linear_294_20" x1="0" y1="49.4832" x2="616.469" y2="49.4832" gradientUnits="userSpaceOnUse">
<stop stop-color="#BB6CE6"/>
<stop offset="1" stop-color="#FFCD1D"/>
</linearGradient>
</defs>
</svg>
