<?xml version="1.0" encoding="utf-8"?>
<!-- Generator: Adobe Illustrator 27.1.1, SVG Export Plug-In . SVG Version: 6.00 Build 0)  -->
<svg version="1.1" id="Layer_1" xmlns="http://www.w3.org/2000/svg" xmlns:xlink="http://www.w3.org/1999/xlink" x="0px" y="0px"
	 viewBox="0 0 261 112" style="enable-background:new 0 0 261 112;" xml:space="preserve">
<style type="text/css">
	.st0{fill:#020202;}
</style>
<path class="st0" d="M45.4,0.2c0,0,0-0.1-0.1-0.1c0,0-0.1-0.1-0.1-0.1H13.3c0,0-0.1,0-0.1,0.1c0,0,0,0.1,0,0.1v3.6c0,0,0,0.1,0,0.1
	c0,0,0.1,0,0.1,0h27.4v1.3c0,0.5-0.1,0.9-0.4,1.3C40,7,39.6,7.2,39.1,7.3L17.2,12c-1.4,0.3-2.6,1-3.5,2.1c-0.9,1.1-1.3,2.3-1.3,3.8
	v5.3c0,0.1,0,0.1,0,0.2c0,0,0.1,0,0.2,0h31.9c0,0,0.1,0,0.1,0c0,0,0.1-0.1,0.1-0.2v-3.6c0-0.1,0-0.1-0.1-0.1c0,0-0.1-0.1-0.1-0.1
	H17.2v-1.3c0-0.5,0.1-0.9,0.4-1.2c0.3-0.4,0.7-0.6,1.2-0.7l21.9-4.7c1.4-0.3,2.6-1,3.4-2.1C45,8.2,45.4,7,45.4,5.5V0.2z"/>
<path class="st0" d="M57.2,6c0-0.5,0.2-1,0.6-1.4C58.2,4.2,58.7,4,59.2,4H86c0.1,0,0.1,0,0.1,0c0,0,0.1-0.1,0.1-0.1V0.2
	c0-0.1,0-0.1-0.1-0.1C86.1,0,86,0,86,0H59.2c-1.9,0-3.5,0.7-4.8,2c-1.3,1.3-2,2.9-2,4.7v10c0,1.9,0.7,3.4,2,4.8
	c1.3,1.3,2.9,1.9,4.8,1.9H86c0.1,0,0.1,0,0.1,0c0,0,0.1-0.1,0.1-0.2v-3.6c0,0,0-0.1-0.1-0.1c0,0-0.1-0.1-0.1-0.1H59.2
	c-0.6,0-1-0.2-1.4-0.6c-0.4-0.4-0.6-0.9-0.6-1.4v-3.7h25.4c0.1,0,0.1,0,0.1,0c0,0,0.1-0.1,0.1-0.2V9.9c0-0.1,0-0.1-0.1-0.1
	c0,0-0.1-0.1-0.1-0.1H57.2V6z"/>
<path class="st0" d="M93.3,0.2c0,0,0-0.1,0-0.1c0,0,0.1-0.1,0.1-0.1h26.7c1.9,0,3.4,0.7,4.7,2c1.3,1.3,2,2.9,2,4.7V9
	c0,1.9-0.7,3.4-2,4.8c-1.3,1.3-2.9,1.9-4.7,1.9H98v7.5c0,0.1,0,0.1-0.1,0.2c0,0-0.1,0-0.1,0h-4.3c0,0-0.1,0-0.1,0c0,0,0-0.1,0-0.2
	V0.2z M120.2,11.7c0.6,0,1-0.2,1.4-0.6c0.4-0.4,0.6-0.9,0.6-1.4V6c0-0.6-0.2-1-0.6-1.4c-0.4-0.4-0.9-0.6-1.4-0.6H98v7.7H120.2z"/>
<path class="st0" d="M160.9,0c1.9,0,3.5,0.7,4.8,2c1.3,1.3,2,2.9,2,4.7v10c0,1.9-0.7,3.4-2,4.8c-1.3,1.3-2.9,1.9-4.8,1.9h-20.2
	c-1.9,0-3.4-0.6-4.8-1.9c-1.3-1.3-2-2.9-2-4.8v-10c0-1.9,0.7-3.4,2-4.7c1.3-1.3,2.9-2,4.8-2H160.9z M163,6c0-0.5-0.2-1-0.6-1.4
	C162,4.2,161.5,4,160.9,4h-20.2c-0.6,0-1,0.2-1.4,0.6c-0.4,0.4-0.6,0.9-0.6,1.4v11.4c0,0.5,0.2,1,0.6,1.4c0.4,0.4,0.9,0.6,1.4,0.6
	h20.2c0.6,0,1-0.2,1.4-0.6c0.4-0.4,0.6-0.9,0.6-1.4V6z"/>
<path class="st0" d="M181.5,19.4c-0.6,0-1-0.2-1.4-0.6c-0.4-0.4-0.6-0.9-0.6-1.4V6c0-0.5,0.2-1,0.6-1.4c0.4-0.4,0.9-0.6,1.4-0.6
	h26.7c0.1,0,0.1,0,0.1,0c0,0,0.1-0.1,0.1-0.1V0.2c0-0.1,0-0.1-0.1-0.1c0,0-0.1-0.1-0.1-0.1h-26.7c-1.9,0-3.5,0.7-4.8,2
	c-1.3,1.3-2,2.9-2,4.7v10c0,1.9,0.7,3.4,2,4.8c1.3,1.3,2.9,1.9,4.8,1.9h26.7c0.1,0,0.1,0,0.1,0c0,0,0.1-0.1,0.1-0.2v-3.6
	c0,0,0-0.1-0.1-0.1c0,0-0.1-0.1-0.1-0.1H181.5z"/>
<path class="st0" d="M249.2,0.2c0-0.1,0-0.1-0.1-0.1c0,0-0.1-0.1-0.1-0.1h-4.3c-0.1,0-0.1,0-0.2,0.1c0,0,0,0.1,0,0.1v9.5h-24.2V0.2
	c0-0.1,0-0.1-0.1-0.1c0,0-0.1-0.1-0.1-0.1h-4.3c-0.1,0-0.1,0-0.2,0.1c0,0,0,0.1,0,0.1v23c0,0,0,0.1,0,0.1c0,0,0.1,0,0.2,0h4.3
	c0,0,0.1,0,0.1,0c0,0,0.1-0.1,0.1-0.1v-9.5h24.2v9.5c0,0,0,0.1,0,0.1c0,0,0.1,0,0.2,0h4.3c0.1,0,0.1,0,0.1,0c0,0,0.1-0.1,0.1-0.1
	V0.2z"/>
<path class="st0" d="M84.1,43.1c0-0.1,0-0.1,0-0.1c0,0,0.1-0.1,0.2-0.1h4.3c0,0,0.1,0,0.1,0.1c0,0,0.1,0.1,0.1,0.1v23
	c0,0,0,0.1-0.1,0.1c0,0-0.1,0-0.1,0h-8.8c-1.8,0-3.2-0.8-4.3-2.3l-11-16.2c-0.5-0.6-1-0.9-1.7-0.9h-3v19.2c0,0,0,0.1-0.1,0.1
	c0,0-0.1,0-0.1,0h-4.3c0,0-0.1,0-0.1,0c0,0,0-0.1,0-0.1v-23c0-0.1,0-0.1,0-0.1c0,0,0.1-0.1,0.1-0.1h8.8c1.8,0.1,3.2,0.8,4.3,2.3
	l11,16.2c0.4,0.6,1,0.9,1.7,0.9h3V43.1z"/>
<path class="st0" d="M122.9,42.9c1.9,0,3.5,0.7,4.8,2c1.3,1.3,2,2.9,2,4.7v10c0,1.9-0.7,3.4-2,4.8c-1.3,1.3-2.9,1.9-4.8,1.9h-20.2
	c-1.9,0-3.4-0.6-4.8-1.9c-1.3-1.3-2-2.9-2-4.8v-10c0-1.9,0.7-3.4,2-4.7c1.3-1.3,2.9-2,4.8-2H122.9z M124.9,48.9c0-0.5-0.2-1-0.6-1.4
	c-0.4-0.4-0.9-0.6-1.4-0.6h-20.2c-0.5,0-1,0.2-1.4,0.6c-0.4,0.4-0.6,0.9-0.6,1.4v11.4c0,0.5,0.2,1,0.6,1.4c0.4,0.4,0.9,0.6,1.4,0.6
	h20.2c0.6,0,1-0.2,1.4-0.6c0.4-0.4,0.6-0.9,0.6-1.4V48.9z"/>
<path class="st0" d="M163.6,42.9c1.9,0,3.5,0.7,4.8,2c1.3,1.3,2,2.9,2,4.7v10c0,1.9-0.7,3.4-2,4.8c-1.3,1.3-2.9,1.9-4.8,1.9h-26.7
	c0,0-0.1,0-0.1,0c0,0,0-0.1,0-0.2v-23c0-0.1,0-0.1,0-0.1c0,0,0.1-0.1,0.1-0.1H163.6z M165.6,48.9c0-0.5-0.2-1-0.6-1.4
	c-0.4-0.4-0.9-0.6-1.4-0.6h-22.2v15.4h22.2c0.6,0,1-0.2,1.4-0.6c0.4-0.4,0.6-0.9,0.6-1.4V48.9z"/>
<path class="st0" d="M182.1,48.9c0-0.5,0.2-1,0.6-1.4c0.4-0.4,0.9-0.6,1.4-0.6h26.7c0.1,0,0.1,0,0.1,0c0,0,0.1-0.1,0.1-0.1v-3.6
	c0-0.1,0-0.1-0.1-0.1c0,0-0.1-0.1-0.1-0.1h-26.7c-1.9,0-3.5,0.7-4.8,2c-1.3,1.3-2,2.9-2,4.7v10c0,1.9,0.7,3.4,2,4.8
	c1.3,1.3,2.9,1.9,4.8,1.9h26.7c0.1,0,0.1,0,0.1,0c0,0,0.1-0.1,0.1-0.2v-3.6c0,0,0-0.1-0.1-0.1c0,0-0.1-0.1-0.1-0.1h-26.7
	c-0.6,0-1-0.2-1.4-0.6c-0.4-0.4-0.6-0.9-0.6-1.4v-3.7h25.4c0.1,0,0.1,0,0.1,0c0,0,0.1-0.1,0.1-0.2v-3.6c0-0.1,0-0.1-0.1-0.1
	c0,0-0.1-0.1-0.1-0.1h-25.4V48.9z"/>
<path class="st0" d="M26.9,88.6c1.9,0,3.5,0.7,4.8,2c1.3,1.3,2,2.9,2,4.7v10c0,1.9-0.7,3.4-2,4.8c-1.3,1.3-2.9,1.9-4.8,1.9H6.7
	c-1.9,0-3.4-0.6-4.8-1.9c-1.3-1.3-2-2.9-2-4.8v-10c0-1.9,0.7-3.4,2-4.7c1.3-1.3,2.9-2,4.8-2H26.9z M29,94.6c0-0.5-0.2-1-0.6-1.4
	c-0.4-0.4-0.9-0.6-1.4-0.6H6.7c-0.5,0-1,0.2-1.4,0.6c-0.4,0.4-0.6,0.9-0.6,1.4V106c0,0.5,0.2,1,0.6,1.4c0.4,0.4,0.9,0.6,1.4,0.6
	h20.2c0.6,0,1-0.2,1.4-0.6c0.4-0.4,0.6-0.9,0.6-1.4V94.6z"/>
<path class="st0" d="M40.8,111.8c0,0,0,0.1,0,0.1c0,0,0.1,0,0.2,0h4.3c0,0,0.1,0,0.1,0c0,0,0.1-0.1,0.1-0.1V94.6
	c0-0.6,0.2-1,0.6-1.4c0.4-0.4,0.9-0.6,1.4-0.6h20.2c0.6,0,1,0.2,1.4,0.6s0.6,0.9,0.6,1.4v17.2c0,0,0,0.1,0,0.1c0,0,0.1,0,0.2,0h4.3
	c0.1,0,0.1,0,0.1,0c0,0,0.1-0.1,0.1-0.1V95.3c0-1.8-0.7-3.4-2-4.7c-1.3-1.3-2.9-2-4.8-2H47.5c-1.9,0-3.4,0.7-4.8,2
	c-1.3,1.3-2,2.9-2,4.7V111.8z"/>
<path class="st0" d="M109.8,94.6c0-0.6,0.2-1,0.6-1.4c0.4-0.4,0.9-0.6,1.4-0.6h25.4c0,0,0.1,0,0.1,0c0,0,0.1-0.1,0.1-0.1v-3.6
	c0,0,0-0.1-0.1-0.1c0,0-0.1-0.1-0.1-0.1h-25.4c-1.9,0-3.4,0.7-4.8,2c-1.3,1.3-2,2.9-2,4.7v0.4c0,1.8,0.7,3.4,2,4.7
	c1.3,1.3,2.9,1.9,4.8,1.9H132c0.5,0,1,0.2,1.4,0.6c0.4,0.4,0.6,0.9,0.6,1.4v1.7c0,0.5-0.2,1-0.6,1.4c-0.4,0.4-0.9,0.6-1.4,0.6h-25.4
	c0,0-0.1,0-0.1,0.1c0,0,0,0.1,0,0.1v3.6c0,0.1,0,0.1,0,0.2c0,0,0.1,0,0.1,0H132c1.9,0,3.4-0.7,4.7-2c1.3-1.3,2-2.9,2-4.7V105
	c0-1.9-0.7-3.4-2-4.7c-1.3-1.3-2.9-2-4.7-2h-20.2c-0.5,0-1-0.2-1.4-0.6c-0.4-0.4-0.6-0.9-0.6-1.4V94.6z"/>
<path class="st0" d="M145.8,95.3c0-1.8,0.7-3.4,2-4.7c1.3-1.3,2.9-2,4.8-2h20.2c1.9,0,3.4,0.7,4.8,2c1.3,1.3,2,2.9,2,4.7v16.5
	c0,0.1,0,0.1-0.1,0.2c0,0-0.1,0-0.1,0H175c0,0-0.1,0-0.1,0c0,0,0-0.1,0-0.2v-7.5h-24.2v7.5c0,0.1,0,0.1-0.1,0.2c0,0-0.1,0-0.1,0H146
	c-0.1,0-0.1,0-0.2,0c0,0,0-0.1,0-0.2V95.3z M174.8,100.3v-5.7c0-0.6-0.2-1-0.6-1.4c-0.4-0.4-0.9-0.6-1.4-0.6h-20.2
	c-0.6,0-1,0.2-1.4,0.6c-0.4,0.4-0.6,0.9-0.6,1.4v5.7H174.8z"/>
<path class="st0" d="M220.3,108.2c0,0,0-0.1-0.1-0.1c0,0-0.1-0.1-0.1-0.1h-26.7c-0.6,0-1-0.2-1.4-0.6c-0.4-0.4-0.6-0.9-0.6-1.4V88.8
	c0-0.1,0-0.1-0.1-0.1c0,0-0.1-0.1-0.1-0.1h-4.3c0,0-0.1,0-0.1,0.1c0,0,0,0.1,0,0.1v16.5c0,1.9,0.7,3.4,2,4.8
	c1.3,1.3,2.9,1.9,4.8,1.9h26.7c0,0,0.1,0,0.1,0c0,0,0.1-0.1,0.1-0.1V108.2z"/>
<path class="st0" d="M232,94.6c0-0.5,0.2-1,0.6-1.4c0.4-0.4,0.9-0.6,1.4-0.6h26.7c0.1,0,0.1,0,0.1,0c0,0,0.1-0.1,0.1-0.1v-3.6
	c0-0.1,0-0.1-0.1-0.1c0,0-0.1-0.1-0.1-0.1h-26.7c-1.9,0-3.5,0.7-4.8,2c-1.3,1.3-2,2.9-2,4.7v10c0,1.9,0.7,3.4,2,4.8
	c1.3,1.3,2.9,1.9,4.8,1.9h26.7c0.1,0,0.1,0,0.1,0c0,0,0.1-0.1,0.1-0.2v-3.6c0,0,0-0.1-0.1-0.1c0,0-0.1-0.1-0.1-0.1h-26.7
	c-0.6,0-1-0.2-1.4-0.6c-0.4-0.4-0.6-0.9-0.6-1.4v-3.7h25.4c0.1,0,0.1,0,0.1,0c0,0,0.1-0.1,0.1-0.2v-3.6c0-0.1,0-0.1-0.1-0.1
	c0,0-0.1-0.1-0.1-0.1H232V94.6z"/>
</svg>
