<svg width="596" height="158" viewBox="0 0 596 158" fill="none" xmlns="http://www.w3.org/2000/svg">
<g opacity="0.2">
<mask id="path-1-outside-1_227_1197" maskUnits="userSpaceOnUse" x="0" y="0" width="596" height="158" fill="black">
<rect fill="white" width="596" height="158"/>
<path d="M83.771 1.47416C83.771 1.35562 83.7119 1.25684 83.5936 1.17781C83.5148 1.05927 83.3965 1 83.2389 1H3.18752C3.06927 1 2.95103 1.05927 2.83279 1.17781C2.75396 1.25684 2.71454 1.35562 2.71454 1.47416V10.6611C2.71454 10.7796 2.75396 10.8982 2.83279 11.0167C2.95103 11.0957 3.06927 11.1353 3.18752 11.1353H71.9466V14.5137C71.9466 15.7386 71.5721 16.8055 70.8232 17.7143C70.0744 18.6231 69.1087 19.2158 67.9262 19.4924L13.0018 31.2872C9.45446 32.117 6.55748 33.9149 4.31084 36.6809C2.10361 39.4468 1 42.6277 1 46.2234V59.7371C1 59.8951 1.03941 60.0334 1.11824 60.152C1.23649 60.231 1.37444 60.2705 1.5321 60.2705H81.5835C81.7017 60.2705 81.8002 60.231 81.8791 60.152C81.9973 60.0334 82.0564 59.8951 82.0564 59.7371V50.6094C82.0564 50.4514 81.9973 50.3328 81.8791 50.2538C81.8002 50.1353 81.7017 50.076 81.5835 50.076H12.8244V46.6976C12.8244 45.5122 13.1989 44.465 13.9477 43.5562C14.6966 42.6474 15.6623 42.0547 16.8447 41.7781L71.7692 29.9833C75.3165 29.1535 78.1938 27.3556 80.401 24.5897C82.6477 21.8237 83.771 18.6429 83.771 15.0471V1.47416Z"/>
<path d="M113.332 16.2325C113.332 14.8495 113.825 13.6641 114.81 12.6763C115.795 11.6489 116.998 11.1353 118.417 11.1353H185.461C185.619 11.1353 185.737 11.0957 185.816 11.0167C185.934 10.8982 185.993 10.7796 185.993 10.6611V1.53343C185.993 1.37538 185.934 1.25684 185.816 1.17781C185.737 1.05927 185.619 1 185.461 1H118.417C113.726 1 109.726 2.65957 106.415 5.97872C103.143 9.25836 101.508 13.2492 101.508 17.9514V43.3191C101.508 48.0213 103.143 52.0319 106.415 55.3511C109.726 58.6307 113.726 60.2705 118.417 60.2705H185.461C185.619 60.2705 185.737 60.231 185.816 60.152C185.934 60.0334 185.993 59.8951 185.993 59.7371V50.6094C185.993 50.4909 185.934 50.3921 185.816 50.3131C185.737 50.1945 185.619 50.1353 185.461 50.1353H118.417C116.998 50.1353 115.795 49.6413 114.81 48.6535C113.825 47.6261 113.332 46.421 113.332 45.038V35.7325H177.007C177.164 35.7325 177.282 35.693 177.361 35.614C177.48 35.4954 177.539 35.3571 177.539 35.1991V26.0714C177.539 25.9134 177.48 25.7948 177.361 25.7158C177.282 25.5973 177.164 25.538 177.007 25.538H113.332V16.2325Z"/>
<path d="M203.789 1.47416C203.789 1.35562 203.828 1.25684 203.907 1.17781C204.025 1.05927 204.144 1 204.262 1H271.365C276.016 1 279.978 2.65957 283.249 5.97872C286.56 9.25836 288.215 13.2295 288.215 17.8921V23.8191C288.215 28.5213 286.56 32.5319 283.249 35.8511C279.978 39.1307 276.016 40.7705 271.365 40.7705H215.613V59.7371C215.613 59.8951 215.554 60.0334 215.436 60.152C215.357 60.231 215.239 60.2705 215.081 60.2705H204.262C204.144 60.2705 204.025 60.231 203.907 60.152C203.828 60.0334 203.789 59.8951 203.789 59.7371V1.47416ZM271.365 30.6353C272.745 30.6353 273.927 30.1413 274.913 29.1535C275.898 28.1261 276.391 26.921 276.391 25.538V16.2325C276.391 14.81 275.898 13.6049 274.913 12.617C273.927 11.6292 272.745 11.1353 271.365 11.1353H215.613V30.6353H271.365Z"/>
<path d="M373.529 1C378.219 1 382.2 2.65957 385.471 5.97872C388.782 9.25836 390.437 13.2492 390.437 17.9514V43.3191C390.437 48.0213 388.782 52.0319 385.471 55.3511C382.2 58.6307 378.219 60.2705 373.529 60.2705H322.861C318.21 60.2705 314.229 58.6307 310.918 55.3511C307.607 52.0319 305.952 48.0213 305.952 43.3191V17.9514C305.952 13.2492 307.607 9.25836 310.918 5.97872C314.229 2.65957 318.21 1 322.861 1H373.529ZM378.613 16.2325C378.613 14.8495 378.12 13.6641 377.135 12.6763C376.15 11.6489 374.947 11.1353 373.529 11.1353H322.861C321.481 11.1353 320.279 11.6489 319.254 12.6763C318.269 13.6641 317.776 14.8495 317.776 16.2325V45.038C317.776 46.421 318.269 47.6261 319.254 48.6535C320.279 49.6413 321.481 50.1353 322.861 50.1353H373.529C374.947 50.1353 376.15 49.6413 377.135 48.6535C378.12 47.6261 378.613 46.421 378.613 45.038V16.2325Z"/>
<path d="M425.142 50.1353C423.723 50.1353 422.521 49.6413 421.536 48.6535C420.55 47.6261 420.058 46.421 420.058 45.038V16.2325C420.058 14.8495 420.55 13.6641 421.536 12.6763C422.521 11.6489 423.723 11.1353 425.142 11.1353H492.187C492.344 11.1353 492.463 11.0957 492.541 11.0167C492.66 10.8982 492.719 10.7796 492.719 10.6611V1.53343C492.719 1.37538 492.66 1.25684 492.541 1.17781C492.463 1.05927 492.344 1 492.187 1H425.142C420.452 1 416.451 2.65957 413.14 5.97872C409.869 9.25836 408.233 13.2492 408.233 17.9514V43.3191C408.233 48.0213 409.869 52.0319 413.14 55.3511C416.451 58.6307 420.452 60.2705 425.142 60.2705H492.187C492.344 60.2705 492.463 60.231 492.541 60.152C492.66 60.0334 492.719 59.8951 492.719 59.7371V50.6094C492.719 50.4909 492.66 50.3921 492.541 50.3131C492.463 50.1945 492.344 50.1353 492.187 50.1353H425.142Z"/>
<path d="M595 1.53343C595 1.37538 594.941 1.25684 594.823 1.17781C594.744 1.05927 594.626 1 594.468 1H583.708C583.55 1 583.412 1.05927 583.294 1.17781C583.215 1.25684 583.176 1.37538 583.176 1.53343V25.538H522.339V1.53343C522.339 1.37538 522.28 1.25684 522.162 1.17781C522.083 1.05927 521.984 1 521.866 1H511.047C510.889 1 510.751 1.05927 510.633 1.17781C510.554 1.25684 510.514 1.37538 510.514 1.53343V59.7964C510.514 59.9149 510.554 60.0334 510.633 60.152C510.751 60.231 510.889 60.2705 511.047 60.2705H521.866C521.984 60.2705 522.083 60.231 522.162 60.152C522.28 60.0334 522.339 59.9149 522.339 59.7964V35.7325H583.176V59.7964C583.176 59.9149 583.215 60.0334 583.294 60.152C583.412 60.231 583.55 60.2705 583.708 60.2705H594.468C594.626 60.2705 594.744 60.231 594.823 60.152C594.941 60.0334 595 59.9149 595 59.7964V1.53343Z"/>
<path d="M73.602 98.2629C73.602 98.1049 73.6414 97.9863 73.7202 97.9073C73.8385 97.7888 73.9764 97.7295 74.1341 97.7295H84.9534C85.0717 97.7295 85.1702 97.7888 85.249 97.9073C85.3673 97.9863 85.4264 98.1049 85.4264 98.2629V156.526C85.4264 156.644 85.3673 156.763 85.249 156.881C85.1702 156.96 85.0717 157 84.9534 157H62.8417C58.309 156.881 54.742 154.965 52.1406 151.251L24.6489 110.176C23.5058 108.675 22.0869 107.924 20.3921 107.924H12.8244V156.526C12.8244 156.644 12.7653 156.763 12.6471 156.881C12.5682 156.96 12.45 157 12.2923 157H1.47298C1.35473 157 1.23649 156.96 1.11824 156.881C1.03941 156.763 1 156.644 1 156.526V98.2629C1 98.1049 1.03941 97.9863 1.11824 97.9073C1.23649 97.7888 1.35473 97.7295 1.47298 97.7295H23.5847C28.1173 97.8875 31.6844 99.8237 34.2858 103.538L61.7775 144.553C62.8812 146.094 64.3001 146.865 66.0343 146.865H73.602V98.2629Z"/>
<path d="M170.74 97.7295C175.43 97.7295 179.411 99.3891 182.682 102.708C185.993 105.988 187.649 109.979 187.649 114.681V140.049C187.649 144.751 185.993 148.761 182.682 152.081C179.411 155.36 175.43 157 170.74 157H120.072C115.421 157 111.44 155.36 108.129 152.081C104.818 148.761 103.163 144.751 103.163 140.049V114.681C103.163 109.979 104.818 105.988 108.129 102.708C111.44 99.3891 115.421 97.7295 120.072 97.7295H170.74ZM175.824 112.962C175.824 111.579 175.331 110.394 174.346 109.406C173.361 108.378 172.159 107.865 170.74 107.865H120.072C118.692 107.865 117.49 108.378 116.466 109.406C115.48 110.394 114.987 111.579 114.987 112.962V141.767C114.987 143.15 115.48 144.356 116.466 145.383C117.49 146.371 118.692 146.865 120.072 146.865H170.74C172.159 146.865 173.361 146.371 174.346 145.383C175.331 144.356 175.824 143.15 175.824 141.767V112.962Z"/>
<path d="M272.962 97.7295C277.652 97.7295 281.633 99.3891 284.904 102.708C288.215 105.988 289.871 109.979 289.871 114.681V140.049C289.871 144.751 288.215 148.761 284.904 152.081C281.633 155.36 277.652 157 272.962 157H205.917C205.799 157 205.681 156.96 205.563 156.881C205.484 156.763 205.444 156.625 205.444 156.467V98.2629C205.444 98.1049 205.484 97.9863 205.563 97.9073C205.681 97.7888 205.799 97.7295 205.917 97.7295H272.962ZM278.046 112.962C278.046 111.579 277.554 110.394 276.568 109.406C275.583 108.378 274.381 107.865 272.962 107.865H217.269V146.865H272.962C274.381 146.865 275.583 146.371 276.568 145.383C277.554 144.356 278.046 143.15 278.046 141.767V112.962Z"/>
<path d="M319.432 112.962C319.432 111.579 319.924 110.394 320.91 109.406C321.895 108.378 323.097 107.865 324.516 107.865H391.561C391.718 107.865 391.837 107.825 391.916 107.746C392.034 107.628 392.093 107.509 392.093 107.391V98.2629C392.093 98.1049 392.034 97.9863 391.916 97.9073C391.837 97.7888 391.718 97.7295 391.561 97.7295H324.516C319.826 97.7295 315.825 99.3891 312.514 102.708C309.243 105.988 307.607 109.979 307.607 114.681V140.049C307.607 144.751 309.243 148.761 312.514 152.081C315.825 155.36 319.826 157 324.516 157H391.561C391.718 157 391.837 156.96 391.916 156.881C392.034 156.763 392.093 156.625 392.093 156.467V147.339C392.093 147.22 392.034 147.122 391.916 147.043C391.837 146.924 391.718 146.865 391.561 146.865H324.516C323.097 146.865 321.895 146.371 320.91 145.383C319.924 144.356 319.432 143.15 319.432 141.767V132.462H383.106C383.264 132.462 383.382 132.422 383.461 132.343C383.579 132.225 383.638 132.087 383.638 131.929V122.801C383.638 122.643 383.579 122.524 383.461 122.445C383.382 122.327 383.264 122.267 383.106 122.267H319.432V112.962Z"/>
</mask>
<path d="M83.771 1.47416C83.771 1.35562 83.7119 1.25684 83.5936 1.17781C83.5148 1.05927 83.3965 1 83.2389 1H3.18752C3.06927 1 2.95103 1.05927 2.83279 1.17781C2.75396 1.25684 2.71454 1.35562 2.71454 1.47416V10.6611C2.71454 10.7796 2.75396 10.8982 2.83279 11.0167C2.95103 11.0957 3.06927 11.1353 3.18752 11.1353H71.9466V14.5137C71.9466 15.7386 71.5721 16.8055 70.8232 17.7143C70.0744 18.6231 69.1087 19.2158 67.9262 19.4924L13.0018 31.2872C9.45446 32.117 6.55748 33.9149 4.31084 36.6809C2.10361 39.4468 1 42.6277 1 46.2234V59.7371C1 59.8951 1.03941 60.0334 1.11824 60.152C1.23649 60.231 1.37444 60.2705 1.5321 60.2705H81.5835C81.7017 60.2705 81.8002 60.231 81.8791 60.152C81.9973 60.0334 82.0564 59.8951 82.0564 59.7371V50.6094C82.0564 50.4514 81.9973 50.3328 81.8791 50.2538C81.8002 50.1353 81.7017 50.076 81.5835 50.076H12.8244V46.6976C12.8244 45.5122 13.1989 44.465 13.9477 43.5562C14.6966 42.6474 15.6623 42.0547 16.8447 41.7781L71.7692 29.9833C75.3165 29.1535 78.1938 27.3556 80.401 24.5897C82.6477 21.8237 83.771 18.6429 83.771 15.0471V1.47416Z" stroke="url(#paint0_linear_227_1197)" stroke-width="2" mask="url(#path-1-outside-1_227_1197)"/>
<path d="M113.332 16.2325C113.332 14.8495 113.825 13.6641 114.81 12.6763C115.795 11.6489 116.998 11.1353 118.417 11.1353H185.461C185.619 11.1353 185.737 11.0957 185.816 11.0167C185.934 10.8982 185.993 10.7796 185.993 10.6611V1.53343C185.993 1.37538 185.934 1.25684 185.816 1.17781C185.737 1.05927 185.619 1 185.461 1H118.417C113.726 1 109.726 2.65957 106.415 5.97872C103.143 9.25836 101.508 13.2492 101.508 17.9514V43.3191C101.508 48.0213 103.143 52.0319 106.415 55.3511C109.726 58.6307 113.726 60.2705 118.417 60.2705H185.461C185.619 60.2705 185.737 60.231 185.816 60.152C185.934 60.0334 185.993 59.8951 185.993 59.7371V50.6094C185.993 50.4909 185.934 50.3921 185.816 50.3131C185.737 50.1945 185.619 50.1353 185.461 50.1353H118.417C116.998 50.1353 115.795 49.6413 114.81 48.6535C113.825 47.6261 113.332 46.421 113.332 45.038V35.7325H177.007C177.164 35.7325 177.282 35.693 177.361 35.614C177.48 35.4954 177.539 35.3571 177.539 35.1991V26.0714C177.539 25.9134 177.48 25.7948 177.361 25.7158C177.282 25.5973 177.164 25.538 177.007 25.538H113.332V16.2325Z" stroke="url(#paint1_linear_227_1197)" stroke-width="2" mask="url(#path-1-outside-1_227_1197)"/>
<path d="M203.789 1.47416C203.789 1.35562 203.828 1.25684 203.907 1.17781C204.025 1.05927 204.144 1 204.262 1H271.365C276.016 1 279.978 2.65957 283.249 5.97872C286.56 9.25836 288.215 13.2295 288.215 17.8921V23.8191C288.215 28.5213 286.56 32.5319 283.249 35.8511C279.978 39.1307 276.016 40.7705 271.365 40.7705H215.613V59.7371C215.613 59.8951 215.554 60.0334 215.436 60.152C215.357 60.231 215.239 60.2705 215.081 60.2705H204.262C204.144 60.2705 204.025 60.231 203.907 60.152C203.828 60.0334 203.789 59.8951 203.789 59.7371V1.47416ZM271.365 30.6353C272.745 30.6353 273.927 30.1413 274.913 29.1535C275.898 28.1261 276.391 26.921 276.391 25.538V16.2325C276.391 14.81 275.898 13.6049 274.913 12.617C273.927 11.6292 272.745 11.1353 271.365 11.1353H215.613V30.6353H271.365Z" stroke="url(#paint2_linear_227_1197)" stroke-width="2" mask="url(#path-1-outside-1_227_1197)"/>
<path d="M373.529 1C378.219 1 382.2 2.65957 385.471 5.97872C388.782 9.25836 390.437 13.2492 390.437 17.9514V43.3191C390.437 48.0213 388.782 52.0319 385.471 55.3511C382.2 58.6307 378.219 60.2705 373.529 60.2705H322.861C318.21 60.2705 314.229 58.6307 310.918 55.3511C307.607 52.0319 305.952 48.0213 305.952 43.3191V17.9514C305.952 13.2492 307.607 9.25836 310.918 5.97872C314.229 2.65957 318.21 1 322.861 1H373.529ZM378.613 16.2325C378.613 14.8495 378.12 13.6641 377.135 12.6763C376.15 11.6489 374.947 11.1353 373.529 11.1353H322.861C321.481 11.1353 320.279 11.6489 319.254 12.6763C318.269 13.6641 317.776 14.8495 317.776 16.2325V45.038C317.776 46.421 318.269 47.6261 319.254 48.6535C320.279 49.6413 321.481 50.1353 322.861 50.1353H373.529C374.947 50.1353 376.15 49.6413 377.135 48.6535C378.12 47.6261 378.613 46.421 378.613 45.038V16.2325Z" stroke="url(#paint3_linear_227_1197)" stroke-width="2" mask="url(#path-1-outside-1_227_1197)"/>
<path d="M425.142 50.1353C423.723 50.1353 422.521 49.6413 421.536 48.6535C420.55 47.6261 420.058 46.421 420.058 45.038V16.2325C420.058 14.8495 420.55 13.6641 421.536 12.6763C422.521 11.6489 423.723 11.1353 425.142 11.1353H492.187C492.344 11.1353 492.463 11.0957 492.541 11.0167C492.66 10.8982 492.719 10.7796 492.719 10.6611V1.53343C492.719 1.37538 492.66 1.25684 492.541 1.17781C492.463 1.05927 492.344 1 492.187 1H425.142C420.452 1 416.451 2.65957 413.14 5.97872C409.869 9.25836 408.233 13.2492 408.233 17.9514V43.3191C408.233 48.0213 409.869 52.0319 413.14 55.3511C416.451 58.6307 420.452 60.2705 425.142 60.2705H492.187C492.344 60.2705 492.463 60.231 492.541 60.152C492.66 60.0334 492.719 59.8951 492.719 59.7371V50.6094C492.719 50.4909 492.66 50.3921 492.541 50.3131C492.463 50.1945 492.344 50.1353 492.187 50.1353H425.142Z" stroke="url(#paint4_linear_227_1197)" stroke-width="2" mask="url(#path-1-outside-1_227_1197)"/>
<path d="M595 1.53343C595 1.37538 594.941 1.25684 594.823 1.17781C594.744 1.05927 594.626 1 594.468 1H583.708C583.55 1 583.412 1.05927 583.294 1.17781C583.215 1.25684 583.176 1.37538 583.176 1.53343V25.538H522.339V1.53343C522.339 1.37538 522.28 1.25684 522.162 1.17781C522.083 1.05927 521.984 1 521.866 1H511.047C510.889 1 510.751 1.05927 510.633 1.17781C510.554 1.25684 510.514 1.37538 510.514 1.53343V59.7964C510.514 59.9149 510.554 60.0334 510.633 60.152C510.751 60.231 510.889 60.2705 511.047 60.2705H521.866C521.984 60.2705 522.083 60.231 522.162 60.152C522.28 60.0334 522.339 59.9149 522.339 59.7964V35.7325H583.176V59.7964C583.176 59.9149 583.215 60.0334 583.294 60.152C583.412 60.231 583.55 60.2705 583.708 60.2705H594.468C594.626 60.2705 594.744 60.231 594.823 60.152C594.941 60.0334 595 59.9149 595 59.7964V1.53343Z" stroke="url(#paint5_linear_227_1197)" stroke-width="2" mask="url(#path-1-outside-1_227_1197)"/>
<path d="M73.602 98.2629C73.602 98.1049 73.6414 97.9863 73.7202 97.9073C73.8385 97.7888 73.9764 97.7295 74.1341 97.7295H84.9534C85.0717 97.7295 85.1702 97.7888 85.249 97.9073C85.3673 97.9863 85.4264 98.1049 85.4264 98.2629V156.526C85.4264 156.644 85.3673 156.763 85.249 156.881C85.1702 156.96 85.0717 157 84.9534 157H62.8417C58.309 156.881 54.742 154.965 52.1406 151.251L24.6489 110.176C23.5058 108.675 22.0869 107.924 20.3921 107.924H12.8244V156.526C12.8244 156.644 12.7653 156.763 12.6471 156.881C12.5682 156.96 12.45 157 12.2923 157H1.47298C1.35473 157 1.23649 156.96 1.11824 156.881C1.03941 156.763 1 156.644 1 156.526V98.2629C1 98.1049 1.03941 97.9863 1.11824 97.9073C1.23649 97.7888 1.35473 97.7295 1.47298 97.7295H23.5847C28.1173 97.8875 31.6844 99.8237 34.2858 103.538L61.7775 144.553C62.8812 146.094 64.3001 146.865 66.0343 146.865H73.602V98.2629Z" stroke="url(#paint6_linear_227_1197)" stroke-width="2" mask="url(#path-1-outside-1_227_1197)"/>
<path d="M170.74 97.7295C175.43 97.7295 179.411 99.3891 182.682 102.708C185.993 105.988 187.649 109.979 187.649 114.681V140.049C187.649 144.751 185.993 148.761 182.682 152.081C179.411 155.36 175.43 157 170.74 157H120.072C115.421 157 111.44 155.36 108.129 152.081C104.818 148.761 103.163 144.751 103.163 140.049V114.681C103.163 109.979 104.818 105.988 108.129 102.708C111.44 99.3891 115.421 97.7295 120.072 97.7295H170.74ZM175.824 112.962C175.824 111.579 175.331 110.394 174.346 109.406C173.361 108.378 172.159 107.865 170.74 107.865H120.072C118.692 107.865 117.49 108.378 116.466 109.406C115.48 110.394 114.987 111.579 114.987 112.962V141.767C114.987 143.15 115.48 144.356 116.466 145.383C117.49 146.371 118.692 146.865 120.072 146.865H170.74C172.159 146.865 173.361 146.371 174.346 145.383C175.331 144.356 175.824 143.15 175.824 141.767V112.962Z" stroke="url(#paint7_linear_227_1197)" stroke-width="2" mask="url(#path-1-outside-1_227_1197)"/>
<path d="M272.962 97.7295C277.652 97.7295 281.633 99.3891 284.904 102.708C288.215 105.988 289.871 109.979 289.871 114.681V140.049C289.871 144.751 288.215 148.761 284.904 152.081C281.633 155.36 277.652 157 272.962 157H205.917C205.799 157 205.681 156.96 205.563 156.881C205.484 156.763 205.444 156.625 205.444 156.467V98.2629C205.444 98.1049 205.484 97.9863 205.563 97.9073C205.681 97.7888 205.799 97.7295 205.917 97.7295H272.962ZM278.046 112.962C278.046 111.579 277.554 110.394 276.568 109.406C275.583 108.378 274.381 107.865 272.962 107.865H217.269V146.865H272.962C274.381 146.865 275.583 146.371 276.568 145.383C277.554 144.356 278.046 143.15 278.046 141.767V112.962Z" stroke="url(#paint8_linear_227_1197)" stroke-width="2" mask="url(#path-1-outside-1_227_1197)"/>
<path d="M319.432 112.962C319.432 111.579 319.924 110.394 320.91 109.406C321.895 108.378 323.097 107.865 324.516 107.865H391.561C391.718 107.865 391.837 107.825 391.916 107.746C392.034 107.628 392.093 107.509 392.093 107.391V98.2629C392.093 98.1049 392.034 97.9863 391.916 97.9073C391.837 97.7888 391.718 97.7295 391.561 97.7295H324.516C319.826 97.7295 315.825 99.3891 312.514 102.708C309.243 105.988 307.607 109.979 307.607 114.681V140.049C307.607 144.751 309.243 148.761 312.514 152.081C315.825 155.36 319.826 157 324.516 157H391.561C391.718 157 391.837 156.96 391.916 156.881C392.034 156.763 392.093 156.625 392.093 156.467V147.339C392.093 147.22 392.034 147.122 391.916 147.043C391.837 146.924 391.718 146.865 391.561 146.865H324.516C323.097 146.865 321.895 146.371 320.91 145.383C319.924 144.356 319.432 143.15 319.432 141.767V132.462H383.106C383.264 132.462 383.382 132.422 383.461 132.343C383.579 132.225 383.638 132.087 383.638 131.929V122.801C383.638 122.643 383.579 122.524 383.461 122.445C383.382 122.327 383.264 122.267 383.106 122.267H319.432V112.962Z" stroke="url(#paint9_linear_227_1197)" stroke-width="2" mask="url(#path-1-outside-1_227_1197)"/>
</g>
<defs>
<linearGradient id="paint0_linear_227_1197" x1="1" y1="93.4301" x2="595" y2="93.4301" gradientUnits="userSpaceOnUse">
<stop stop-color="#BB6CE6"/>
<stop offset="1" stop-color="#FFCD1D"/>
</linearGradient>
<linearGradient id="paint1_linear_227_1197" x1="1" y1="93.4301" x2="595" y2="93.4301" gradientUnits="userSpaceOnUse">
<stop stop-color="#BB6CE6"/>
<stop offset="1" stop-color="#FFCD1D"/>
</linearGradient>
<linearGradient id="paint2_linear_227_1197" x1="1" y1="93.4301" x2="595" y2="93.4301" gradientUnits="userSpaceOnUse">
<stop stop-color="#BB6CE6"/>
<stop offset="1" stop-color="#FFCD1D"/>
</linearGradient>
<linearGradient id="paint3_linear_227_1197" x1="1" y1="93.4301" x2="595" y2="93.4301" gradientUnits="userSpaceOnUse">
<stop stop-color="#BB6CE6"/>
<stop offset="1" stop-color="#FFCD1D"/>
</linearGradient>
<linearGradient id="paint4_linear_227_1197" x1="1" y1="93.4301" x2="595" y2="93.4301" gradientUnits="userSpaceOnUse">
<stop stop-color="#BB6CE6"/>
<stop offset="1" stop-color="#FFCD1D"/>
</linearGradient>
<linearGradient id="paint5_linear_227_1197" x1="1" y1="93.4301" x2="595" y2="93.4301" gradientUnits="userSpaceOnUse">
<stop stop-color="#BB6CE6"/>
<stop offset="1" stop-color="#FFCD1D"/>
</linearGradient>
<linearGradient id="paint6_linear_227_1197" x1="1" y1="93.4301" x2="595" y2="93.4301" gradientUnits="userSpaceOnUse">
<stop stop-color="#BB6CE6"/>
<stop offset="1" stop-color="#FFCD1D"/>
</linearGradient>
<linearGradient id="paint7_linear_227_1197" x1="1" y1="93.4301" x2="595" y2="93.4301" gradientUnits="userSpaceOnUse">
<stop stop-color="#BB6CE6"/>
<stop offset="1" stop-color="#FFCD1D"/>
</linearGradient>
<linearGradient id="paint8_linear_227_1197" x1="1" y1="93.4301" x2="595" y2="93.4301" gradientUnits="userSpaceOnUse">
<stop stop-color="#BB6CE6"/>
<stop offset="1" stop-color="#FFCD1D"/>
</linearGradient>
<linearGradient id="paint9_linear_227_1197" x1="1" y1="93.4301" x2="595" y2="93.4301" gradientUnits="userSpaceOnUse">
<stop stop-color="#BB6CE6"/>
<stop offset="1" stop-color="#FFCD1D"/>
</linearGradient>
</defs>
</svg>
