<svg width="277" height="192" viewBox="0 0 277 192" fill="none" xmlns="http://www.w3.org/2000/svg">
<g opacity="0.2">
<mask id="path-1-outside-1_227_1311" maskUnits="userSpaceOnUse" x="0" y="0" width="277" height="192" fill="black">
<rect fill="white" width="277" height="192"/>
<path d="M59.2011 1.33367C59.2011 1.25025 59.1595 1.18074 59.0764 1.12513C59.021 1.04171 58.9378 1 58.827 1H2.53821C2.45507 1 2.37193 1.04171 2.28878 1.12513C2.23335 1.18074 2.20564 1.25025 2.20564 1.33367V7.79855C2.20564 7.88197 2.23335 7.96538 2.28878 8.0488C2.37193 8.10441 2.45507 8.13222 2.53821 8.13222H50.8867V10.5096C50.8867 11.3716 50.6234 12.1224 50.0968 12.7619C49.5702 13.4014 48.8912 13.8185 48.0598 14.0132L9.4392 22.3132C6.94487 22.8972 4.90783 24.1623 3.32809 26.1087C1.77606 28.0552 1.00004 30.2935 1.00004 32.8239V42.3335C1.00004 42.4447 1.02776 42.542 1.08319 42.6255C1.16633 42.6811 1.26333 42.7089 1.37419 42.7089H57.6629C57.7461 42.7089 57.8154 42.6811 57.8708 42.6255C57.9539 42.542 57.9955 42.4447 57.9955 42.3335V35.9103C57.9955 35.7991 57.9539 35.7157 57.8708 35.6601C57.8154 35.5767 57.7461 35.535 57.6629 35.535H9.31448V33.1575C9.31448 32.3234 9.57777 31.5865 10.1044 30.947C10.6309 30.3074 11.3099 29.8904 12.1414 29.6957L50.762 21.3956C53.2563 20.8117 55.2795 19.5465 56.8315 17.6001C58.4112 15.6537 59.2011 13.4153 59.2011 10.885V1.33367Z"/>
<path d="M79.9872 11.7192C79.9872 10.746 80.3336 9.9118 81.0265 9.21665C81.7194 8.4937 82.5647 8.13222 83.5624 8.13222H130.705C130.816 8.13222 130.899 8.10441 130.955 8.0488C131.038 7.96538 131.079 7.88197 131.079 7.79855V1.37538C131.079 1.26416 131.038 1.18074 130.955 1.12513C130.899 1.04171 130.816 1 130.705 1H83.5624C80.2644 1 77.4513 2.16785 75.1233 4.50355C72.8229 6.81144 71.6728 9.61984 71.6728 12.9287V30.7801C71.6728 34.089 72.8229 36.9113 75.1233 39.247C77.4513 41.5549 80.2644 42.7089 83.5624 42.7089H130.705C130.816 42.7089 130.899 42.6811 130.955 42.6255C131.038 42.542 131.079 42.4447 131.079 42.3335V35.9103C131.079 35.8269 131.038 35.7574 130.955 35.7018C130.899 35.6184 130.816 35.5767 130.705 35.5767H83.5624C82.5647 35.5767 81.7194 35.2291 81.0265 34.5339C80.3336 33.811 79.9872 32.9629 79.9872 31.9897V25.4414H124.76C124.871 25.4414 124.954 25.4136 125.01 25.358C125.093 25.2746 125.135 25.1772 125.135 25.066V18.6429C125.135 18.5316 125.093 18.4482 125.01 18.3926C124.954 18.3092 124.871 18.2675 124.76 18.2675H79.9872V11.7192Z"/>
<path d="M143.593 1.33367C143.593 1.25025 143.62 1.18074 143.676 1.12513C143.759 1.04171 143.842 1 143.925 1H191.11C194.38 1 197.165 2.16785 199.466 4.50355C201.794 6.81144 202.958 9.60593 202.958 12.887V17.0579C202.958 20.3668 201.794 23.1891 199.466 25.5248C197.165 27.8327 194.38 28.9867 191.11 28.9867H151.907V42.3335C151.907 42.4447 151.866 42.542 151.782 42.6255C151.727 42.6811 151.644 42.7089 151.533 42.7089H143.925C143.842 42.7089 143.759 42.6811 143.676 42.6255C143.62 42.542 143.593 42.4447 143.593 42.3335V1.33367ZM191.11 21.8544C192.08 21.8544 192.911 21.5069 193.604 20.8117C194.297 20.0888 194.643 19.2407 194.643 18.2675V11.7192C194.643 10.7182 194.297 9.87009 193.604 9.17494C192.911 8.47979 192.08 8.13222 191.11 8.13222H151.907V21.8544H191.11Z"/>
<path d="M262.946 1C266.244 1 269.044 2.16785 271.344 4.50355C273.672 6.81144 274.836 9.61984 274.836 12.9287V30.7801C274.836 34.089 273.672 36.9113 271.344 39.247C269.044 41.5549 266.244 42.7089 262.946 42.7089H227.319C224.049 42.7089 221.249 41.5549 218.921 39.247C216.593 36.9113 215.429 34.089 215.429 30.7801V12.9287C215.429 9.61984 216.593 6.81144 218.921 4.50355C221.249 2.16785 224.049 1 227.319 1H262.946ZM266.522 11.7192C266.522 10.746 266.175 9.9118 265.482 9.21665C264.789 8.4937 263.944 8.13222 262.946 8.13222H227.319C226.349 8.13222 225.504 8.4937 224.783 9.21665C224.09 9.9118 223.744 10.746 223.744 11.7192V31.9897C223.744 32.9629 224.09 33.811 224.783 34.5339C225.504 35.2291 226.349 35.5767 227.319 35.5767H262.946C263.944 35.5767 264.789 35.2291 265.482 34.5339C266.175 33.811 266.522 32.9629 266.522 31.9897V11.7192Z"/>
<path d="M13.2223 99.9655C12.2246 99.9655 11.3793 99.618 10.6864 98.9228C9.99352 98.1999 9.64711 97.3518 9.64711 96.3786V76.1081C9.64711 75.1349 9.99352 74.3007 10.6864 73.6055C11.3793 72.8826 12.2246 72.5211 13.2223 72.5211H60.3652C60.476 72.5211 60.5592 72.4933 60.6146 72.4377C60.6977 72.3543 60.7393 72.2709 60.7393 72.1874V65.7643C60.7393 65.653 60.6977 65.5696 60.6146 65.514C60.5592 65.4306 60.476 65.3889 60.3652 65.3889H13.2223C9.92425 65.3889 7.1112 66.5567 4.78315 68.8924C2.48283 71.2003 1.33266 74.0087 1.33266 77.3176V95.169C1.33266 98.4779 2.48283 101.3 4.78315 103.636C7.1112 105.944 9.92425 107.098 13.2223 107.098H60.3652C60.476 107.098 60.5592 107.07 60.6146 107.014C60.6977 106.931 60.7393 106.834 60.7393 106.722V100.299C60.7393 100.216 60.6977 100.146 60.6146 100.091C60.5592 100.007 60.476 99.9655 60.3652 99.9655H13.2223Z"/>
<path d="M132.659 65.7643C132.659 65.653 132.618 65.5696 132.534 65.514C132.479 65.4306 132.396 65.3889 132.285 65.3889H124.719C124.608 65.3889 124.511 65.4306 124.428 65.514C124.372 65.5696 124.345 65.653 124.345 65.7643V82.6564H81.567V65.7643C81.567 65.653 81.5254 65.5696 81.4423 65.514C81.3868 65.4306 81.3175 65.3889 81.2344 65.3889H73.6267C73.5158 65.3889 73.4188 65.4306 73.3357 65.514C73.2803 65.5696 73.2525 65.653 73.2525 65.7643V106.764C73.2525 106.848 73.2803 106.931 73.3357 107.014C73.4188 107.07 73.5158 107.098 73.6267 107.098H81.2344C81.3175 107.098 81.3868 107.07 81.4423 107.014C81.5254 106.931 81.567 106.848 81.567 106.764V89.8303H124.345V106.764C124.345 106.848 124.372 106.931 124.428 107.014C124.511 107.07 124.608 107.098 124.719 107.098H132.285C132.396 107.098 132.479 107.07 132.534 107.014C132.618 106.931 132.659 106.848 132.659 106.764V65.7643Z"/>
<path d="M52.0506 149.666C52.0506 149.555 52.0784 149.472 52.1338 149.416C52.2169 149.333 52.3139 149.291 52.4248 149.291H60.0325C60.1157 149.291 60.1849 149.333 60.2404 149.416C60.3235 149.472 60.3651 149.555 60.3651 149.666V190.666C60.3651 190.75 60.3235 190.833 60.2404 190.917C60.1849 190.972 60.1157 191 60.0325 191H44.4845C41.2973 190.917 38.7891 189.568 36.9599 186.954L17.6289 158.05C16.8251 156.993 15.8274 156.465 14.6357 156.465H9.31444V190.666C9.31444 190.75 9.27287 190.833 9.18972 190.917C9.13429 190.972 9.05115 191 8.94029 191H1.33258C1.24943 191 1.16629 190.972 1.08314 190.917C1.02771 190.833 1 190.75 1 190.666V149.666C1 149.555 1.02771 149.472 1.08314 149.416C1.16629 149.333 1.24943 149.291 1.33258 149.291H16.8806C20.0678 149.402 22.576 150.765 24.4051 153.379L43.7362 182.241C44.5122 183.326 45.51 183.868 46.7294 183.868H52.0506V149.666Z"/>
<path d="M120.354 149.291C123.652 149.291 126.451 150.459 128.751 152.795C131.079 155.103 132.243 157.911 132.243 161.22V179.071C132.243 182.38 131.079 185.202 128.751 187.538C126.451 189.846 123.652 191 120.354 191H84.7264C81.456 191 78.6568 189.846 76.3288 187.538C74.0008 185.202 72.8367 182.38 72.8367 179.071V161.22C72.8367 157.911 74.0008 155.103 76.3288 152.795C78.6568 150.459 81.456 149.291 84.7264 149.291H120.354ZM123.929 160.01C123.929 159.037 123.583 158.203 122.89 157.508C122.197 156.785 121.351 156.423 120.354 156.423H84.7264C83.7564 156.423 82.9111 156.785 82.1905 157.508C81.4976 158.203 81.1512 159.037 81.1512 160.01V180.281C81.1512 181.254 81.4976 182.102 82.1905 182.825C82.9111 183.52 83.7564 183.868 84.7264 183.868H120.354C121.351 183.868 122.197 183.52 122.89 182.825C123.583 182.102 123.929 181.254 123.929 180.281V160.01Z"/>
<path d="M192.232 149.291C195.53 149.291 198.329 150.459 200.63 152.795C202.958 155.103 204.122 157.911 204.122 161.22V179.071C204.122 182.38 202.958 185.202 200.63 187.538C198.329 189.846 195.53 191 192.232 191H145.089C145.006 191 144.923 190.972 144.84 190.917C144.784 190.833 144.757 190.736 144.757 190.625V149.666C144.757 149.555 144.784 149.472 144.84 149.416C144.923 149.333 145.006 149.291 145.089 149.291H192.232ZM195.807 160.01C195.807 159.037 195.461 158.203 194.768 157.508C194.075 156.785 193.23 156.423 192.232 156.423H153.071V183.868H192.232C193.23 183.868 194.075 183.52 194.768 182.825C195.461 182.102 195.807 181.254 195.807 180.281V160.01Z"/>
<path d="M224.908 160.01C224.908 159.037 225.254 158.203 225.947 157.508C226.64 156.785 227.485 156.423 228.483 156.423H275.626C275.737 156.423 275.82 156.396 275.875 156.34C275.958 156.257 276 156.173 276 156.09V149.666C276 149.555 275.958 149.472 275.875 149.416C275.82 149.333 275.737 149.291 275.626 149.291H228.483C225.185 149.291 222.372 150.459 220.044 152.795C217.744 155.103 216.593 157.911 216.593 161.22V179.071C216.593 182.38 217.744 185.202 220.044 187.538C222.372 189.846 225.185 191 228.483 191H275.626C275.737 191 275.82 190.972 275.875 190.917C275.958 190.833 276 190.736 276 190.625V184.201C276 184.118 275.958 184.049 275.875 183.993C275.82 183.909 275.737 183.868 275.626 183.868H228.483C227.485 183.868 226.64 183.52 225.947 182.825C225.254 182.102 224.908 181.254 224.908 180.281V173.733H269.681C269.792 173.733 269.875 173.705 269.93 173.649C270.014 173.566 270.055 173.468 270.055 173.357V166.934C270.055 166.823 270.014 166.739 269.93 166.684C269.875 166.6 269.792 166.559 269.681 166.559H224.908V160.01Z"/>
</mask>
<path d="M59.2011 1.33367C59.2011 1.25025 59.1595 1.18074 59.0764 1.12513C59.021 1.04171 58.9378 1 58.827 1H2.53821C2.45507 1 2.37193 1.04171 2.28878 1.12513C2.23335 1.18074 2.20564 1.25025 2.20564 1.33367V7.79855C2.20564 7.88197 2.23335 7.96538 2.28878 8.0488C2.37193 8.10441 2.45507 8.13222 2.53821 8.13222H50.8867V10.5096C50.8867 11.3716 50.6234 12.1224 50.0968 12.7619C49.5702 13.4014 48.8912 13.8185 48.0598 14.0132L9.4392 22.3132C6.94487 22.8972 4.90783 24.1623 3.32809 26.1087C1.77606 28.0552 1.00004 30.2935 1.00004 32.8239V42.3335C1.00004 42.4447 1.02776 42.542 1.08319 42.6255C1.16633 42.6811 1.26333 42.7089 1.37419 42.7089H57.6629C57.7461 42.7089 57.8154 42.6811 57.8708 42.6255C57.9539 42.542 57.9955 42.4447 57.9955 42.3335V35.9103C57.9955 35.7991 57.9539 35.7157 57.8708 35.6601C57.8154 35.5767 57.7461 35.535 57.6629 35.535H9.31448V33.1575C9.31448 32.3234 9.57777 31.5865 10.1044 30.947C10.6309 30.3074 11.3099 29.8904 12.1414 29.6957L50.762 21.3956C53.2563 20.8117 55.2795 19.5465 56.8315 17.6001C58.4112 15.6537 59.2011 13.4153 59.2011 10.885V1.33367Z" stroke="url(#paint0_linear_227_1311)" stroke-width="2" mask="url(#path-1-outside-1_227_1311)"/>
<path d="M79.9872 11.7192C79.9872 10.746 80.3336 9.9118 81.0265 9.21665C81.7194 8.4937 82.5647 8.13222 83.5624 8.13222H130.705C130.816 8.13222 130.899 8.10441 130.955 8.0488C131.038 7.96538 131.079 7.88197 131.079 7.79855V1.37538C131.079 1.26416 131.038 1.18074 130.955 1.12513C130.899 1.04171 130.816 1 130.705 1H83.5624C80.2644 1 77.4513 2.16785 75.1233 4.50355C72.8229 6.81144 71.6728 9.61984 71.6728 12.9287V30.7801C71.6728 34.089 72.8229 36.9113 75.1233 39.247C77.4513 41.5549 80.2644 42.7089 83.5624 42.7089H130.705C130.816 42.7089 130.899 42.6811 130.955 42.6255C131.038 42.542 131.079 42.4447 131.079 42.3335V35.9103C131.079 35.8269 131.038 35.7574 130.955 35.7018C130.899 35.6184 130.816 35.5767 130.705 35.5767H83.5624C82.5647 35.5767 81.7194 35.2291 81.0265 34.5339C80.3336 33.811 79.9872 32.9629 79.9872 31.9897V25.4414H124.76C124.871 25.4414 124.954 25.4136 125.01 25.358C125.093 25.2746 125.135 25.1772 125.135 25.066V18.6429C125.135 18.5316 125.093 18.4482 125.01 18.3926C124.954 18.3092 124.871 18.2675 124.76 18.2675H79.9872V11.7192Z" stroke="url(#paint1_linear_227_1311)" stroke-width="2" mask="url(#path-1-outside-1_227_1311)"/>
<path d="M143.593 1.33367C143.593 1.25025 143.62 1.18074 143.676 1.12513C143.759 1.04171 143.842 1 143.925 1H191.11C194.38 1 197.165 2.16785 199.466 4.50355C201.794 6.81144 202.958 9.60593 202.958 12.887V17.0579C202.958 20.3668 201.794 23.1891 199.466 25.5248C197.165 27.8327 194.38 28.9867 191.11 28.9867H151.907V42.3335C151.907 42.4447 151.866 42.542 151.782 42.6255C151.727 42.6811 151.644 42.7089 151.533 42.7089H143.925C143.842 42.7089 143.759 42.6811 143.676 42.6255C143.62 42.542 143.593 42.4447 143.593 42.3335V1.33367ZM191.11 21.8544C192.08 21.8544 192.911 21.5069 193.604 20.8117C194.297 20.0888 194.643 19.2407 194.643 18.2675V11.7192C194.643 10.7182 194.297 9.87009 193.604 9.17494C192.911 8.47979 192.08 8.13222 191.11 8.13222H151.907V21.8544H191.11Z" stroke="url(#paint2_linear_227_1311)" stroke-width="2" mask="url(#path-1-outside-1_227_1311)"/>
<path d="M262.946 1C266.244 1 269.044 2.16785 271.344 4.50355C273.672 6.81144 274.836 9.61984 274.836 12.9287V30.7801C274.836 34.089 273.672 36.9113 271.344 39.247C269.044 41.5549 266.244 42.7089 262.946 42.7089H227.319C224.049 42.7089 221.249 41.5549 218.921 39.247C216.593 36.9113 215.429 34.089 215.429 30.7801V12.9287C215.429 9.61984 216.593 6.81144 218.921 4.50355C221.249 2.16785 224.049 1 227.319 1H262.946ZM266.522 11.7192C266.522 10.746 266.175 9.9118 265.482 9.21665C264.789 8.4937 263.944 8.13222 262.946 8.13222H227.319C226.349 8.13222 225.504 8.4937 224.783 9.21665C224.09 9.9118 223.744 10.746 223.744 11.7192V31.9897C223.744 32.9629 224.09 33.811 224.783 34.5339C225.504 35.2291 226.349 35.5767 227.319 35.5767H262.946C263.944 35.5767 264.789 35.2291 265.482 34.5339C266.175 33.811 266.522 32.9629 266.522 31.9897V11.7192Z" stroke="url(#paint3_linear_227_1311)" stroke-width="2" mask="url(#path-1-outside-1_227_1311)"/>
<path d="M13.2223 99.9655C12.2246 99.9655 11.3793 99.618 10.6864 98.9228C9.99352 98.1999 9.64711 97.3518 9.64711 96.3786V76.1081C9.64711 75.1349 9.99352 74.3007 10.6864 73.6055C11.3793 72.8826 12.2246 72.5211 13.2223 72.5211H60.3652C60.476 72.5211 60.5592 72.4933 60.6146 72.4377C60.6977 72.3543 60.7393 72.2709 60.7393 72.1874V65.7643C60.7393 65.653 60.6977 65.5696 60.6146 65.514C60.5592 65.4306 60.476 65.3889 60.3652 65.3889H13.2223C9.92425 65.3889 7.1112 66.5567 4.78315 68.8924C2.48283 71.2003 1.33266 74.0087 1.33266 77.3176V95.169C1.33266 98.4779 2.48283 101.3 4.78315 103.636C7.1112 105.944 9.92425 107.098 13.2223 107.098H60.3652C60.476 107.098 60.5592 107.07 60.6146 107.014C60.6977 106.931 60.7393 106.834 60.7393 106.722V100.299C60.7393 100.216 60.6977 100.146 60.6146 100.091C60.5592 100.007 60.476 99.9655 60.3652 99.9655H13.2223Z" stroke="url(#paint4_linear_227_1311)" stroke-width="2" mask="url(#path-1-outside-1_227_1311)"/>
<path d="M132.659 65.7643C132.659 65.653 132.618 65.5696 132.534 65.514C132.479 65.4306 132.396 65.3889 132.285 65.3889H124.719C124.608 65.3889 124.511 65.4306 124.428 65.514C124.372 65.5696 124.345 65.653 124.345 65.7643V82.6564H81.567V65.7643C81.567 65.653 81.5254 65.5696 81.4423 65.514C81.3868 65.4306 81.3175 65.3889 81.2344 65.3889H73.6267C73.5158 65.3889 73.4188 65.4306 73.3357 65.514C73.2803 65.5696 73.2525 65.653 73.2525 65.7643V106.764C73.2525 106.848 73.2803 106.931 73.3357 107.014C73.4188 107.07 73.5158 107.098 73.6267 107.098H81.2344C81.3175 107.098 81.3868 107.07 81.4423 107.014C81.5254 106.931 81.567 106.848 81.567 106.764V89.8303H124.345V106.764C124.345 106.848 124.372 106.931 124.428 107.014C124.511 107.07 124.608 107.098 124.719 107.098H132.285C132.396 107.098 132.479 107.07 132.534 107.014C132.618 106.931 132.659 106.848 132.659 106.764V65.7643Z" stroke="url(#paint5_linear_227_1311)" stroke-width="2" mask="url(#path-1-outside-1_227_1311)"/>
<path d="M52.0506 149.666C52.0506 149.555 52.0784 149.472 52.1338 149.416C52.2169 149.333 52.3139 149.291 52.4248 149.291H60.0325C60.1157 149.291 60.1849 149.333 60.2404 149.416C60.3235 149.472 60.3651 149.555 60.3651 149.666V190.666C60.3651 190.75 60.3235 190.833 60.2404 190.917C60.1849 190.972 60.1157 191 60.0325 191H44.4845C41.2973 190.917 38.7891 189.568 36.9599 186.954L17.6289 158.05C16.8251 156.993 15.8274 156.465 14.6357 156.465H9.31444V190.666C9.31444 190.75 9.27287 190.833 9.18972 190.917C9.13429 190.972 9.05115 191 8.94029 191H1.33258C1.24943 191 1.16629 190.972 1.08314 190.917C1.02771 190.833 1 190.75 1 190.666V149.666C1 149.555 1.02771 149.472 1.08314 149.416C1.16629 149.333 1.24943 149.291 1.33258 149.291H16.8806C20.0678 149.402 22.576 150.765 24.4051 153.379L43.7362 182.241C44.5122 183.326 45.51 183.868 46.7294 183.868H52.0506V149.666Z" stroke="url(#paint6_linear_227_1311)" stroke-width="2" mask="url(#path-1-outside-1_227_1311)"/>
<path d="M120.354 149.291C123.652 149.291 126.451 150.459 128.751 152.795C131.079 155.103 132.243 157.911 132.243 161.22V179.071C132.243 182.38 131.079 185.202 128.751 187.538C126.451 189.846 123.652 191 120.354 191H84.7264C81.456 191 78.6568 189.846 76.3288 187.538C74.0008 185.202 72.8367 182.38 72.8367 179.071V161.22C72.8367 157.911 74.0008 155.103 76.3288 152.795C78.6568 150.459 81.456 149.291 84.7264 149.291H120.354ZM123.929 160.01C123.929 159.037 123.583 158.203 122.89 157.508C122.197 156.785 121.351 156.423 120.354 156.423H84.7264C83.7564 156.423 82.9111 156.785 82.1905 157.508C81.4976 158.203 81.1512 159.037 81.1512 160.01V180.281C81.1512 181.254 81.4976 182.102 82.1905 182.825C82.9111 183.52 83.7564 183.868 84.7264 183.868H120.354C121.351 183.868 122.197 183.52 122.89 182.825C123.583 182.102 123.929 181.254 123.929 180.281V160.01Z" stroke="url(#paint7_linear_227_1311)" stroke-width="2" mask="url(#path-1-outside-1_227_1311)"/>
<path d="M192.232 149.291C195.53 149.291 198.329 150.459 200.63 152.795C202.958 155.103 204.122 157.911 204.122 161.22V179.071C204.122 182.38 202.958 185.202 200.63 187.538C198.329 189.846 195.53 191 192.232 191H145.089C145.006 191 144.923 190.972 144.84 190.917C144.784 190.833 144.757 190.736 144.757 190.625V149.666C144.757 149.555 144.784 149.472 144.84 149.416C144.923 149.333 145.006 149.291 145.089 149.291H192.232ZM195.807 160.01C195.807 159.037 195.461 158.203 194.768 157.508C194.075 156.785 193.23 156.423 192.232 156.423H153.071V183.868H192.232C193.23 183.868 194.075 183.52 194.768 182.825C195.461 182.102 195.807 181.254 195.807 180.281V160.01Z" stroke="url(#paint8_linear_227_1311)" stroke-width="2" mask="url(#path-1-outside-1_227_1311)"/>
<path d="M224.908 160.01C224.908 159.037 225.254 158.203 225.947 157.508C226.64 156.785 227.485 156.423 228.483 156.423H275.626C275.737 156.423 275.82 156.396 275.875 156.34C275.958 156.257 276 156.173 276 156.09V149.666C276 149.555 275.958 149.472 275.875 149.416C275.82 149.333 275.737 149.291 275.626 149.291H228.483C225.185 149.291 222.372 150.459 220.044 152.795C217.744 155.103 216.593 157.911 216.593 161.22V179.071C216.593 182.38 217.744 185.202 220.044 187.538C222.372 189.846 225.185 191 228.483 191H275.626C275.737 191 275.82 190.972 275.875 190.917C275.958 190.833 276 190.736 276 190.625V184.201C276 184.118 275.958 184.049 275.875 183.993C275.82 183.909 275.737 183.868 275.626 183.868H228.483C227.485 183.868 226.64 183.52 225.947 182.825C225.254 182.102 224.908 181.254 224.908 180.281V173.733H269.681C269.792 173.733 269.875 173.705 269.93 173.649C270.014 173.566 270.055 173.468 270.055 173.357V166.934C270.055 166.823 270.014 166.739 269.93 166.684C269.875 166.6 269.792 166.559 269.681 166.559H224.908V160.01Z" stroke="url(#paint9_linear_227_1311)" stroke-width="2" mask="url(#path-1-outside-1_227_1311)"/>
</g>
<defs>
<linearGradient id="paint0_linear_227_1311" x1="1" y1="113.575" x2="276" y2="113.575" gradientUnits="userSpaceOnUse">
<stop stop-color="#BB6CE6"/>
<stop offset="1" stop-color="#FFCD1D"/>
</linearGradient>
<linearGradient id="paint1_linear_227_1311" x1="1" y1="113.575" x2="276" y2="113.575" gradientUnits="userSpaceOnUse">
<stop stop-color="#BB6CE6"/>
<stop offset="1" stop-color="#FFCD1D"/>
</linearGradient>
<linearGradient id="paint2_linear_227_1311" x1="1" y1="113.575" x2="276" y2="113.575" gradientUnits="userSpaceOnUse">
<stop stop-color="#BB6CE6"/>
<stop offset="1" stop-color="#FFCD1D"/>
</linearGradient>
<linearGradient id="paint3_linear_227_1311" x1="1" y1="113.575" x2="276" y2="113.575" gradientUnits="userSpaceOnUse">
<stop stop-color="#BB6CE6"/>
<stop offset="1" stop-color="#FFCD1D"/>
</linearGradient>
<linearGradient id="paint4_linear_227_1311" x1="1" y1="113.575" x2="276" y2="113.575" gradientUnits="userSpaceOnUse">
<stop stop-color="#BB6CE6"/>
<stop offset="1" stop-color="#FFCD1D"/>
</linearGradient>
<linearGradient id="paint5_linear_227_1311" x1="1" y1="113.575" x2="276" y2="113.575" gradientUnits="userSpaceOnUse">
<stop stop-color="#BB6CE6"/>
<stop offset="1" stop-color="#FFCD1D"/>
</linearGradient>
<linearGradient id="paint6_linear_227_1311" x1="1" y1="113.575" x2="276" y2="113.575" gradientUnits="userSpaceOnUse">
<stop stop-color="#BB6CE6"/>
<stop offset="1" stop-color="#FFCD1D"/>
</linearGradient>
<linearGradient id="paint7_linear_227_1311" x1="1" y1="113.575" x2="276" y2="113.575" gradientUnits="userSpaceOnUse">
<stop stop-color="#BB6CE6"/>
<stop offset="1" stop-color="#FFCD1D"/>
</linearGradient>
<linearGradient id="paint8_linear_227_1311" x1="1" y1="113.575" x2="276" y2="113.575" gradientUnits="userSpaceOnUse">
<stop stop-color="#BB6CE6"/>
<stop offset="1" stop-color="#FFCD1D"/>
</linearGradient>
<linearGradient id="paint9_linear_227_1311" x1="1" y1="113.575" x2="276" y2="113.575" gradientUnits="userSpaceOnUse">
<stop stop-color="#BB6CE6"/>
<stop offset="1" stop-color="#FFCD1D"/>
</linearGradient>
</defs>
</svg>
