<svg width="306" height="201" viewBox="0 0 306 201" fill="none" xmlns="http://www.w3.org/2000/svg">
<g opacity="0.1">
<path d="M64.7344 1.17188H55.6406V34.2188C55.6406 35.2188 55.2812 36.0781 54.5625 36.7969C53.8438 37.5156 52.9688 37.875 51.9375 37.875H13.9688C12.9375 37.875 12.0625 37.5156 11.3438 36.7969C10.625 36.0781 10.2656 35.2188 10.2656 34.2188V18.8906H1.17188V32.9531C1.17188 36.4844 2.42188 39.5 4.92188 42C7.42188 44.5 10.4375 45.75 13.9688 45.75H51.9375C55.4688 45.75 58.4844 44.5 60.9844 42C63.4844 39.5 64.7344 36.4844 64.7344 32.9531V1.17188ZM65.5312 0C65.625 0 65.7031 0.046875 65.7656 0.140625C65.8594 0.203125 65.9062 0.28125 65.9062 0.375V32.9531C65.9062 36.7969 64.5469 40.0781 61.8281 42.7969C59.1094 45.5156 55.8125 46.875 51.9375 46.875H13.9688C10.0938 46.875 6.79688 45.5156 4.07812 42.7969C1.35938 40.0781 0 36.7969 0 32.9531V18.1406C0 18.0156 0.03125 17.9219 0.09375 17.8594C0.1875 17.7969 0.28125 17.7656 0.375 17.7656H11.0156C11.1406 17.7656 11.2344 17.7969 11.2969 17.8594C11.3906 17.9219 11.4375 18.0156 11.4375 18.1406V34.2188C11.4375 34.9062 11.6719 35.5 12.1406 36C12.6406 36.5 13.25 36.75 13.9688 36.75H51.9375C52.6562 36.75 53.25 36.5 53.7188 36C54.2188 35.5 54.4688 34.9062 54.4688 34.2188V0.375C54.4688 0.28125 54.5 0.203125 54.5625 0.140625C54.6562 0.046875 54.7656 0 54.8906 0H65.5312Z" fill="url(#paint0_linear_294_24)"/>
<path d="M144.703 1.125H93.8906C90.3594 1.125 87.3438 2.375 84.8438 4.875C82.3438 7.375 81.0938 10.3906 81.0938 13.9219V32.9531C81.0938 36.4844 82.3438 39.5 84.8438 42C87.3438 44.5 90.3594 45.75 93.8906 45.75H144.703V37.875H93.8906C92.8906 37.875 92.0312 37.5156 91.3125 36.7969C90.5938 36.0781 90.2344 35.2188 90.2344 34.2188V28.5V27.375H91.3594H138.375V19.5H91.3594H90.2344V18.375V12.6562C90.2344 11.6562 90.5938 10.7969 91.3125 10.0781C92.0312 9.35938 92.8906 9 93.8906 9H144.703V1.125ZM145.453 0C145.578 0 145.672 0.046875 145.734 0.140625C145.797 0.203125 145.828 0.28125 145.828 0.375V9.75C145.828 9.84375 145.797 9.9375 145.734 10.0312C145.672 10.0938 145.578 10.125 145.453 10.125H93.8906C93.2031 10.125 92.6094 10.375 92.1094 10.875C91.6094 11.375 91.3594 11.9688 91.3594 12.6562V18.375H139.125C139.25 18.375 139.344 18.4219 139.406 18.5156C139.469 18.5781 139.5 18.6562 139.5 18.75V28.125C139.5 28.2188 139.469 28.3125 139.406 28.4062C139.344 28.4688 139.25 28.5 139.125 28.5H91.3594V34.2188C91.3594 34.9062 91.6094 35.5 92.1094 36C92.6094 36.5 93.2031 36.75 93.8906 36.75H145.453C145.578 36.75 145.672 36.7969 145.734 36.8906C145.797 36.9531 145.828 37.0312 145.828 37.125V46.5C145.828 46.5938 145.797 46.6875 145.734 46.7812C145.672 46.8438 145.578 46.875 145.453 46.875H93.8906C90.0469 46.875 86.7656 45.5156 84.0469 42.7969C81.3281 40.0781 79.9688 36.7969 79.9688 32.9531V13.9219C79.9688 10.0781 81.3281 6.79688 84.0469 4.07812C86.7656 1.35938 90.0469 0 93.8906 0H145.453Z" fill="url(#paint1_linear_294_24)"/>
<path d="M224.672 1.125H215.578V18.375V19.5H214.453H171.375H170.203V18.375V1.125H161.109V45.75H170.203V28.5V27.375H171.375H214.453H215.578V28.5V45.75H224.672V1.125ZM225.469 0C225.562 0 225.641 0.046875 225.703 0.140625C225.797 0.203125 225.844 0.28125 225.844 0.375V46.5C225.844 46.5938 225.797 46.6875 225.703 46.7812C225.641 46.8438 225.562 46.875 225.469 46.875H214.828C214.703 46.875 214.609 46.8438 214.547 46.7812C214.484 46.6875 214.453 46.5938 214.453 46.5V28.5H171.375V46.5C171.375 46.5938 171.328 46.6875 171.234 46.7812C171.172 46.8438 171.078 46.875 170.953 46.875H160.312C160.219 46.875 160.125 46.8438 160.031 46.7812C159.969 46.6875 159.938 46.5938 159.938 46.5V0.375C159.938 0.28125 159.969 0.203125 160.031 0.140625C160.125 0.046875 160.219 0 160.312 0H170.953C171.078 0 171.172 0.046875 171.234 0.140625C171.328 0.203125 171.375 0.28125 171.375 0.375V18.375H214.453V0.375C214.453 0.28125 214.484 0.203125 214.547 0.140625C214.609 0.046875 214.703 0 214.828 0H225.469Z" fill="url(#paint2_linear_294_24)"/>
<path d="M291.844 1.125H253.828C250.297 1.125 247.281 2.375 244.781 4.875C242.281 7.375 241.031 10.3906 241.031 13.9219V32.9531C241.031 36.4844 242.281 39.5 244.781 42C247.281 44.5 250.297 45.75 253.828 45.75H291.844C295.375 45.75 298.391 44.5 300.891 42C303.391 39.5 304.641 36.4844 304.641 32.9531V13.9219C304.641 10.3906 303.391 7.375 300.891 4.875C298.391 2.375 295.375 1.125 291.844 1.125ZM253.828 37.875C252.828 37.875 251.969 37.5156 251.25 36.7969C250.531 36.0781 250.172 35.2188 250.172 34.2188V12.6562C250.172 11.6562 250.531 10.7969 251.25 10.0781C251.969 9.35938 252.828 9 253.828 9H291.844C292.875 9 293.75 9.35938 294.469 10.0781C295.188 10.7969 295.547 11.6562 295.547 12.6562V34.2188C295.547 35.2188 295.188 36.0781 294.469 36.7969C293.75 37.5156 292.875 37.875 291.844 37.875H253.828ZM291.844 0C295.688 0 298.969 1.35938 301.688 4.07812C304.406 6.79688 305.766 10.0781 305.766 13.9219V32.9531C305.766 36.7969 304.406 40.0781 301.688 42.7969C298.969 45.5156 295.688 46.875 291.844 46.875H253.828C249.984 46.875 246.703 45.5156 243.984 42.7969C241.266 40.0781 239.906 36.7969 239.906 32.9531V13.9219C239.906 10.0781 241.266 6.79688 243.984 4.07812C246.703 1.35938 249.984 0 253.828 0H291.844ZM253.828 36.75H291.844C292.531 36.75 293.125 36.5 293.625 36C294.125 35.5 294.375 34.9062 294.375 34.2188V12.6562C294.375 11.9688 294.125 11.375 293.625 10.875C293.125 10.375 292.531 10.125 291.844 10.125H253.828C253.141 10.125 252.547 10.375 252.047 10.875C251.547 11.375 251.297 11.9688 251.297 12.6562V34.2188C251.297 34.9062 251.547 35.5 252.047 36C252.547 36.5 253.141 36.75 253.828 36.75Z" fill="url(#paint3_linear_294_24)"/>
<path d="M64.7344 78.2188H55.5938V97.25C55.5938 98.5312 55.0156 99.5781 53.8594 100.391L34.2188 112.578C33.8125 112.828 33.3906 112.953 32.9531 112.953C32.4844 112.953 32.0625 112.828 31.6875 112.578L12 100.391C10.8438 99.5781 10.2656 98.5312 10.2656 97.25V78.2188H1.125V99.3594C1.125 102.484 2.54688 105.031 5.39062 107L28.875 121.578C30.1562 122.359 31.5156 122.75 32.9531 122.75C34.3906 122.75 35.75 122.359 37.0312 121.578L60.4688 107C63.3125 105.031 64.7344 102.484 64.7344 99.3594V78.2188ZM65.4844 77.0469C65.6094 77.0469 65.7031 77.0938 65.7656 77.1875C65.8281 77.25 65.8594 77.3281 65.8594 77.4219V99.3594C65.8594 102.891 64.2656 105.766 61.0781 107.984L37.5938 122.516C36.0938 123.422 34.5469 123.875 32.9531 123.875C31.3281 123.875 29.7656 123.422 28.2656 122.516L4.78125 107.984C1.59375 105.766 0 102.891 0 99.3594V77.4219C0 77.3281 0.03125 77.25 0.09375 77.1875C0.1875 77.0938 0.28125 77.0469 0.375 77.0469H11.0156C11.1406 77.0469 11.2344 77.0938 11.2969 77.1875C11.3594 77.25 11.3906 77.3281 11.3906 77.4219V97.25C11.3906 98.125 11.7969 98.8438 12.6094 99.4062L32.25 111.594C32.4688 111.719 32.7031 111.781 32.9531 111.781C33.1719 111.781 33.3906 111.719 33.6094 111.594L53.2969 99.4062C54.0781 98.8438 54.4688 98.125 54.4688 97.25V77.4219C54.4688 77.3281 54.5 77.25 54.5625 77.1875C54.6562 77.0938 54.75 77.0469 54.8438 77.0469H65.4844Z" fill="url(#paint4_linear_294_24)"/>
<path d="M131.906 78.125H93.8906C90.3594 78.125 87.3438 79.375 84.8438 81.875C82.3438 84.375 81.0938 87.3906 81.0938 90.9219V122.75H90.2344V109.297V108.172H91.3594H134.438H135.562V109.297V122.75H144.703V90.9219C144.703 87.3906 143.453 84.375 140.953 81.875C138.453 79.375 135.438 78.125 131.906 78.125ZM90.2344 100.297V99.1719V89.6562C90.2344 88.6562 90.5938 87.7969 91.3125 87.0781C92.0312 86.3594 92.8906 86 93.8906 86H131.906C132.906 86 133.766 86.3594 134.484 87.0781C135.203 87.7969 135.562 88.6562 135.562 89.6562V99.1719V100.297H134.438H91.3594H90.2344ZM131.906 77C135.75 77 139.031 78.3594 141.75 81.0781C144.469 83.7969 145.828 87.0781 145.828 90.9219V123.5C145.828 123.594 145.781 123.688 145.688 123.781C145.625 123.844 145.547 123.875 145.453 123.875H134.812C134.719 123.875 134.625 123.844 134.531 123.781C134.469 123.688 134.438 123.594 134.438 123.5V109.297H91.3594V123.5C91.3594 123.594 91.3125 123.688 91.2188 123.781C91.1562 123.844 91.0781 123.875 90.9844 123.875H80.3438C80.2188 123.875 80.125 123.844 80.0625 123.781C80 123.688 79.9688 123.594 79.9688 123.5V90.9219C79.9688 87.0781 81.3281 83.7969 84.0469 81.0781C86.7656 78.3594 90.0469 77 93.8906 77H131.906ZM91.3594 99.1719H134.438V89.6562C134.438 88.9688 134.188 88.375 133.688 87.875C133.188 87.375 132.594 87.125 131.906 87.125H93.8906C93.2031 87.125 92.6094 87.375 92.1094 87.875C91.6094 88.375 91.3594 88.9688 91.3594 89.6562V99.1719Z" fill="url(#paint5_linear_294_24)"/>
<path d="M224.672 78.125H215.578V95.375V96.5H214.453H171.375H170.203V95.375V78.125H161.109V122.75H170.203V105.5V104.375H171.375H214.453H215.578V105.5V122.75H224.672V78.125ZM225.469 77C225.562 77 225.641 77.0469 225.703 77.1406C225.797 77.2031 225.844 77.2812 225.844 77.375V123.5C225.844 123.594 225.797 123.688 225.703 123.781C225.641 123.844 225.562 123.875 225.469 123.875H214.828C214.703 123.875 214.609 123.844 214.547 123.781C214.484 123.688 214.453 123.594 214.453 123.5V105.5H171.375V123.5C171.375 123.594 171.328 123.688 171.234 123.781C171.172 123.844 171.078 123.875 170.953 123.875H160.312C160.219 123.875 160.125 123.844 160.031 123.781C159.969 123.688 159.938 123.594 159.938 123.5V77.375C159.938 77.2812 159.969 77.2031 160.031 77.1406C160.125 77.0469 160.219 77 160.312 77H170.953C171.078 77 171.172 77.0469 171.234 77.1406C171.328 77.2031 171.375 77.2812 171.375 77.375V95.375H214.453V77.375C214.453 77.2812 214.484 77.2031 214.547 77.1406C214.609 77.0469 214.703 77 214.828 77H225.469Z" fill="url(#paint6_linear_294_24)"/>
<path d="M64.7344 155.172H55.5938V190.75V191.875H54.4688H50.0156C48.7969 191.875 47.7812 191.328 46.9688 190.234L26.3438 159.531C24.3438 156.719 21.6094 155.266 18.1406 155.172H1.125V199.75H10.2656V164.172V163H11.3906H15.7969C17.0469 163 18.0781 163.547 18.8906 164.641L39.5156 195.344C41.4844 198.188 44.2188 199.656 47.7188 199.75H64.7344V155.172ZM65.4844 154C65.5781 154 65.6562 154.047 65.7188 154.141C65.8125 154.203 65.8594 154.281 65.8594 154.375V200.5C65.8594 200.625 65.8125 200.719 65.7188 200.781C65.6562 200.844 65.5781 200.875 65.4844 200.875H47.7188C43.8125 200.781 40.7656 199.156 38.5781 196L17.9531 165.297C17.3906 164.547 16.6719 164.172 15.7969 164.172H11.3906V200.5C11.3906 200.625 11.3438 200.719 11.25 200.781C11.1875 200.844 11.1094 200.875 11.0156 200.875H0.375C0.25 200.875 0.15625 200.844 0.09375 200.781C0.03125 200.719 0 200.625 0 200.5V154.375C0 154.281 0.03125 154.203 0.09375 154.141C0.15625 154.047 0.25 154 0.375 154H18.1406C22.0469 154.125 25.0938 155.766 27.2812 158.922L47.9062 189.625C48.4688 190.375 49.1719 190.75 50.0156 190.75H54.4688V154.375C54.4688 154.281 54.5 154.203 54.5625 154.141C54.6562 154.047 54.75 154 54.8438 154H65.4844Z" fill="url(#paint7_linear_294_24)"/>
<path d="M131.906 155.125H93.8906C90.3594 155.125 87.3438 156.375 84.8438 158.875C82.3438 161.375 81.0938 164.391 81.0938 167.922V186.953C81.0938 190.484 82.3438 193.5 84.8438 196C87.3438 198.5 90.3594 199.75 93.8906 199.75H131.906C135.438 199.75 138.453 198.5 140.953 196C143.453 193.5 144.703 190.484 144.703 186.953V167.922C144.703 164.391 143.453 161.375 140.953 158.875C138.453 156.375 135.438 155.125 131.906 155.125ZM93.8906 191.875C92.8906 191.875 92.0312 191.516 91.3125 190.797C90.5938 190.078 90.2344 189.219 90.2344 188.219V166.656C90.2344 165.656 90.5938 164.797 91.3125 164.078C92.0312 163.359 92.8906 163 93.8906 163H131.906C132.938 163 133.812 163.359 134.531 164.078C135.25 164.797 135.609 165.656 135.609 166.656V188.219C135.609 189.219 135.25 190.078 134.531 190.797C133.812 191.516 132.938 191.875 131.906 191.875H93.8906ZM131.906 154C135.75 154 139.031 155.359 141.75 158.078C144.469 160.797 145.828 164.078 145.828 167.922V186.953C145.828 190.797 144.469 194.078 141.75 196.797C139.031 199.516 135.75 200.875 131.906 200.875H93.8906C90.0469 200.875 86.7656 199.516 84.0469 196.797C81.3281 194.078 79.9688 190.797 79.9688 186.953V167.922C79.9688 164.078 81.3281 160.797 84.0469 158.078C86.7656 155.359 90.0469 154 93.8906 154H131.906ZM93.8906 190.75H131.906C132.594 190.75 133.188 190.5 133.688 190C134.188 189.5 134.438 188.906 134.438 188.219V166.656C134.438 165.969 134.188 165.375 133.688 164.875C133.188 164.375 132.594 164.125 131.906 164.125H93.8906C93.2031 164.125 92.6094 164.375 92.1094 164.875C91.6094 165.375 91.3594 165.969 91.3594 166.656V188.219C91.3594 188.906 91.6094 189.5 92.1094 190C92.6094 190.5 93.2031 190.75 93.8906 190.75Z" fill="url(#paint8_linear_294_24)"/>
<path d="M211.875 155.125H161.062V199.75H211.875C215.406 199.75 218.422 198.5 220.922 196C223.422 193.5 224.672 190.484 224.672 186.953V167.922C224.672 164.391 223.422 161.375 220.922 158.875C218.422 156.375 215.406 155.125 211.875 155.125ZM170.203 191.875V190.75V164.125V163H171.328H211.875C212.875 163 213.734 163.359 214.453 164.078C215.172 164.797 215.531 165.656 215.531 166.656V188.219C215.531 189.219 215.172 190.078 214.453 190.797C213.734 191.516 212.875 191.875 211.875 191.875H171.328H170.203ZM211.875 154C215.719 154 219 155.359 221.719 158.078C224.438 160.797 225.797 164.078 225.797 167.922V186.953C225.797 190.797 224.438 194.078 221.719 196.797C219 199.516 215.719 200.875 211.875 200.875H160.312C160.219 200.875 160.125 200.844 160.031 200.781C159.969 200.688 159.938 200.594 159.938 200.5V154.375C159.938 154.281 159.969 154.203 160.031 154.141C160.125 154.047 160.219 154 160.312 154H211.875ZM171.328 190.75H211.875C212.562 190.75 213.156 190.5 213.656 190C214.156 189.5 214.406 188.906 214.406 188.219V166.656C214.406 165.969 214.156 165.375 213.656 164.875C213.156 164.375 212.562 164.125 211.875 164.125H171.328V190.75Z" fill="url(#paint9_linear_294_24)"/>
<path d="M304.641 155.125H253.828C250.297 155.125 247.281 156.375 244.781 158.875C242.281 161.375 241.031 164.391 241.031 167.922V186.953C241.031 190.484 242.281 193.5 244.781 196C247.281 198.5 250.297 199.75 253.828 199.75H304.641V191.875H253.828C252.828 191.875 251.969 191.516 251.25 190.797C250.531 190.078 250.172 189.219 250.172 188.219V182.5V181.375H251.297H298.312V173.5H251.297H250.172V172.375V166.656C250.172 165.656 250.531 164.797 251.25 164.078C251.969 163.359 252.828 163 253.828 163H304.641V155.125ZM305.391 154C305.516 154 305.609 154.047 305.672 154.141C305.734 154.203 305.766 154.281 305.766 154.375V163.75C305.766 163.844 305.734 163.938 305.672 164.031C305.609 164.094 305.516 164.125 305.391 164.125H253.828C253.141 164.125 252.547 164.375 252.047 164.875C251.547 165.375 251.297 165.969 251.297 166.656V172.375H299.062C299.188 172.375 299.281 172.422 299.344 172.516C299.406 172.578 299.438 172.656 299.438 172.75V182.125C299.438 182.219 299.406 182.312 299.344 182.406C299.281 182.469 299.188 182.5 299.062 182.5H251.297V188.219C251.297 188.906 251.547 189.5 252.047 190C252.547 190.5 253.141 190.75 253.828 190.75H305.391C305.516 190.75 305.609 190.797 305.672 190.891C305.734 190.953 305.766 191.031 305.766 191.125V200.5C305.766 200.594 305.734 200.688 305.672 200.781C305.609 200.844 305.516 200.875 305.391 200.875H253.828C249.984 200.875 246.703 199.516 243.984 196.797C241.266 194.078 239.906 190.797 239.906 186.953V167.922C239.906 164.078 241.266 160.797 243.984 158.078C246.703 155.359 249.984 154 253.828 154H305.391Z" fill="url(#paint10_linear_294_24)"/>
</g>
<defs>
<linearGradient id="paint0_linear_294_24" x1="0" y1="119.019" x2="305.766" y2="119.019" gradientUnits="userSpaceOnUse">
<stop stop-color="#BB6CE6"/>
<stop offset="1" stop-color="#FFCD1D"/>
</linearGradient>
<linearGradient id="paint1_linear_294_24" x1="0" y1="119.019" x2="305.766" y2="119.019" gradientUnits="userSpaceOnUse">
<stop stop-color="#BB6CE6"/>
<stop offset="1" stop-color="#FFCD1D"/>
</linearGradient>
<linearGradient id="paint2_linear_294_24" x1="0" y1="119.019" x2="305.766" y2="119.019" gradientUnits="userSpaceOnUse">
<stop stop-color="#BB6CE6"/>
<stop offset="1" stop-color="#FFCD1D"/>
</linearGradient>
<linearGradient id="paint3_linear_294_24" x1="0" y1="119.019" x2="305.766" y2="119.019" gradientUnits="userSpaceOnUse">
<stop stop-color="#BB6CE6"/>
<stop offset="1" stop-color="#FFCD1D"/>
</linearGradient>
<linearGradient id="paint4_linear_294_24" x1="0" y1="119.019" x2="305.766" y2="119.019" gradientUnits="userSpaceOnUse">
<stop stop-color="#BB6CE6"/>
<stop offset="1" stop-color="#FFCD1D"/>
</linearGradient>
<linearGradient id="paint5_linear_294_24" x1="0" y1="119.019" x2="305.766" y2="119.019" gradientUnits="userSpaceOnUse">
<stop stop-color="#BB6CE6"/>
<stop offset="1" stop-color="#FFCD1D"/>
</linearGradient>
<linearGradient id="paint6_linear_294_24" x1="0" y1="119.019" x2="305.766" y2="119.019" gradientUnits="userSpaceOnUse">
<stop stop-color="#BB6CE6"/>
<stop offset="1" stop-color="#FFCD1D"/>
</linearGradient>
<linearGradient id="paint7_linear_294_24" x1="0" y1="119.019" x2="305.766" y2="119.019" gradientUnits="userSpaceOnUse">
<stop stop-color="#BB6CE6"/>
<stop offset="1" stop-color="#FFCD1D"/>
</linearGradient>
<linearGradient id="paint8_linear_294_24" x1="0" y1="119.019" x2="305.766" y2="119.019" gradientUnits="userSpaceOnUse">
<stop stop-color="#BB6CE6"/>
<stop offset="1" stop-color="#FFCD1D"/>
</linearGradient>
<linearGradient id="paint9_linear_294_24" x1="0" y1="119.019" x2="305.766" y2="119.019" gradientUnits="userSpaceOnUse">
<stop stop-color="#BB6CE6"/>
<stop offset="1" stop-color="#FFCD1D"/>
</linearGradient>
<linearGradient id="paint10_linear_294_24" x1="0" y1="119.019" x2="305.766" y2="119.019" gradientUnits="userSpaceOnUse">
<stop stop-color="#BB6CE6"/>
<stop offset="1" stop-color="#FFCD1D"/>
</linearGradient>
</defs>
</svg>
