<svg width="598" height="160" viewBox="0 0 598 160" fill="none" xmlns="http://www.w3.org/2000/svg">
<g opacity="0.2">
<mask id="path-1-outside-1_14_1248" maskUnits="userSpaceOnUse" x="0" y="0" width="598" height="160" fill="black">
<rect fill="white" width="598" height="160"/>
<path d="M84.771 2.47416C84.771 2.35562 84.7119 2.25684 84.5936 2.17781C84.5148 2.05927 84.3965 2 84.2389 2H4.18752C4.06927 2 3.95103 2.05927 3.83279 2.17781C3.75396 2.25684 3.71454 2.35562 3.71454 2.47416V11.6611C3.71454 11.7796 3.75396 11.8982 3.83279 12.0167C3.95103 12.0957 4.06927 12.1353 4.18752 12.1353H72.9466V15.5137C72.9466 16.7386 72.5721 17.8055 71.8232 18.7143C71.0744 19.6231 70.1087 20.2158 68.9262 20.4924L14.0018 32.2872C10.4545 33.117 7.55748 34.9149 5.31084 37.6809C3.10361 40.4468 2 43.6277 2 47.2234V60.7371C2 60.8951 2.03941 61.0334 2.11824 61.152C2.23649 61.231 2.37444 61.2705 2.5321 61.2705H82.5835C82.7017 61.2705 82.8002 61.231 82.8791 61.152C82.9973 61.0334 83.0564 60.8951 83.0564 60.7371V51.6094C83.0564 51.4514 82.9973 51.3328 82.8791 51.2538C82.8002 51.1353 82.7017 51.076 82.5835 51.076H13.8244V47.6976C13.8244 46.5122 14.1989 45.465 14.9477 44.5562C15.6966 43.6474 16.6623 43.0547 17.8447 42.7781L72.7692 30.9833C76.3165 30.1535 79.1938 28.3556 81.401 25.5897C83.6477 22.8237 84.771 19.6429 84.771 16.0471V2.47416Z"/>
<path d="M114.332 17.2325C114.332 15.8495 114.825 14.6641 115.81 13.6763C116.795 12.6489 117.998 12.1353 119.417 12.1353H186.461C186.619 12.1353 186.737 12.0957 186.816 12.0167C186.934 11.8982 186.993 11.7796 186.993 11.6611V2.53343C186.993 2.37538 186.934 2.25684 186.816 2.17781C186.737 2.05927 186.619 2 186.461 2H119.417C114.726 2 110.726 3.65957 107.415 6.97872C104.143 10.2584 102.508 14.2492 102.508 18.9514V44.3191C102.508 49.0213 104.143 53.0319 107.415 56.3511C110.726 59.6307 114.726 61.2705 119.417 61.2705H186.461C186.619 61.2705 186.737 61.231 186.816 61.152C186.934 61.0334 186.993 60.8951 186.993 60.7371V51.6094C186.993 51.4909 186.934 51.3921 186.816 51.3131C186.737 51.1945 186.619 51.1353 186.461 51.1353H119.417C117.998 51.1353 116.795 50.6413 115.81 49.6535C114.825 48.6261 114.332 47.421 114.332 46.038V36.7325H178.007C178.164 36.7325 178.282 36.693 178.361 36.614C178.48 36.4954 178.539 36.3571 178.539 36.1991V27.0714C178.539 26.9134 178.48 26.7948 178.361 26.7158C178.282 26.5973 178.164 26.538 178.007 26.538H114.332V17.2325Z"/>
<path d="M204.789 2.47416C204.789 2.35562 204.828 2.25684 204.907 2.17781C205.025 2.05927 205.144 2 205.262 2H272.365C277.016 2 280.978 3.65957 284.249 6.97872C287.56 10.2584 289.215 14.2295 289.215 18.8921V24.8191C289.215 29.5213 287.56 33.5319 284.249 36.8511C280.978 40.1307 277.016 41.7705 272.365 41.7705H216.613V60.7371C216.613 60.8951 216.554 61.0334 216.436 61.152C216.357 61.231 216.239 61.2705 216.081 61.2705H205.262C205.144 61.2705 205.025 61.231 204.907 61.152C204.828 61.0334 204.789 60.8951 204.789 60.7371V2.47416ZM272.365 31.6353C273.745 31.6353 274.927 31.1413 275.913 30.1535C276.898 29.1261 277.391 27.921 277.391 26.538V17.2325C277.391 15.81 276.898 14.6049 275.913 13.617C274.927 12.6292 273.745 12.1353 272.365 12.1353H216.613V31.6353H272.365Z"/>
<path d="M374.529 2C379.219 2 383.2 3.65957 386.471 6.97872C389.782 10.2584 391.437 14.2492 391.437 18.9514V44.3191C391.437 49.0213 389.782 53.0319 386.471 56.3511C383.2 59.6307 379.219 61.2705 374.529 61.2705H323.861C319.21 61.2705 315.229 59.6307 311.918 56.3511C308.607 53.0319 306.952 49.0213 306.952 44.3191V18.9514C306.952 14.2492 308.607 10.2584 311.918 6.97872C315.229 3.65957 319.21 2 323.861 2H374.529ZM379.613 17.2325C379.613 15.8495 379.12 14.6641 378.135 13.6763C377.15 12.6489 375.947 12.1353 374.529 12.1353H323.861C322.481 12.1353 321.279 12.6489 320.254 13.6763C319.269 14.6641 318.776 15.8495 318.776 17.2325V46.038C318.776 47.421 319.269 48.6261 320.254 49.6535C321.279 50.6413 322.481 51.1353 323.861 51.1353H374.529C375.947 51.1353 377.15 50.6413 378.135 49.6535C379.12 48.6261 379.613 47.421 379.613 46.038V17.2325Z"/>
<path d="M426.142 51.1353C424.723 51.1353 423.521 50.6413 422.536 49.6535C421.55 48.6261 421.058 47.421 421.058 46.038V17.2325C421.058 15.8495 421.55 14.6641 422.536 13.6763C423.521 12.6489 424.723 12.1353 426.142 12.1353H493.187C493.344 12.1353 493.463 12.0957 493.541 12.0167C493.66 11.8982 493.719 11.7796 493.719 11.6611V2.53343C493.719 2.37538 493.66 2.25684 493.541 2.17781C493.463 2.05927 493.344 2 493.187 2H426.142C421.452 2 417.451 3.65957 414.14 6.97872C410.869 10.2584 409.233 14.2492 409.233 18.9514V44.3191C409.233 49.0213 410.869 53.0319 414.14 56.3511C417.451 59.6307 421.452 61.2705 426.142 61.2705H493.187C493.344 61.2705 493.463 61.231 493.541 61.152C493.66 61.0334 493.719 60.8951 493.719 60.7371V51.6094C493.719 51.4909 493.66 51.3921 493.541 51.3131C493.463 51.1945 493.344 51.1353 493.187 51.1353H426.142Z"/>
<path d="M596 2.53343C596 2.37538 595.941 2.25684 595.823 2.17781C595.744 2.05927 595.626 2 595.468 2H584.708C584.55 2 584.412 2.05927 584.294 2.17781C584.215 2.25684 584.176 2.37538 584.176 2.53343V26.538H523.339V2.53343C523.339 2.37538 523.28 2.25684 523.162 2.17781C523.083 2.05927 522.984 2 522.866 2H512.047C511.889 2 511.751 2.05927 511.633 2.17781C511.554 2.25684 511.514 2.37538 511.514 2.53343V60.7964C511.514 60.9149 511.554 61.0334 511.633 61.152C511.751 61.231 511.889 61.2705 512.047 61.2705H522.866C522.984 61.2705 523.083 61.231 523.162 61.152C523.28 61.0334 523.339 60.9149 523.339 60.7964V36.7325H584.176V60.7964C584.176 60.9149 584.215 61.0334 584.294 61.152C584.412 61.231 584.55 61.2705 584.708 61.2705H595.468C595.626 61.2705 595.744 61.231 595.823 61.152C595.941 61.0334 596 60.9149 596 60.7964V2.53343Z"/>
<path d="M74.602 99.2629C74.602 99.1049 74.6414 98.9863 74.7202 98.9073C74.8385 98.7888 74.9764 98.7295 75.1341 98.7295H85.9534C86.0717 98.7295 86.1702 98.7888 86.249 98.9073C86.3673 98.9863 86.4264 99.1049 86.4264 99.2629V157.526C86.4264 157.644 86.3673 157.763 86.249 157.881C86.1702 157.96 86.0717 158 85.9534 158H63.8417C59.309 157.881 55.742 155.965 53.1406 152.251L25.6489 111.176C24.5058 109.675 23.0869 108.924 21.3921 108.924H13.8244V157.526C13.8244 157.644 13.7653 157.763 13.6471 157.881C13.5682 157.96 13.45 158 13.2923 158H2.47298C2.35473 158 2.23649 157.96 2.11824 157.881C2.03941 157.763 2 157.644 2 157.526V99.2629C2 99.1049 2.03941 98.9863 2.11824 98.9073C2.23649 98.7888 2.35473 98.7295 2.47298 98.7295H24.5847C29.1173 98.8875 32.6844 100.824 35.2858 104.538L62.7775 145.553C63.8812 147.094 65.3001 147.865 67.0343 147.865H74.602V99.2629Z"/>
<path d="M171.74 98.7295C176.43 98.7295 180.411 100.389 183.682 103.708C186.993 106.988 188.649 110.979 188.649 115.681V141.049C188.649 145.751 186.993 149.761 183.682 153.081C180.411 156.36 176.43 158 171.74 158H121.072C116.421 158 112.44 156.36 109.129 153.081C105.818 149.761 104.163 145.751 104.163 141.049V115.681C104.163 110.979 105.818 106.988 109.129 103.708C112.44 100.389 116.421 98.7295 121.072 98.7295H171.74ZM176.824 113.962C176.824 112.579 176.331 111.394 175.346 110.406C174.361 109.378 173.159 108.865 171.74 108.865H121.072C119.692 108.865 118.49 109.378 117.466 110.406C116.48 111.394 115.987 112.579 115.987 113.962V142.767C115.987 144.15 116.48 145.356 117.466 146.383C118.49 147.371 119.692 147.865 121.072 147.865H171.74C173.159 147.865 174.361 147.371 175.346 146.383C176.331 145.356 176.824 144.15 176.824 142.767V113.962Z"/>
<path d="M273.962 98.7295C278.652 98.7295 282.633 100.389 285.904 103.708C289.215 106.988 290.871 110.979 290.871 115.681V141.049C290.871 145.751 289.215 149.761 285.904 153.081C282.633 156.36 278.652 158 273.962 158H206.917C206.799 158 206.681 157.96 206.563 157.881C206.484 157.763 206.444 157.625 206.444 157.467V99.2629C206.444 99.1049 206.484 98.9863 206.563 98.9073C206.681 98.7888 206.799 98.7295 206.917 98.7295H273.962ZM279.046 113.962C279.046 112.579 278.554 111.394 277.568 110.406C276.583 109.378 275.381 108.865 273.962 108.865H218.269V147.865H273.962C275.381 147.865 276.583 147.371 277.568 146.383C278.554 145.356 279.046 144.15 279.046 142.767V113.962Z"/>
<path d="M320.432 113.962C320.432 112.579 320.924 111.394 321.91 110.406C322.895 109.378 324.097 108.865 325.516 108.865H392.561C392.718 108.865 392.837 108.825 392.916 108.746C393.034 108.628 393.093 108.509 393.093 108.391V99.2629C393.093 99.1049 393.034 98.9863 392.916 98.9073C392.837 98.7888 392.718 98.7295 392.561 98.7295H325.516C320.826 98.7295 316.825 100.389 313.514 103.708C310.243 106.988 308.607 110.979 308.607 115.681V141.049C308.607 145.751 310.243 149.761 313.514 153.081C316.825 156.36 320.826 158 325.516 158H392.561C392.718 158 392.837 157.96 392.916 157.881C393.034 157.763 393.093 157.625 393.093 157.467V148.339C393.093 148.22 393.034 148.122 392.916 148.043C392.837 147.924 392.718 147.865 392.561 147.865H325.516C324.097 147.865 322.895 147.371 321.91 146.383C320.924 145.356 320.432 144.15 320.432 142.767V133.462H384.106C384.264 133.462 384.382 133.422 384.461 133.343C384.579 133.225 384.638 133.087 384.638 132.929V123.801C384.638 123.643 384.579 123.524 384.461 123.445C384.382 123.327 384.264 123.267 384.106 123.267H320.432V113.962Z"/>
</mask>
<path d="M84.771 2.47416C84.771 2.35562 84.7119 2.25684 84.5936 2.17781C84.5148 2.05927 84.3965 2 84.2389 2H4.18752C4.06927 2 3.95103 2.05927 3.83279 2.17781C3.75396 2.25684 3.71454 2.35562 3.71454 2.47416V11.6611C3.71454 11.7796 3.75396 11.8982 3.83279 12.0167C3.95103 12.0957 4.06927 12.1353 4.18752 12.1353H72.9466V15.5137C72.9466 16.7386 72.5721 17.8055 71.8232 18.7143C71.0744 19.6231 70.1087 20.2158 68.9262 20.4924L14.0018 32.2872C10.4545 33.117 7.55748 34.9149 5.31084 37.6809C3.10361 40.4468 2 43.6277 2 47.2234V60.7371C2 60.8951 2.03941 61.0334 2.11824 61.152C2.23649 61.231 2.37444 61.2705 2.5321 61.2705H82.5835C82.7017 61.2705 82.8002 61.231 82.8791 61.152C82.9973 61.0334 83.0564 60.8951 83.0564 60.7371V51.6094C83.0564 51.4514 82.9973 51.3328 82.8791 51.2538C82.8002 51.1353 82.7017 51.076 82.5835 51.076H13.8244V47.6976C13.8244 46.5122 14.1989 45.465 14.9477 44.5562C15.6966 43.6474 16.6623 43.0547 17.8447 42.7781L72.7692 30.9833C76.3165 30.1535 79.1938 28.3556 81.401 25.5897C83.6477 22.8237 84.771 19.6429 84.771 16.0471V2.47416Z" stroke="white" stroke-width="4" mask="url(#path-1-outside-1_14_1248)"/>
<path d="M114.332 17.2325C114.332 15.8495 114.825 14.6641 115.81 13.6763C116.795 12.6489 117.998 12.1353 119.417 12.1353H186.461C186.619 12.1353 186.737 12.0957 186.816 12.0167C186.934 11.8982 186.993 11.7796 186.993 11.6611V2.53343C186.993 2.37538 186.934 2.25684 186.816 2.17781C186.737 2.05927 186.619 2 186.461 2H119.417C114.726 2 110.726 3.65957 107.415 6.97872C104.143 10.2584 102.508 14.2492 102.508 18.9514V44.3191C102.508 49.0213 104.143 53.0319 107.415 56.3511C110.726 59.6307 114.726 61.2705 119.417 61.2705H186.461C186.619 61.2705 186.737 61.231 186.816 61.152C186.934 61.0334 186.993 60.8951 186.993 60.7371V51.6094C186.993 51.4909 186.934 51.3921 186.816 51.3131C186.737 51.1945 186.619 51.1353 186.461 51.1353H119.417C117.998 51.1353 116.795 50.6413 115.81 49.6535C114.825 48.6261 114.332 47.421 114.332 46.038V36.7325H178.007C178.164 36.7325 178.282 36.693 178.361 36.614C178.48 36.4954 178.539 36.3571 178.539 36.1991V27.0714C178.539 26.9134 178.48 26.7948 178.361 26.7158C178.282 26.5973 178.164 26.538 178.007 26.538H114.332V17.2325Z" stroke="white" stroke-width="4" mask="url(#path-1-outside-1_14_1248)"/>
<path d="M204.789 2.47416C204.789 2.35562 204.828 2.25684 204.907 2.17781C205.025 2.05927 205.144 2 205.262 2H272.365C277.016 2 280.978 3.65957 284.249 6.97872C287.56 10.2584 289.215 14.2295 289.215 18.8921V24.8191C289.215 29.5213 287.56 33.5319 284.249 36.8511C280.978 40.1307 277.016 41.7705 272.365 41.7705H216.613V60.7371C216.613 60.8951 216.554 61.0334 216.436 61.152C216.357 61.231 216.239 61.2705 216.081 61.2705H205.262C205.144 61.2705 205.025 61.231 204.907 61.152C204.828 61.0334 204.789 60.8951 204.789 60.7371V2.47416ZM272.365 31.6353C273.745 31.6353 274.927 31.1413 275.913 30.1535C276.898 29.1261 277.391 27.921 277.391 26.538V17.2325C277.391 15.81 276.898 14.6049 275.913 13.617C274.927 12.6292 273.745 12.1353 272.365 12.1353H216.613V31.6353H272.365Z" stroke="white" stroke-width="4" mask="url(#path-1-outside-1_14_1248)"/>
<path d="M374.529 2C379.219 2 383.2 3.65957 386.471 6.97872C389.782 10.2584 391.437 14.2492 391.437 18.9514V44.3191C391.437 49.0213 389.782 53.0319 386.471 56.3511C383.2 59.6307 379.219 61.2705 374.529 61.2705H323.861C319.21 61.2705 315.229 59.6307 311.918 56.3511C308.607 53.0319 306.952 49.0213 306.952 44.3191V18.9514C306.952 14.2492 308.607 10.2584 311.918 6.97872C315.229 3.65957 319.21 2 323.861 2H374.529ZM379.613 17.2325C379.613 15.8495 379.12 14.6641 378.135 13.6763C377.15 12.6489 375.947 12.1353 374.529 12.1353H323.861C322.481 12.1353 321.279 12.6489 320.254 13.6763C319.269 14.6641 318.776 15.8495 318.776 17.2325V46.038C318.776 47.421 319.269 48.6261 320.254 49.6535C321.279 50.6413 322.481 51.1353 323.861 51.1353H374.529C375.947 51.1353 377.15 50.6413 378.135 49.6535C379.12 48.6261 379.613 47.421 379.613 46.038V17.2325Z" stroke="white" stroke-width="4" mask="url(#path-1-outside-1_14_1248)"/>
<path d="M426.142 51.1353C424.723 51.1353 423.521 50.6413 422.536 49.6535C421.55 48.6261 421.058 47.421 421.058 46.038V17.2325C421.058 15.8495 421.55 14.6641 422.536 13.6763C423.521 12.6489 424.723 12.1353 426.142 12.1353H493.187C493.344 12.1353 493.463 12.0957 493.541 12.0167C493.66 11.8982 493.719 11.7796 493.719 11.6611V2.53343C493.719 2.37538 493.66 2.25684 493.541 2.17781C493.463 2.05927 493.344 2 493.187 2H426.142C421.452 2 417.451 3.65957 414.14 6.97872C410.869 10.2584 409.233 14.2492 409.233 18.9514V44.3191C409.233 49.0213 410.869 53.0319 414.14 56.3511C417.451 59.6307 421.452 61.2705 426.142 61.2705H493.187C493.344 61.2705 493.463 61.231 493.541 61.152C493.66 61.0334 493.719 60.8951 493.719 60.7371V51.6094C493.719 51.4909 493.66 51.3921 493.541 51.3131C493.463 51.1945 493.344 51.1353 493.187 51.1353H426.142Z" stroke="white" stroke-width="4" mask="url(#path-1-outside-1_14_1248)"/>
<path d="M596 2.53343C596 2.37538 595.941 2.25684 595.823 2.17781C595.744 2.05927 595.626 2 595.468 2H584.708C584.55 2 584.412 2.05927 584.294 2.17781C584.215 2.25684 584.176 2.37538 584.176 2.53343V26.538H523.339V2.53343C523.339 2.37538 523.28 2.25684 523.162 2.17781C523.083 2.05927 522.984 2 522.866 2H512.047C511.889 2 511.751 2.05927 511.633 2.17781C511.554 2.25684 511.514 2.37538 511.514 2.53343V60.7964C511.514 60.9149 511.554 61.0334 511.633 61.152C511.751 61.231 511.889 61.2705 512.047 61.2705H522.866C522.984 61.2705 523.083 61.231 523.162 61.152C523.28 61.0334 523.339 60.9149 523.339 60.7964V36.7325H584.176V60.7964C584.176 60.9149 584.215 61.0334 584.294 61.152C584.412 61.231 584.55 61.2705 584.708 61.2705H595.468C595.626 61.2705 595.744 61.231 595.823 61.152C595.941 61.0334 596 60.9149 596 60.7964V2.53343Z" stroke="white" stroke-width="4" mask="url(#path-1-outside-1_14_1248)"/>
<path d="M74.602 99.2629C74.602 99.1049 74.6414 98.9863 74.7202 98.9073C74.8385 98.7888 74.9764 98.7295 75.1341 98.7295H85.9534C86.0717 98.7295 86.1702 98.7888 86.249 98.9073C86.3673 98.9863 86.4264 99.1049 86.4264 99.2629V157.526C86.4264 157.644 86.3673 157.763 86.249 157.881C86.1702 157.96 86.0717 158 85.9534 158H63.8417C59.309 157.881 55.742 155.965 53.1406 152.251L25.6489 111.176C24.5058 109.675 23.0869 108.924 21.3921 108.924H13.8244V157.526C13.8244 157.644 13.7653 157.763 13.6471 157.881C13.5682 157.96 13.45 158 13.2923 158H2.47298C2.35473 158 2.23649 157.96 2.11824 157.881C2.03941 157.763 2 157.644 2 157.526V99.2629C2 99.1049 2.03941 98.9863 2.11824 98.9073C2.23649 98.7888 2.35473 98.7295 2.47298 98.7295H24.5847C29.1173 98.8875 32.6844 100.824 35.2858 104.538L62.7775 145.553C63.8812 147.094 65.3001 147.865 67.0343 147.865H74.602V99.2629Z" stroke="white" stroke-width="4" mask="url(#path-1-outside-1_14_1248)"/>
<path d="M171.74 98.7295C176.43 98.7295 180.411 100.389 183.682 103.708C186.993 106.988 188.649 110.979 188.649 115.681V141.049C188.649 145.751 186.993 149.761 183.682 153.081C180.411 156.36 176.43 158 171.74 158H121.072C116.421 158 112.44 156.36 109.129 153.081C105.818 149.761 104.163 145.751 104.163 141.049V115.681C104.163 110.979 105.818 106.988 109.129 103.708C112.44 100.389 116.421 98.7295 121.072 98.7295H171.74ZM176.824 113.962C176.824 112.579 176.331 111.394 175.346 110.406C174.361 109.378 173.159 108.865 171.74 108.865H121.072C119.692 108.865 118.49 109.378 117.466 110.406C116.48 111.394 115.987 112.579 115.987 113.962V142.767C115.987 144.15 116.48 145.356 117.466 146.383C118.49 147.371 119.692 147.865 121.072 147.865H171.74C173.159 147.865 174.361 147.371 175.346 146.383C176.331 145.356 176.824 144.15 176.824 142.767V113.962Z" stroke="white" stroke-width="4" mask="url(#path-1-outside-1_14_1248)"/>
<path d="M273.962 98.7295C278.652 98.7295 282.633 100.389 285.904 103.708C289.215 106.988 290.871 110.979 290.871 115.681V141.049C290.871 145.751 289.215 149.761 285.904 153.081C282.633 156.36 278.652 158 273.962 158H206.917C206.799 158 206.681 157.96 206.563 157.881C206.484 157.763 206.444 157.625 206.444 157.467V99.2629C206.444 99.1049 206.484 98.9863 206.563 98.9073C206.681 98.7888 206.799 98.7295 206.917 98.7295H273.962ZM279.046 113.962C279.046 112.579 278.554 111.394 277.568 110.406C276.583 109.378 275.381 108.865 273.962 108.865H218.269V147.865H273.962C275.381 147.865 276.583 147.371 277.568 146.383C278.554 145.356 279.046 144.15 279.046 142.767V113.962Z" stroke="white" stroke-width="4" mask="url(#path-1-outside-1_14_1248)"/>
<path d="M320.432 113.962C320.432 112.579 320.924 111.394 321.91 110.406C322.895 109.378 324.097 108.865 325.516 108.865H392.561C392.718 108.865 392.837 108.825 392.916 108.746C393.034 108.628 393.093 108.509 393.093 108.391V99.2629C393.093 99.1049 393.034 98.9863 392.916 98.9073C392.837 98.7888 392.718 98.7295 392.561 98.7295H325.516C320.826 98.7295 316.825 100.389 313.514 103.708C310.243 106.988 308.607 110.979 308.607 115.681V141.049C308.607 145.751 310.243 149.761 313.514 153.081C316.825 156.36 320.826 158 325.516 158H392.561C392.718 158 392.837 157.96 392.916 157.881C393.034 157.763 393.093 157.625 393.093 157.467V148.339C393.093 148.22 393.034 148.122 392.916 148.043C392.837 147.924 392.718 147.865 392.561 147.865H325.516C324.097 147.865 322.895 147.371 321.91 146.383C320.924 145.356 320.432 144.15 320.432 142.767V133.462H384.106C384.264 133.462 384.382 133.422 384.461 133.343C384.579 133.225 384.638 133.087 384.638 132.929V123.801C384.638 123.643 384.579 123.524 384.461 123.445C384.382 123.327 384.264 123.267 384.106 123.267H320.432V113.962Z" stroke="white" stroke-width="4" mask="url(#path-1-outside-1_14_1248)"/>
</g>
</svg>
