<svg width="82" height="82" viewBox="0 0 82 82" fill="none" xmlns="http://www.w3.org/2000/svg">
<path fill-rule="evenodd" clip-rule="evenodd" d="M82 41C82 63.6437 63.6437 82 41 82C18.3563 82 0 63.6437 0 41C0 18.3563 18.3563 0 41 0C63.6437 0 82 18.3563 82 41ZM43.6364 61.7778H56.8182V67H25.1818V61.7778H38.3636V56.3937C33.2668 55.7571 28.5796 53.3002 25.1818 49.484C21.784 45.6678 19.9092 40.7547 19.9091 35.6667V20H62.0909V35.6667C62.0908 40.7547 60.216 45.6678 56.8182 49.484C53.4204 53.3002 48.7332 55.7571 43.6364 56.3937V61.7778ZM25.1818 35.6667C25.1818 39.8217 26.8484 43.8066 29.8149 46.7447C32.7813 49.6827 36.8048 51.3333 41 51.3333C45.1952 51.3333 49.2187 49.6827 52.1851 46.7447C55.1516 43.8066 56.8182 39.8217 56.8182 35.6667V25.2222H25.1818V35.6667ZM17.2727 25.2222V35.6667H12V25.2222H17.2727ZM70 25.2222V35.6667H64.7273V25.2222H70ZM39.5409 31.0405C39.7857 31.0942 40.0417 31.054 40.2583 30.928L45.1184 28.0992C45.7478 27.7329 46.5452 28.1407 46.6166 28.8654L47.1679 34.4617C47.1925 34.7111 47.3098 34.9422 47.4966 35.1092L51.6888 38.8573C52.2317 39.3427 52.0902 40.227 51.423 40.5189L46.271 42.7726C46.0414 42.8731 45.8579 43.056 45.7568 43.2853L43.4876 48.4305C43.1937 49.0968 42.3089 49.2356 41.8252 48.6912L38.0897 44.4878C37.9233 44.3005 37.6926 44.1825 37.4433 44.1572L31.8487 43.589C31.1241 43.5155 30.7187 42.7168 31.0869 42.0885L33.9303 37.237C34.057 37.0208 34.0979 36.7649 34.045 36.52L32.8565 31.0236C32.7026 30.3118 33.3368 29.6795 34.0482 29.8355L39.5409 31.0405ZM42.2704 34.3851L43.0938 33.9058L43.1872 34.8539C43.31 36.1008 43.8965 37.2561 44.8305 38.0911L45.5407 38.7261L44.6679 39.1079C43.52 39.6101 42.6025 40.5248 42.0969 41.6712L41.7125 42.5428L41.0797 41.8307C40.2474 40.8942 39.0939 40.3043 37.8474 40.1777L36.8996 40.0814L37.3813 39.2595C38.0148 38.1786 38.2194 36.8992 37.9546 35.6746L37.7533 34.7434L38.6838 34.9476C39.9076 35.2161 41.1876 35.0153 42.2704 34.3851Z" fill="url(#paint0_linear_602_1448)"/>
<defs>
<linearGradient id="paint0_linear_602_1448" x1="0" y1="48.5851" x2="82" y2="48.5851" gradientUnits="userSpaceOnUse">
<stop stop-color="#BB6CE6"/>
<stop offset="1" stop-color="#FFCD1D"/>
</linearGradient>
</defs>
</svg>
