<svg width="82" height="82" viewBox="0 0 82 82" fill="none" xmlns="http://www.w3.org/2000/svg">
<path d="M82 41C82 63.6437 63.6437 82 41 82C18.3563 82 0 63.6437 0 41C0 18.3563 18.3563 0 41 0C63.6437 0 82 18.3563 82 41Z" fill="#F1F1F1"/>
<path d="M29.5396 17.2256C26.9675 18.1306 25.5862 20.8456 25.5386 24.8942C25.5386 27.0376 27.0628 29.3715 28.7298 29.8002C30.8732 30.3718 52.4024 32.5151 55.7365 32.5151C60.2615 32.5151 62.3096 27.6568 59.1183 24.5608C58.1657 23.6558 55.9271 22.989 42.8286 19.7024C31.4448 16.797 30.9685 16.7493 29.5396 17.2256ZM37.4939 21.6553C42.8762 22.9413 49.5445 24.6561 54.3553 25.9421C57.4989 26.7994 58.1657 27.5139 57.0226 28.8952L56.5463 29.4668L55.0221 29.3715C43.6383 28.5142 29.9682 26.9423 29.4443 26.4184C28.2059 25.2753 28.8251 21.0361 30.3017 20.4169C30.9685 20.0359 30.6827 19.9882 37.4939 21.6553Z" fill="#08021F"/>
<path d="M20.2516 35.5152C16.4411 35.9915 13.8214 40.9451 15.5362 44.3269C16.2983 45.8511 29.0157 58.378 30.6351 59.1877C32.1117 59.9498 32.7785 59.9975 45.3055 59.9975C60.3092 59.9975 59.2613 60.2356 62.4049 56.1394C68.6446 47.9945 69.4543 46.2321 68.3112 43.1838C66.9299 39.5162 66.0725 39.2304 54.2124 38.1825C43.6384 37.2775 24.8242 35.6581 23.5381 35.5628C22.7284 35.5152 21.9187 35.4199 21.7282 35.4199C21.5377 35.4199 20.8708 35.4199 20.2516 35.5152ZM28.9681 39.278C32.4928 39.5638 36.4461 39.8972 37.8274 39.9925C50.6877 40.9927 63.2623 42.2788 64.1673 42.7074C65.2628 43.2314 65.8344 45.4224 65.2152 46.7084C64.3102 48.5184 58.4516 56.187 57.6895 56.568C57.0703 56.8538 38.3037 57.0443 34.6361 56.7586L32.1593 56.568L30.8733 55.3296C30.2065 54.6152 27.3486 51.9478 24.586 49.3281C18.7751 43.803 18.2035 43.1361 18.2035 42.0882C18.2035 39.802 19.6324 38.4683 21.7758 38.6588C22.2521 38.7065 25.491 38.9446 28.9681 39.278Z" fill="#08021F"/>
<mask id="path-3-inside-1_14_1206" fill="white">
<path fill-rule="evenodd" clip-rule="evenodd" d="M29.1509 16.0904L29.1603 16.0872C29.5551 15.9556 29.9785 15.828 30.5697 15.8041C31.1259 15.7816 31.7778 15.8524 32.6677 16.0155C34.4391 16.3404 37.4537 17.0921 43.1232 18.5391C49.6625 20.1799 53.5248 21.175 55.8713 21.8747C58.1541 22.5555 59.2306 23.0121 59.945 23.6908L59.9542 23.6995C61.897 25.5843 62.3028 28.0986 61.4261 30.1672C60.5515 32.2309 58.4606 33.7151 55.7367 33.7151C53.9943 33.7151 47.7036 33.1702 41.6673 32.566C38.6293 32.2619 35.6253 31.9396 33.2439 31.6572C30.9257 31.3822 29.0717 31.1319 28.4262 30.9611C27.1994 30.6437 26.1855 29.6918 25.5037 28.6451C24.8078 27.5766 24.3388 26.2332 24.3388 24.8942V24.8801C24.3887 20.6363 25.857 17.2493 29.1415 16.0937L29.1509 16.0904ZM37.2088 22.8209C36.9636 22.7609 36.7278 22.7031 36.5012 22.6477C33.5486 21.9247 32.1418 21.5802 31.39 21.4506C31.1798 21.4144 31.061 21.4031 31.0017 21.3995C30.9769 21.4135 30.9428 21.4327 30.8972 21.4588L30.8336 21.4952L30.7659 21.5235C30.7708 21.5215 30.7704 21.5219 30.7652 21.526C30.741 21.5456 30.6119 21.6498 30.4483 21.9834C30.2688 22.3494 30.1214 22.8471 30.0428 23.3924C29.9643 23.9368 29.9631 24.4676 30.0326 24.8915C30.0757 25.1546 30.1363 25.3214 30.1844 25.4197C30.2607 25.439 30.3573 25.4614 30.4765 25.4867C30.8891 25.5744 31.484 25.6781 32.2426 25.7941C33.7547 26.0253 35.8517 26.2957 38.2984 26.5778C43.1869 27.1414 49.4311 27.7469 55.1048 28.1743L56.0141 28.2312L56.0983 28.1301L56.0996 28.1285C56.1715 28.0416 56.2232 27.9709 56.2602 27.9154C56.1631 27.8534 56.0125 27.771 55.7855 27.6735C55.3738 27.4966 54.8047 27.3085 54.0425 27.1006C49.2393 25.8166 42.5833 24.1051 37.2152 22.8224L37.2088 22.8209ZM20.086 34.3266C20.7913 34.2198 21.5212 34.2199 21.7209 34.2199H21.7284C21.874 34.2199 22.1497 34.2453 22.4013 34.2685C22.4382 34.2719 22.4745 34.2752 22.5098 34.2784C22.8363 34.3081 23.2247 34.3423 23.6088 34.3649L23.6179 34.3654L23.627 34.3661C24.5735 34.4362 34.8835 35.3206 44.4892 36.1446C48.0278 36.4481 51.4708 36.7435 54.315 36.9869L54.3182 36.9872C57.2799 37.2488 59.5818 37.4652 61.3804 37.7004C63.1682 37.9342 64.5332 38.1953 65.5915 38.5694C66.6829 38.9552 67.4917 39.4762 68.1201 40.2399C68.7171 40.9653 69.0865 41.8373 69.4344 42.7608L69.435 42.7624C69.7503 43.6034 69.9643 44.4429 69.9481 45.3698C69.9318 46.2985 69.6863 47.2233 69.2185 48.2485C68.3114 50.2365 66.4548 52.8263 63.3577 56.8691L63.3571 56.8699C63.2066 57.066 63.0609 57.2592 62.9187 57.4478C62.372 58.1726 61.8754 58.8311 61.3469 59.337C60.5982 60.0539 59.7648 60.505 58.5669 60.7751C57.4334 61.0307 55.9509 61.1287 53.8893 61.1704C52.269 61.2032 50.2275 61.2013 47.6332 61.1989C46.9022 61.1982 46.1274 61.1974 45.3057 61.1974C39.0608 61.1974 35.7192 61.186 33.7596 61.0765C32.7758 61.0215 32.079 60.9392 31.5093 60.8027C30.9135 60.66 30.4993 60.4677 30.09 60.2567C29.7384 60.0786 29.2567 59.6971 28.7816 59.2985C28.2583 58.8596 27.6113 58.2847 26.8894 57.6232C25.4437 56.2985 23.6676 54.5986 21.9224 52.8803C20.1773 51.1621 18.4549 49.4173 17.1173 48.0024C16.4494 47.2958 15.8703 46.6639 15.43 46.1549C15.2102 45.9009 15.0177 45.669 14.8633 45.4686C14.7237 45.2876 14.568 45.0724 14.4646 44.8666C13.3881 42.7405 13.714 40.2359 14.7631 38.2672C15.811 36.3007 17.7068 34.6308 20.086 34.3266ZM28.8625 40.4734L28.8537 40.4725C27.1228 40.3066 25.4499 40.1642 24.1486 40.0572C23.6328 40.0148 23.1701 39.9776 22.7847 39.9466C22.2196 39.9011 21.8207 39.869 21.6642 39.8536C20.8707 39.7843 20.3423 40.0007 20.0137 40.3137C19.6788 40.6326 19.4037 41.1932 19.4037 42.0882C19.4037 42.2042 19.4124 42.2561 19.4625 42.3588C19.5362 42.51 19.7054 42.7688 20.1169 43.2367C20.9422 44.1751 22.4906 45.6797 25.4127 48.4581C26.1278 49.1362 26.8556 49.8233 27.5529 50.4817C29.486 52.3068 31.1846 53.9106 31.7277 54.4862L32.6814 55.4046L34.7296 55.5622C36.4993 55.7001 42.0471 55.7255 47.2952 55.6777C49.9045 55.6539 52.4148 55.6123 54.3084 55.559C55.2564 55.5323 56.0421 55.5029 56.6056 55.4718C56.8461 55.4585 57.0375 55.4454 57.1797 55.4329C57.2199 55.3927 57.2668 55.3443 57.3207 55.287C57.5328 55.0615 57.811 54.7435 58.1398 54.3508C58.795 53.5684 59.6153 52.5326 60.4452 51.4458C61.2745 50.3598 62.1058 49.2326 62.7831 48.2689C63.473 47.2874 63.9541 46.544 64.1375 46.1808C64.2833 45.871 64.3282 45.3172 64.1735 44.7258C64.0235 44.1523 63.7813 43.8814 63.6774 43.8069C63.6592 43.8021 63.6326 43.7954 63.5958 43.787C63.4812 43.7607 63.3176 43.7287 63.1005 43.6915C62.668 43.6173 62.0705 43.5304 61.3234 43.433C59.8319 43.2385 57.7856 43.0076 55.3581 42.758C50.5065 42.2592 44.16 41.6887 37.7399 41.1893C36.7853 41.1233 34.6283 40.9461 32.2376 40.7496C31.1336 40.6588 29.9797 40.564 28.8713 40.4741L28.8625 40.4734ZM57.3871 55.41L57.3846 55.4105C57.4101 55.4048 57.4147 55.4056 57.3871 55.41Z"/>
</mask>
<path fill-rule="evenodd" clip-rule="evenodd" d="M29.1509 16.0904L29.1603 16.0872C29.5551 15.9556 29.9785 15.828 30.5697 15.8041C31.1259 15.7816 31.7778 15.8524 32.6677 16.0155C34.4391 16.3404 37.4537 17.0921 43.1232 18.5391C49.6625 20.1799 53.5248 21.175 55.8713 21.8747C58.1541 22.5555 59.2306 23.0121 59.945 23.6908L59.9542 23.6995C61.897 25.5843 62.3028 28.0986 61.4261 30.1672C60.5515 32.2309 58.4606 33.7151 55.7367 33.7151C53.9943 33.7151 47.7036 33.1702 41.6673 32.566C38.6293 32.2619 35.6253 31.9396 33.2439 31.6572C30.9257 31.3822 29.0717 31.1319 28.4262 30.9611C27.1994 30.6437 26.1855 29.6918 25.5037 28.6451C24.8078 27.5766 24.3388 26.2332 24.3388 24.8942V24.8801C24.3887 20.6363 25.857 17.2493 29.1415 16.0937L29.1509 16.0904ZM37.2088 22.8209C36.9636 22.7609 36.7278 22.7031 36.5012 22.6477C33.5486 21.9247 32.1418 21.5802 31.39 21.4506C31.1798 21.4144 31.061 21.4031 31.0017 21.3995C30.9769 21.4135 30.9428 21.4327 30.8972 21.4588L30.8336 21.4952L30.7659 21.5235C30.7708 21.5215 30.7704 21.5219 30.7652 21.526C30.741 21.5456 30.6119 21.6498 30.4483 21.9834C30.2688 22.3494 30.1214 22.8471 30.0428 23.3924C29.9643 23.9368 29.9631 24.4676 30.0326 24.8915C30.0757 25.1546 30.1363 25.3214 30.1844 25.4197C30.2607 25.439 30.3573 25.4614 30.4765 25.4867C30.8891 25.5744 31.484 25.6781 32.2426 25.7941C33.7547 26.0253 35.8517 26.2957 38.2984 26.5778C43.1869 27.1414 49.4311 27.7469 55.1048 28.1743L56.0141 28.2312L56.0983 28.1301L56.0996 28.1285C56.1715 28.0416 56.2232 27.9709 56.2602 27.9154C56.1631 27.8534 56.0125 27.771 55.7855 27.6735C55.3738 27.4966 54.8047 27.3085 54.0425 27.1006C49.2393 25.8166 42.5833 24.1051 37.2152 22.8224L37.2088 22.8209ZM20.086 34.3266C20.7913 34.2198 21.5212 34.2199 21.7209 34.2199H21.7284C21.874 34.2199 22.1497 34.2453 22.4013 34.2685C22.4382 34.2719 22.4745 34.2752 22.5098 34.2784C22.8363 34.3081 23.2247 34.3423 23.6088 34.3649L23.6179 34.3654L23.627 34.3661C24.5735 34.4362 34.8835 35.3206 44.4892 36.1446C48.0278 36.4481 51.4708 36.7435 54.315 36.9869L54.3182 36.9872C57.2799 37.2488 59.5818 37.4652 61.3804 37.7004C63.1682 37.9342 64.5332 38.1953 65.5915 38.5694C66.6829 38.9552 67.4917 39.4762 68.1201 40.2399C68.7171 40.9653 69.0865 41.8373 69.4344 42.7608L69.435 42.7624C69.7503 43.6034 69.9643 44.4429 69.9481 45.3698C69.9318 46.2985 69.6863 47.2233 69.2185 48.2485C68.3114 50.2365 66.4548 52.8263 63.3577 56.8691L63.3571 56.8699C63.2066 57.066 63.0609 57.2592 62.9187 57.4478C62.372 58.1726 61.8754 58.8311 61.3469 59.337C60.5982 60.0539 59.7648 60.505 58.5669 60.7751C57.4334 61.0307 55.9509 61.1287 53.8893 61.1704C52.269 61.2032 50.2275 61.2013 47.6332 61.1989C46.9022 61.1982 46.1274 61.1974 45.3057 61.1974C39.0608 61.1974 35.7192 61.186 33.7596 61.0765C32.7758 61.0215 32.079 60.9392 31.5093 60.8027C30.9135 60.66 30.4993 60.4677 30.09 60.2567C29.7384 60.0786 29.2567 59.6971 28.7816 59.2985C28.2583 58.8596 27.6113 58.2847 26.8894 57.6232C25.4437 56.2985 23.6676 54.5986 21.9224 52.8803C20.1773 51.1621 18.4549 49.4173 17.1173 48.0024C16.4494 47.2958 15.8703 46.6639 15.43 46.1549C15.2102 45.9009 15.0177 45.669 14.8633 45.4686C14.7237 45.2876 14.568 45.0724 14.4646 44.8666C13.3881 42.7405 13.714 40.2359 14.7631 38.2672C15.811 36.3007 17.7068 34.6308 20.086 34.3266ZM28.8625 40.4734L28.8537 40.4725C27.1228 40.3066 25.4499 40.1642 24.1486 40.0572C23.6328 40.0148 23.1701 39.9776 22.7847 39.9466C22.2196 39.9011 21.8207 39.869 21.6642 39.8536C20.8707 39.7843 20.3423 40.0007 20.0137 40.3137C19.6788 40.6326 19.4037 41.1932 19.4037 42.0882C19.4037 42.2042 19.4124 42.2561 19.4625 42.3588C19.5362 42.51 19.7054 42.7688 20.1169 43.2367C20.9422 44.1751 22.4906 45.6797 25.4127 48.4581C26.1278 49.1362 26.8556 49.8233 27.5529 50.4817C29.486 52.3068 31.1846 53.9106 31.7277 54.4862L32.6814 55.4046L34.7296 55.5622C36.4993 55.7001 42.0471 55.7255 47.2952 55.6777C49.9045 55.6539 52.4148 55.6123 54.3084 55.559C55.2564 55.5323 56.0421 55.5029 56.6056 55.4718C56.8461 55.4585 57.0375 55.4454 57.1797 55.4329C57.2199 55.3927 57.2668 55.3443 57.3207 55.287C57.5328 55.0615 57.811 54.7435 58.1398 54.3508C58.795 53.5684 59.6153 52.5326 60.4452 51.4458C61.2745 50.3598 62.1058 49.2326 62.7831 48.2689C63.473 47.2874 63.9541 46.544 64.1375 46.1808C64.2833 45.871 64.3282 45.3172 64.1735 44.7258C64.0235 44.1523 63.7813 43.8814 63.6774 43.8069C63.6592 43.8021 63.6326 43.7954 63.5958 43.787C63.4812 43.7607 63.3176 43.7287 63.1005 43.6915C62.668 43.6173 62.0705 43.5304 61.3234 43.433C59.8319 43.2385 57.7856 43.0076 55.3581 42.758C50.5065 42.2592 44.16 41.6887 37.7399 41.1893C36.7853 41.1233 34.6283 40.9461 32.2376 40.7496C31.1336 40.6588 29.9797 40.564 28.8713 40.4741L28.8625 40.4734ZM57.3871 55.41L57.3846 55.4105C57.4101 55.4048 57.4147 55.4056 57.3871 55.41Z" fill="#59D89D"/>
<path d="M28.73 29.8002L30.0184 24.969L29.9968 24.9633L29.9752 24.9577L28.73 29.8002ZM27.4417 34.6314C28.4143 34.8907 30.6216 35.1728 32.7963 35.4307C35.208 35.7168 38.2365 36.0416 41.2889 36.3471C47.2277 36.9416 53.7555 37.5151 55.7367 37.5151V27.5151C54.3838 27.5151 48.48 27.017 42.2849 26.3969C39.2703 26.0951 36.3061 25.7769 33.9741 25.5003C32.8056 25.3617 31.8174 25.2361 31.07 25.1303C30.2022 25.0075 29.9423 24.9487 30.0184 24.969L27.4417 34.6314ZM20.5388 24.8942C20.5388 27.0796 21.2864 29.1327 22.3196 30.719C23.2975 32.2205 25.0034 34.0046 27.4848 34.6426L29.9752 24.9577C30.4268 25.0738 30.6656 25.2605 30.7178 25.3038C30.7785 25.3541 30.7567 25.35 30.699 25.2614C30.6443 25.1776 30.5953 25.0752 30.5642 24.9782C30.5324 24.879 30.5388 24.8472 30.5388 24.8942H20.5388ZM57.0384 55.5647C60.3019 59.3528 60.3016 59.353 60.3014 59.3532C60.3013 59.3533 60.3011 59.3535 60.3009 59.3536C60.3006 59.3539 60.3003 59.3542 60.2999 59.3545C60.2993 59.355 60.2986 59.3556 60.298 59.3561C60.2967 59.3573 60.2954 59.3584 60.2941 59.3595C60.2915 59.3617 60.2889 59.3639 60.2863 59.3661C60.2812 59.3706 60.2759 59.375 60.2707 59.3794C60.2602 59.3883 60.2496 59.3972 60.2389 59.4061C60.2176 59.4239 60.1958 59.4418 60.1735 59.4597C60.1291 59.4954 60.0829 59.5313 60.0347 59.5672L54.0546 51.5523C54.0023 51.5914 53.9529 51.6298 53.9064 51.6672C53.8831 51.6859 53.8605 51.7044 53.8386 51.7226C53.8277 51.7318 53.8169 51.7408 53.8063 51.7498C53.8009 51.7543 53.7957 51.7588 53.7905 51.7633C53.7878 51.7655 53.7852 51.7677 53.7826 51.77C53.7813 51.7711 53.7801 51.7722 53.7788 51.7733C53.7781 51.7738 53.7775 51.7744 53.7768 51.775C53.7765 51.7752 53.7762 51.7755 53.7759 51.7758C53.7757 51.7759 53.7755 51.7761 53.7754 51.7762C53.7751 51.7764 53.7749 51.7766 57.0384 55.5647ZM29.1603 16.0872L32.3226 25.5741L32.3226 25.574L29.1603 16.0872ZM29.1509 16.0904L25.9886 6.60352L25.91 6.62973L25.8318 6.65723L29.1509 16.0904ZM30.5697 15.8041L30.9736 25.7959H30.9736L30.5697 15.8041ZM32.6677 16.0155L34.4715 6.17958L34.4715 6.17958L32.6677 16.0155ZM43.1232 18.5391L40.6502 28.2285L40.6699 28.2335L40.6895 28.2385L43.1232 18.5391ZM55.8713 21.8747L53.0136 31.4577L53.0136 31.4577L55.8713 21.8747ZM59.945 23.6908L66.833 16.4412L66.8325 16.4408L59.945 23.6908ZM59.9542 23.6995L66.9173 16.5221L66.8799 16.4858L66.8421 16.4499L59.9542 23.6995ZM61.4261 30.1672L70.6334 34.0692L70.6334 34.0692L61.4261 30.1672ZM41.6673 32.566L42.6633 22.6158L41.6673 32.566ZM33.2439 31.6572L32.0661 41.5876L32.0661 41.5876L33.2439 31.6572ZM28.4262 30.9611L30.9841 21.2938L30.9573 21.2867L30.9305 21.2797L28.4262 30.9611ZM25.5037 28.6451L33.8831 23.1875L33.8831 23.1875L25.5037 28.6451ZM24.3388 24.8801L14.3395 24.7624L14.3388 24.8213V24.8801H24.3388ZM29.1415 16.0937L25.8224 6.66053H25.8224L29.1415 16.0937ZM37.2088 22.8209L34.8314 32.5342L34.8449 32.5375L34.8584 32.5407L37.2088 22.8209ZM36.5012 22.6477L38.8795 12.9346L38.8795 12.9346L36.5012 22.6477ZM31.39 21.4506L33.089 11.596L33.089 11.596L31.39 21.4506ZM31.0017 21.3995L31.6018 11.4175L28.6565 11.2404L26.0868 12.6906L31.0017 21.3995ZM30.8972 21.4588L35.8586 30.1412L35.8586 30.1412L30.8972 21.4588ZM30.8336 21.4952L34.7009 30.7171L35.2644 30.4808L35.7949 30.1776L30.8336 21.4952ZM30.7659 21.5235L26.8987 12.3016L34.6329 30.7456L30.7659 21.5235ZM30.7652 21.526L37.0471 29.3066L37.0478 29.3061L30.7652 21.526ZM30.4483 21.9834L21.4697 17.5806L21.4697 17.5806L30.4483 21.9834ZM30.0428 23.3924L20.1451 21.9653L20.1451 21.9653L30.0428 23.3924ZM30.0326 24.8915L20.1641 26.5082L20.1641 26.5082L30.0326 24.8915ZM30.1844 25.4197L21.2021 29.8148L23.2384 33.9764L27.7297 35.1137L30.1844 25.4197ZM30.4765 25.4867L32.5548 15.7051L32.5547 15.7051L30.4765 25.4867ZM32.2426 25.7941L30.7311 35.6792H30.7311L32.2426 25.7941ZM38.2984 26.5778L37.1531 36.512L38.2984 26.5778ZM55.1048 28.1743L54.3536 38.1461L54.4173 38.1509L54.481 38.1548L55.1048 28.1743ZM56.0141 28.2312L55.3903 38.2117L60.4502 38.5279L63.696 34.6334L56.0141 28.2312ZM56.0983 28.1301L63.7802 34.5323L63.7905 34.52L63.8007 34.5077L56.0983 28.1301ZM56.0996 28.1285L63.802 34.5061L63.8071 34.4999L56.0996 28.1285ZM56.2602 27.9154L64.5808 33.4623L70.238 24.9761L61.6421 19.4872L56.2602 27.9154ZM55.7855 27.6735L59.7331 18.4857L59.7331 18.4857L55.7855 27.6735ZM54.0425 27.1006L56.6746 17.4532L56.6498 17.4464L56.625 17.4398L54.0425 27.1006ZM37.2152 22.8224L34.8648 32.5423L34.878 32.5455L34.8913 32.5487L37.2152 22.8224ZM21.7209 34.2199L21.7199 44.2199H21.7209V34.2199ZM20.086 34.3266L21.3542 44.2458L21.4686 44.2312L21.5826 44.214L20.086 34.3266ZM22.4013 34.2685L23.3187 24.3107L23.3185 24.3106L22.4013 34.2685ZM22.5098 34.2784L23.4152 24.3195L23.415 24.3195L22.5098 34.2784ZM23.6088 34.3649L24.1971 24.3822L24.196 24.3821L23.6088 34.3649ZM23.6179 34.3654L24.3549 24.3926L24.2806 24.3871L24.2062 24.3827L23.6179 34.3654ZM23.627 34.3661L24.3657 24.3934L24.364 24.3933L23.627 34.3661ZM44.4892 36.1446L43.6346 46.108L43.6346 46.108L44.4892 36.1446ZM54.315 36.9869L53.4622 46.9505L53.4644 46.9506L54.315 36.9869ZM54.3182 36.9872L55.1984 27.026L55.1836 27.0247L55.1688 27.0234L54.3182 36.9872ZM61.3804 37.7004L62.6772 27.7848L62.6772 27.7848L61.3804 37.7004ZM65.5915 38.5694L68.9244 29.1411L68.9244 29.1411L65.5915 38.5694ZM68.1201 40.2399L75.8418 33.8857L75.8418 33.8857L68.1201 40.2399ZM69.4344 42.7608L60.0761 46.2853L60.0775 46.2892L69.4344 42.7608ZM69.435 42.7624L78.7983 39.2512L78.7951 39.2426L78.7918 39.234L69.435 42.7624ZM69.9481 45.3698L79.9465 45.5452V45.5452L69.9481 45.3698ZM69.2185 48.2485L78.3161 52.3999V52.3999L69.2185 48.2485ZM63.3577 56.8691L55.4194 50.7877L55.411 50.7987L55.4026 50.8098L63.3577 56.8691ZM63.3571 56.8699L71.2902 62.9581L71.3013 62.9437L71.3123 62.9292L63.3571 56.8699ZM62.9187 57.4478L54.935 51.4261L54.935 51.4261L62.9187 57.4478ZM61.3469 59.337L68.263 66.5598L68.263 66.5598L61.3469 59.337ZM58.5669 60.7751L56.367 51.0201L56.367 51.0201L58.5669 60.7751ZM53.8893 61.1704L53.6871 51.1725H53.6871L53.8893 61.1704ZM47.6332 61.1989L47.6239 71.1988H47.6239L47.6332 61.1989ZM33.7596 61.0765L34.3178 51.0921H34.3178L33.7596 61.0765ZM31.5093 60.8027L33.8395 51.078L33.8395 51.078L31.5093 60.8027ZM30.09 60.2567L34.6734 51.3689L34.6411 51.3522L34.6087 51.3358L30.09 60.2567ZM28.7816 59.2985L35.2087 51.6375L35.2087 51.6374L28.7816 59.2985ZM26.8894 57.6232L33.6453 50.2504L33.6452 50.2504L26.8894 57.6232ZM21.9224 52.8803L28.9384 45.7546V45.7546L21.9224 52.8803ZM17.1173 48.0024L24.3843 41.1329L24.3843 41.1329L17.1173 48.0024ZM15.43 46.1549L22.993 39.6128L22.993 39.6127L15.43 46.1549ZM14.8633 45.4686L22.7837 39.3639L22.7836 39.3639L14.8633 45.4686ZM14.4646 44.8666L23.4007 40.3783L23.3934 40.3638L23.3861 40.3493L14.4646 44.8666ZM14.7631 38.2672L23.5883 42.9699L23.5883 42.9699L14.7631 38.2672ZM28.8537 40.4725L27.8992 50.4269L27.8997 50.4269L28.8537 40.4725ZM28.8625 40.4734L27.9085 50.4278L27.9809 50.4347L28.0534 50.4406L28.8625 40.4734ZM24.1486 40.0572L23.3294 50.0236H23.3294L24.1486 40.0572ZM22.7847 39.9466L21.9826 49.9144H21.9826L22.7847 39.9466ZM21.6642 39.8536L22.6433 29.9017L22.5889 29.8963L22.5345 29.8916L21.6642 39.8536ZM20.0137 40.3137L13.1171 33.0723L13.1171 33.0723L20.0137 40.3137ZM19.4625 42.3588L28.4515 37.9773L28.4514 37.9772L19.4625 42.3588ZM20.1169 43.2367L27.6259 36.6325L27.6258 36.6324L20.1169 43.2367ZM25.4127 48.4581L18.5221 55.7051L18.5318 55.7143L25.4127 48.4581ZM27.5529 50.4817L20.6878 57.7529L20.6878 57.7529L27.5529 50.4817ZM31.7277 54.4862L24.4536 61.3483L24.6183 61.5229L24.7912 61.6894L31.7277 54.4862ZM32.6814 55.4046L25.745 62.6078L28.3326 65.0996L31.9144 65.3752L32.6814 55.4046ZM34.7296 55.5622L35.5064 45.5924L35.4965 45.5916L34.7296 55.5622ZM47.2952 55.6777L47.2041 45.6781H47.2041L47.2952 55.6777ZM54.3084 55.559L54.027 45.563L54.027 45.563L54.3084 55.559ZM56.6056 55.4718L57.1569 65.4566L57.157 65.4566L56.6056 55.4718ZM57.1797 55.4329L58.0583 65.3942L61.6829 65.0745L64.2545 62.5002L57.1797 55.4329ZM57.3207 55.287L64.6042 62.1391L64.6043 62.139L57.3207 55.287ZM58.1398 54.3508L65.8068 60.7709L65.8068 60.7709L58.1398 54.3508ZM60.4452 51.4458L68.3931 57.5147L68.3931 57.5147L60.4452 51.4458ZM62.7831 48.2689L54.6019 42.5185L54.6019 42.5185L62.7831 48.2689ZM64.1375 46.1808L73.064 50.6884L73.1263 50.5649L73.1852 50.4398L64.1375 46.1808ZM64.1735 44.7258L54.4989 47.2561L54.4989 47.2561L64.1735 44.7258ZM63.6774 43.8069L69.4977 35.6753L68.0069 34.6082L66.2345 34.1394L63.6774 43.8069ZM63.5958 43.787L61.3624 53.5344L61.3626 53.5344L63.5958 43.787ZM63.1005 43.6915L61.4098 53.5475H61.4098L63.1005 43.6915ZM61.3234 43.433L62.6162 33.5169L62.6162 33.5169L61.3234 43.433ZM55.3581 42.758L56.3808 32.8104V32.8104L55.3581 42.758ZM37.7399 41.1893L38.5154 31.2194L38.4722 31.216L38.429 31.2131L37.7399 41.1893ZM32.2376 40.7496L33.0568 30.7832L33.0568 30.7832L32.2376 40.7496ZM28.8713 40.4741L28.0621 50.4413L28.0631 50.4414L28.8713 40.4741ZM57.3871 55.41L58.9716 65.2837L58.9805 65.2823L58.9895 65.2808L57.3871 55.41ZM57.3846 55.4105L55.2216 45.6472L58.9691 65.2841L57.3846 55.4105ZM25.998 6.60037L25.9886 6.60352L32.3131 25.5772L32.3226 25.5741L25.998 6.60037ZM30.1658 5.81225C28.1797 5.89253 26.7108 6.3628 25.998 6.60038L32.3226 25.574C32.4349 25.5366 32.2545 25.6013 31.9782 25.6632C31.6679 25.7328 31.3241 25.7818 30.9736 25.7959L30.1658 5.81225ZM34.4715 6.17958C33.3329 5.97077 31.8265 5.74512 30.1658 5.81225L30.9736 25.7959C30.6714 25.8081 30.4848 25.7892 30.4726 25.7879C30.4655 25.7872 30.4918 25.7898 30.5598 25.7999C30.6278 25.8101 30.7265 25.8263 30.8638 25.8515L34.4715 6.17958ZM45.5962 8.84973C40.1 7.44693 36.6676 6.58233 34.4715 6.17958L30.8638 25.8515C32.2106 26.0985 34.8075 26.7373 40.6502 28.2285L45.5962 8.84973ZM58.7289 12.2917C56.1261 11.5156 52.0251 10.4627 45.5569 8.83977L40.6895 28.2385C47.2998 29.897 50.9234 30.8344 53.0136 31.4577L58.7289 12.2917ZM66.8325 16.4408C64.1411 13.8839 60.7609 12.8977 58.7289 12.2917L53.0136 31.4577C53.5066 31.6047 53.8588 31.7173 54.1145 31.8053C54.3729 31.8943 54.4676 31.9361 54.4592 31.9324C54.446 31.9266 54.2717 31.8494 54.0095 31.6848C53.7303 31.5094 53.3979 31.2641 53.0576 30.9408L66.8325 16.4408ZM66.8421 16.4499L66.833 16.4412L53.0571 30.9403L53.0662 30.949L66.8421 16.4499ZM70.6334 34.0692C73.1605 28.1061 71.7515 21.212 66.9173 16.5221L52.991 30.8768C52.588 30.4858 52.1491 29.82 51.959 28.9107C51.7737 28.0241 51.8671 27.0952 52.2188 26.2652L70.6334 34.0692ZM55.7367 43.7151C62.3005 43.7151 68.125 39.9882 70.6334 34.0692L52.2188 26.2652C52.5685 25.4401 53.1498 24.7673 53.844 24.3183C54.5539 23.8591 55.25 23.7151 55.7367 23.7151V43.7151ZM40.6713 42.5163C46.4526 43.095 53.3662 43.7151 55.7367 43.7151V23.7151C55.7409 23.7151 55.6254 23.7142 55.3377 23.7011C55.0707 23.6888 54.7259 23.6693 54.3022 23.6417C53.4547 23.5865 52.381 23.5047 51.1414 23.4016C48.6664 23.1957 45.6424 22.914 42.6633 22.6158L40.6713 42.5163ZM32.0661 41.5876C34.5272 41.8795 37.5955 42.2084 40.6713 42.5163L42.6633 22.6158C39.6631 22.3154 36.7234 21.9998 34.4217 21.7268L32.0661 41.5876ZM25.8682 40.6284C27.3735 41.0267 30.1238 41.3572 32.0661 41.5876L34.4217 21.7268C33.2921 21.5928 32.3357 21.4718 31.6123 21.3692C31.2494 21.3177 30.9902 21.2772 30.8218 21.2482C30.5891 21.2081 30.7051 21.2199 30.9841 21.2938L25.8682 40.6284ZM17.1243 34.1028C18.5774 36.3338 21.4021 39.4732 25.9218 40.6424L30.9305 21.2797C32.0196 21.5615 32.7513 22.0531 33.148 22.3824C33.5426 22.71 33.7633 23.0036 33.8831 23.1875L17.1243 34.1028ZM14.3388 24.8942C14.3388 28.4621 15.5417 31.6729 17.1243 34.1028L33.8831 23.1875C34.0101 23.3825 34.1083 23.5857 34.1825 23.8169C34.2565 24.0477 34.3388 24.4085 34.3388 24.8942H14.3388ZM14.3388 24.8801V24.8942H34.3388V24.8801H14.3388ZM25.8224 6.66053C16.5712 9.9156 14.4079 18.9416 14.3395 24.7624L34.3381 24.9977C34.3441 24.4864 34.3921 24.138 34.4345 23.9365C34.4773 23.7332 34.4995 23.7481 34.417 23.9083C34.3281 24.0809 34.1242 24.4063 33.7433 24.7529C33.3489 25.1119 32.8949 25.374 32.4605 25.5268L25.8224 6.66053ZM25.8318 6.65723L25.8224 6.66053L32.4605 25.5268L32.4699 25.5235L25.8318 6.65723ZM34.1229 32.3607C34.3495 32.4162 34.5857 32.474 34.8314 32.5342L39.5862 13.1076C39.3415 13.0477 39.1062 12.9901 38.8795 12.9346L34.1229 32.3607ZM29.6909 31.3052C29.6792 31.3032 29.7519 31.3157 29.9619 31.3615C30.1644 31.4056 30.4394 31.4685 30.8188 31.5582C31.5857 31.7396 32.6293 31.995 34.1229 32.3607L38.8795 12.9346C36.1835 12.2745 34.2852 11.8022 33.089 11.596L29.6909 31.3052ZM30.4015 31.3815C30.0043 31.3576 29.7454 31.3146 29.6909 31.3052L33.089 11.596C32.6141 11.5141 32.1178 11.4485 31.6018 11.4175L30.4015 31.3815ZM35.8586 30.1412C35.8828 30.1274 35.8998 30.1178 35.9165 30.1084L26.0868 12.6906C26.0539 12.7092 26.0029 12.7381 25.9358 12.7764L35.8586 30.1412ZM35.7949 30.1776L35.8586 30.1412L25.9359 12.7763L25.8722 12.8127L35.7949 30.1776ZM34.6332 30.7455L34.7009 30.7171L26.9663 12.2732L26.8987 12.3016L34.6332 30.7455ZM37.0478 29.3061C37.0478 29.3061 37.0489 29.3052 37.0501 29.3042C37.0514 29.3031 37.0537 29.3013 37.0565 29.299C37.0616 29.2949 37.0719 29.2865 37.0849 29.276C37.1029 29.2613 37.1672 29.2089 37.248 29.1401C37.2997 29.0962 37.5168 28.912 37.7761 28.6573C37.903 28.5327 38.1663 28.2684 38.4676 27.905C38.6434 27.693 39.4395 26.7446 40.0295 25.2973C40.4868 24.1754 42.294 18.7148 37.6873 14.3014C35.8836 12.5734 33.9223 11.9683 32.8414 11.7394C31.7217 11.5022 30.8029 11.51 30.306 11.5331C29.3241 11.5786 28.5752 11.7627 28.3301 11.8243C27.9946 11.9087 27.7326 11.9934 27.5947 12.0395C27.321 12.1311 27.1114 12.215 27.0562 12.2371C26.9762 12.2691 26.9138 12.2953 26.899 12.3014L34.6329 30.7456C34.6193 30.7513 34.558 30.777 34.4789 30.8087C34.4245 30.8304 34.2156 30.914 33.9425 31.0054C33.8049 31.0515 33.5431 31.1361 33.2078 31.2204C32.9629 31.282 32.2142 31.4661 31.2325 31.5116C30.7356 31.5346 29.8169 31.5425 28.6971 31.3053C27.6163 31.0763 25.6551 30.4713 23.8514 28.7433C19.2447 24.3299 21.0519 18.8694 21.5092 17.7476C22.0991 16.3004 22.8952 15.3521 23.0709 15.1402C23.372 14.7769 23.6352 14.5128 23.7619 14.3884C24.0208 14.1341 24.2374 13.9504 24.2884 13.907C24.4096 13.8039 24.5307 13.7071 24.4827 13.7459L37.0478 29.3061ZM39.4268 26.3863C39.2326 26.7823 38.9342 27.2966 38.4898 27.8562C38.2662 28.1377 38.0146 28.4194 37.7336 28.6953C37.5933 28.8329 37.4547 28.9603 37.3199 29.0778C37.2531 29.1359 37.1924 29.1872 37.1397 29.2308C37.1139 29.2523 37.0917 29.2705 37.0745 29.2844C37.0586 29.2973 37.0456 29.3078 37.0471 29.3066L24.4834 13.7453C23.2978 14.7025 22.2598 15.9694 21.4697 17.5806L39.4268 26.3863ZM39.9404 24.8195C39.9164 24.9862 39.8775 25.1801 39.8121 25.4055C39.7507 25.6174 39.6367 25.9584 39.4268 26.3863L21.4697 17.5806C20.7329 19.083 20.3376 20.6306 20.1451 21.9653L39.9404 24.8195ZM39.901 23.2747C39.9714 23.7042 39.9832 24.034 39.9821 24.2431C39.9808 24.4634 39.9645 24.6528 39.9404 24.8195L20.1451 21.9653C19.9517 23.3071 19.8982 24.8849 20.1641 26.5082L39.901 23.2747ZM39.1668 21.0245C39.6166 21.9439 39.8134 22.7401 39.901 23.2747L20.1641 26.5082C20.338 27.5692 20.656 28.6989 21.2021 29.8148L39.1668 21.0245ZM32.5547 15.7051C32.5452 15.7031 32.5471 15.7034 32.5595 15.7062C32.5713 15.709 32.5986 15.7154 32.6391 15.7256L27.7297 35.1137C27.9581 35.1715 28.1839 35.2229 28.3982 35.2684L32.5547 15.7051ZM33.7542 15.909C33.0618 15.8031 32.6877 15.7333 32.5548 15.7051L28.3982 35.2684C29.0905 35.4155 29.9062 35.553 30.7311 35.6792L33.7542 15.909ZM39.4437 16.6436C37.0497 16.3676 35.0907 16.1133 33.7542 15.909L30.7311 35.6792C32.4187 35.9372 34.6537 36.2239 37.1531 36.512L39.4437 16.6436ZM55.856 18.2026C50.3173 17.7853 44.2044 17.1925 39.4437 16.6436L37.1531 36.512C42.1693 37.0903 48.545 37.7085 54.3536 38.1461L55.856 18.2026ZM56.6379 18.2506L55.7286 18.1938L54.481 38.1548L55.3903 38.2117L56.6379 18.2506ZM48.4164 21.7279L48.3322 21.8289L63.696 34.6334L63.7802 34.5323L48.4164 21.7279ZM48.3972 21.751L48.3959 21.7526L63.8007 34.5077L63.802 34.5061L48.3972 21.751ZM47.9396 22.3685C48.1123 22.1094 48.2694 21.9056 48.3922 21.7571L63.8071 34.4999C64.0736 34.1776 64.3341 33.8324 64.5808 33.4623L47.9396 22.3685ZM51.8378 36.8613C51.6791 36.7931 51.3304 36.6323 50.8783 36.3436L61.6421 19.4872C60.9959 19.0745 60.3459 18.749 59.7331 18.4857L51.8378 36.8613ZM51.4104 36.7479C51.6689 36.8185 51.8312 36.8685 51.9189 36.8973C52.0133 36.9284 51.9712 36.9186 51.8378 36.8613L59.7331 18.4857C58.7007 18.0421 57.622 17.7117 56.6746 17.4532L51.4104 36.7479ZM34.8913 32.5487C40.1505 33.8053 46.717 35.4935 51.46 36.7613L56.625 17.4398C51.7615 16.1397 45.0162 14.4049 39.5392 13.0962L34.8913 32.5487ZM34.8584 32.5407L34.8648 32.5423L39.5657 13.1026L39.5593 13.101L34.8584 32.5407ZM21.7218 24.2199C21.5021 24.2199 20.1081 24.2093 18.5894 24.4392L21.5826 44.214C21.5455 44.2196 21.5195 44.2228 21.5056 44.2244C21.4916 44.2261 21.4851 44.2266 21.4865 44.2265C21.4914 44.226 21.5108 44.2245 21.5434 44.2231C21.5746 44.2217 21.6061 44.2208 21.6346 44.2204C21.6615 44.22 21.6812 44.2199 21.7199 44.2199L21.7218 24.2199ZM21.7284 24.2199H21.7209V44.2199H21.7284V24.2199ZM23.3185 24.3106C23.209 24.3006 23.0041 24.2815 22.8023 24.2658C22.6745 24.2558 22.2271 24.2199 21.7284 24.2199V44.2199C21.6072 44.2199 21.5116 44.2174 21.4524 44.2154C21.3906 44.2133 21.3432 44.2109 21.3147 44.2094C21.2612 44.2065 21.2343 44.2042 21.2479 44.2053C21.2582 44.2061 21.282 44.208 21.326 44.2119C21.3705 44.2159 21.4185 44.2203 21.4842 44.2263L23.3185 24.3106ZM23.415 24.3195C23.3868 24.3169 23.3567 24.3141 23.3187 24.3107L21.484 44.2263C21.5197 44.2296 21.5622 44.2335 21.6046 44.2374L23.415 24.3195ZM24.196 24.3821C23.9846 24.3697 23.7344 24.3485 23.4152 24.3195L21.6044 44.2374C21.9383 44.2677 22.4647 44.3149 23.0216 44.3476L24.196 24.3821ZM24.2062 24.3827L24.1971 24.3822L23.0206 44.3476L23.0296 44.3481L24.2062 24.3827ZM24.364 24.3933L24.3549 24.3926L22.8809 44.3382L22.89 44.3389L24.364 24.3933ZM45.3439 26.1812C35.8062 25.363 25.3894 24.4692 24.3657 24.3934L22.8883 44.3388C23.7576 44.4032 33.9608 45.2782 43.6346 46.108L45.3439 26.1812ZM55.1677 27.0233C52.3247 26.78 48.8828 26.4847 45.3439 26.1812L43.6346 46.108C47.1728 46.4115 50.6169 46.7069 53.4622 46.9505L55.1677 27.0233ZM55.1688 27.0234L55.1655 27.0231L53.4644 46.9506L53.4677 46.9509L55.1688 27.0234ZM62.6772 27.7848C60.6384 27.5182 58.132 27.2852 55.1984 27.026L53.4381 46.9484C56.4278 47.2125 58.5252 47.4122 60.0836 47.616L62.6772 27.7848ZM68.9244 29.1411C66.8377 28.4035 64.6167 28.0385 62.6772 27.7848L60.0836 47.616C60.8437 47.7154 61.384 47.8041 61.7734 47.8831C62.1669 47.9628 62.2956 48.0107 62.2586 47.9976L68.9244 29.1411ZM75.8418 33.8857C73.808 31.4142 71.3191 29.9876 68.9244 29.1411L62.2586 47.9976C62.205 47.9787 61.9246 47.8741 61.5404 47.6218C61.1332 47.3544 60.7358 47.004 60.3985 46.5941L75.8418 33.8857ZM78.7927 39.2363C78.42 38.2467 77.5775 35.995 75.8418 33.8857L60.3985 46.5941C60.0908 46.2203 59.9422 45.9302 59.913 45.8713C59.898 45.8412 59.9048 45.8519 59.9351 45.9247C59.9664 45.9998 60.0098 46.1094 60.0761 46.2853L78.7927 39.2363ZM78.7918 39.234L78.7912 39.2324L60.0775 46.2892L60.0781 46.2908L78.7918 39.234ZM79.9465 45.5452C79.9929 42.9042 79.3604 40.7502 78.7983 39.2512L60.0717 46.2736C60.1403 46.4566 59.9358 45.9816 59.9496 45.1944L79.9465 45.5452ZM78.3161 52.3999C79.1844 50.497 79.8999 48.2039 79.9465 45.5452L59.9496 45.1943C59.9562 44.8191 60.01 44.5076 60.0658 44.2899C60.1179 44.0867 60.1597 44.0122 60.1209 44.0972L78.3161 52.3999ZM71.296 62.9505C74.207 59.1507 76.8457 55.6222 78.3161 52.3999L60.1209 44.0972C59.777 44.8509 58.7027 46.5019 55.4194 50.7877L71.296 62.9505ZM71.3123 62.9292L71.3129 62.9284L55.4026 50.8098L55.4019 50.8106L71.3123 62.9292ZM70.9023 63.4695C71.0483 63.276 71.1692 63.1158 71.2902 62.9581L55.424 50.7818C55.244 51.0163 55.0736 51.2423 54.935 51.4261L70.9023 63.4695ZM68.263 66.5598C69.491 65.3839 70.4926 64.0128 70.9024 63.4695L54.935 51.4261C54.7934 51.6138 54.6857 51.7565 54.5843 51.8886C54.4854 52.0174 54.415 52.1067 54.3624 52.1715C54.2446 52.3166 54.2802 52.2586 54.4309 52.1142L68.263 66.5598ZM60.7668 70.5301C63.5857 69.8944 66.0934 68.6372 68.263 66.5598L54.4309 52.1142C54.666 51.8891 55.0272 51.6047 55.4924 51.3616C55.9393 51.1279 56.2754 51.0407 56.367 51.0201L60.7668 70.5301ZM54.0915 71.1684C56.163 71.1265 58.5493 71.0302 60.7669 70.5301L56.367 51.0201C56.4184 51.0085 56.2691 51.0456 55.7779 51.0849C55.2929 51.1237 54.6307 51.1534 53.6871 51.1725L54.0915 71.1684ZM47.6239 71.1988C50.1766 71.2012 52.341 71.2038 54.0915 71.1684L53.6871 51.1725C52.1971 51.2026 50.2785 51.2013 47.6426 51.1989L47.6239 71.1988ZM45.3057 71.1974C46.122 71.1974 46.8924 71.1982 47.6239 71.1988L47.6426 51.1989C46.912 51.1982 46.1327 51.1974 45.3057 51.1974V71.1974ZM33.2015 71.0609C35.514 71.1902 39.2149 71.1974 45.3057 71.1974V51.1974C38.9066 51.1974 35.9243 51.1819 34.3178 51.0921L33.2015 71.0609ZM29.1791 70.5274C30.6134 70.8711 32.0059 70.9941 33.2015 71.0609L34.3178 51.0921C33.9602 51.0721 33.767 51.053 33.6786 51.0424C33.5965 51.0325 33.6695 51.0373 33.8395 51.078L29.1791 70.5274ZM25.5065 69.1444C26.2701 69.5382 27.4865 70.1219 29.1791 70.5274L33.8395 51.078C34.0396 51.1259 34.2562 51.195 34.4649 51.2791C34.6527 51.3547 34.7604 51.4137 34.6734 51.3689L25.5065 69.1444ZM22.3545 66.9596C22.6539 67.2108 24.0126 68.3879 25.5713 69.1775L34.6087 51.3358C34.7918 51.4286 34.9388 51.5118 35.0447 51.5745C35.1521 51.638 35.2365 51.6918 35.2952 51.7304C35.4075 51.8042 35.4707 51.8518 35.4736 51.8539C35.4801 51.8588 35.4605 51.8443 35.4091 51.8029C35.359 51.7624 35.2938 51.7088 35.2087 51.6375L22.3545 66.9596ZM20.1335 64.996C20.9054 65.7033 21.6726 66.3875 22.3545 66.9596L35.2087 51.6374C34.8441 51.3316 34.3172 50.8661 33.6453 50.2504L20.1335 64.996ZM14.9065 60.0061C16.7067 61.7786 18.5732 63.5663 20.1335 64.996L33.6452 50.2504C32.3142 49.0307 30.6284 47.4186 28.9384 45.7546L14.9065 60.0061ZM9.85028 54.8719C11.2947 56.3999 13.1064 58.2337 14.9065 60.0061L28.9384 45.7546C27.2482 44.0905 25.615 42.4348 24.3843 41.1329L9.85028 54.8719ZM7.86686 52.697C8.44447 53.3648 9.13625 54.1166 9.85028 54.8719L24.3843 41.1329C23.7626 40.4751 23.2961 39.9631 22.993 39.6128L7.86686 52.697ZM6.94291 51.5734C7.25607 51.9797 7.58201 52.3677 7.86688 52.6971L22.993 39.6127C22.9215 39.5301 22.8675 39.4661 22.8288 39.4192C22.7888 39.3709 22.7759 39.3539 22.7837 39.3639L6.94291 51.5734ZM5.52838 49.3549C6.09046 50.4739 6.75355 51.3277 6.94295 51.5734L22.7836 39.3639C22.7838 39.3641 22.7871 39.3684 22.7928 39.376C22.7986 39.3836 22.8075 39.3955 22.8189 39.4111C22.8409 39.441 22.8781 39.4926 22.9253 39.5622C23.0042 39.6784 23.1924 39.9635 23.4007 40.3783L5.52838 49.3549ZM5.9379 33.5644C3.79004 37.5952 2.62352 43.6179 5.543 49.3838L23.3861 40.3493C23.7657 41.0989 23.8217 41.7776 23.7933 42.1923C23.767 42.5759 23.6694 42.8178 23.5883 42.9699L5.9379 33.5644ZM18.8177 24.4073C12.4281 25.2243 8.08988 29.526 5.9379 33.5644L23.5883 42.9699C23.5071 43.1222 23.3615 43.3364 23.0619 43.5692C22.7373 43.8215 22.1587 44.143 21.3542 44.2458L18.8177 24.4073ZM27.8997 50.4269L27.9085 50.4278L29.8165 30.519L29.8077 30.5182L27.8997 50.4269ZM23.3294 50.0236C24.609 50.1288 26.232 50.267 27.8992 50.4269L29.8083 30.5182C28.0137 30.3461 26.2907 30.1996 24.9677 30.0908L23.3294 50.0236ZM21.9826 49.9144C22.3684 49.9454 22.8232 49.982 23.3294 50.0236L24.9677 30.0908C24.4424 30.0477 23.9718 30.0098 23.5868 29.9788L21.9826 49.9144ZM20.6851 49.8056C20.957 49.8323 21.4895 49.8747 21.9826 49.9144L23.5868 29.9788C23.3008 29.9558 23.0703 29.9372 22.8916 29.9225C22.8027 29.9152 22.7349 29.9095 22.6851 29.9052C22.6278 29.9003 22.6214 29.8995 22.6433 29.9017L20.6851 49.8056ZM26.9102 47.5551C24.7952 49.5694 22.3159 49.9486 20.794 49.8157L22.5345 29.8916C19.4254 29.62 15.8893 30.4321 13.1171 33.0723L26.9102 47.5551ZM29.4037 42.0882C29.4037 43.2817 28.9821 45.5818 26.9102 47.5551L13.1171 33.0723C10.3755 35.6834 9.40369 39.1046 9.40369 42.0882H29.4037ZM28.4514 37.9772C28.6169 38.3166 28.9768 39.1032 29.2021 40.1792C29.4111 41.1776 29.4037 41.972 29.4037 42.0882H9.40369C9.40369 42.3205 9.40063 43.1988 9.62653 44.2778C9.86869 45.4343 10.258 46.2983 10.4735 46.7404L28.4514 37.9772ZM27.6258 36.6324C27.564 36.5622 27.63 36.6311 27.7607 36.8114C27.8847 36.9826 28.1627 37.3847 28.4515 37.9773L10.4735 46.7403C11.1379 48.1035 12.0092 49.1601 12.608 49.8409L27.6258 36.6324ZM32.3033 41.2111C29.2394 38.2978 28.085 37.1545 27.6259 36.6325L12.608 49.8409C13.7995 51.1956 15.7418 53.0616 18.5221 55.7051L32.3033 41.2111ZM34.4179 43.2105C33.7193 42.5508 32.9994 41.8712 32.2936 41.2019L18.5318 55.7143C19.2561 56.4012 19.9918 57.0958 20.6878 57.7529L34.4179 43.2105ZM39.0017 47.6241C38.1989 46.7731 36.1744 44.8688 34.4179 43.2105L20.6878 57.7529C21.6612 58.6719 22.5462 59.5076 23.2556 60.1849C23.6099 60.5232 23.9021 60.8046 24.1282 61.0256C24.3798 61.2716 24.4655 61.3609 24.4536 61.3483L39.0017 47.6241ZM39.6178 48.2014L38.6641 47.283L24.7912 61.6894L25.745 62.6078L39.6178 48.2014ZM47.2041 45.6781C41.7832 45.7275 36.7421 45.6887 35.5064 45.5924L33.9527 65.532C36.2565 65.7115 42.311 65.7235 47.3863 65.6773L47.2041 45.6781ZM54.027 45.563C52.2186 45.6139 49.7763 45.6547 47.2041 45.6781L47.3863 65.6773C50.0327 65.6532 52.611 65.6108 54.5897 65.5551L54.027 45.563ZM56.0543 45.487C55.6245 45.5108 54.9435 45.5372 54.027 45.563L54.5897 65.5551C55.5694 65.5275 56.4596 65.4951 57.1569 65.4566L56.0543 45.487ZM56.3012 45.4715C56.3129 45.4705 56.2984 45.4719 56.2507 45.4751C56.2051 45.4782 56.1403 45.4823 56.0542 45.487L57.157 65.4566C57.4529 65.4403 57.7642 65.4201 58.0583 65.3942L56.3012 45.4715ZM50.0373 48.4349C50.0398 48.4322 50.0631 48.4074 50.105 48.3655L64.2545 62.5002C64.3767 62.3779 64.4938 62.2564 64.6042 62.1391L50.0373 48.4349ZM50.4728 47.9308C50.3448 48.0836 50.2407 48.2051 50.1602 48.2971C50.1205 48.3425 50.0897 48.3771 50.0673 48.4019C50.0446 48.4271 50.0349 48.4373 50.0372 48.4349L64.6043 62.139C65.0062 61.7117 65.4241 61.2279 65.8068 60.7709L50.4728 47.9308ZM52.4973 45.3769C51.7226 46.3915 51.0002 47.301 50.4728 47.9308L65.8068 60.7709C66.5898 59.8358 67.508 58.6738 68.3931 57.5147L52.4973 45.3769ZM54.6019 42.5185C54.0168 43.3509 53.2664 44.3697 52.4973 45.3769L68.3931 57.5147C69.2826 56.3498 70.1947 55.1143 70.9643 54.0194L54.6019 42.5185ZM55.2111 41.6732C55.3185 41.4604 55.3903 41.3444 55.3709 41.3768C55.3643 41.3879 55.3299 41.4442 55.2591 41.5535C55.117 41.7727 54.8987 42.0962 54.6019 42.5185L70.9643 54.0194C71.5986 53.117 72.5025 51.8003 73.064 50.6884L55.2111 41.6732ZM54.4989 47.2561C54.3292 46.607 54.2462 45.9055 54.2763 45.157C54.3021 44.5157 54.4306 43.3222 55.0898 41.9218L73.1852 50.4398C74.6197 47.3925 74.3962 44.2912 73.8481 42.1955L54.4989 47.2561ZM57.857 51.9386C57.1264 51.4157 56.6124 50.8939 56.2889 50.5284C55.9314 50.1244 55.643 49.7255 55.4111 49.3518C54.9419 48.5956 54.6601 47.8726 54.4989 47.2561L73.8481 42.1955C73.2878 40.0532 72.0108 37.4741 69.4977 35.6753L57.857 51.9386ZM61.3626 53.5344C61.2936 53.5186 61.2122 53.4988 61.1202 53.4744L66.2345 34.1394C66.1062 34.1055 65.9715 34.0722 65.829 34.0395L61.3626 53.5344ZM61.4098 53.5475C61.4352 53.5519 61.4544 53.5553 61.4677 53.5577C61.4812 53.5601 61.4871 53.5613 61.4863 53.5611C61.4857 53.561 61.4753 53.559 61.4566 53.5551C61.4383 53.5513 61.4061 53.5444 61.3624 53.5344L65.8293 34.0396C65.4615 33.9553 65.0968 33.8878 64.7911 33.8354L61.4098 53.5475ZM60.0307 53.3491C60.7243 53.4395 61.1702 53.5064 61.4098 53.5475L64.7911 33.8354C64.1659 33.7282 63.4168 33.6213 62.6162 33.5169L60.0307 53.3491ZM54.3353 52.7056C56.7243 52.9512 58.6689 53.1715 60.0307 53.3491L62.6162 33.5169C60.995 33.3055 58.8469 33.064 56.3808 32.8104L54.3353 52.7056ZM36.9644 51.1592C43.316 51.6532 49.579 52.2165 54.3353 52.7056L56.3808 32.8104C51.4341 32.3018 45.004 31.7241 38.5154 31.2194L36.9644 51.1592ZM31.4184 50.7159C33.763 50.9087 36.0121 51.0938 37.0508 51.1655L38.429 31.2131C37.5584 31.1529 35.4937 30.9835 33.0568 30.7832L31.4184 50.7159ZM28.0631 50.4414C29.165 50.5307 30.3134 50.6251 31.4185 50.7159L33.0568 30.7832C31.9538 30.6925 30.7943 30.5972 29.6794 30.5068L28.0631 50.4414ZM28.0534 50.4406L28.0621 50.4413L29.6804 30.5069L29.6716 30.5062L28.0534 50.4406ZM55.8027 45.5364L55.8001 45.5368L58.9691 65.2841L58.9716 65.2837L55.8027 45.5364ZM59.5475 65.1737C59.4524 65.1948 59.3316 65.22 59.1898 65.2458C59.1253 65.2576 59.0102 65.2779 58.8653 65.2993C58.7989 65.3091 58.6635 65.3285 58.4914 65.3473C58.4071 65.3565 58.2568 65.3719 58.0684 65.3845C57.96 65.3917 57.4913 65.424 56.8928 65.3933C56.6658 65.3816 55.8601 65.3396 54.8661 65.0786C54.3914 64.9539 53.3344 64.6448 52.1539 63.9163C51.0252 63.2197 48.6913 61.4454 47.7609 58.0473C46.7698 54.4276 48.0377 51.4897 48.989 50.0069C49.8775 48.6218 50.8932 47.7982 51.328 47.4655C52.2496 46.7601 53.083 46.3863 53.2894 46.2931C53.8734 46.0293 54.3548 45.8828 54.4551 45.8518C54.6418 45.7941 54.7925 45.7537 54.8754 45.732C55.1611 45.6573 55.388 45.6122 55.4288 45.604C55.5918 45.5712 55.72 45.5498 55.7848 45.5393L58.9895 65.2808C59.068 65.2681 59.206 65.2449 59.3751 65.2108C59.419 65.202 59.648 65.1565 59.9349 65.0814C60.0181 65.0597 60.1691 65.0192 60.356 64.9614C60.4566 64.9304 60.9381 64.7838 61.5222 64.52C61.7287 64.4267 62.5621 64.0529 63.4837 63.3475C63.9185 63.0148 64.9342 62.1911 65.8228 60.8061C66.774 59.3233 68.042 56.3853 67.0509 52.7656C66.1204 49.3675 63.7865 47.5933 62.6578 46.8966C61.4773 46.1681 60.4203 45.859 59.9455 45.7343C58.9515 45.4733 58.1458 45.4313 57.9187 45.4196C57.3201 45.3889 56.8513 45.4212 56.7427 45.4284C56.5541 45.441 56.4035 45.4564 56.3189 45.4657C56.1462 45.4845 56.0099 45.5041 55.9425 45.514C55.7955 45.5357 55.6776 45.5565 55.6094 45.5689C55.4605 45.596 55.3295 45.6233 55.2216 45.6472L59.5475 65.1737ZM35.4965 45.5916L33.4484 45.4341L31.9144 65.3752L33.9626 65.5327L35.4965 45.5916Z" fill="#59D89D" mask="url(#path-3-inside-1_14_1206)"/>
</svg>
