<svg width="82" height="82" viewBox="0 0 82 82" fill="none" xmlns="http://www.w3.org/2000/svg">
<path d="M48.9891 66.5723C48.9891 64.1533 50.9571 62.1794 53.382 62.1794C55.8069 62.1794 57.7749 64.1533 57.7749 66.5723C57.7749 68.9913 55.8069 70.9651 53.382 70.9651C50.9571 70.9651 48.9891 68.9913 48.9891 66.5723ZM29.9534 62.1794C27.5286 62.1794 25.5606 64.1533 25.5606 66.5723C25.5606 68.9913 27.5286 70.9651 29.9534 70.9651C32.3783 70.9651 34.3463 68.9913 34.3463 66.5723C34.3463 64.1533 32.3783 62.1794 29.9534 62.1794ZM16.5757 47.2964C15.7791 46.2011 14.5433 45.4339 13.079 45.4339C10.6541 45.4339 8.68614 47.4077 8.68614 49.8267C8.68614 52.2457 10.6541 54.2196 13.079 54.2196C15.5039 54.2196 17.4719 52.2457 17.4719 49.8267C17.4719 49.3347 17.343 48.8837 17.1907 48.4444L16.5757 47.2964ZM45.7853 13.7526C45.7853 11.3336 43.8173 9.35971 41.3924 9.35971C38.9676 9.35971 36.9996 11.3336 36.9996 13.7526C36.9996 16.1716 38.9676 18.1454 41.3924 18.1454C43.8173 18.1454 45.7853 16.1716 45.7853 13.7526ZM68.8683 45.4339C67.404 45.4339 66.174 46.2011 65.3716 47.2964L64.7566 48.4386C64.6101 48.8779 64.4754 49.3289 64.4754 49.8209C64.4754 52.2399 66.4434 54.2137 68.8683 54.2137C71.2931 54.2137 73.2611 52.2399 73.2611 49.8209C73.2611 47.4019 71.2931 45.4339 68.8683 45.4339ZM82 41C82 63.6379 63.6437 82 41 82C18.3621 82 0 63.6379 0 41C0 18.3563 18.3621 0 41 0C63.6437 0 82 18.3563 82 41ZM77.654 49.8267C77.654 44.977 73.718 41.041 68.8683 41.041C66.707 41.041 64.7507 41.8551 63.222 43.1496C58.1907 40.5021 51.496 37.0933 49.3406 36.1679C46.9099 35.1253 45.4573 33.1514 44.5611 31.1717C44.1921 29.0924 44.0516 26.732 44.0867 25.1213V22.0756C47.6127 20.9334 50.1781 17.6593 50.1781 13.7526C50.1781 8.90286 46.2421 4.96686 41.3924 4.96686C36.5427 4.96686 32.6067 8.90286 32.6067 13.7526C32.6067 17.6827 35.2014 20.9686 38.7684 22.0931V25.1271C38.7509 25.3029 38.7743 25.5664 38.7684 25.7831C38.6396 27.5169 37.7903 33.948 32.6067 36.1679C30.4513 37.0933 23.7624 40.5021 18.7311 43.1496C17.1966 41.8493 15.2403 41.041 13.079 41.041C8.22929 41.041 4.29329 44.977 4.29329 49.8267C4.29329 54.6764 8.22929 58.6124 13.079 58.6124C17.9287 58.6124 21.8647 54.6764 21.8647 49.8267C21.8647 48.7431 21.6421 47.724 21.2849 46.7693C26.0467 44.2741 32.0971 41.1874 34.1881 40.2737C33.21 41.9781 32.2553 43.6826 31.6871 44.772C29.1569 49.6569 29.3794 55.8889 29.3911 56.0646V57.851C24.805 58.1497 21.1677 61.9217 21.1677 66.5781C21.1677 71.4279 25.1037 75.3639 29.9534 75.3639C34.8031 75.3639 38.7391 71.4279 38.7391 66.5781C38.7391 63.1049 36.7067 60.1353 33.784 58.7061V55.9709C33.7196 54.5066 33.9246 49.9907 35.588 46.7986C36.8883 44.2917 40.4787 38.1417 41.1757 37.0816C41.328 36.8473 41.4451 36.5544 41.574 36.2909C41.7146 36.5661 41.8376 36.8649 41.9957 37.105C42.6986 38.1417 46.3359 44.28 47.6596 46.7927C49.6627 50.6233 49.4811 55.9181 49.4753 56.0587V58.7471C46.5994 60.188 44.6021 63.1341 44.6021 66.5723C44.6021 71.422 48.5381 75.358 53.3879 75.358C58.2376 75.358 62.1736 71.422 62.1736 66.5723C62.1736 61.8866 58.4894 58.0911 53.8681 57.8334V56.1524C53.8799 55.8889 54.1141 49.6569 51.5487 44.7544C51.086 43.87 50.3187 42.517 49.4929 41.0879C52.2809 42.4291 56.8611 44.7779 60.6566 46.7693C60.2993 47.724 60.0767 48.749 60.0767 49.8267C60.0767 54.6764 64.0127 58.6124 68.8624 58.6124C73.7121 58.6124 77.654 54.6764 77.654 49.8267Z" fill="url(#paint0_linear_154_156)"/>
<defs>
<linearGradient id="paint0_linear_154_156" x1="0" y1="48.5851" x2="82" y2="48.5851" gradientUnits="userSpaceOnUse">
<stop stop-color="#BB6CE6"/>
<stop offset="1" stop-color="#FFCD1D"/>
</linearGradient>
</defs>
</svg>
