<svg width="82" height="82" viewBox="0 0 82 82" fill="none" xmlns="http://www.w3.org/2000/svg">
<path d="M82 41C82 63.6437 63.6437 82 41 82C18.3563 82 0 63.6437 0 41C0 18.3563 18.3563 0 41 0C63.6437 0 82 18.3563 82 41Z" fill="url(#paint0_linear_154_198)"/>
<path d="M29.5396 17.2256C26.9675 18.1306 25.5862 20.8456 25.5386 24.8942C25.5386 27.0376 27.0628 29.3715 28.7298 29.8002C30.8732 30.3718 52.4024 32.5151 55.7365 32.5151C60.2615 32.5151 62.3096 27.6568 59.1183 24.5608C58.1657 23.6558 55.9271 22.989 42.8286 19.7024C31.4448 16.797 30.9685 16.7493 29.5396 17.2256ZM37.4939 21.6553C42.8762 22.9413 49.5445 24.6561 54.3553 25.9421C57.4989 26.7994 58.1657 27.5139 57.0226 28.8952L56.5463 29.4668L55.0221 29.3715C43.6383 28.5142 29.9682 26.9423 29.4443 26.4184C28.2059 25.2753 28.8251 21.0361 30.3017 20.4169C30.9685 20.0359 30.6827 19.9882 37.4939 21.6553Z" fill="#08021F"/>
<path d="M20.2516 35.5152C16.4411 35.9915 13.8214 40.9451 15.5362 44.3269C16.2983 45.8511 29.0157 58.378 30.6351 59.1877C32.1117 59.9498 32.7785 59.9975 45.3055 59.9975C60.3092 59.9975 59.2613 60.2356 62.4049 56.1394C68.6446 47.9945 69.4543 46.2321 68.3112 43.1838C66.9299 39.5162 66.0725 39.2304 54.2124 38.1825C43.6384 37.2775 24.8242 35.6581 23.5381 35.5628C22.7284 35.5152 21.9187 35.4199 21.7282 35.4199C21.5377 35.4199 20.8708 35.4199 20.2516 35.5152ZM28.9681 39.278C32.4928 39.5638 36.4461 39.8972 37.8274 39.9925C50.6877 40.9927 63.2623 42.2788 64.1673 42.7074C65.2628 43.2314 65.8344 45.4224 65.2152 46.7084C64.3102 48.5184 58.4516 56.187 57.6895 56.568C57.0703 56.8538 38.3037 57.0443 34.6361 56.7586L32.1593 56.568L30.8733 55.3296C30.2065 54.6152 27.3486 51.9478 24.586 49.3281C18.7751 43.803 18.2035 43.1361 18.2035 42.0882C18.2035 39.802 19.6324 38.4683 21.7758 38.6588C22.2521 38.7065 25.491 38.9446 28.9681 39.278Z" fill="#08021F"/>
<path fill-rule="evenodd" clip-rule="evenodd" d="M29.1507 16.0901L29.1601 16.087C29.5549 15.9554 29.9783 15.8278 30.5695 15.8039C31.1257 15.7814 31.7776 15.8521 32.6675 16.0153C34.4389 16.3402 37.4535 17.0919 43.123 18.5389C49.6623 20.1797 53.5246 21.1748 55.8711 21.8745C58.1539 22.5552 59.2304 23.0119 59.9448 23.6906L59.954 23.6992C61.8968 25.5841 62.3026 28.0984 61.4259 30.167C60.5513 32.2307 58.4604 33.7149 55.7365 33.7149C53.9941 33.7149 47.7034 33.17 41.6671 32.5658C38.6291 32.2617 35.6251 31.9394 33.2437 31.657C30.9255 31.382 29.0715 31.1317 28.426 30.9609C27.1992 30.6435 26.1853 29.6916 25.5035 28.6449C24.8076 27.5764 24.3386 26.233 24.3386 24.894V24.8799C24.3885 20.6361 25.8568 17.2491 29.1413 16.0934L29.1507 16.0901ZM28.7298 29.8C30.8732 30.3715 52.4024 32.5149 55.7365 32.5149C60.2615 32.5149 62.3096 27.6566 59.1183 24.5606C58.1657 23.6556 55.9271 22.9888 42.8286 19.7022C31.4448 16.7967 30.9685 16.7491 29.5396 17.2254C26.9675 18.1304 25.5862 20.8454 25.5386 24.894C25.5386 27.0374 27.0628 29.3713 28.7298 29.8ZM37.2086 22.8207C36.9634 22.7607 36.7276 22.7029 36.501 22.6474C33.5484 21.9245 32.1416 21.58 31.3898 21.4504C31.1796 21.4142 31.0608 21.4029 31.0015 21.3993C30.9767 21.4133 30.9426 21.4325 30.897 21.4586L30.8334 21.495L30.7657 21.5233C30.7706 21.5213 30.7702 21.5216 30.765 21.5258C30.7408 21.5454 30.6117 21.6496 30.4481 21.9832C30.2686 22.3492 30.1212 22.8469 30.0426 23.3922C29.9641 23.9366 29.9629 24.4673 30.0324 24.8913C30.0755 25.1544 30.1361 25.3212 30.1842 25.4194C30.2605 25.4388 30.3571 25.4612 30.4763 25.4865C30.8889 25.5742 31.4838 25.6779 32.2424 25.7939C33.7545 26.0251 35.8515 26.2955 38.2982 26.5776C43.1867 27.1412 49.4309 27.7467 55.1046 28.1741L56.0139 28.2309L56.0981 28.1299C56.0986 28.1294 56.099 28.1288 56.0994 28.1283C56.1713 28.0414 56.223 27.9707 56.26 27.9152C56.1629 27.8532 56.0123 27.7708 55.7853 27.6733C55.3736 27.4964 54.8045 27.3083 54.0423 27.1003C49.2391 25.8163 42.5831 24.1049 37.215 22.8222L37.2086 22.8207ZM54.3553 25.9419C57.4989 26.7992 58.1657 27.5137 57.0226 28.895L56.5463 29.4666L55.0221 29.3713C43.6383 28.5139 29.9682 26.9421 29.4443 26.4182C28.2059 25.275 28.8251 21.0359 30.3017 20.4167C30.3261 20.4027 30.3492 20.3892 30.3715 20.3762C30.4394 20.3366 30.4991 20.3018 30.5618 20.2736C31.0177 20.0692 31.6329 20.2198 36.7205 21.4657L37.4939 21.6551C42.8762 22.9411 49.5445 24.6558 54.3553 25.9419ZM62.4049 56.1391C62.233 56.3631 62.0737 56.5742 61.9235 56.773C61.216 57.7099 60.7132 58.3757 60.0689 58.8484C58.4874 60.0087 56.053 60.0065 47.6436 59.9986C46.9107 59.998 46.1325 59.9972 45.3055 59.9972C32.7785 59.9972 32.1117 59.9496 30.6351 59.1875C29.0157 58.3778 16.2983 45.8509 15.5362 44.3267C13.8215 40.9449 16.4411 35.9913 20.2516 35.515C20.8708 35.4197 21.5377 35.4197 21.7282 35.4197C21.8136 35.4197 22.0237 35.4389 22.3026 35.4643C22.6452 35.4956 23.0917 35.5363 23.5381 35.5626C24.4771 35.6322 34.7606 36.5143 44.3582 37.3376L44.3644 37.3381C47.9095 37.6422 51.3606 37.9382 54.2124 38.1823C66.0725 39.2302 66.9299 39.516 68.3112 43.1835C69.4543 46.2319 68.6446 47.9943 62.4049 56.1391ZM20.0858 34.3264C20.7911 34.2196 21.521 34.2197 21.7207 34.2197H21.7282C21.8738 34.2197 22.1495 34.2451 22.4011 34.2683C22.438 34.2717 22.4743 34.275 22.5096 34.2782C22.8362 34.3079 23.2245 34.3421 23.6086 34.3647L23.6177 34.3652L23.6268 34.3659C24.5733 34.436 34.8833 35.3204 44.489 36.1444C48.0276 36.4479 51.4706 36.7433 54.3148 36.9867L54.318 36.9869C57.2797 37.2486 59.5816 37.465 61.3802 37.7002C63.168 37.934 64.533 38.195 65.5913 38.5691C66.6827 38.955 67.4915 39.476 68.1199 40.2397C68.7169 40.9651 69.0863 41.837 69.4342 42.7606L69.4348 42.7622C69.7501 43.6032 69.9641 44.4426 69.9479 45.3696C69.9316 46.2983 69.6861 47.2231 69.2183 48.2483C68.3112 50.2363 66.4547 52.8261 63.3575 56.8689L63.3569 56.8697C63.2064 57.0658 63.0607 57.259 62.9185 57.4476C62.3718 58.1724 61.8752 58.8308 61.3467 59.3368C60.598 60.0537 59.7646 60.5047 58.5667 60.7749C57.4333 61.0305 55.9507 61.1285 53.8891 61.1702C52.2688 61.203 50.2273 61.2011 47.633 61.1986C46.902 61.198 46.1272 61.1972 45.3055 61.1972C39.0606 61.1972 35.719 61.1858 33.7594 61.0763C32.7756 61.0213 32.0788 60.939 31.5091 60.8025C30.9133 60.6597 30.4991 60.4675 30.0898 60.2564C29.7382 60.0783 29.2565 59.6969 28.7814 59.2983C28.2581 58.8593 27.6111 58.2845 26.8892 57.623C25.4435 56.2983 23.6674 54.5984 21.9222 52.8801C20.1771 51.1619 18.4547 49.4171 17.1171 48.0022C16.4492 47.2956 15.8701 46.6637 15.4298 46.1547C15.21 45.9007 15.0175 45.6688 14.8631 45.4684C14.7235 45.2874 14.5678 45.0722 14.4644 44.8663C13.3879 42.7403 13.7138 40.2357 14.7629 38.2669C15.8108 36.3004 17.7066 34.6306 20.0858 34.3264ZM28.8623 40.4732L28.8535 40.4723C27.1226 40.3064 25.4497 40.164 24.1484 40.057C23.6326 40.0146 23.1699 39.9774 22.7845 39.9464C22.2194 39.9009 21.8205 39.8688 21.664 39.8534C20.8705 39.7841 20.3421 40.0005 20.0135 40.3135C19.6786 40.6324 19.4035 41.193 19.4035 42.088C19.4035 42.204 19.4122 42.2558 19.4623 42.3586C19.536 42.5098 19.7052 42.7685 20.1167 43.2365C20.942 44.1749 22.4904 45.6795 25.4125 48.4579C26.1276 49.136 26.8554 49.8231 27.5527 50.4815C29.4858 52.3066 31.1844 53.9103 31.7275 54.486L32.6812 55.4044L34.7294 55.562C36.4991 55.6999 42.0469 55.7253 47.295 55.6775C49.9043 55.6537 52.4146 55.6121 54.3082 55.5588C55.2562 55.5321 56.0419 55.5027 56.6054 55.4716C56.8459 55.4583 57.0373 55.4452 57.1796 55.4326C57.2197 55.3925 57.2666 55.3441 57.3205 55.2868C57.5326 55.0613 57.8108 54.7433 58.1396 54.3506C58.7948 53.5681 59.6151 52.5324 60.445 51.4456C61.2743 50.3596 62.1056 49.2324 62.7829 48.2687C63.4728 47.2872 63.9539 46.5438 64.1373 46.1806C64.2831 45.8708 64.328 45.317 64.1733 44.7256C64.0233 44.1521 63.7812 43.8812 63.6772 43.8067C63.659 43.8019 63.6324 43.7952 63.5956 43.7868C63.481 43.7605 63.3174 43.7285 63.1003 43.6912C62.6678 43.6171 62.0703 43.5302 61.3232 43.4328C59.8317 43.2383 57.7854 43.0074 55.3579 42.7578C50.5063 42.259 44.1598 41.6885 37.7397 41.1891C36.7851 41.1231 34.6281 40.9458 32.2374 40.7493C31.1334 40.6586 29.9795 40.5638 28.8711 40.4739L28.8623 40.4732ZM37.8274 39.9923C50.6877 40.9925 63.2623 42.2786 64.1673 42.7072C65.2628 43.2312 65.8344 45.4222 65.2152 46.7082C64.3102 48.5182 58.4516 56.1868 57.6895 56.5678C57.0703 56.8536 38.3037 57.0441 34.6361 56.7583L32.1593 56.5678L30.8733 55.3294C30.385 54.8062 28.7217 53.2358 26.7813 51.4037L26.7803 51.4027L26.7783 51.4008C26.0699 50.7319 25.3245 50.0282 24.586 49.3279C18.7751 43.8027 18.2035 43.1359 18.2035 42.088C18.2035 39.8017 19.6324 38.4681 21.7758 38.6586C21.9158 38.6726 22.2944 38.7031 22.8476 38.7476C24.1768 38.8545 26.5135 39.0424 28.9681 39.2778C30.0812 39.3681 31.237 39.4631 32.3411 39.5538L32.3504 39.5546L32.3515 39.5547C34.7394 39.7509 36.8837 39.9272 37.8274 39.9923ZM57.3869 55.4098C57.3861 55.41 57.3853 55.4101 57.3844 55.4102C57.4099 55.4046 57.4145 55.4054 57.3869 55.4098Z" fill="#08021F"/>
<defs>
<linearGradient id="paint0_linear_154_198" x1="0" y1="48.5851" x2="82" y2="48.5851" gradientUnits="userSpaceOnUse">
<stop stop-color="#BB6CE6"/>
<stop offset="1" stop-color="#FFCD1D"/>
</linearGradient>
</defs>
</svg>
