<svg width="82" height="82" viewBox="0 0 82 82" fill="none" xmlns="http://www.w3.org/2000/svg">
<circle cx="41" cy="41" r="41" fill="#F1F1F1"/>
<path d="M43.6364 61.7778H56.8182V67H25.1818V61.7778H38.3636V56.3937C33.2668 55.7571 28.5796 53.3002 25.1818 49.484C21.784 45.6678 19.9092 40.7547 19.9091 35.6667V20H62.0909V35.6667C62.0908 40.7547 60.216 45.6678 56.8182 49.484C53.4204 53.3002 48.7332 55.7571 43.6364 56.3937V61.7778ZM25.1818 35.6667C25.1818 39.8217 26.8484 43.8066 29.8149 46.7447C32.7813 49.6827 36.8048 51.3333 41 51.3333C45.1952 51.3333 49.2187 49.6827 52.1851 46.7447C55.1516 43.8066 56.8182 39.8217 56.8182 35.6667V25.2222H25.1818V35.6667ZM17.2727 25.2222V35.6667H12V25.2222H17.2727ZM70 25.2222V35.6667H64.7273V25.2222H70Z" fill="#59D89D"/>
<path fill-rule="evenodd" clip-rule="evenodd" d="M40.2583 30.928C40.0417 31.054 39.7857 31.0942 39.5409 31.0405L34.0482 29.8355C33.3368 29.6795 32.7026 30.3118 32.8565 31.0236L34.045 36.52C34.0979 36.7649 34.057 37.0208 33.9303 37.237L31.0869 42.0885C30.7187 42.7168 31.1241 43.5155 31.8487 43.589L37.4433 44.1572C37.6926 44.1825 37.9233 44.3005 38.0897 44.4878L41.8252 48.6912C42.3089 49.2356 43.1937 49.0968 43.4876 48.4305L45.7568 43.2853C45.8579 43.056 46.0414 42.8731 46.271 42.7726L51.423 40.5189C52.0902 40.227 52.2317 39.3427 51.6888 38.8573L47.4966 35.1092C47.3098 34.9422 47.1925 34.7111 47.1679 34.4617L46.6166 28.8654C46.5452 28.1407 45.7478 27.7329 45.1184 28.0992L40.2583 30.928ZM43.0938 33.9058L42.2704 34.3851C41.1876 35.0153 39.9076 35.2161 38.6838 34.9476L37.7533 34.7434L37.9546 35.6746C38.2194 36.8992 38.0148 38.1786 37.3813 39.2595L36.8996 40.0814L37.8474 40.1777C39.0939 40.3043 40.2474 40.8942 41.0797 41.8307L41.7125 42.5428L42.0969 41.6712C42.6025 40.5248 43.52 39.6101 44.6679 39.1079L45.5407 38.7261L44.8305 38.0911C43.8965 37.2561 43.31 36.1008 43.1872 34.8539L43.0938 33.9058Z" fill="#59D89D"/>
</svg>
