<svg width="82" height="82" viewBox="0 0 82 82" fill="none" xmlns="http://www.w3.org/2000/svg">
<g clip-path="url(#clip0_206_150)">
<path fill-rule="evenodd" clip-rule="evenodd" d="M41 82C63.6437 82 82 63.6437 82 41C82 18.3563 63.6437 0 41 0C18.3563 0 0 18.3563 0 41C0 63.6437 18.3563 82 41 82ZM25.1818 34.4302V25.1818H34.4302L41 19.1867L47.5698 25.1818H56.8182V34.4302L62.8133 41L56.8182 47.5698V56.8182H47.5698L41 62.8133L34.4302 56.8182H25.1818V47.5698L19.1867 41L25.1818 34.4302ZM19.9091 19.9091V32.3264L12 41L19.9091 49.6736V62.0909H32.3264L41 70L49.6736 62.0909H62.0909V49.6736L70 41L62.0909 32.3264V19.9091H49.6736L41 12L32.3264 19.9091H19.9091ZM51.6531 36.8607L48.154 33.3061L40.0028 41.5847L36.8051 38.3328L33.3061 41.8899L40.0054 48.6939L51.6531 36.8607Z" fill="black"/>
</g>
<defs>
<clipPath id="clip0_206_150">
<rect width="82" height="82" fill="white"/>
</clipPath>
</defs>
</svg>
