<svg width="82" height="82" viewBox="0 0 82 82" fill="none" xmlns="http://www.w3.org/2000/svg">
<path d="M82 41C82 63.6437 63.6437 82 41 82C18.3563 82 0 63.6437 0 41C0 18.3563 18.3563 0 41 0C63.6437 0 82 18.3563 82 41Z" fill="#F1F1F1"/>
<path d="M25.1818 25.1818V34.4302L19.1867 41L25.1818 47.5698V56.8182H34.4302L41 62.8133L47.5698 56.8182H56.8182V47.5698L62.8133 41L56.8182 34.4302V25.1818H47.5698L41 19.1867L34.4302 25.1818H25.1818ZM19.9091 32.3264V19.9091H32.3264L41 12L49.6736 19.9091H62.0909V32.3264L70 41L62.0909 49.6736V62.0909H49.6736L41 70L32.3264 62.0909H19.9091V49.6736L12 41L19.9091 32.3264Z" fill="#59D89D"/>
<path d="M48.154 33.3061L51.6531 36.8607L40.0054 48.6939L33.3061 41.8899L36.8051 38.3328L40.0028 41.5847L48.154 33.3061Z" fill="#59D89D"/>
</svg>
