<svg width="83" height="82" viewBox="0 0 83 82" fill="none" xmlns="http://www.w3.org/2000/svg">
<path d="M82.4863 41C82.4863 63.6437 64.13 82 41.4863 82C18.8427 82 0.486328 63.6437 0.486328 41C0.486328 18.3563 18.8427 0 41.4863 0C64.13 0 82.4863 18.3563 82.4863 41Z" fill="#1D1B27"/>
<path d="M30.0259 17.2256C27.4538 18.1306 26.0725 20.8456 26.0249 24.8942C26.0249 27.0376 27.5491 29.3715 29.2162 29.8002C31.3596 30.3718 52.8887 32.5151 56.2229 32.5151C60.7478 32.5151 62.7959 27.6568 59.6047 24.5608C58.6521 23.6558 56.4134 22.989 43.3149 19.7024C31.9311 16.797 31.4548 16.7493 30.0259 17.2256ZM37.9803 21.6553C43.3625 22.9413 50.0309 24.6561 54.8416 25.9421C57.9852 26.7994 58.6521 27.5139 57.5089 28.8952L57.0326 29.4668L55.5084 29.3715C44.1246 28.5142 30.4546 26.9423 29.9306 26.4184C28.6922 25.2753 29.3114 21.0361 30.788 20.4169C31.4548 20.0359 31.169 19.9882 37.9803 21.6553Z" fill="white"/>
<path d="M20.7379 35.5152C16.9275 35.9915 14.3078 40.9451 16.0225 44.3269C16.7846 45.8511 29.502 58.378 31.1215 59.1877C32.598 59.9498 33.2649 59.9975 45.7918 59.9975C60.7955 59.9975 59.7476 60.2356 62.8913 56.1394C69.1309 47.9945 69.9406 46.2321 68.7975 43.1838C67.4162 39.5162 66.5588 39.2304 54.6988 38.1825C44.1247 37.2775 25.3105 35.6581 24.0245 35.5628C23.2148 35.5152 22.405 35.4199 22.2145 35.4199C22.024 35.4199 21.3571 35.4199 20.7379 35.5152ZM29.4544 39.278C32.9791 39.5638 36.9324 39.8972 38.3137 39.9925C51.1741 40.9927 63.7486 42.2788 64.6536 42.7074C65.7491 43.2314 66.3207 45.4224 65.7015 46.7084C64.7965 48.5184 58.9379 56.187 58.1758 56.568C57.5566 56.8538 38.79 57.0443 35.1225 56.7586L32.6457 56.568L31.3596 55.3296C30.6928 54.6152 27.8349 51.9478 25.0724 49.3281C19.2614 43.803 18.6898 43.1361 18.6898 42.0882C18.6898 39.802 20.1187 38.4683 22.2621 38.6588C22.7384 38.7065 25.9773 38.9446 29.4544 39.278Z" fill="white"/>
<path fill-rule="evenodd" clip-rule="evenodd" d="M29.6362 16.0901L29.6456 16.087C30.0404 15.9554 30.4638 15.8278 31.055 15.8039C31.6112 15.7814 32.2631 15.8521 33.153 16.0153C34.9244 16.3402 37.9391 17.0919 43.6086 18.5389C50.1478 20.1797 54.0101 21.1748 56.3566 21.8745C58.6394 22.5552 59.716 23.0119 60.4304 23.6906L60.4395 23.6992C62.3824 25.5841 62.7881 28.0984 61.9114 30.167C61.0369 32.2307 58.946 33.7149 56.2221 33.7149C54.4796 33.7149 48.1889 33.17 42.1527 32.5658C39.1147 32.2617 36.1107 31.9394 33.7292 31.657C31.4111 31.382 29.5571 31.1317 28.9115 30.9609C27.6847 30.6435 26.6708 29.6916 25.9891 28.6449C25.2931 27.5764 24.8241 26.233 24.8241 24.894V24.8799C24.8741 20.6361 26.3424 17.2491 29.6268 16.0934L29.6362 16.0901ZM29.2154 29.8C31.3588 30.3715 52.8879 32.5149 56.2221 32.5149C60.747 32.5149 62.7952 27.6566 59.6039 24.5606C58.6513 23.6556 56.4126 22.9888 43.3141 19.7022C31.9304 16.7967 31.454 16.7491 30.0251 17.2254C27.4531 18.1304 26.0718 20.8454 26.0241 24.894C26.0241 27.0374 27.5483 29.3713 29.2154 29.8ZM37.6942 22.8207C37.4489 22.7607 37.2132 22.7029 36.9865 22.6474C34.034 21.9245 32.6272 21.58 31.8753 21.4504C31.6651 21.4142 31.5464 21.4029 31.487 21.3993C31.4622 21.4133 31.4282 21.4325 31.3826 21.4586L31.3189 21.495L31.2513 21.5233C31.2562 21.5213 31.2557 21.5216 31.2506 21.5258C31.2263 21.5454 31.0972 21.6496 30.9336 21.9832C30.7541 22.3492 30.6068 22.8469 30.5281 23.3922C30.4496 23.9366 30.4485 24.4673 30.5179 24.8913C30.5611 25.1544 30.6217 25.3212 30.6698 25.4194C30.746 25.4388 30.8427 25.4612 30.9618 25.4865C31.3744 25.5742 31.9694 25.6779 32.728 25.7939C34.24 26.0251 36.3371 26.2955 38.7837 26.5776C43.6722 27.1412 49.9165 27.7467 55.5902 28.1741L56.4995 28.2309L56.5837 28.1299C56.5841 28.1294 56.5846 28.1288 56.585 28.1283C56.6569 28.0414 56.7085 27.9707 56.7455 27.9152C56.6485 27.8532 56.4979 27.7708 56.2708 27.6733C55.8591 27.4964 55.2901 27.3083 54.5279 27.1003C49.7246 25.8163 43.0687 24.1049 37.7006 22.8222L37.6942 22.8207ZM54.8408 25.9419C57.9844 26.7992 58.6513 27.5137 57.5081 28.895L57.0318 29.4666L55.5076 29.3713C44.1239 28.5139 30.4538 26.9421 29.9299 26.4182C28.6915 25.275 29.3107 21.0359 30.7872 20.4167C30.8116 20.4027 30.8348 20.3892 30.857 20.3762C30.9249 20.3366 30.9846 20.3018 31.0473 20.2736C31.5033 20.0692 32.1185 20.2198 37.206 21.4657L37.9795 21.6551C43.3618 22.9411 50.0301 24.6558 54.8408 25.9419ZM62.8905 56.1391C62.7186 56.3631 62.5592 56.5742 62.4091 56.773C61.7015 57.7099 61.1987 58.3757 60.5544 58.8484C58.973 60.0087 56.5386 60.0065 48.1292 59.9986C47.3963 59.998 46.618 59.9972 45.791 59.9972C33.2641 59.9972 32.5973 59.9496 31.1207 59.1875C29.5012 58.3778 16.7838 45.8509 16.0217 44.3267C14.307 40.9449 16.9267 35.9913 20.7372 35.515C21.3564 35.4197 22.0232 35.4197 22.2137 35.4197C22.2992 35.4197 22.5093 35.4389 22.7881 35.4643C23.1308 35.4956 23.5772 35.5363 24.0237 35.5626C24.9627 35.6322 35.2461 36.5143 44.8437 37.3376L44.85 37.3381C48.395 37.6422 51.8462 37.9382 54.698 38.1823C66.5581 39.2302 67.4154 39.516 68.7967 43.1835C69.9399 46.2319 69.1301 47.9943 62.8905 56.1391ZM20.5713 34.3264C21.2767 34.2196 22.0065 34.2197 22.2062 34.2197H22.2137C22.3594 34.2197 22.6351 34.2451 22.8867 34.2683C22.9235 34.2717 22.9598 34.275 22.9952 34.2782C23.3217 34.3079 23.71 34.3421 24.0942 34.3647L24.1033 34.3652L24.1123 34.3659C25.0588 34.436 35.3688 35.3204 44.9746 36.1444C48.5132 36.4479 51.9562 36.7433 54.8003 36.9867L54.8036 36.9869C57.7652 37.2486 60.0671 37.465 61.8658 37.7002C63.6535 37.934 65.0186 38.195 66.0769 38.5691C67.1682 38.955 67.977 39.476 68.6055 40.2397C69.2025 40.9651 69.5719 41.837 69.9197 42.7606L69.9203 42.7622C70.2357 43.6032 70.4497 44.4426 70.4334 45.3696C70.4171 46.2983 70.1717 47.2231 69.7039 48.2483C68.7967 50.2363 66.9402 52.8261 63.8431 56.8689L63.8425 56.8697C63.692 57.0658 63.5463 57.259 63.404 57.4476C62.8573 58.1724 62.3607 58.8308 61.8323 59.3368C61.0836 60.0537 60.2501 60.5047 59.0523 60.7749C57.9188 61.0305 56.4363 61.1285 54.3747 61.1702C52.7544 61.203 50.7129 61.2011 48.1186 61.1986C47.3876 61.198 46.6127 61.1972 45.791 61.1972C39.5461 61.1972 36.2045 61.1858 34.245 61.0763C33.2612 61.0213 32.5644 60.939 31.9946 60.8025C31.3988 60.6597 30.9846 60.4675 30.5753 60.2564C30.2237 60.0783 29.7421 59.6969 29.267 59.2983C28.7437 58.8593 28.0967 58.2845 27.3747 57.623C25.9291 56.2983 24.1529 54.5984 22.4078 52.8801C20.6627 51.1619 18.9402 49.4171 17.6027 48.0022C16.9348 47.2956 16.3556 46.6637 15.9153 46.1547C15.6956 45.9007 15.5031 45.6688 15.3486 45.4684C15.2091 45.2874 15.0533 45.0722 14.9499 44.8663C13.8734 42.7403 14.1994 40.2357 15.2485 38.2669C16.2964 36.3004 18.1922 34.6306 20.5713 34.3264ZM29.3479 40.4732L29.3391 40.4723C27.6082 40.3064 25.9352 40.164 24.6339 40.057C24.1182 40.0146 23.6555 39.9774 23.27 39.9464C22.705 39.9009 22.306 39.8688 22.1496 39.8534C21.356 39.7841 20.8276 40.0005 20.499 40.3135C20.1642 40.6324 19.889 41.193 19.889 42.088C19.889 42.204 19.8978 42.2558 19.9478 42.3586C20.0215 42.5098 20.1907 42.7685 20.6023 43.2365C21.4276 44.1749 22.976 45.6795 25.898 48.4579C26.6131 49.136 27.3409 49.8231 28.0382 50.4815C29.9713 52.3066 31.67 53.9103 32.213 54.486L33.1667 55.4044L35.2149 55.562C36.9846 55.6999 42.5324 55.7253 47.7806 55.6775C50.3899 55.6537 52.9002 55.6121 54.7937 55.5588C55.7418 55.5321 56.5274 55.5027 57.091 55.4716C57.3315 55.4583 57.5229 55.4452 57.6651 55.4326C57.7052 55.3925 57.7521 55.3441 57.8061 55.2868C58.0182 55.0613 58.2963 54.7433 58.6251 54.3506C59.2803 53.5681 60.1007 52.5324 60.9305 51.4456C61.7598 50.3596 62.5911 49.2324 63.2685 48.2687C63.9584 47.2872 64.4395 46.5438 64.6229 46.1806C64.7687 45.8708 64.8135 45.317 64.6588 44.7256C64.5088 44.1521 64.2667 43.8812 64.1627 43.8067C64.1446 43.8019 64.1179 43.7952 64.0812 43.7868C63.9666 43.7605 63.8029 43.7285 63.5858 43.6912C63.1534 43.6171 62.5559 43.5302 61.8088 43.4328C60.3173 43.2383 58.271 43.0074 55.8434 42.7578C50.9919 42.259 44.6454 41.6885 38.2252 41.1891C37.2706 41.1231 35.1137 40.9458 32.723 40.7493C31.6189 40.6586 30.465 40.5638 29.3566 40.4739L29.3479 40.4732ZM38.313 39.9923C51.1733 40.9925 63.7478 42.2786 64.6528 42.7072C65.7483 43.2312 66.3199 45.4222 65.7007 46.7082C64.7957 48.5182 58.9371 56.1868 58.175 56.5678C57.5558 56.8536 38.7893 57.0441 35.1217 56.7583L32.6449 56.5678L31.3589 55.3294C30.8705 54.8062 29.2073 53.2358 27.2669 51.4037L27.2659 51.4027L27.2639 51.4008C26.5554 50.7319 25.8101 50.0282 25.0716 49.3279C19.2606 43.8027 18.689 43.1359 18.689 42.088C18.689 39.8017 20.118 38.4681 22.2614 38.6586C22.4014 38.6726 22.78 38.7031 23.3332 38.7476C24.6623 38.8545 26.999 39.0424 29.4536 39.2778C30.5667 39.3681 31.7225 39.4631 32.8266 39.5538L32.8359 39.5546L32.8371 39.5547C35.225 39.7509 37.3693 39.9272 38.313 39.9923ZM57.8725 55.4098C57.8717 55.41 57.8708 55.4101 57.8699 55.4102C57.8955 55.4046 57.9001 55.4054 57.8725 55.4098Z" fill="white"/>
</svg>
