<svg width="82" height="82" viewBox="0 0 82 82" fill="none" xmlns="http://www.w3.org/2000/svg">
<path d="M82 41C82 63.6437 63.6437 82 41 82C18.3563 82 0 63.6437 0 41C0 18.3563 18.3563 0 41 0C63.6437 0 82 18.3563 82 41Z" fill="url(#paint0_linear_154_198)"/>
<path d="M28.9108 39.8753L28.9108 39.8753C27.1761 39.7089 25.5001 39.5663 24.1975 39.4592C23.6711 39.416 23.203 39.3783 22.8163 39.3472C22.2566 39.3022 21.8675 39.2709 21.7195 39.2562C20.7869 39.174 20.0764 39.4252 19.5997 39.8792C19.1197 40.3364 18.8035 41.0691 18.8035 42.0882C18.8035 42.2772 18.8257 42.4222 18.9229 42.6217C19.032 42.8454 19.2431 43.1519 19.6662 43.6329C20.5134 44.5963 22.0853 46.1225 24.9989 48.8928C25.7259 49.5822 26.4628 50.278 27.166 50.9419C29.1032 52.7709 30.7847 54.3585 31.3007 54.9082L32.4203 55.9863L34.6822 56.1603L34.6828 56.1604C36.4845 56.3008 42.0627 56.3254 47.3005 56.2777C49.912 56.2539 52.4264 56.2122 54.325 56.1588C55.275 56.1321 56.0669 56.1025 56.6385 56.0709C56.9251 56.0551 57.1502 56.0391 57.3099 56.0233C57.3654 56.0178 57.4095 56.0127 57.4435 56.0081C57.4548 55.9985 57.4686 55.9863 57.4853 55.9711C57.5545 55.9079 57.6454 55.8173 57.7575 55.6981C57.981 55.4605 58.2676 55.1326 58.5996 54.736C59.2625 53.9444 60.0887 52.9011 60.9219 51.8099C61.7548 50.7192 62.5909 49.5855 63.2738 48.614C63.9635 47.6328 64.472 46.8516 64.6764 46.4443C64.9038 45.9686 64.9324 45.2571 64.7538 44.574C64.5704 43.8727 64.2247 43.4019 63.9114 43.2501M28.9108 39.8753L63.9084 43.2487C63.9094 43.2492 63.9104 43.2497 63.9114 43.2501M28.9108 39.8753L28.9196 39.8761C30.0318 39.9662 31.1884 40.0613 32.2938 40.1522C34.6832 40.3486 36.834 40.5253 37.7833 40.5909C44.2085 41.0906 50.5613 41.6617 55.4192 42.1612C57.8491 42.411 59.9015 42.6425 61.4008 42.838C62.1511 42.9358 62.7577 43.0239 63.2017 43.1001C63.4241 43.1383 63.5998 43.1724 63.7296 43.2021C63.8684 43.2339 63.9149 43.2521 63.9114 43.2501M28.9108 39.8753L63.9114 43.2501M29.3498 16.6564L29.3498 16.6563L29.3404 16.6596C26.4122 17.69 24.9874 20.7409 24.9386 24.8871L24.9386 24.8871V24.8942C24.9386 26.0995 25.3636 27.3309 26.0063 28.3177C26.6418 29.2934 27.5476 30.1147 28.5778 30.3806C29.1688 30.5375 30.9696 30.7832 33.3143 31.0614C35.691 31.3432 38.6911 31.6651 41.7269 31.969C47.7785 32.5748 54.0318 33.1151 55.7365 33.1151C58.2297 33.1151 60.0968 31.7657 60.8735 29.9331C61.6512 28.098 61.3054 25.8466 59.5361 24.1301L59.5362 24.1301L59.5316 24.1258C58.9362 23.5602 57.999 23.1354 55.6996 22.4497C53.3683 21.7545 49.52 20.7628 42.9758 19.1208C37.2951 17.6709 34.3053 16.9259 32.5592 16.6057C31.6841 16.4452 31.0836 16.3838 30.5937 16.4036C30.0864 16.4241 29.7258 16.5311 29.3498 16.6564ZM37.3513 22.2381L37.3545 22.2389C42.7296 23.5232 49.3916 25.2363 54.1986 26.5213C54.9728 26.7324 55.5729 26.9292 56.0221 27.1222C56.4813 27.3195 56.7302 27.4913 56.8525 27.6258C56.9478 27.7306 56.9528 27.7917 56.9395 27.866C56.9177 27.9881 56.8235 28.1945 56.5612 28.5116C56.5609 28.5119 56.5606 28.5123 56.5604 28.5127L56.2801 28.849L55.0671 28.7732C55.0659 28.7731 55.0646 28.773 55.0634 28.7729C49.3806 28.3449 43.1267 27.7385 38.2295 27.1739C35.7796 26.8914 33.6743 26.62 32.1517 26.3872C31.3891 26.2706 30.781 26.1649 30.3516 26.0736C30.1356 26.0278 29.9761 25.9879 29.8692 25.955C29.8445 25.9474 29.8249 25.9409 29.8098 25.9355C29.6589 25.769 29.5173 25.4589 29.4403 24.9885C29.359 24.4926 29.3633 23.899 29.4487 23.3068C29.5342 22.7141 29.6964 22.1534 29.9093 21.7193C30.1316 21.2661 30.3631 21.0417 30.5337 20.9702L30.5675 20.956L30.5993 20.9378C30.6311 20.9197 30.6581 20.9042 30.6811 20.891C30.8121 20.8158 30.8175 20.8127 30.8578 20.8053C30.9196 20.7939 31.0693 20.7865 31.4917 20.8593C32.2652 20.9927 33.6918 21.342 36.6091 22.0564C36.8465 22.1145 37.0937 22.1751 37.3513 22.2381ZM29.7739 25.9217C29.7635 25.9171 29.765 25.9169 29.7743 25.9219L29.7739 25.9217ZM62.8809 56.5046L62.8812 56.5042C65.9897 52.4466 67.7991 49.9133 68.6725 47.9994C69.1162 47.0269 69.3335 46.1842 69.3479 45.3593C69.3624 44.5352 69.1735 43.7746 68.873 42.9731L68.8727 42.9723C68.5261 42.0521 68.1851 41.2633 67.6566 40.6212C67.1124 39.9599 66.4044 39.4932 65.3913 39.1351C64.3948 38.7828 63.0812 38.528 61.3024 38.2953C59.5182 38.062 57.2286 37.8467 54.2652 37.5848L54.2636 37.5847C51.415 37.3409 47.9669 37.0451 44.4242 36.7412C34.8224 35.9176 24.5252 35.0343 23.5825 34.9645L23.5825 34.9644L23.5734 34.9639C23.1789 34.9406 22.7823 34.9057 22.4553 34.876C22.4188 34.8727 22.3825 34.8693 22.3466 34.866C22.0847 34.842 21.8435 34.8199 21.7282 34.8199H21.7241C21.5289 34.8199 20.831 34.8199 20.1687 34.9209C18.0264 35.1921 16.2748 36.7058 15.2924 38.5493C14.3094 40.3941 14.0333 42.6885 15.0004 44.597C15.076 44.7477 15.201 44.9243 15.3383 45.1024C15.4832 45.2904 15.6677 45.5129 15.8835 45.7624C16.3156 46.2619 16.888 46.8866 17.5531 47.5902C18.8843 48.9984 20.6014 50.7378 22.3432 52.4528C24.085 54.1678 25.8558 55.8624 27.2945 57.1808C28.0135 57.8396 28.6533 58.4079 29.167 58.8389C29.6563 59.2494 30.0854 59.5825 30.3629 59.7224C30.7518 59.923 31.1182 60.0921 31.6489 60.2192C32.1667 60.3433 32.8217 60.4231 33.7929 60.4774C35.7313 60.5858 39.0513 60.5975 45.3055 60.5975C46.1299 60.5975 46.9065 60.5982 47.6385 60.5989C50.2311 60.6013 52.2637 60.6032 53.877 60.5705C55.9382 60.5289 57.3664 60.4307 58.4347 60.1898C59.5353 59.9416 60.2683 59.539 60.9318 58.9037C61.4217 58.4345 61.8792 57.8284 62.4214 57.11C62.5676 56.9162 62.72 56.7143 62.8809 56.5046ZM57.507 55.998C57.51 55.9972 57.5119 55.9968 57.5123 55.9968C57.5129 55.9967 57.5112 55.9971 57.507 55.998Z" fill="#08021F" stroke="#08021F" stroke-width="1.2"/>
<defs>
<linearGradient id="paint0_linear_154_198" x1="0" y1="48.5851" x2="82" y2="48.5851" gradientUnits="userSpaceOnUse">
<stop stop-color="#BB6CE6"/>
<stop offset="1" stop-color="#FFCD1D"/>
</linearGradient>
</defs>
</svg>
