<svg width="731" height="167" viewBox="0 0 731 167" fill="none" xmlns="http://www.w3.org/2000/svg">
<g opacity="0.1">
<path d="M88.0383 1.56666H75.8821V45.7466C75.8821 47.0834 75.4017 48.2323 74.4409 49.1932C73.4801 50.1541 72.3105 50.6345 70.9319 50.6345H20.1768C18.7982 50.6345 17.6286 50.1541 16.6678 49.1932C15.707 48.2323 15.2266 47.0834 15.2266 45.7466V25.2546H3.07038V44.0546C3.07038 48.7754 4.74133 52.807 8.08324 56.1492C11.4251 59.4914 15.4563 61.1625 20.1768 61.1625H70.9319C75.6524 61.1625 79.6836 59.4914 83.0255 56.1492C86.3674 52.807 88.0383 48.7754 88.0383 44.0546V1.56666ZM89.1036 0C89.2289 0 89.3333 0.0626665 89.4169 0.188C89.5422 0.271555 89.6048 0.375999 89.6048 0.501332V44.0546C89.6048 49.1932 87.7877 53.5799 84.1534 57.2145C80.519 60.8492 76.1119 62.6665 70.9319 62.6665H20.1768C14.9968 62.6665 10.5897 60.8492 6.95535 57.2145C3.32102 53.5799 1.50386 49.1932 1.50386 44.0546V24.2519C1.50386 24.0848 1.54564 23.9595 1.62918 23.8759C1.7545 23.7924 1.87983 23.7506 2.00515 23.7506H16.2291C16.3962 23.7506 16.5215 23.7924 16.6051 23.8759C16.7304 23.9595 16.7931 24.0848 16.7931 24.2519V45.7466C16.7931 46.6657 17.1064 47.4594 17.733 48.1279C18.4014 48.7963 19.216 49.1306 20.1768 49.1306H70.9319C71.8927 49.1306 72.6864 48.7963 73.3131 48.1279C73.9814 47.4594 74.3156 46.6657 74.3156 45.7466V0.501332C74.3156 0.375999 74.3574 0.271555 74.4409 0.188C74.5663 0.0626665 74.7125 0 74.8796 0H89.1036Z" fill="url(#paint0_linear_166_517)"/>
<path d="M194.938 1.504H127.013C122.293 1.504 118.262 3.1751 114.92 6.51732C111.578 9.85953 109.907 13.8911 109.907 18.612V44.0546C109.907 48.7754 111.578 52.807 114.92 56.1492C118.262 59.4914 122.293 61.1625 127.013 61.1625H194.938V50.6345H127.013C125.677 50.6345 124.528 50.1541 123.567 49.1932C122.606 48.2323 122.126 47.0834 122.126 45.7466V36.5972H186.478V26.0693H122.126V16.92C122.126 15.5831 122.606 14.4342 123.567 13.4733C124.528 12.5124 125.677 12.032 127.013 12.032H194.938V1.504ZM195.94 0C196.107 0 196.233 0.0626665 196.316 0.188C196.4 0.271555 196.441 0.375999 196.441 0.501332V13.0346C196.441 13.16 196.4 13.2853 196.316 13.4106C196.233 13.4942 196.107 13.536 195.94 13.536H127.013C126.094 13.536 125.301 13.8702 124.632 14.5386C123.964 15.2071 123.63 16.0009 123.63 16.92V24.5653H187.481C187.648 24.5653 187.773 24.6279 187.857 24.7533C187.94 24.8368 187.982 24.9413 187.982 25.0666V37.5999C187.982 37.7252 187.94 37.8506 187.857 37.9759C187.773 38.0595 187.648 38.1012 187.481 38.1012H123.63V45.7466C123.63 46.6657 123.964 47.4594 124.632 48.1279C125.301 48.7963 126.094 49.1306 127.013 49.1306H195.94C196.107 49.1306 196.233 49.1932 196.316 49.3185C196.4 49.4021 196.441 49.5065 196.441 49.6319V62.1652C196.441 62.2905 196.4 62.4159 196.316 62.5412C196.233 62.6247 196.107 62.6665 195.94 62.6665H127.013C121.875 62.6665 117.489 60.8492 113.855 57.2145C110.22 53.5799 108.403 49.1932 108.403 44.0546V18.612C108.403 13.4733 110.22 9.08665 113.855 5.45199C117.489 1.81733 121.875 0 127.013 0H195.94Z" fill="url(#paint1_linear_166_517)"/>
<path d="M301.837 1.504H289.681V26.0693H229.025V1.504H216.869V61.1625H229.025V36.5972H289.681V61.1625H301.837V1.504ZM302.902 0C303.027 0 303.132 0.0626665 303.215 0.188C303.341 0.271555 303.403 0.375999 303.403 0.501332V62.1652C303.403 62.2905 303.341 62.4159 303.215 62.5412C303.132 62.6247 303.027 62.6665 302.902 62.6665H288.678C288.511 62.6665 288.386 62.6247 288.302 62.5412C288.218 62.4159 288.177 62.2905 288.177 62.1652V38.1012H230.591V62.1652C230.591 62.2905 230.529 62.4159 230.403 62.5412C230.32 62.6247 230.195 62.6665 230.028 62.6665H215.804C215.678 62.6665 215.553 62.6247 215.428 62.5412C215.344 62.4159 215.302 62.2905 215.302 62.1652V0.501332C215.302 0.375999 215.344 0.271555 215.428 0.188C215.553 0.0626665 215.678 0 215.804 0H230.028C230.195 0 230.32 0.0626665 230.403 0.188C230.529 0.271555 230.591 0.375999 230.591 0.501332V24.5653H288.177V0.501332C288.177 0.375999 288.218 0.271555 288.302 0.188C288.386 0.0626665 288.511 0 288.678 0H302.902Z" fill="url(#paint2_linear_166_517)"/>
<path d="M391.63 1.504H340.812C336.091 1.504 332.06 3.1751 328.718 6.51732C325.376 9.85953 323.705 13.8911 323.705 18.612V44.0546C323.705 48.7754 325.376 52.807 328.718 56.1492C332.06 59.4914 336.091 61.1625 340.812 61.1625H391.63C396.35 61.1625 400.381 59.4914 403.723 56.1492C407.065 52.807 408.736 48.7754 408.736 44.0546V18.612C408.736 13.8911 407.065 9.85953 403.723 6.51732C400.381 3.1751 396.35 1.504 391.63 1.504ZM340.812 50.6345C339.475 50.6345 338.326 50.1541 337.365 49.1932C336.405 48.2323 335.924 47.0834 335.924 45.7466V16.92C335.924 15.5831 336.405 14.4342 337.365 13.4733C338.326 12.5124 339.475 12.032 340.812 12.032H391.63C393.008 12.032 394.178 12.5124 395.139 13.4733C396.099 14.4342 396.58 15.5831 396.58 16.92V45.7466C396.58 47.0834 396.099 48.2323 395.139 49.1932C394.178 50.1541 393.008 50.6345 391.63 50.6345H340.812ZM391.63 0C396.768 0 401.154 1.81733 404.788 5.45199C408.423 9.08665 410.24 13.4733 410.24 18.612V44.0546C410.24 49.1932 408.423 53.5799 404.788 57.2145C401.154 60.8492 396.768 62.6665 391.63 62.6665H340.812C335.674 62.6665 331.287 60.8492 327.653 57.2145C324.019 53.5799 322.201 49.1932 322.201 44.0546V18.612C322.201 13.4733 324.019 9.08665 327.653 5.45199C331.287 1.81733 335.674 0 340.812 0H391.63ZM340.812 49.1306H391.63C392.549 49.1306 393.342 48.7963 394.011 48.1279C394.679 47.4594 395.013 46.6657 395.013 45.7466V16.92C395.013 16.0009 394.679 15.2071 394.011 14.5386C393.342 13.8702 392.549 13.536 391.63 13.536H340.812C339.893 13.536 339.099 13.8702 338.431 14.5386C337.762 15.2071 337.428 16.0009 337.428 16.92V45.7466C337.428 46.6657 337.762 47.4594 338.431 48.1279C339.099 48.7963 339.893 49.1306 340.812 49.1306Z" fill="url(#paint3_linear_166_517)"/>
<path d="M515.635 1.62933H503.416V27.0719C503.416 28.7848 502.643 30.1844 501.098 31.2706L474.843 47.5639C474.3 47.8981 473.736 48.0652 473.151 48.0652C472.525 48.0652 471.961 47.8981 471.459 47.5639L445.142 31.2706C443.596 30.1844 442.823 28.7848 442.823 27.0719V1.62933H430.605V29.8919C430.605 34.0697 432.505 37.4746 436.307 40.1066L467.7 59.5959C469.412 60.6403 471.23 61.1625 473.151 61.1625C475.073 61.1625 476.89 60.6403 478.603 59.5959L509.933 40.1066C513.734 37.4746 515.635 34.0697 515.635 29.8919V1.62933ZM516.638 0.0626665C516.805 0.0626665 516.93 0.125333 517.014 0.250666C517.097 0.334221 517.139 0.438666 517.139 0.563999V29.8919C517.139 34.6128 515.009 38.4564 510.748 41.4226L479.355 60.8492C477.349 62.0607 475.282 62.6665 473.151 62.6665C470.979 62.6665 468.89 62.0607 466.885 60.8492L435.492 41.4226C431.231 38.4564 429.101 34.6128 429.101 29.8919V0.563999C429.101 0.438666 429.142 0.334221 429.226 0.250666C429.351 0.125333 429.477 0.0626665 429.602 0.0626665H443.826C443.993 0.0626665 444.118 0.125333 444.202 0.250666C444.285 0.334221 444.327 0.438666 444.327 0.563999V27.0719C444.327 28.2417 444.87 29.2026 445.956 29.9546L472.211 46.2479C472.504 46.415 472.817 46.4986 473.151 46.4986C473.444 46.4986 473.736 46.415 474.028 46.2479L500.346 29.9546C501.39 29.2026 501.912 28.2417 501.912 27.0719V0.563999C501.912 0.438666 501.954 0.334221 502.038 0.250666C502.163 0.125333 502.288 0.0626665 502.414 0.0626665H516.638Z" fill="url(#paint4_linear_166_517)"/>
<path d="M605.428 1.504H554.61C549.89 1.504 545.858 3.1751 542.517 6.51732C539.175 9.85953 537.504 13.8911 537.504 18.612V61.1625H549.723V41.6732H610.315V61.1625H622.534V18.612C622.534 13.8911 620.863 9.85953 617.521 6.51732C614.18 3.1751 610.148 1.504 605.428 1.504ZM549.723 31.1453V16.92C549.723 15.5831 550.203 14.4342 551.164 13.4733C552.125 12.5124 553.273 12.032 554.61 12.032H605.428C606.765 12.032 607.914 12.5124 608.874 13.4733C609.835 14.4342 610.315 15.5831 610.315 16.92V31.1453H549.723ZM605.428 0C610.566 0 614.952 1.81733 618.587 5.45199C622.221 9.08665 624.038 13.4733 624.038 18.612V62.1652C624.038 62.2905 623.976 62.4159 623.85 62.5412C623.767 62.6247 623.662 62.6665 623.537 62.6665H609.313C609.188 62.6665 609.062 62.6247 608.937 62.5412C608.853 62.4159 608.812 62.2905 608.812 62.1652V43.1772H551.226V62.1652C551.226 62.2905 551.164 62.4159 551.038 62.5412C550.955 62.6247 550.85 62.6665 550.725 62.6665H536.501C536.334 62.6665 536.209 62.6247 536.125 62.5412C536.042 62.4159 536 62.2905 536 62.1652V18.612C536 13.4733 537.817 9.08665 541.451 5.45199C545.086 1.81733 549.472 0 554.61 0H605.428ZM551.226 29.6413H608.812V16.92C608.812 16.0009 608.477 15.2071 607.809 14.5386C607.141 13.8702 606.347 13.536 605.428 13.536H554.61C553.691 13.536 552.897 13.8702 552.229 14.5386C551.561 15.2071 551.226 16.0009 551.226 16.92V29.6413Z" fill="url(#paint5_linear_166_517)"/>
<path d="M729.434 1.504H717.277V26.0693H656.622V1.504H644.466V61.1625H656.622V36.5972H717.277V61.1625H729.434V1.504ZM730.499 0C730.624 0 730.729 0.0626665 730.812 0.188C730.938 0.271555 731 0.375999 731 0.501332V62.1652C731 62.2905 730.938 62.4159 730.812 62.5412C730.729 62.6247 730.624 62.6665 730.499 62.6665H716.275C716.108 62.6665 715.982 62.6247 715.899 62.5412C715.815 62.4159 715.773 62.2905 715.773 62.1652V38.1012H658.188V62.1652C658.188 62.2905 658.126 62.4159 658 62.5412C657.917 62.6247 657.791 62.6665 657.624 62.6665H643.4C643.275 62.6665 643.15 62.6247 643.024 62.5412C642.941 62.4159 642.899 62.2905 642.899 62.1652V0.501332C642.899 0.375999 642.941 0.271555 643.024 0.188C643.15 0.0626665 643.275 0 643.4 0H657.624C657.791 0 657.917 0.0626665 658 0.188C658.126 0.271555 658.188 0.375999 658.188 0.501332V24.5653H715.773V0.501332C715.773 0.375999 715.815 0.271555 715.899 0.188C715.982 0.0626665 716.108 0 716.275 0H730.499Z" fill="url(#paint6_linear_166_517)"/>
<path d="M86.5344 105.9H74.3156V154.968H66.8589C65.2298 154.968 63.8721 154.237 62.786 152.775L35.2153 111.728C32.5417 107.968 28.8866 106.025 24.2497 105.9H1.50378V165.496H13.7227V116.365H21.1166C22.7876 116.365 24.1661 117.097 25.2523 118.559L52.8229 159.605C55.4547 163.407 59.1099 165.371 63.7886 165.496H86.5344V105.9ZM87.537 104.333C87.6623 104.333 87.7668 104.396 87.8503 104.521C87.9756 104.605 88.0383 104.709 88.0383 104.835V166.499C88.0383 166.666 87.9756 166.791 87.8503 166.875C87.7668 166.958 87.6623 167 87.537 167H63.7886C58.5669 166.875 54.4939 164.702 51.5697 160.483L23.9991 119.436C23.2471 118.433 22.2863 117.932 21.1166 117.932H15.2265V166.499C15.2265 166.666 15.1638 166.791 15.0385 166.875C14.9549 166.958 14.8505 167 14.7252 167H0.501259C0.334164 167 0.20881 166.958 0.125262 166.875C0.0417147 166.791 -4.19639e-05 166.666 -4.19639e-05 166.499V104.835C-4.19639e-05 104.709 0.0417147 104.605 0.125262 104.521C0.20881 104.396 0.334164 104.333 0.501259 104.333H24.2497C29.4714 104.501 33.5443 106.694 36.4685 110.913L64.0392 151.96C64.7911 152.963 65.731 153.464 66.8589 153.464H72.8117V104.835C72.8117 104.709 72.8535 104.605 72.9371 104.521C73.0624 104.396 73.1877 104.333 73.313 104.333H87.537Z" fill="url(#paint7_linear_166_517)"/>
<path d="M176.327 105.837H125.509C120.789 105.837 116.758 107.509 113.416 110.851C110.074 114.193 108.403 118.225 108.403 122.945V148.388C108.403 153.109 110.074 157.14 113.416 160.483C116.758 163.825 120.789 165.496 125.509 165.496H176.327C181.048 165.496 185.079 163.825 188.421 160.483C191.763 157.14 193.434 153.109 193.434 148.388V122.945C193.434 118.225 191.763 114.193 188.421 110.851C185.079 107.509 181.048 105.837 176.327 105.837ZM125.509 154.968C124.173 154.968 123.024 154.488 122.063 153.527C121.102 152.566 120.622 151.417 120.622 150.08V121.253C120.622 119.917 121.102 118.768 122.063 117.807C123.024 116.846 124.173 116.365 125.509 116.365H176.327C177.706 116.365 178.875 116.846 179.836 117.807C180.797 118.768 181.277 119.917 181.277 121.253V150.08C181.277 151.417 180.797 152.566 179.836 153.527C178.875 154.488 177.706 154.968 176.327 154.968H125.509ZM176.327 104.333C181.465 104.333 185.852 106.151 189.486 109.785C193.12 113.42 194.938 117.807 194.938 122.945V148.388C194.938 153.527 193.12 157.913 189.486 161.548C185.852 165.183 181.465 167 176.327 167H125.509C120.371 167 115.985 165.183 112.351 161.548C108.716 157.913 106.899 153.527 106.899 148.388V122.945C106.899 117.807 108.716 113.42 112.351 109.785C115.985 106.151 120.371 104.333 125.509 104.333H176.327ZM125.509 153.464H176.327C177.246 153.464 178.04 153.13 178.708 152.461C179.377 151.793 179.711 150.999 179.711 150.08V121.253C179.711 120.334 179.377 119.541 178.708 118.872C178.04 118.204 177.246 117.869 176.327 117.869H125.509C124.59 117.869 123.797 118.204 123.128 118.872C122.46 119.541 122.126 120.334 122.126 121.253V150.08C122.126 150.999 122.46 151.793 123.128 152.461C123.797 153.13 124.59 153.464 125.509 153.464Z" fill="url(#paint8_linear_166_517)"/>
<path d="M283.226 105.837H215.302V165.496H283.226C287.947 165.496 291.978 163.825 295.32 160.483C298.662 157.14 300.333 153.109 300.333 148.388V122.945C300.333 118.225 298.662 114.193 295.32 110.851C291.978 107.509 287.947 105.837 283.226 105.837ZM227.521 154.968V116.365H283.226C284.563 116.365 285.712 116.846 286.673 117.807C287.634 118.768 288.114 119.917 288.114 121.253V150.08C288.114 151.417 287.634 152.566 286.673 153.527C285.712 154.488 284.563 154.968 283.226 154.968H227.521ZM283.226 104.333C288.365 104.333 292.751 106.151 296.385 109.785C300.02 113.42 301.837 117.807 301.837 122.945V148.388C301.837 153.527 300.02 157.913 296.385 161.548C292.751 165.183 288.365 167 283.226 167H214.3C214.174 167 214.049 166.958 213.924 166.875C213.84 166.749 213.798 166.624 213.798 166.499V104.835C213.798 104.709 213.84 104.605 213.924 104.521C214.049 104.396 214.174 104.333 214.3 104.333H283.226ZM229.025 153.464H283.226C284.145 153.464 284.939 153.13 285.608 152.461C286.276 151.793 286.61 150.999 286.61 150.08V121.253C286.61 120.334 286.276 119.541 285.608 118.872C284.939 118.204 284.145 117.869 283.226 117.869H229.025V153.464Z" fill="url(#paint9_linear_166_517)"/>
<path d="M407.232 105.837H339.308C334.587 105.837 330.556 107.509 327.214 110.851C323.872 114.193 322.201 118.225 322.201 122.945V148.388C322.201 153.109 323.872 157.14 327.214 160.483C330.556 163.825 334.587 165.496 339.308 165.496H407.232V154.968H339.308C337.971 154.968 336.822 154.488 335.861 153.527C334.901 152.566 334.42 151.417 334.42 150.08V140.931H398.773V130.403H334.42V121.253C334.42 119.917 334.901 118.768 335.861 117.807C336.822 116.846 337.971 116.365 339.308 116.365H407.232V105.837ZM408.235 104.333C408.402 104.333 408.527 104.396 408.611 104.521C408.694 104.605 408.736 104.709 408.736 104.835V117.368C408.736 117.493 408.694 117.619 408.611 117.744C408.527 117.828 408.402 117.869 408.235 117.869H339.308C338.389 117.869 337.595 118.204 336.927 118.872C336.258 119.541 335.924 120.334 335.924 121.253V128.899H399.775C399.943 128.899 400.068 128.961 400.151 129.087C400.235 129.17 400.277 129.275 400.277 129.4V141.933C400.277 142.059 400.235 142.184 400.151 142.309C400.068 142.393 399.943 142.435 399.775 142.435H335.924V150.08C335.924 150.999 336.258 151.793 336.927 152.461C337.595 153.13 338.389 153.464 339.308 153.464H408.235C408.402 153.464 408.527 153.527 408.611 153.652C408.694 153.736 408.736 153.84 408.736 153.965V166.499C408.736 166.624 408.694 166.749 408.611 166.875C408.527 166.958 408.402 167 408.235 167H339.308C334.17 167 329.783 165.183 326.149 161.548C322.515 157.913 320.698 153.527 320.698 148.388V122.945C320.698 117.807 322.515 113.42 326.149 109.785C329.783 106.151 334.17 104.333 339.308 104.333H408.235Z" fill="url(#paint10_linear_166_517)"/>
</g>
<defs>
<linearGradient id="paint0_linear_166_517" x1="0" y1="98.9476" x2="731" y2="98.9476" gradientUnits="userSpaceOnUse">
<stop stop-color="#BB6CE6"/>
<stop offset="1" stop-color="#FFCD1D"/>
</linearGradient>
<linearGradient id="paint1_linear_166_517" x1="0" y1="98.9476" x2="731" y2="98.9476" gradientUnits="userSpaceOnUse">
<stop stop-color="#BB6CE6"/>
<stop offset="1" stop-color="#FFCD1D"/>
</linearGradient>
<linearGradient id="paint2_linear_166_517" x1="0" y1="98.9476" x2="731" y2="98.9476" gradientUnits="userSpaceOnUse">
<stop stop-color="#BB6CE6"/>
<stop offset="1" stop-color="#FFCD1D"/>
</linearGradient>
<linearGradient id="paint3_linear_166_517" x1="0" y1="98.9476" x2="731" y2="98.9476" gradientUnits="userSpaceOnUse">
<stop stop-color="#BB6CE6"/>
<stop offset="1" stop-color="#FFCD1D"/>
</linearGradient>
<linearGradient id="paint4_linear_166_517" x1="0" y1="98.9476" x2="731" y2="98.9476" gradientUnits="userSpaceOnUse">
<stop stop-color="#BB6CE6"/>
<stop offset="1" stop-color="#FFCD1D"/>
</linearGradient>
<linearGradient id="paint5_linear_166_517" x1="0" y1="98.9476" x2="731" y2="98.9476" gradientUnits="userSpaceOnUse">
<stop stop-color="#BB6CE6"/>
<stop offset="1" stop-color="#FFCD1D"/>
</linearGradient>
<linearGradient id="paint6_linear_166_517" x1="0" y1="98.9476" x2="731" y2="98.9476" gradientUnits="userSpaceOnUse">
<stop stop-color="#BB6CE6"/>
<stop offset="1" stop-color="#FFCD1D"/>
</linearGradient>
<linearGradient id="paint7_linear_166_517" x1="0" y1="98.9476" x2="731" y2="98.9476" gradientUnits="userSpaceOnUse">
<stop stop-color="#BB6CE6"/>
<stop offset="1" stop-color="#FFCD1D"/>
</linearGradient>
<linearGradient id="paint8_linear_166_517" x1="0" y1="98.9476" x2="731" y2="98.9476" gradientUnits="userSpaceOnUse">
<stop stop-color="#BB6CE6"/>
<stop offset="1" stop-color="#FFCD1D"/>
</linearGradient>
<linearGradient id="paint9_linear_166_517" x1="0" y1="98.9476" x2="731" y2="98.9476" gradientUnits="userSpaceOnUse">
<stop stop-color="#BB6CE6"/>
<stop offset="1" stop-color="#FFCD1D"/>
</linearGradient>
<linearGradient id="paint10_linear_166_517" x1="0" y1="98.9476" x2="731" y2="98.9476" gradientUnits="userSpaceOnUse">
<stop stop-color="#BB6CE6"/>
<stop offset="1" stop-color="#FFCD1D"/>
</linearGradient>
</defs>
</svg>
