<svg width="24" height="24" viewBox="0 0 24 24" fill="none" xmlns="http://www.w3.org/2000/svg">
<path fill-rule="evenodd" clip-rule="evenodd" d="M3.87674 3.48956C1.22435 4.25787 -0.302988 7.0309 0.465328 9.68329L3.48956 20.1236C4.25787 22.7759 7.0309 24.3033 9.68329 23.535L20.1236 20.5107C22.7759 19.7424 24.3033 16.9694 23.535 14.317L20.5107 3.87674C19.7424 1.22435 16.9694 -0.302988 14.317 0.465328L3.87674 3.48956ZM14.6612 11.5637C13.8359 12.1895 13.0358 12.7962 13.1609 13.8753H11.1418C10.9553 12.4806 11.9577 11.7058 12.85 11.0161C13.5178 10.5 14.1238 10.0316 14.1238 9.38683C14.1238 8.43944 13.3783 7.91138 12.1513 7.91138C11.2039 7.91138 10.4274 8.34625 9.66637 9.13833L8.39282 7.9735C9.38681 6.8242 10.7535 6.06318 12.4154 6.06318C14.6674 6.06318 16.3137 7.11929 16.3137 9.18493C16.3137 10.3108 15.4752 10.9466 14.6612 11.5637ZM13.5336 16.6399C13.5336 17.4475 12.9434 18.0221 12.1669 18.0221C11.3593 18.0221 10.7846 17.4475 10.7846 16.6399C10.7846 15.8322 11.3748 15.2731 12.1669 15.2731C12.9434 15.2731 13.5336 15.8322 13.5336 16.6399Z" fill="#05C8C8"/>
</svg>
