<svg width="24" height="24" viewBox="0 0 24 24" fill="none" xmlns="http://www.w3.org/2000/svg">
<path fill-rule="evenodd" clip-rule="evenodd" d="M3.87674 3.48943C1.22435 4.25775 -0.302988 7.03078 0.465328 9.68317L3.48956 20.1234C4.25787 22.7758 7.0309 24.3032 9.68329 23.5348L20.1236 20.5106C22.7759 19.7423 24.3033 16.9693 23.535 14.3169L20.5107 3.87662C19.7424 1.22423 16.9694 -0.30311 14.317 0.465206L3.87674 3.48943ZM14.6612 11.5636C13.8359 12.1894 13.0358 12.7961 13.1609 13.8752H11.1418C10.9553 12.4805 11.9577 11.7057 12.85 11.016C13.5178 10.4999 14.1238 10.0315 14.1238 9.38671C14.1238 8.43931 13.3783 7.91126 12.1513 7.91126C11.2039 7.91126 10.4274 8.34613 9.66637 9.13821L8.39282 7.97338C9.38681 6.82408 10.7535 6.06306 12.4154 6.06306C14.6674 6.06306 16.3137 7.11917 16.3137 9.18481C16.3137 10.3107 15.4752 10.9464 14.6612 11.5636ZM13.5336 16.6397C13.5336 17.4473 12.9434 18.022 12.1669 18.022C11.3593 18.022 10.7846 17.4473 10.7846 16.6397C10.7846 15.8321 11.3748 15.273 12.1669 15.273C12.9434 15.273 13.5336 15.8321 13.5336 16.6397Z" fill="#FFCD1D"/>
</svg>
